<?xml version="1.0" encoding="utf-8"?>
<svg xmlns="http://www.w3.org/2000/svg" xmlns:xlink="http://www.w3.org/1999/xlink" width="720" height="480" viewBox="0 0 2880 1920">
<defs>
  <clipPath id="clip220">
    <rect x="0" y="0" width="2880" height="1920"/>
  </clipPath>
</defs>
<path clip-path="url(#clip220)" d="
M0 1920 L2880 1920 L2880 0 L0 0  Z
  " fill="#ffffff" fill-rule="evenodd" fill-opacity="1"/>
<defs>
  <clipPath id="clip221">
    <rect x="576" y="0" width="2017" height="1920"/>
  </clipPath>
</defs>
<path clip-path="url(#clip220)" d="
M130.056 1739.98 L1374.16 1739.98 L1374.16 123.472 L130.056 123.472  Z
  " fill="#ffffff" fill-rule="evenodd" fill-opacity="1"/>
<defs>
  <clipPath id="clip222">
    <rect x="130" y="123" width="1245" height="1618"/>
  </clipPath>
</defs>
<polyline clip-path="url(#clip222)" style="stroke:#000000; stroke-width:2; stroke-opacity:0.1; fill:none" points="
  165.266,1739.98 165.266,123.472 
  "/>
<polyline clip-path="url(#clip222)" style="stroke:#000000; stroke-width:2; stroke-opacity:0.1; fill:none" points="
  458.686,1739.98 458.686,123.472 
  "/>
<polyline clip-path="url(#clip222)" style="stroke:#000000; stroke-width:2; stroke-opacity:0.1; fill:none" points="
  752.106,1739.98 752.106,123.472 
  "/>
<polyline clip-path="url(#clip222)" style="stroke:#000000; stroke-width:2; stroke-opacity:0.1; fill:none" points="
  1045.53,1739.98 1045.53,123.472 
  "/>
<polyline clip-path="url(#clip222)" style="stroke:#000000; stroke-width:2; stroke-opacity:0.1; fill:none" points="
  1338.95,1739.98 1338.95,123.472 
  "/>
<polyline clip-path="url(#clip222)" style="stroke:#000000; stroke-width:2; stroke-opacity:0.1; fill:none" points="
  130.056,1516.41 1374.16,1516.41 
  "/>
<polyline clip-path="url(#clip222)" style="stroke:#000000; stroke-width:2; stroke-opacity:0.1; fill:none" points="
  130.056,1179.59 1374.16,1179.59 
  "/>
<polyline clip-path="url(#clip222)" style="stroke:#000000; stroke-width:2; stroke-opacity:0.1; fill:none" points="
  130.056,842.768 1374.16,842.768 
  "/>
<polyline clip-path="url(#clip222)" style="stroke:#000000; stroke-width:2; stroke-opacity:0.1; fill:none" points="
  130.056,505.947 1374.16,505.947 
  "/>
<polyline clip-path="url(#clip222)" style="stroke:#000000; stroke-width:2; stroke-opacity:0.1; fill:none" points="
  130.056,169.126 1374.16,169.126 
  "/>
<polyline clip-path="url(#clip220)" style="stroke:#000000; stroke-width:4; stroke-opacity:1; fill:none" points="
  130.056,1739.98 1374.16,1739.98 
  "/>
<polyline clip-path="url(#clip220)" style="stroke:#000000; stroke-width:4; stroke-opacity:1; fill:none" points="
  130.056,1739.98 130.056,123.472 
  "/>
<polyline clip-path="url(#clip220)" style="stroke:#000000; stroke-width:4; stroke-opacity:1; fill:none" points="
  165.266,1739.98 165.266,1720.58 
  "/>
<polyline clip-path="url(#clip220)" style="stroke:#000000; stroke-width:4; stroke-opacity:1; fill:none" points="
  458.686,1739.98 458.686,1720.58 
  "/>
<polyline clip-path="url(#clip220)" style="stroke:#000000; stroke-width:4; stroke-opacity:1; fill:none" points="
  752.106,1739.98 752.106,1720.58 
  "/>
<polyline clip-path="url(#clip220)" style="stroke:#000000; stroke-width:4; stroke-opacity:1; fill:none" points="
  1045.53,1739.98 1045.53,1720.58 
  "/>
<polyline clip-path="url(#clip220)" style="stroke:#000000; stroke-width:4; stroke-opacity:1; fill:none" points="
  1338.95,1739.98 1338.95,1720.58 
  "/>
<polyline clip-path="url(#clip220)" style="stroke:#000000; stroke-width:4; stroke-opacity:1; fill:none" points="
  130.056,1516.41 144.985,1516.41 
  "/>
<polyline clip-path="url(#clip220)" style="stroke:#000000; stroke-width:4; stroke-opacity:1; fill:none" points="
  130.056,1179.59 144.985,1179.59 
  "/>
<polyline clip-path="url(#clip220)" style="stroke:#000000; stroke-width:4; stroke-opacity:1; fill:none" points="
  130.056,842.768 144.985,842.768 
  "/>
<polyline clip-path="url(#clip220)" style="stroke:#000000; stroke-width:4; stroke-opacity:1; fill:none" points="
  130.056,505.947 144.985,505.947 
  "/>
<polyline clip-path="url(#clip220)" style="stroke:#000000; stroke-width:4; stroke-opacity:1; fill:none" points="
  130.056,169.126 144.985,169.126 
  "/>
<path clip-path="url(#clip220)" d="M 0 0 M133.276 1764.37 Q129.665 1764.37 127.836 1767.94 Q126.03 1771.48 126.03 1778.61 Q126.03 1785.71 127.836 1789.28 Q129.665 1792.82 133.276 1792.82 Q136.91 1792.82 138.715 1789.28 Q140.544 1785.71 140.544 1778.61 Q140.544 1771.48 138.715 1767.94 Q136.91 1764.37 133.276 1764.37 M133.276 1760.67 Q139.086 1760.67 142.141 1765.27 Q145.22 1769.86 145.22 1778.61 Q145.22 1787.33 142.141 1791.94 Q139.086 1796.52 133.276 1796.52 Q127.465 1796.52 124.387 1791.94 Q121.331 1787.33 121.331 1778.61 Q121.331 1769.86 124.387 1765.27 Q127.465 1760.67 133.276 1760.67 Z" fill="#000000" fill-rule="evenodd" fill-opacity="1" /><path clip-path="url(#clip220)" d="M 0 0 M150.289 1789.97 L155.174 1789.97 L155.174 1795.85 L150.289 1795.85 L150.289 1789.97 Z" fill="#000000" fill-rule="evenodd" fill-opacity="1" /><path clip-path="url(#clip220)" d="M 0 0 M170.243 1764.37 Q166.632 1764.37 164.803 1767.94 Q162.998 1771.48 162.998 1778.61 Q162.998 1785.71 164.803 1789.28 Q166.632 1792.82 170.243 1792.82 Q173.877 1792.82 175.683 1789.28 Q177.512 1785.71 177.512 1778.61 Q177.512 1771.48 175.683 1767.94 Q173.877 1764.37 170.243 1764.37 M170.243 1760.67 Q176.053 1760.67 179.109 1765.27 Q182.187 1769.86 182.187 1778.61 Q182.187 1787.33 179.109 1791.94 Q176.053 1796.52 170.243 1796.52 Q164.433 1796.52 161.354 1791.94 Q158.299 1787.33 158.299 1778.61 Q158.299 1769.86 161.354 1765.27 Q164.433 1760.67 170.243 1760.67 Z" fill="#000000" fill-rule="evenodd" fill-opacity="1" /><path clip-path="url(#clip220)" d="M 0 0 M197.257 1764.37 Q193.646 1764.37 191.817 1767.94 Q190.011 1771.48 190.011 1778.61 Q190.011 1785.71 191.817 1789.28 Q193.646 1792.82 197.257 1792.82 Q200.891 1792.82 202.697 1789.28 Q204.525 1785.71 204.525 1778.61 Q204.525 1771.48 202.697 1767.94 Q200.891 1764.37 197.257 1764.37 M197.257 1760.67 Q203.067 1760.67 206.122 1765.27 Q209.201 1769.86 209.201 1778.61 Q209.201 1787.33 206.122 1791.94 Q203.067 1796.52 197.257 1796.52 Q191.447 1796.52 188.368 1791.94 Q185.312 1787.33 185.312 1778.61 Q185.312 1769.86 188.368 1765.27 Q191.447 1760.67 197.257 1760.67 Z" fill="#000000" fill-rule="evenodd" fill-opacity="1" /><path clip-path="url(#clip220)" d="M 0 0 M427.992 1764.37 Q424.381 1764.37 422.552 1767.94 Q420.747 1771.48 420.747 1778.61 Q420.747 1785.71 422.552 1789.28 Q424.381 1792.82 427.992 1792.82 Q431.626 1792.82 433.432 1789.28 Q435.26 1785.71 435.26 1778.61 Q435.26 1771.48 433.432 1767.94 Q431.626 1764.37 427.992 1764.37 M427.992 1760.67 Q433.802 1760.67 436.858 1765.27 Q439.936 1769.86 439.936 1778.61 Q439.936 1787.33 436.858 1791.94 Q433.802 1796.52 427.992 1796.52 Q422.182 1796.52 419.103 1791.94 Q416.048 1787.33 416.048 1778.61 Q416.048 1769.86 419.103 1765.27 Q422.182 1760.67 427.992 1760.67 Z" fill="#000000" fill-rule="evenodd" fill-opacity="1" /><path clip-path="url(#clip220)" d="M 0 0 M445.006 1789.97 L449.89 1789.97 L449.89 1795.85 L445.006 1795.85 L445.006 1789.97 Z" fill="#000000" fill-rule="evenodd" fill-opacity="1" /><path clip-path="url(#clip220)" d="M 0 0 M458.987 1791.92 L475.306 1791.92 L475.306 1795.85 L453.362 1795.85 L453.362 1791.92 Q456.024 1789.16 460.607 1784.53 Q465.214 1779.88 466.394 1778.54 Q468.64 1776.01 469.519 1774.28 Q470.422 1772.52 470.422 1770.83 Q470.422 1768.07 468.478 1766.34 Q466.557 1764.6 463.455 1764.6 Q461.256 1764.6 458.802 1765.37 Q456.371 1766.13 453.594 1767.68 L453.594 1762.96 Q456.418 1761.82 458.871 1761.25 Q461.325 1760.67 463.362 1760.67 Q468.732 1760.67 471.927 1763.35 Q475.121 1766.04 475.121 1770.53 Q475.121 1772.66 474.311 1774.58 Q473.524 1776.48 471.418 1779.07 Q470.839 1779.74 467.737 1782.96 Q464.635 1786.15 458.987 1791.92 Z" fill="#000000" fill-rule="evenodd" fill-opacity="1" /><path clip-path="url(#clip220)" d="M 0 0 M480.422 1761.29 L498.779 1761.29 L498.779 1765.23 L484.705 1765.23 L484.705 1773.7 Q485.723 1773.35 486.742 1773.19 Q487.76 1773 488.779 1773 Q494.566 1773 497.945 1776.18 Q501.325 1779.35 501.325 1784.76 Q501.325 1790.34 497.853 1793.44 Q494.38 1796.52 488.061 1796.52 Q485.885 1796.52 483.617 1796.15 Q481.371 1795.78 478.964 1795.04 L478.964 1790.34 Q481.047 1791.48 483.269 1792.03 Q485.492 1792.59 487.968 1792.59 Q491.973 1792.59 494.311 1790.48 Q496.649 1788.38 496.649 1784.76 Q496.649 1781.15 494.311 1779.05 Q491.973 1776.94 487.968 1776.94 Q486.093 1776.94 484.218 1777.36 Q482.367 1777.77 480.422 1778.65 L480.422 1761.29 Z" fill="#000000" fill-rule="evenodd" fill-opacity="1" /><path clip-path="url(#clip220)" d="M 0 0 M720.613 1764.37 Q717.002 1764.37 715.173 1767.94 Q713.368 1771.48 713.368 1778.61 Q713.368 1785.71 715.173 1789.28 Q717.002 1792.82 720.613 1792.82 Q724.247 1792.82 726.053 1789.28 Q727.882 1785.71 727.882 1778.61 Q727.882 1771.48 726.053 1767.94 Q724.247 1764.37 720.613 1764.37 M720.613 1760.67 Q726.423 1760.67 729.479 1765.27 Q732.558 1769.86 732.558 1778.61 Q732.558 1787.33 729.479 1791.94 Q726.423 1796.52 720.613 1796.52 Q714.803 1796.52 711.724 1791.94 Q708.669 1787.33 708.669 1778.61 Q708.669 1769.86 711.724 1765.27 Q714.803 1760.67 720.613 1760.67 Z" fill="#000000" fill-rule="evenodd" fill-opacity="1" /><path clip-path="url(#clip220)" d="M 0 0 M737.627 1789.97 L742.511 1789.97 L742.511 1795.85 L737.627 1795.85 L737.627 1789.97 Z" fill="#000000" fill-rule="evenodd" fill-opacity="1" /><path clip-path="url(#clip220)" d="M 0 0 M747.627 1761.29 L765.983 1761.29 L765.983 1765.23 L751.909 1765.23 L751.909 1773.7 Q752.928 1773.35 753.946 1773.19 Q754.965 1773 755.983 1773 Q761.77 1773 765.15 1776.18 Q768.53 1779.35 768.53 1784.76 Q768.53 1790.34 765.057 1793.44 Q761.585 1796.52 755.266 1796.52 Q753.09 1796.52 750.821 1796.15 Q748.576 1795.78 746.169 1795.04 L746.169 1790.34 Q748.252 1791.48 750.474 1792.03 Q752.696 1792.59 755.173 1792.59 Q759.178 1792.59 761.516 1790.48 Q763.854 1788.38 763.854 1784.76 Q763.854 1781.15 761.516 1779.05 Q759.178 1776.94 755.173 1776.94 Q753.298 1776.94 751.423 1777.36 Q749.571 1777.77 747.627 1778.65 L747.627 1761.29 Z" fill="#000000" fill-rule="evenodd" fill-opacity="1" /><path clip-path="url(#clip220)" d="M 0 0 M783.599 1764.37 Q779.988 1764.37 778.159 1767.94 Q776.354 1771.48 776.354 1778.61 Q776.354 1785.71 778.159 1789.28 Q779.988 1792.82 783.599 1792.82 Q787.233 1792.82 789.039 1789.28 Q790.868 1785.71 790.868 1778.61 Q790.868 1771.48 789.039 1767.94 Q787.233 1764.37 783.599 1764.37 M783.599 1760.67 Q789.409 1760.67 792.465 1765.27 Q795.543 1769.86 795.543 1778.61 Q795.543 1787.33 792.465 1791.94 Q789.409 1796.52 783.599 1796.52 Q777.789 1796.52 774.71 1791.94 Q771.655 1787.33 771.655 1778.61 Q771.655 1769.86 774.71 1765.27 Q777.789 1760.67 783.599 1760.67 Z" fill="#000000" fill-rule="evenodd" fill-opacity="1" /><path clip-path="url(#clip220)" d="M 0 0 M1014.48 1764.37 Q1010.87 1764.37 1009.04 1767.94 Q1007.24 1771.48 1007.24 1778.61 Q1007.24 1785.71 1009.04 1789.28 Q1010.87 1792.82 1014.48 1792.82 Q1018.12 1792.82 1019.92 1789.28 Q1021.75 1785.71 1021.75 1778.61 Q1021.75 1771.48 1019.92 1767.94 Q1018.12 1764.37 1014.48 1764.37 M1014.48 1760.67 Q1020.29 1760.67 1023.35 1765.27 Q1026.43 1769.86 1026.43 1778.61 Q1026.43 1787.33 1023.35 1791.94 Q1020.29 1796.52 1014.48 1796.52 Q1008.67 1796.52 1005.6 1791.94 Q1002.54 1787.33 1002.54 1778.61 Q1002.54 1769.86 1005.6 1765.27 Q1008.67 1760.67 1014.48 1760.67 Z" fill="#000000" fill-rule="evenodd" fill-opacity="1" /><path clip-path="url(#clip220)" d="M 0 0 M1031.5 1789.97 L1036.38 1789.97 L1036.38 1795.85 L1031.5 1795.85 L1031.5 1789.97 Z" fill="#000000" fill-rule="evenodd" fill-opacity="1" /><path clip-path="url(#clip220)" d="M 0 0 M1040.27 1761.29 L1062.49 1761.29 L1062.49 1763.28 L1049.95 1795.85 L1045.06 1795.85 L1056.87 1765.23 L1040.27 1765.23 L1040.27 1761.29 Z" fill="#000000" fill-rule="evenodd" fill-opacity="1" /><path clip-path="url(#clip220)" d="M 0 0 M1067.61 1761.29 L1085.97 1761.29 L1085.97 1765.23 L1071.89 1765.23 L1071.89 1773.7 Q1072.91 1773.35 1073.93 1773.19 Q1074.95 1773 1075.97 1773 Q1081.75 1773 1085.13 1776.18 Q1088.51 1779.35 1088.51 1784.76 Q1088.51 1790.34 1085.04 1793.44 Q1081.57 1796.52 1075.25 1796.52 Q1073.07 1796.52 1070.8 1796.15 Q1068.56 1795.78 1066.15 1795.04 L1066.15 1790.34 Q1068.23 1791.48 1070.46 1792.03 Q1072.68 1792.59 1075.16 1792.59 Q1079.16 1792.59 1081.5 1790.48 Q1083.84 1788.38 1083.84 1784.76 Q1083.84 1781.15 1081.5 1779.05 Q1079.16 1776.94 1075.16 1776.94 Q1073.28 1776.94 1071.41 1777.36 Q1069.55 1777.77 1067.61 1778.65 L1067.61 1761.29 Z" fill="#000000" fill-rule="evenodd" fill-opacity="1" /><path clip-path="url(#clip220)" d="M 0 0 M1297.34 1791.92 L1304.98 1791.92 L1304.98 1765.55 L1296.67 1767.22 L1296.67 1762.96 L1304.93 1761.29 L1309.61 1761.29 L1309.61 1791.92 L1317.24 1791.92 L1317.24 1795.85 L1297.34 1795.85 L1297.34 1791.92 Z" fill="#000000" fill-rule="evenodd" fill-opacity="1" /><path clip-path="url(#clip220)" d="M 0 0 M1322.31 1789.97 L1327.2 1789.97 L1327.2 1795.85 L1322.31 1795.85 L1322.31 1789.97 Z" fill="#000000" fill-rule="evenodd" fill-opacity="1" /><path clip-path="url(#clip220)" d="M 0 0 M1342.27 1764.37 Q1338.66 1764.37 1336.83 1767.94 Q1335.02 1771.48 1335.02 1778.61 Q1335.02 1785.71 1336.83 1789.28 Q1338.66 1792.82 1342.27 1792.82 Q1345.9 1792.82 1347.71 1789.28 Q1349.54 1785.71 1349.54 1778.61 Q1349.54 1771.48 1347.71 1767.94 Q1345.9 1764.37 1342.27 1764.37 M1342.27 1760.67 Q1348.08 1760.67 1351.13 1765.27 Q1354.21 1769.86 1354.21 1778.61 Q1354.21 1787.33 1351.13 1791.94 Q1348.08 1796.52 1342.27 1796.52 Q1336.46 1796.52 1333.38 1791.94 Q1330.32 1787.33 1330.32 1778.61 Q1330.32 1769.86 1333.38 1765.27 Q1336.46 1760.67 1342.27 1760.67 Z" fill="#000000" fill-rule="evenodd" fill-opacity="1" /><path clip-path="url(#clip220)" d="M 0 0 M1369.28 1764.37 Q1365.67 1764.37 1363.84 1767.94 Q1362.04 1771.48 1362.04 1778.61 Q1362.04 1785.71 1363.84 1789.28 Q1365.67 1792.82 1369.28 1792.82 Q1372.92 1792.82 1374.72 1789.28 Q1376.55 1785.71 1376.55 1778.61 Q1376.55 1771.48 1374.72 1767.94 Q1372.92 1764.37 1369.28 1764.37 M1369.28 1760.67 Q1375.09 1760.67 1378.15 1765.27 Q1381.23 1769.86 1381.23 1778.61 Q1381.23 1787.33 1378.15 1791.94 Q1375.09 1796.52 1369.28 1796.52 Q1363.47 1796.52 1360.39 1791.94 Q1357.34 1787.33 1357.34 1778.61 Q1357.34 1769.86 1360.39 1765.27 Q1363.47 1760.67 1369.28 1760.67 Z" fill="#000000" fill-rule="evenodd" fill-opacity="1" /><path clip-path="url(#clip220)" d="M 0 0 M62.9921 1518.81 L75.4689 1518.81 L75.4689 1522.6 L62.9921 1522.6 L62.9921 1518.81 Z" fill="#000000" fill-rule="evenodd" fill-opacity="1" /><path clip-path="url(#clip220)" d="M 0 0 M81.3485 1529.76 L88.9874 1529.76 L88.9874 1503.39 L80.6772 1505.06 L80.6772 1500.8 L88.9411 1499.13 L93.617 1499.13 L93.617 1529.76 L101.256 1529.76 L101.256 1533.69 L81.3485 1533.69 L81.3485 1529.76 Z" fill="#000000" fill-rule="evenodd" fill-opacity="1" /><path clip-path="url(#clip220)" d="M 0 0 M89.3114 1165.39 Q85.7003 1165.39 83.8716 1168.95 Q82.0661 1172.49 82.0661 1179.62 Q82.0661 1186.73 83.8716 1190.3 Q85.7003 1193.84 89.3114 1193.84 Q92.9457 1193.84 94.7512 1190.3 Q96.5799 1186.73 96.5799 1179.62 Q96.5799 1172.49 94.7512 1168.95 Q92.9457 1165.39 89.3114 1165.39 M89.3114 1161.68 Q95.1216 1161.68 98.1771 1166.29 Q101.256 1170.87 101.256 1179.62 Q101.256 1188.35 98.1771 1192.96 Q95.1216 1197.54 89.3114 1197.54 Q83.5013 1197.54 80.4226 1192.96 Q77.367 1188.35 77.367 1179.62 Q77.367 1170.87 80.4226 1166.29 Q83.5013 1161.68 89.3114 1161.68 Z" fill="#000000" fill-rule="evenodd" fill-opacity="1" /><path clip-path="url(#clip220)" d="M 0 0 M81.3485 856.113 L88.9874 856.113 L88.9874 829.748 L80.6772 831.414 L80.6772 827.155 L88.9411 825.488 L93.617 825.488 L93.617 856.113 L101.256 856.113 L101.256 860.048 L81.3485 860.048 L81.3485 856.113 Z" fill="#000000" fill-rule="evenodd" fill-opacity="1" /><path clip-path="url(#clip220)" d="M 0 0 M84.9365 519.292 L101.256 519.292 L101.256 523.227 L79.3115 523.227 L79.3115 519.292 Q81.9735 516.537 86.5568 511.908 Q91.1633 507.255 92.3438 505.912 Q94.5892 503.389 95.4688 501.653 Q96.3716 499.894 96.3716 498.204 Q96.3716 495.45 94.4271 493.713 Q92.5059 491.977 89.404 491.977 Q87.205 491.977 84.7513 492.741 Q82.3207 493.505 79.543 495.056 L79.543 490.334 Q82.367 489.2 84.8207 488.621 Q87.2744 488.042 89.3114 488.042 Q94.6818 488.042 97.8762 490.727 Q101.071 493.412 101.071 497.903 Q101.071 500.033 100.26 501.954 Q99.4734 503.852 97.3669 506.445 Q96.7882 507.116 93.6864 510.334 Q90.5846 513.528 84.9365 519.292 Z" fill="#000000" fill-rule="evenodd" fill-opacity="1" /><path clip-path="url(#clip220)" d="M 0 0 M94.1262 167.772 Q97.4827 168.489 99.3577 170.758 Q101.256 173.026 101.256 176.36 Q101.256 181.475 97.7373 184.276 Q94.2188 187.077 87.7374 187.077 Q85.5614 187.077 83.2466 186.637 Q80.955 186.221 78.5013 185.364 L78.5013 180.85 Q80.4457 181.985 82.7605 182.563 Q85.0753 183.142 87.5985 183.142 Q91.9966 183.142 94.2883 181.406 Q96.6031 179.67 96.6031 176.36 Q96.6031 173.304 94.4503 171.591 Q92.3207 169.855 88.5012 169.855 L84.4735 169.855 L84.4735 166.013 L88.6864 166.013 Q92.1355 166.013 93.9642 164.647 Q95.7929 163.258 95.7929 160.665 Q95.7929 158.003 93.8947 156.591 Q92.0197 155.156 88.5012 155.156 Q86.58 155.156 84.3809 155.573 Q82.1818 155.99 79.543 156.869 L79.543 152.702 Q82.205 151.962 84.5198 151.591 Q86.8577 151.221 88.9179 151.221 Q94.242 151.221 97.3438 153.652 Q100.446 156.059 100.446 160.179 Q100.446 163.05 98.8021 165.04 Q97.1586 167.008 94.1262 167.772 Z" fill="#000000" fill-rule="evenodd" fill-opacity="1" /><path clip-path="url(#clip220)" d="M 0 0 M534.026 72.576 L510.936 12.096 L519.483 12.096 L538.644 63.0159 L557.845 12.096 L566.352 12.096 L543.302 72.576 L534.026 72.576 Z" fill="#000000" fill-rule="evenodd" fill-opacity="1" /><path clip-path="url(#clip220)" d="M 0 0 M588.348 49.7694 Q579.315 49.7694 575.831 51.8354 Q572.347 53.9013 572.347 58.8839 Q572.347 62.8538 574.94 65.2034 Q577.573 67.5124 582.069 67.5124 Q588.267 67.5124 591.994 63.1374 Q595.761 58.7219 595.761 51.4303 L595.761 49.7694 L588.348 49.7694 M603.215 46.6907 L603.215 72.576 L595.761 72.576 L595.761 65.6895 Q593.209 69.8214 589.402 71.8063 Q585.594 73.7508 580.084 73.7508 Q573.117 73.7508 568.985 69.8619 Q564.894 65.9325 564.894 59.3701 Q564.894 51.7138 569.998 47.825 Q575.142 43.9361 585.31 43.9361 L595.761 43.9361 L595.761 43.2069 Q595.761 38.0623 592.359 35.2672 Q588.996 32.4315 582.88 32.4315 Q578.991 32.4315 575.304 33.3632 Q571.618 34.295 568.215 36.1584 L568.215 29.2718 Q572.307 27.692 576.155 26.9223 Q580.003 26.1121 583.649 26.1121 Q593.493 26.1121 598.354 31.2163 Q603.215 36.3204 603.215 46.6907 Z" fill="#000000" fill-rule="evenodd" fill-opacity="1" /><path clip-path="url(#clip220)" d="M 0 0 M611.033 9.54393 L618.487 9.54393 L618.487 72.576 L611.033 72.576 L611.033 9.54393 Z" fill="#000000" fill-rule="evenodd" fill-opacity="1" /><path clip-path="url(#clip220)" d="M 0 0 M625.536 54.671 L625.536 27.2059 L632.989 27.2059 L632.989 54.3874 Q632.989 60.8284 635.501 64.0691 Q638.012 67.2693 643.036 67.2693 Q649.071 67.2693 652.555 63.421 Q656.079 59.5726 656.079 52.9291 L656.079 27.2059 L663.533 27.2059 L663.533 72.576 L656.079 72.576 L656.079 65.6084 Q653.365 69.7404 649.76 71.7658 Q646.195 73.7508 641.456 73.7508 Q633.637 73.7508 629.587 68.8897 Q625.536 64.0286 625.536 54.671 M644.291 26.1121 L644.291 26.1121 Z" fill="#000000" fill-rule="evenodd" fill-opacity="1" /><path clip-path="url(#clip220)" d="M 0 0 M710.159 48.0275 L710.159 51.6733 L675.888 51.6733 Q676.374 59.3701 680.506 63.421 Q684.679 67.4314 692.092 67.4314 Q696.386 67.4314 700.396 66.3781 Q704.447 65.3249 708.417 63.2184 L708.417 70.267 Q704.407 71.9684 700.194 72.8596 Q695.981 73.7508 691.646 73.7508 Q680.79 73.7508 674.43 67.4314 Q668.111 61.1119 668.111 50.3365 Q668.111 39.1965 674.106 32.6746 Q680.142 26.1121 690.35 26.1121 Q699.505 26.1121 704.812 32.0264 Q710.159 37.9003 710.159 48.0275 M702.705 45.84 Q702.624 39.7232 699.262 36.0774 Q695.94 32.4315 690.431 32.4315 Q684.193 32.4315 680.425 35.9558 Q676.699 39.4801 676.131 45.8805 L702.705 45.84 Z" fill="#000000" fill-rule="evenodd" fill-opacity="1" /><path clip-path="url(#clip220)" d="M 0 0 M714.21 46.5287 L736.044 46.5287 L736.044 53.1722 L714.21 53.1722 L714.21 46.5287 Z" fill="#000000" fill-rule="evenodd" fill-opacity="1" /><path clip-path="url(#clip220)" d="M 0 0 M764.482 49.7694 Q755.448 49.7694 751.964 51.8354 Q748.481 53.9013 748.481 58.8839 Q748.481 62.8538 751.073 65.2034 Q753.706 67.5124 758.203 67.5124 Q764.401 67.5124 768.127 63.1374 Q771.895 58.7219 771.895 51.4303 L771.895 49.7694 L764.482 49.7694 M779.348 46.6907 L779.348 72.576 L771.895 72.576 L771.895 65.6895 Q769.343 69.8214 765.535 71.8063 Q761.727 73.7508 756.218 73.7508 Q749.25 73.7508 745.118 69.8619 Q741.027 65.9325 741.027 59.3701 Q741.027 51.7138 746.131 47.825 Q751.276 43.9361 761.443 43.9361 L771.895 43.9361 L771.895 43.2069 Q771.895 38.0623 768.492 35.2672 Q765.13 32.4315 759.013 32.4315 Q755.124 32.4315 751.438 33.3632 Q747.751 34.295 744.349 36.1584 L744.349 29.2718 Q748.44 27.692 752.288 26.9223 Q756.137 26.1121 759.783 26.1121 Q769.626 26.1121 774.487 31.2163 Q779.348 36.3204 779.348 46.6907 Z" fill="#000000" fill-rule="evenodd" fill-opacity="1" /><path clip-path="url(#clip220)" d="M 0 0 M794.539 14.324 L794.539 27.2059 L809.892 27.2059 L809.892 32.9987 L794.539 32.9987 L794.539 57.6282 Q794.539 63.1779 796.038 64.7578 Q797.578 66.3376 802.236 66.3376 L809.892 66.3376 L809.892 72.576 L802.236 72.576 Q793.608 72.576 790.326 69.3758 Q787.045 66.1351 787.045 57.6282 L787.045 32.9987 L781.576 32.9987 L781.576 27.2059 L787.045 27.2059 L787.045 14.324 L794.539 14.324 Z" fill="#000000" fill-rule="evenodd" fill-opacity="1" /><path clip-path="url(#clip220)" d="M 0 0 M813.943 46.5287 L835.778 46.5287 L835.778 53.1722 L813.943 53.1722 L813.943 46.5287 Z" fill="#000000" fill-rule="evenodd" fill-opacity="1" /><path clip-path="url(#clip220)" d="M 0 0 M872.6 44.2197 Q875.233 45.1109 877.704 48.0275 Q880.216 50.9442 882.728 56.0483 L891.032 72.576 L882.241 72.576 L874.504 57.061 Q871.507 50.9847 868.671 48.9997 Q865.876 47.0148 861.015 47.0148 L852.103 47.0148 L852.103 72.576 L843.92 72.576 L843.92 12.096 L862.392 12.096 Q872.762 12.096 877.866 16.4305 Q882.971 20.7649 882.971 29.5149 Q882.971 35.2267 880.297 38.994 Q877.664 42.7613 872.6 44.2197 M852.103 18.8205 L852.103 40.2903 L862.392 40.2903 Q868.306 40.2903 871.304 37.5762 Q874.342 34.8216 874.342 29.5149 Q874.342 24.2082 871.304 21.5346 Q868.306 18.8205 862.392 18.8205 L852.103 18.8205 Z" fill="#000000" fill-rule="evenodd" fill-opacity="1" /><path clip-path="url(#clip220)" d="M 0 0 M898.85 27.2059 L906.304 27.2059 L906.304 72.576 L898.85 72.576 L898.85 27.2059 M898.85 9.54393 L906.304 9.54393 L906.304 18.9825 L898.85 18.9825 L898.85 9.54393 Z" fill="#000000" fill-rule="evenodd" fill-opacity="1" /><path clip-path="url(#clip220)" d="M 0 0 M943.046 28.5427 L943.046 35.5912 Q939.886 33.9709 936.483 33.1607 Q933.08 32.3505 929.434 32.3505 Q923.885 32.3505 921.09 34.0519 Q918.335 35.7533 918.335 39.156 Q918.335 41.7486 920.32 43.2475 Q922.305 44.7058 928.3 46.0426 L930.852 46.6097 Q938.792 48.3111 942.114 51.4303 Q945.476 54.509 945.476 60.0587 Q945.476 66.3781 940.453 70.0644 Q935.47 73.7508 926.72 73.7508 Q923.075 73.7508 919.105 73.0216 Q915.175 72.3329 910.8 70.9151 L910.8 63.2184 Q914.932 65.3654 918.943 66.4591 Q922.953 67.5124 926.882 67.5124 Q932.149 67.5124 934.984 65.73 Q937.82 63.9071 937.82 60.6258 Q937.82 57.5877 935.754 55.9673 Q933.728 54.3469 926.801 52.8481 L924.209 52.2405 Q917.282 50.7821 914.203 47.7845 Q911.124 44.7463 911.124 39.4801 Q911.124 33.0797 915.661 29.5959 Q920.198 26.1121 928.543 26.1121 Q932.675 26.1121 936.321 26.7198 Q939.967 27.3274 943.046 28.5427 Z" fill="#000000" fill-rule="evenodd" fill-opacity="1" /><path clip-path="url(#clip220)" d="M 0 0 M953.011 9.54393 L960.505 9.54393 L960.505 46.7717 L982.744 27.2059 L992.264 27.2059 L968.202 48.4326 L993.277 72.576 L983.555 72.576 L960.505 50.4176 L960.505 72.576 L953.011 72.576 L953.011 9.54393 Z" fill="#000000" fill-rule="evenodd" fill-opacity="1" /><path clip-path="url(#clip220)" d="M 0 0 M742.048 1872.3 L742.048 1891.2 L736.16 1891.2 L736.16 1842 L742.048 1842 L742.048 1847.41 Q743.894 1844.22 746.695 1842.7 Q749.528 1841.14 753.443 1841.14 Q759.936 1841.14 763.978 1846.29 Q768.052 1851.45 768.052 1859.85 Q768.052 1868.25 763.978 1873.41 Q759.936 1878.57 753.443 1878.57 Q749.528 1878.57 746.695 1877.04 Q743.894 1875.48 742.048 1872.3 M761.973 1859.85 Q761.973 1853.39 759.299 1849.73 Q756.658 1846.04 752.011 1846.04 Q747.364 1846.04 744.69 1849.73 Q742.048 1853.39 742.048 1859.85 Q742.048 1866.31 744.69 1870 Q747.364 1873.67 752.011 1873.67 Q756.658 1873.67 759.299 1870 Q761.973 1866.31 761.973 1859.85 Z" fill="#000000" fill-rule="evenodd" fill-opacity="1" /><path clip-path="url(#clip222)" d="
M165.266 1694.23 L240.62 1694.23 L240.62 1179.59 L165.266 1179.59  Z
  " fill="#006400" fill-rule="evenodd" fill-opacity="0.9"/>
<polyline clip-path="url(#clip222)" style="stroke:#000000; stroke-width:4; stroke-opacity:0; fill:none" points="
  165.266,1694.23 240.62,1694.23 
  "/>
<polyline clip-path="url(#clip222)" style="stroke:#000000; stroke-width:4; stroke-opacity:1; fill:none" points="
  165.266,1694.23 240.62,1694.23 
  "/>
<path clip-path="url(#clip222)" d="
M240.62 1642.58 L407.025 1642.58 L407.025 1179.59 L240.62 1179.59  Z
  " fill="#006400" fill-rule="evenodd" fill-opacity="0.9"/>
<polyline clip-path="url(#clip222)" style="stroke:#000000; stroke-width:4; stroke-opacity:0; fill:none" points="
  240.62,1642.58 407.025,1642.58 
  "/>
<polyline clip-path="url(#clip222)" style="stroke:#000000; stroke-width:4; stroke-opacity:1; fill:none" points="
  240.62,1642.58 407.025,1642.58 
  "/>
<path clip-path="url(#clip222)" d="
M407.025 1619.8 L458.686 1619.8 L458.686 1179.59 L407.025 1179.59  Z
  " fill="#006400" fill-rule="evenodd" fill-opacity="0.9"/>
<polyline clip-path="url(#clip222)" style="stroke:#000000; stroke-width:4; stroke-opacity:0; fill:none" points="
  407.025,1619.8 458.686,1619.8 
  "/>
<path clip-path="url(#clip222)" d="
M458.686 1619.8 L702.457 1619.8 L702.457 1179.59 L458.686 1179.59  Z
  " fill="#00008b" fill-rule="evenodd" fill-opacity="0.5"/>
<polyline clip-path="url(#clip222)" style="stroke:#000000; stroke-width:4; stroke-opacity:0; fill:none" points="
  458.686,1619.8 702.457,1619.8 
  "/>
<polyline clip-path="url(#clip222)" style="stroke:#000000; stroke-width:4; stroke-opacity:1; fill:none" points="
  407.025,1619.8 702.457,1619.8 
  "/>
<polyline clip-path="url(#clip222)" style="stroke:#000000; stroke-width:4; stroke-opacity:1; fill:none" points="
  702.457,1171.6 833.338,1171.6 
  "/>
<polyline clip-path="url(#clip222)" style="stroke:#000000; stroke-width:4; stroke-opacity:1; fill:none" points="
  833.338,966.414 1064.86,966.414 
  "/>
<polyline clip-path="url(#clip222)" style="stroke:#000000; stroke-width:4; stroke-opacity:1; fill:none" points="
  1064.86,685.864 1192.03,685.864 
  "/>
<polyline clip-path="url(#clip222)" style="stroke:#000000; stroke-width:4; stroke-opacity:1; fill:none" points="
  1192.03,217.713 1276.22,217.713 
  "/>
<polyline clip-path="url(#clip222)" style="stroke:#000000; stroke-width:4; stroke-opacity:1; fill:none" points="
  1276.22,169.222 1338.95,169.222 
  "/>
<polyline clip-path="url(#clip222)" style="stroke:#608cf6; stroke-width:0; stroke-opacity:1; fill:none" points="
  240.62,1694.23 407.025,1642.58 702.457,1619.8 833.338,1171.6 1064.86,966.414 1192.03,685.864 1276.22,217.713 1338.95,169.222 
  "/>
<circle clip-path="url(#clip222)" cx="240.62" cy="1694.23" r="10" fill="#000000" fill-rule="evenodd" fill-opacity="1" stroke="none"/>
<circle clip-path="url(#clip222)" cx="407.025" cy="1642.58" r="10" fill="#000000" fill-rule="evenodd" fill-opacity="1" stroke="none"/>
<circle clip-path="url(#clip222)" cx="702.457" cy="1619.8" r="10" fill="#000000" fill-rule="evenodd" fill-opacity="1" stroke="none"/>
<circle clip-path="url(#clip222)" cx="833.338" cy="1171.6" r="10" fill="#000000" fill-rule="evenodd" fill-opacity="1" stroke="none"/>
<circle clip-path="url(#clip222)" cx="1064.86" cy="966.414" r="10" fill="#000000" fill-rule="evenodd" fill-opacity="1" stroke="none"/>
<circle clip-path="url(#clip222)" cx="1192.03" cy="685.864" r="10" fill="#000000" fill-rule="evenodd" fill-opacity="1" stroke="none"/>
<circle clip-path="url(#clip222)" cx="1276.22" cy="217.713" r="10" fill="#000000" fill-rule="evenodd" fill-opacity="1" stroke="none"/>
<circle clip-path="url(#clip222)" cx="1338.95" cy="169.222" r="10" fill="#000000" fill-rule="evenodd" fill-opacity="1" stroke="none"/>
<polyline clip-path="url(#clip222)" style="stroke:#f05f73; stroke-width:0; stroke-opacity:1; fill:none" points="
  165.266,1694.23 240.62,1642.58 407.025,1619.8 702.457,1171.6 833.338,966.414 1064.86,685.864 1192.03,217.713 1276.22,169.222 
  "/>
<circle clip-path="url(#clip222)" cx="165.266" cy="1694.23" r="10" fill="#ffffff" fill-rule="evenodd" fill-opacity="1" stroke="#000000" stroke-opacity="1" stroke-width="3.84"/>
<circle clip-path="url(#clip222)" cx="240.62" cy="1642.58" r="10" fill="#ffffff" fill-rule="evenodd" fill-opacity="1" stroke="#000000" stroke-opacity="1" stroke-width="3.84"/>
<circle clip-path="url(#clip222)" cx="407.025" cy="1619.8" r="10" fill="#ffffff" fill-rule="evenodd" fill-opacity="1" stroke="#000000" stroke-opacity="1" stroke-width="3.84"/>
<circle clip-path="url(#clip222)" cx="702.457" cy="1171.6" r="10" fill="#ffffff" fill-rule="evenodd" fill-opacity="1" stroke="#000000" stroke-opacity="1" stroke-width="3.84"/>
<circle clip-path="url(#clip222)" cx="833.338" cy="966.414" r="10" fill="#ffffff" fill-rule="evenodd" fill-opacity="1" stroke="#000000" stroke-opacity="1" stroke-width="3.84"/>
<circle clip-path="url(#clip222)" cx="1064.86" cy="685.864" r="10" fill="#ffffff" fill-rule="evenodd" fill-opacity="1" stroke="#000000" stroke-opacity="1" stroke-width="3.84"/>
<circle clip-path="url(#clip222)" cx="1192.03" cy="217.713" r="10" fill="#ffffff" fill-rule="evenodd" fill-opacity="1" stroke="#000000" stroke-opacity="1" stroke-width="3.84"/>
<circle clip-path="url(#clip222)" cx="1276.22" cy="169.222" r="10" fill="#ffffff" fill-rule="evenodd" fill-opacity="1" stroke="#000000" stroke-opacity="1" stroke-width="3.84"/>
<circle clip-path="url(#clip222)" cx="458.686" cy="1179.59" r="14" fill="#ff8c00" fill-rule="evenodd" fill-opacity="1" stroke="#000000" stroke-opacity="1" stroke-width="3.84"/>
<path clip-path="url(#clip220)" d="
M1588.66 1739.98 L2832.76 1739.98 L2832.76 123.472 L1588.66 123.472  Z
  " fill="#ffffff" fill-rule="evenodd" fill-opacity="1"/>
<defs>
  <clipPath id="clip223">
    <rect x="1588" y="123" width="1245" height="1618"/>
  </clipPath>
</defs>
<polyline clip-path="url(#clip223)" style="stroke:#000000; stroke-width:2; stroke-opacity:0.1; fill:none" points="
  1623.87,1739.98 1623.87,123.472 
  "/>
<polyline clip-path="url(#clip223)" style="stroke:#000000; stroke-width:2; stroke-opacity:0.1; fill:none" points="
  1917.29,1739.98 1917.29,123.472 
  "/>
<polyline clip-path="url(#clip223)" style="stroke:#000000; stroke-width:2; stroke-opacity:0.1; fill:none" points="
  2210.71,1739.98 2210.71,123.472 
  "/>
<polyline clip-path="url(#clip223)" style="stroke:#000000; stroke-width:2; stroke-opacity:0.1; fill:none" points="
  2504.13,1739.98 2504.13,123.472 
  "/>
<polyline clip-path="url(#clip223)" style="stroke:#000000; stroke-width:2; stroke-opacity:0.1; fill:none" points="
  2797.55,1739.98 2797.55,123.472 
  "/>
<polyline clip-path="url(#clip223)" style="stroke:#000000; stroke-width:2; stroke-opacity:0.1; fill:none" points="
  1588.66,1666.88 2832.76,1666.88 
  "/>
<polyline clip-path="url(#clip223)" style="stroke:#000000; stroke-width:2; stroke-opacity:0.1; fill:none" points="
  1588.66,1177.29 2832.76,1177.29 
  "/>
<polyline clip-path="url(#clip223)" style="stroke:#000000; stroke-width:2; stroke-opacity:0.1; fill:none" points="
  1588.66,687.708 2832.76,687.708 
  "/>
<polyline clip-path="url(#clip223)" style="stroke:#000000; stroke-width:2; stroke-opacity:0.1; fill:none" points="
  1588.66,198.122 2832.76,198.122 
  "/>
<polyline clip-path="url(#clip220)" style="stroke:#000000; stroke-width:4; stroke-opacity:1; fill:none" points="
  1588.66,1739.98 2832.76,1739.98 
  "/>
<polyline clip-path="url(#clip220)" style="stroke:#000000; stroke-width:4; stroke-opacity:1; fill:none" points="
  1588.66,1739.98 1588.66,123.472 
  "/>
<polyline clip-path="url(#clip220)" style="stroke:#000000; stroke-width:4; stroke-opacity:1; fill:none" points="
  1623.87,1739.98 1623.87,1720.58 
  "/>
<polyline clip-path="url(#clip220)" style="stroke:#000000; stroke-width:4; stroke-opacity:1; fill:none" points="
  1917.29,1739.98 1917.29,1720.58 
  "/>
<polyline clip-path="url(#clip220)" style="stroke:#000000; stroke-width:4; stroke-opacity:1; fill:none" points="
  2210.71,1739.98 2210.71,1720.58 
  "/>
<polyline clip-path="url(#clip220)" style="stroke:#000000; stroke-width:4; stroke-opacity:1; fill:none" points="
  2504.13,1739.98 2504.13,1720.58 
  "/>
<polyline clip-path="url(#clip220)" style="stroke:#000000; stroke-width:4; stroke-opacity:1; fill:none" points="
  2797.55,1739.98 2797.55,1720.58 
  "/>
<polyline clip-path="url(#clip220)" style="stroke:#000000; stroke-width:4; stroke-opacity:1; fill:none" points="
  1588.66,1666.88 1603.58,1666.88 
  "/>
<polyline clip-path="url(#clip220)" style="stroke:#000000; stroke-width:4; stroke-opacity:1; fill:none" points="
  1588.66,1177.29 1603.58,1177.29 
  "/>
<polyline clip-path="url(#clip220)" style="stroke:#000000; stroke-width:4; stroke-opacity:1; fill:none" points="
  1588.66,687.708 1603.58,687.708 
  "/>
<polyline clip-path="url(#clip220)" style="stroke:#000000; stroke-width:4; stroke-opacity:1; fill:none" points="
  1588.66,198.122 1603.58,198.122 
  "/>
<path clip-path="url(#clip220)" d="M 0 0 M1591.88 1764.37 Q1588.26 1764.37 1586.44 1767.94 Q1584.63 1771.48 1584.63 1778.61 Q1584.63 1785.71 1586.44 1789.28 Q1588.26 1792.82 1591.88 1792.82 Q1595.51 1792.82 1597.31 1789.28 Q1599.14 1785.71 1599.14 1778.61 Q1599.14 1771.48 1597.31 1767.94 Q1595.51 1764.37 1591.88 1764.37 M1591.88 1760.67 Q1597.69 1760.67 1600.74 1765.27 Q1603.82 1769.86 1603.82 1778.61 Q1603.82 1787.33 1600.74 1791.94 Q1597.69 1796.52 1591.88 1796.52 Q1586.06 1796.52 1582.99 1791.94 Q1579.93 1787.33 1579.93 1778.61 Q1579.93 1769.86 1582.99 1765.27 Q1586.06 1760.67 1591.88 1760.67 Z" fill="#000000" fill-rule="evenodd" fill-opacity="1" /><path clip-path="url(#clip220)" d="M 0 0 M1608.89 1789.97 L1613.77 1789.97 L1613.77 1795.85 L1608.89 1795.85 L1608.89 1789.97 Z" fill="#000000" fill-rule="evenodd" fill-opacity="1" /><path clip-path="url(#clip220)" d="M 0 0 M1628.84 1764.37 Q1625.23 1764.37 1623.4 1767.94 Q1621.6 1771.48 1621.6 1778.61 Q1621.6 1785.71 1623.4 1789.28 Q1625.23 1792.82 1628.84 1792.82 Q1632.48 1792.82 1634.28 1789.28 Q1636.11 1785.71 1636.11 1778.61 Q1636.11 1771.48 1634.28 1767.94 Q1632.48 1764.37 1628.84 1764.37 M1628.84 1760.67 Q1634.65 1760.67 1637.71 1765.27 Q1640.79 1769.86 1640.79 1778.61 Q1640.79 1787.33 1637.71 1791.94 Q1634.65 1796.52 1628.84 1796.52 Q1623.03 1796.52 1619.95 1791.94 Q1616.9 1787.33 1616.9 1778.61 Q1616.9 1769.86 1619.95 1765.27 Q1623.03 1760.67 1628.84 1760.67 Z" fill="#000000" fill-rule="evenodd" fill-opacity="1" /><path clip-path="url(#clip220)" d="M 0 0 M1655.86 1764.37 Q1652.25 1764.37 1650.42 1767.94 Q1648.61 1771.48 1648.61 1778.61 Q1648.61 1785.71 1650.42 1789.28 Q1652.25 1792.82 1655.86 1792.82 Q1659.49 1792.82 1661.3 1789.28 Q1663.12 1785.71 1663.12 1778.61 Q1663.12 1771.48 1661.3 1767.94 Q1659.49 1764.37 1655.86 1764.37 M1655.86 1760.67 Q1661.67 1760.67 1664.72 1765.27 Q1667.8 1769.86 1667.8 1778.61 Q1667.8 1787.33 1664.72 1791.94 Q1661.67 1796.52 1655.86 1796.52 Q1650.05 1796.52 1646.97 1791.94 Q1643.91 1787.33 1643.91 1778.61 Q1643.91 1769.86 1646.97 1765.27 Q1650.05 1760.67 1655.86 1760.67 Z" fill="#000000" fill-rule="evenodd" fill-opacity="1" /><path clip-path="url(#clip220)" d="M 0 0 M1886.59 1764.37 Q1882.98 1764.37 1881.15 1767.94 Q1879.35 1771.48 1879.35 1778.61 Q1879.35 1785.71 1881.15 1789.28 Q1882.98 1792.82 1886.59 1792.82 Q1890.23 1792.82 1892.03 1789.28 Q1893.86 1785.71 1893.86 1778.61 Q1893.86 1771.48 1892.03 1767.94 Q1890.23 1764.37 1886.59 1764.37 M1886.59 1760.67 Q1892.4 1760.67 1895.46 1765.27 Q1898.54 1769.86 1898.54 1778.61 Q1898.54 1787.33 1895.46 1791.94 Q1892.4 1796.52 1886.59 1796.52 Q1880.78 1796.52 1877.7 1791.94 Q1874.65 1787.33 1874.65 1778.61 Q1874.65 1769.86 1877.7 1765.27 Q1880.78 1760.67 1886.59 1760.67 Z" fill="#000000" fill-rule="evenodd" fill-opacity="1" /><path clip-path="url(#clip220)" d="M 0 0 M1903.61 1789.97 L1908.49 1789.97 L1908.49 1795.85 L1903.61 1795.85 L1903.61 1789.97 Z" fill="#000000" fill-rule="evenodd" fill-opacity="1" /><path clip-path="url(#clip220)" d="M 0 0 M1917.59 1791.92 L1933.91 1791.92 L1933.91 1795.85 L1911.96 1795.85 L1911.96 1791.92 Q1914.62 1789.16 1919.21 1784.53 Q1923.81 1779.88 1924.99 1778.54 Q1927.24 1776.01 1928.12 1774.28 Q1929.02 1772.52 1929.02 1770.83 Q1929.02 1768.07 1927.08 1766.34 Q1925.16 1764.6 1922.05 1764.6 Q1919.86 1764.6 1917.4 1765.37 Q1914.97 1766.13 1912.19 1767.68 L1912.19 1762.96 Q1915.02 1761.82 1917.47 1761.25 Q1919.92 1760.67 1921.96 1760.67 Q1927.33 1760.67 1930.53 1763.35 Q1933.72 1766.04 1933.72 1770.53 Q1933.72 1772.66 1932.91 1774.58 Q1932.12 1776.48 1930.02 1779.07 Q1929.44 1779.74 1926.34 1782.96 Q1923.23 1786.15 1917.59 1791.92 Z" fill="#000000" fill-rule="evenodd" fill-opacity="1" /><path clip-path="url(#clip220)" d="M 0 0 M1939.02 1761.29 L1957.38 1761.29 L1957.38 1765.23 L1943.3 1765.23 L1943.3 1773.7 Q1944.32 1773.35 1945.34 1773.19 Q1946.36 1773 1947.38 1773 Q1953.17 1773 1956.54 1776.18 Q1959.92 1779.35 1959.92 1784.76 Q1959.92 1790.34 1956.45 1793.44 Q1952.98 1796.52 1946.66 1796.52 Q1944.48 1796.52 1942.22 1796.15 Q1939.97 1795.78 1937.56 1795.04 L1937.56 1790.34 Q1939.65 1791.48 1941.87 1792.03 Q1944.09 1792.59 1946.57 1792.59 Q1950.57 1792.59 1952.91 1790.48 Q1955.25 1788.38 1955.25 1784.76 Q1955.25 1781.15 1952.91 1779.05 Q1950.57 1776.94 1946.57 1776.94 Q1944.69 1776.94 1942.82 1777.36 Q1940.97 1777.77 1939.02 1778.65 L1939.02 1761.29 Z" fill="#000000" fill-rule="evenodd" fill-opacity="1" /><path clip-path="url(#clip220)" d="M 0 0 M2179.21 1764.37 Q2175.6 1764.37 2173.77 1767.94 Q2171.97 1771.48 2171.97 1778.61 Q2171.97 1785.71 2173.77 1789.28 Q2175.6 1792.82 2179.21 1792.82 Q2182.85 1792.82 2184.65 1789.28 Q2186.48 1785.71 2186.48 1778.61 Q2186.48 1771.48 2184.65 1767.94 Q2182.85 1764.37 2179.21 1764.37 M2179.21 1760.67 Q2185.02 1760.67 2188.08 1765.27 Q2191.16 1769.86 2191.16 1778.61 Q2191.16 1787.33 2188.08 1791.94 Q2185.02 1796.52 2179.21 1796.52 Q2173.4 1796.52 2170.32 1791.94 Q2167.27 1787.33 2167.27 1778.61 Q2167.27 1769.86 2170.32 1765.27 Q2173.4 1760.67 2179.21 1760.67 Z" fill="#000000" fill-rule="evenodd" fill-opacity="1" /><path clip-path="url(#clip220)" d="M 0 0 M2196.23 1789.97 L2201.11 1789.97 L2201.11 1795.85 L2196.23 1795.85 L2196.23 1789.97 Z" fill="#000000" fill-rule="evenodd" fill-opacity="1" /><path clip-path="url(#clip220)" d="M 0 0 M2206.23 1761.29 L2224.58 1761.29 L2224.58 1765.23 L2210.51 1765.23 L2210.51 1773.7 Q2211.53 1773.35 2212.55 1773.19 Q2213.56 1773 2214.58 1773 Q2220.37 1773 2223.75 1776.18 Q2227.13 1779.35 2227.13 1784.76 Q2227.13 1790.34 2223.66 1793.44 Q2220.18 1796.52 2213.87 1796.52 Q2211.69 1796.52 2209.42 1796.15 Q2207.18 1795.78 2204.77 1795.04 L2204.77 1790.34 Q2206.85 1791.48 2209.07 1792.03 Q2211.3 1792.59 2213.77 1792.59 Q2217.78 1792.59 2220.12 1790.48 Q2222.45 1788.38 2222.45 1784.76 Q2222.45 1781.15 2220.12 1779.05 Q2217.78 1776.94 2213.77 1776.94 Q2211.9 1776.94 2210.02 1777.36 Q2208.17 1777.77 2206.23 1778.65 L2206.23 1761.29 Z" fill="#000000" fill-rule="evenodd" fill-opacity="1" /><path clip-path="url(#clip220)" d="M 0 0 M2242.2 1764.37 Q2238.59 1764.37 2236.76 1767.94 Q2234.95 1771.48 2234.95 1778.61 Q2234.95 1785.71 2236.76 1789.28 Q2238.59 1792.82 2242.2 1792.82 Q2245.83 1792.82 2247.64 1789.28 Q2249.47 1785.71 2249.47 1778.61 Q2249.47 1771.48 2247.64 1767.94 Q2245.83 1764.37 2242.2 1764.37 M2242.2 1760.67 Q2248.01 1760.67 2251.06 1765.27 Q2254.14 1769.86 2254.14 1778.61 Q2254.14 1787.33 2251.06 1791.94 Q2248.01 1796.52 2242.2 1796.52 Q2236.39 1796.52 2233.31 1791.94 Q2230.25 1787.33 2230.25 1778.61 Q2230.25 1769.86 2233.31 1765.27 Q2236.39 1760.67 2242.2 1760.67 Z" fill="#000000" fill-rule="evenodd" fill-opacity="1" /><path clip-path="url(#clip220)" d="M 0 0 M2473.08 1764.37 Q2469.47 1764.37 2467.64 1767.94 Q2465.84 1771.48 2465.84 1778.61 Q2465.84 1785.71 2467.64 1789.28 Q2469.47 1792.82 2473.08 1792.82 Q2476.72 1792.82 2478.52 1789.28 Q2480.35 1785.71 2480.35 1778.61 Q2480.35 1771.48 2478.52 1767.94 Q2476.72 1764.37 2473.08 1764.37 M2473.08 1760.67 Q2478.89 1760.67 2481.95 1765.27 Q2485.03 1769.86 2485.03 1778.61 Q2485.03 1787.33 2481.95 1791.94 Q2478.89 1796.52 2473.08 1796.52 Q2467.27 1796.52 2464.2 1791.94 Q2461.14 1787.33 2461.14 1778.61 Q2461.14 1769.86 2464.2 1765.27 Q2467.27 1760.67 2473.08 1760.67 Z" fill="#000000" fill-rule="evenodd" fill-opacity="1" /><path clip-path="url(#clip220)" d="M 0 0 M2490.1 1789.97 L2494.98 1789.97 L2494.98 1795.85 L2490.1 1795.85 L2490.1 1789.97 Z" fill="#000000" fill-rule="evenodd" fill-opacity="1" /><path clip-path="url(#clip220)" d="M 0 0 M2498.87 1761.29 L2521.09 1761.29 L2521.09 1763.28 L2508.55 1795.85 L2503.66 1795.85 L2515.47 1765.23 L2498.87 1765.23 L2498.87 1761.29 Z" fill="#000000" fill-rule="evenodd" fill-opacity="1" /><path clip-path="url(#clip220)" d="M 0 0 M2526.21 1761.29 L2544.57 1761.29 L2544.57 1765.23 L2530.49 1765.23 L2530.49 1773.7 Q2531.51 1773.35 2532.53 1773.19 Q2533.55 1773 2534.57 1773 Q2540.35 1773 2543.73 1776.18 Q2547.11 1779.35 2547.11 1784.76 Q2547.11 1790.34 2543.64 1793.44 Q2540.17 1796.52 2533.85 1796.52 Q2531.67 1796.52 2529.4 1796.15 Q2527.16 1795.78 2524.75 1795.04 L2524.75 1790.34 Q2526.83 1791.48 2529.06 1792.03 Q2531.28 1792.59 2533.76 1792.59 Q2537.76 1792.59 2540.1 1790.48 Q2542.44 1788.38 2542.44 1784.76 Q2542.44 1781.15 2540.1 1779.05 Q2537.76 1776.94 2533.76 1776.94 Q2531.88 1776.94 2530.01 1777.36 Q2528.15 1777.77 2526.21 1778.65 L2526.21 1761.29 Z" fill="#000000" fill-rule="evenodd" fill-opacity="1" /><path clip-path="url(#clip220)" d="M 0 0 M2755.94 1791.92 L2763.58 1791.92 L2763.58 1765.55 L2755.27 1767.22 L2755.27 1762.96 L2763.53 1761.29 L2768.21 1761.29 L2768.21 1791.92 L2775.84 1791.92 L2775.84 1795.85 L2755.94 1795.85 L2755.94 1791.92 Z" fill="#000000" fill-rule="evenodd" fill-opacity="1" /><path clip-path="url(#clip220)" d="M 0 0 M2780.91 1789.97 L2785.8 1789.97 L2785.8 1795.85 L2780.91 1795.85 L2780.91 1789.97 Z" fill="#000000" fill-rule="evenodd" fill-opacity="1" /><path clip-path="url(#clip220)" d="M 0 0 M2800.87 1764.37 Q2797.26 1764.37 2795.43 1767.94 Q2793.62 1771.48 2793.62 1778.61 Q2793.62 1785.71 2795.43 1789.28 Q2797.26 1792.82 2800.87 1792.82 Q2804.5 1792.82 2806.31 1789.28 Q2808.14 1785.71 2808.14 1778.61 Q2808.14 1771.48 2806.31 1767.94 Q2804.5 1764.37 2800.87 1764.37 M2800.87 1760.67 Q2806.68 1760.67 2809.73 1765.27 Q2812.81 1769.86 2812.81 1778.61 Q2812.81 1787.33 2809.73 1791.94 Q2806.68 1796.52 2800.87 1796.52 Q2795.06 1796.52 2791.98 1791.94 Q2788.92 1787.33 2788.92 1778.61 Q2788.92 1769.86 2791.98 1765.27 Q2795.06 1760.67 2800.87 1760.67 Z" fill="#000000" fill-rule="evenodd" fill-opacity="1" /><path clip-path="url(#clip220)" d="M 0 0 M2827.88 1764.37 Q2824.27 1764.37 2822.44 1767.94 Q2820.64 1771.48 2820.64 1778.61 Q2820.64 1785.71 2822.44 1789.28 Q2824.27 1792.82 2827.88 1792.82 Q2831.52 1792.82 2833.32 1789.28 Q2835.15 1785.71 2835.15 1778.61 Q2835.15 1771.48 2833.32 1767.94 Q2831.52 1764.37 2827.88 1764.37 M2827.88 1760.67 Q2833.69 1760.67 2836.75 1765.27 Q2839.83 1769.86 2839.83 1778.61 Q2839.83 1787.33 2836.75 1791.94 Q2833.69 1796.52 2827.88 1796.52 Q2822.07 1796.52 2818.99 1791.94 Q2815.94 1787.33 2815.94 1778.61 Q2815.94 1769.86 2818.99 1765.27 Q2822.07 1760.67 2827.88 1760.67 Z" fill="#000000" fill-rule="evenodd" fill-opacity="1" /><path clip-path="url(#clip220)" d="M 0 0 M1485.62 1669.27 L1498.1 1669.27 L1498.1 1673.07 L1485.62 1673.07 L1485.62 1669.27 Z" fill="#000000" fill-rule="evenodd" fill-opacity="1" /><path clip-path="url(#clip220)" d="M 0 0 M1503.98 1680.22 L1511.61 1680.22 L1511.61 1653.86 L1503.3 1655.52 L1503.3 1651.26 L1511.57 1649.6 L1516.24 1649.6 L1516.24 1680.22 L1523.88 1680.22 L1523.88 1684.16 L1503.98 1684.16 L1503.98 1680.22 Z" fill="#000000" fill-rule="evenodd" fill-opacity="1" /><path clip-path="url(#clip220)" d="M 0 0 M1528.95 1678.28 L1533.84 1678.28 L1533.84 1684.16 L1528.95 1684.16 L1528.95 1678.28 Z" fill="#000000" fill-rule="evenodd" fill-opacity="1" /><path clip-path="url(#clip220)" d="M 0 0 M1538.95 1649.6 L1557.31 1649.6 L1557.31 1653.53 L1543.23 1653.53 L1543.23 1662.01 Q1544.25 1661.66 1545.27 1661.5 Q1546.29 1661.31 1547.31 1661.31 Q1553.1 1661.31 1556.48 1664.48 Q1559.86 1667.65 1559.86 1673.07 Q1559.86 1678.65 1556.38 1681.75 Q1552.91 1684.83 1546.59 1684.83 Q1544.42 1684.83 1542.15 1684.46 Q1539.9 1684.09 1537.49 1683.35 L1537.49 1678.65 Q1539.58 1679.78 1541.8 1680.34 Q1544.02 1680.89 1546.5 1680.89 Q1550.5 1680.89 1552.84 1678.79 Q1555.18 1676.68 1555.18 1673.07 Q1555.18 1669.46 1552.84 1667.35 Q1550.5 1665.25 1546.5 1665.25 Q1544.62 1665.25 1542.75 1665.66 Q1540.9 1666.08 1538.95 1666.96 L1538.95 1649.6 Z" fill="#000000" fill-rule="evenodd" fill-opacity="1" /><path clip-path="url(#clip220)" d="M 0 0 M1484.62 1179.69 L1497.1 1179.69 L1497.1 1183.48 L1484.62 1183.48 L1484.62 1179.69 Z" fill="#000000" fill-rule="evenodd" fill-opacity="1" /><path clip-path="url(#clip220)" d="M 0 0 M1502.98 1190.64 L1510.62 1190.64 L1510.62 1164.27 L1502.31 1165.94 L1502.31 1161.68 L1510.57 1160.01 L1515.25 1160.01 L1515.25 1190.64 L1522.89 1190.64 L1522.89 1194.57 L1502.98 1194.57 L1502.98 1190.64 Z" fill="#000000" fill-rule="evenodd" fill-opacity="1" /><path clip-path="url(#clip220)" d="M 0 0 M1527.96 1188.69 L1532.84 1188.69 L1532.84 1194.57 L1527.96 1194.57 L1527.96 1188.69 Z" fill="#000000" fill-rule="evenodd" fill-opacity="1" /><path clip-path="url(#clip220)" d="M 0 0 M1547.91 1163.09 Q1544.3 1163.09 1542.47 1166.66 Q1540.67 1170.2 1540.67 1177.33 Q1540.67 1184.43 1542.47 1188 Q1544.3 1191.54 1547.91 1191.54 Q1551.55 1191.54 1553.35 1188 Q1555.18 1184.43 1555.18 1177.33 Q1555.18 1170.2 1553.35 1166.66 Q1551.55 1163.09 1547.91 1163.09 M1547.91 1159.39 Q1553.72 1159.39 1556.78 1163.99 Q1559.86 1168.58 1559.86 1177.33 Q1559.86 1186.05 1556.78 1190.66 Q1553.72 1195.24 1547.91 1195.24 Q1542.1 1195.24 1539.02 1190.66 Q1535.97 1186.05 1535.97 1177.33 Q1535.97 1168.58 1539.02 1163.99 Q1542.1 1159.39 1547.91 1159.39 Z" fill="#000000" fill-rule="evenodd" fill-opacity="1" /><path clip-path="url(#clip220)" d="M 0 0 M1484.39 690.103 L1496.87 690.103 L1496.87 693.9 L1484.39 693.9 L1484.39 690.103 Z" fill="#000000" fill-rule="evenodd" fill-opacity="1" /><path clip-path="url(#clip220)" d="M 0 0 M1511.94 673.506 Q1508.33 673.506 1506.5 677.071 Q1504.69 680.613 1504.69 687.742 Q1504.69 694.849 1506.5 698.414 Q1508.33 701.955 1511.94 701.955 Q1515.57 701.955 1517.38 698.414 Q1519.21 694.849 1519.21 687.742 Q1519.21 680.613 1517.38 677.071 Q1515.57 673.506 1511.94 673.506 M1511.94 669.803 Q1517.75 669.803 1520.8 674.409 Q1523.88 678.992 1523.88 687.742 Q1523.88 696.469 1520.8 701.076 Q1517.75 705.659 1511.94 705.659 Q1506.13 705.659 1503.05 701.076 Q1499.99 696.469 1499.99 687.742 Q1499.99 678.992 1503.05 674.409 Q1506.13 669.803 1511.94 669.803 Z" fill="#000000" fill-rule="evenodd" fill-opacity="1" /><path clip-path="url(#clip220)" d="M 0 0 M1528.95 699.108 L1533.84 699.108 L1533.84 704.988 L1528.95 704.988 L1528.95 699.108 Z" fill="#000000" fill-rule="evenodd" fill-opacity="1" /><path clip-path="url(#clip220)" d="M 0 0 M1538.95 670.428 L1557.31 670.428 L1557.31 674.363 L1543.23 674.363 L1543.23 682.835 Q1544.25 682.488 1545.27 682.326 Q1546.29 682.14 1547.31 682.14 Q1553.1 682.14 1556.48 685.312 Q1559.86 688.483 1559.86 693.9 Q1559.86 699.478 1556.38 702.58 Q1552.91 705.659 1546.59 705.659 Q1544.42 705.659 1542.15 705.289 Q1539.9 704.918 1537.49 704.177 L1537.49 699.478 Q1539.58 700.613 1541.8 701.168 Q1544.02 701.724 1546.5 701.724 Q1550.5 701.724 1552.84 699.617 Q1555.18 697.511 1555.18 693.9 Q1555.18 690.289 1552.84 688.182 Q1550.5 686.076 1546.5 686.076 Q1544.62 686.076 1542.75 686.492 Q1540.9 686.909 1538.95 687.789 L1538.95 670.428 Z" fill="#000000" fill-rule="evenodd" fill-opacity="1" /><path clip-path="url(#clip220)" d="M 0 0 M1510.94 183.921 Q1507.33 183.921 1505.5 187.486 Q1503.7 191.027 1503.7 198.157 Q1503.7 205.263 1505.5 208.828 Q1507.33 212.37 1510.94 212.37 Q1514.58 212.37 1516.38 208.828 Q1518.21 205.263 1518.21 198.157 Q1518.21 191.027 1516.38 187.486 Q1514.58 183.921 1510.94 183.921 M1510.94 180.217 Q1516.75 180.217 1519.81 184.824 Q1522.89 189.407 1522.89 198.157 Q1522.89 206.884 1519.81 211.49 Q1516.75 216.074 1510.94 216.074 Q1505.13 216.074 1502.05 211.49 Q1499 206.884 1499 198.157 Q1499 189.407 1502.05 184.824 Q1505.13 180.217 1510.94 180.217 Z" fill="#000000" fill-rule="evenodd" fill-opacity="1" /><path clip-path="url(#clip220)" d="M 0 0 M1527.96 209.523 L1532.84 209.523 L1532.84 215.402 L1527.96 215.402 L1527.96 209.523 Z" fill="#000000" fill-rule="evenodd" fill-opacity="1" /><path clip-path="url(#clip220)" d="M 0 0 M1547.91 183.921 Q1544.3 183.921 1542.47 187.486 Q1540.67 191.027 1540.67 198.157 Q1540.67 205.263 1542.47 208.828 Q1544.3 212.37 1547.91 212.37 Q1551.55 212.37 1553.35 208.828 Q1555.18 205.263 1555.18 198.157 Q1555.18 191.027 1553.35 187.486 Q1551.55 183.921 1547.91 183.921 M1547.91 180.217 Q1553.72 180.217 1556.78 184.824 Q1559.86 189.407 1559.86 198.157 Q1559.86 206.884 1556.78 211.49 Q1553.72 216.074 1547.91 216.074 Q1542.1 216.074 1539.02 211.49 Q1535.97 206.884 1535.97 198.157 Q1535.97 189.407 1539.02 184.824 Q1542.1 180.217 1547.91 180.217 Z" fill="#000000" fill-rule="evenodd" fill-opacity="1" /><path clip-path="url(#clip220)" d="M 0 0 M1806.26 16.7545 L1806.26 25.383 Q1802.13 21.5346 1797.43 19.6307 Q1792.77 17.7268 1787.51 17.7268 Q1777.14 17.7268 1771.63 24.0867 Q1766.12 30.4061 1766.12 42.3968 Q1766.12 54.3469 1771.63 60.7069 Q1777.14 67.0263 1787.51 67.0263 Q1792.77 67.0263 1797.43 65.1223 Q1802.13 63.2184 1806.26 59.3701 L1806.26 67.9175 Q1801.97 70.8341 1797.15 72.2924 Q1792.37 73.7508 1787.02 73.7508 Q1773.29 73.7508 1765.39 65.3654 Q1757.49 56.9395 1757.49 42.3968 Q1757.49 27.8135 1765.39 19.4281 Q1773.29 11.0023 1787.02 11.0023 Q1792.45 11.0023 1797.23 12.4606 Q1802.05 13.8784 1806.26 16.7545 Z" fill="#000000" fill-rule="evenodd" fill-opacity="1" /><path clip-path="url(#clip220)" d="M 0 0 M1831.66 32.4315 Q1825.67 32.4315 1822.18 37.1306 Q1818.7 41.7891 1818.7 49.9314 Q1818.7 58.0738 1822.14 62.7728 Q1825.63 67.4314 1831.66 67.4314 Q1837.62 67.4314 1841.1 62.7323 Q1844.58 58.0333 1844.58 49.9314 Q1844.58 41.8701 1841.1 37.1711 Q1837.62 32.4315 1831.66 32.4315 M1831.66 26.1121 Q1841.38 26.1121 1846.93 32.4315 Q1852.48 38.7509 1852.48 49.9314 Q1852.48 61.0714 1846.93 67.4314 Q1841.38 73.7508 1831.66 73.7508 Q1821.9 73.7508 1816.35 67.4314 Q1810.84 61.0714 1810.84 49.9314 Q1810.84 38.7509 1816.35 32.4315 Q1821.9 26.1121 1831.66 26.1121 Z" fill="#000000" fill-rule="evenodd" fill-opacity="1" /><path clip-path="url(#clip220)" d="M 0 0 M1898.02 45.1919 L1898.02 72.576 L1890.56 72.576 L1890.56 45.4349 Q1890.56 38.994 1888.05 35.7938 Q1885.54 32.5936 1880.52 32.5936 Q1874.48 32.5936 1871 36.4419 Q1867.51 40.2903 1867.51 46.9338 L1867.51 72.576 L1860.02 72.576 L1860.02 27.2059 L1867.51 27.2059 L1867.51 34.2544 Q1870.19 30.163 1873.79 28.1376 Q1877.44 26.1121 1882.18 26.1121 Q1890 26.1121 1894.01 30.9732 Q1898.02 35.7938 1898.02 45.1919 Z" fill="#000000" fill-rule="evenodd" fill-opacity="1" /><path clip-path="url(#clip220)" d="M 0 0 M1935.69 34.0924 L1935.69 9.54393 L1943.14 9.54393 L1943.14 72.576 L1935.69 72.576 L1935.69 65.7705 Q1933.34 69.8214 1929.73 71.8063 Q1926.17 73.7508 1921.15 73.7508 Q1912.92 73.7508 1907.74 67.1883 Q1902.59 60.6258 1902.59 49.9314 Q1902.59 39.2371 1907.74 32.6746 Q1912.92 26.1121 1921.15 26.1121 Q1926.17 26.1121 1929.73 28.0971 Q1933.34 30.0415 1935.69 34.0924 M1910.29 49.9314 Q1910.29 58.1548 1913.65 62.8538 Q1917.06 67.5124 1922.97 67.5124 Q1928.88 67.5124 1932.29 62.8538 Q1935.69 58.1548 1935.69 49.9314 Q1935.69 41.7081 1932.29 37.0496 Q1928.88 32.3505 1922.97 32.3505 Q1917.06 32.3505 1913.65 37.0496 Q1910.29 41.7081 1910.29 49.9314 Z" fill="#000000" fill-rule="evenodd" fill-opacity="1" /><path clip-path="url(#clip220)" d="M 0 0 M1950.96 27.2059 L1958.42 27.2059 L1958.42 72.576 L1950.96 72.576 L1950.96 27.2059 M1950.96 9.54393 L1958.42 9.54393 L1958.42 18.9825 L1950.96 18.9825 L1950.96 9.54393 Z" fill="#000000" fill-rule="evenodd" fill-opacity="1" /><path clip-path="url(#clip220)" d="M 0 0 M1973.61 14.324 L1973.61 27.2059 L1988.96 27.2059 L1988.96 32.9987 L1973.61 32.9987 L1973.61 57.6282 Q1973.61 63.1779 1975.1 64.7578 Q1976.64 66.3376 1981.3 66.3376 L1988.96 66.3376 L1988.96 72.576 L1981.3 72.576 Q1972.67 72.576 1969.39 69.3758 Q1966.11 66.1351 1966.11 57.6282 L1966.11 32.9987 L1960.64 32.9987 L1960.64 27.2059 L1966.11 27.2059 L1966.11 14.324 L1973.61 14.324 Z" fill="#000000" fill-rule="evenodd" fill-opacity="1" /><path clip-path="url(#clip220)" d="M 0 0 M1996.78 27.2059 L2004.23 27.2059 L2004.23 72.576 L1996.78 72.576 L1996.78 27.2059 M1996.78 9.54393 L2004.23 9.54393 L2004.23 18.9825 L1996.78 18.9825 L1996.78 9.54393 Z" fill="#000000" fill-rule="evenodd" fill-opacity="1" /><path clip-path="url(#clip220)" d="M 0 0 M2029.63 32.4315 Q2023.63 32.4315 2020.15 37.1306 Q2016.67 41.7891 2016.67 49.9314 Q2016.67 58.0738 2020.11 62.7728 Q2023.59 67.4314 2029.63 67.4314 Q2035.58 67.4314 2039.07 62.7323 Q2042.55 58.0333 2042.55 49.9314 Q2042.55 41.8701 2039.07 37.1711 Q2035.58 32.4315 2029.63 32.4315 M2029.63 26.1121 Q2039.35 26.1121 2044.9 32.4315 Q2050.45 38.7509 2050.45 49.9314 Q2050.45 61.0714 2044.9 67.4314 Q2039.35 73.7508 2029.63 73.7508 Q2019.87 73.7508 2014.32 67.4314 Q2008.81 61.0714 2008.81 49.9314 Q2008.81 38.7509 2014.32 32.4315 Q2019.87 26.1121 2029.63 26.1121 Z" fill="#000000" fill-rule="evenodd" fill-opacity="1" /><path clip-path="url(#clip220)" d="M 0 0 M2095.98 45.1919 L2095.98 72.576 L2088.53 72.576 L2088.53 45.4349 Q2088.53 38.994 2086.02 35.7938 Q2083.51 32.5936 2078.48 32.5936 Q2072.45 32.5936 2068.96 36.4419 Q2065.48 40.2903 2065.48 46.9338 L2065.48 72.576 L2057.99 72.576 L2057.99 27.2059 L2065.48 27.2059 L2065.48 34.2544 Q2068.15 30.163 2071.76 28.1376 Q2075.41 26.1121 2080.14 26.1121 Q2087.96 26.1121 2091.97 30.9732 Q2095.98 35.7938 2095.98 45.1919 Z" fill="#000000" fill-rule="evenodd" fill-opacity="1" /><path clip-path="url(#clip220)" d="M 0 0 M2124.42 49.7694 Q2115.39 49.7694 2111.9 51.8354 Q2108.42 53.9013 2108.42 58.8839 Q2108.42 62.8538 2111.01 65.2034 Q2113.65 67.5124 2118.14 67.5124 Q2124.34 67.5124 2128.07 63.1374 Q2131.83 58.7219 2131.83 51.4303 L2131.83 49.7694 L2124.42 49.7694 M2139.29 46.6907 L2139.29 72.576 L2131.83 72.576 L2131.83 65.6895 Q2129.28 69.8214 2125.47 71.8063 Q2121.67 73.7508 2116.16 73.7508 Q2109.19 73.7508 2105.06 69.8619 Q2100.97 65.9325 2100.97 59.3701 Q2100.97 51.7138 2106.07 47.825 Q2111.22 43.9361 2121.38 43.9361 L2131.83 43.9361 L2131.83 43.2069 Q2131.83 38.0623 2128.43 35.2672 Q2125.07 32.4315 2118.95 32.4315 Q2115.06 32.4315 2111.38 33.3632 Q2107.69 34.295 2104.29 36.1584 L2104.29 29.2718 Q2108.38 27.692 2112.23 26.9223 Q2116.08 26.1121 2119.72 26.1121 Q2129.57 26.1121 2134.43 31.2163 Q2139.29 36.3204 2139.29 46.6907 Z" fill="#000000" fill-rule="evenodd" fill-opacity="1" /><path clip-path="url(#clip220)" d="M 0 0 M2147.11 9.54393 L2154.56 9.54393 L2154.56 72.576 L2147.11 72.576 L2147.11 9.54393 Z" fill="#000000" fill-rule="evenodd" fill-opacity="1" /><path clip-path="url(#clip220)" d="M 0 0 M2204.67 72.576 L2181.58 12.096 L2190.13 12.096 L2209.29 63.0159 L2228.49 12.096 L2237 12.096 L2213.95 72.576 L2204.67 72.576 Z" fill="#000000" fill-rule="evenodd" fill-opacity="1" /><path clip-path="url(#clip220)" d="M 0 0 M2258.99 49.7694 Q2249.96 49.7694 2246.48 51.8354 Q2242.99 53.9013 2242.99 58.8839 Q2242.99 62.8538 2245.58 65.2034 Q2248.22 67.5124 2252.71 67.5124 Q2258.91 67.5124 2262.64 63.1374 Q2266.41 58.7219 2266.41 51.4303 L2266.41 49.7694 L2258.99 49.7694 M2273.86 46.6907 L2273.86 72.576 L2266.41 72.576 L2266.41 65.6895 Q2263.85 69.8214 2260.05 71.8063 Q2256.24 73.7508 2250.73 73.7508 Q2243.76 73.7508 2239.63 69.8619 Q2235.54 65.9325 2235.54 59.3701 Q2235.54 51.7138 2240.64 47.825 Q2245.79 43.9361 2255.95 43.9361 L2266.41 43.9361 L2266.41 43.2069 Q2266.41 38.0623 2263 35.2672 Q2259.64 32.4315 2253.52 32.4315 Q2249.63 32.4315 2245.95 33.3632 Q2242.26 34.295 2238.86 36.1584 L2238.86 29.2718 Q2242.95 27.692 2246.8 26.9223 Q2250.65 26.1121 2254.29 26.1121 Q2264.14 26.1121 2269 31.2163 Q2273.86 36.3204 2273.86 46.6907 Z" fill="#000000" fill-rule="evenodd" fill-opacity="1" /><path clip-path="url(#clip220)" d="M 0 0 M2281.68 9.54393 L2289.13 9.54393 L2289.13 72.576 L2281.68 72.576 L2281.68 9.54393 Z" fill="#000000" fill-rule="evenodd" fill-opacity="1" /><path clip-path="url(#clip220)" d="M 0 0 M2296.18 54.671 L2296.18 27.2059 L2303.63 27.2059 L2303.63 54.3874 Q2303.63 60.8284 2306.14 64.0691 Q2308.66 67.2693 2313.68 67.2693 Q2319.72 67.2693 2323.2 63.421 Q2326.72 59.5726 2326.72 52.9291 L2326.72 27.2059 L2334.18 27.2059 L2334.18 72.576 L2326.72 72.576 L2326.72 65.6084 Q2324.01 69.7404 2320.4 71.7658 Q2316.84 73.7508 2312.1 73.7508 Q2304.28 73.7508 2300.23 68.8897 Q2296.18 64.0286 2296.18 54.671 M2314.94 26.1121 L2314.94 26.1121 Z" fill="#000000" fill-rule="evenodd" fill-opacity="1" /><path clip-path="url(#clip220)" d="M 0 0 M2380.8 48.0275 L2380.8 51.6733 L2346.53 51.6733 Q2347.02 59.3701 2351.15 63.421 Q2355.32 67.4314 2362.74 67.4314 Q2367.03 67.4314 2371.04 66.3781 Q2375.09 65.3249 2379.06 63.2184 L2379.06 70.267 Q2375.05 71.9684 2370.84 72.8596 Q2366.62 73.7508 2362.29 73.7508 Q2351.43 73.7508 2345.07 67.4314 Q2338.75 61.1119 2338.75 50.3365 Q2338.75 39.1965 2344.75 32.6746 Q2350.79 26.1121 2360.99 26.1121 Q2370.15 26.1121 2375.46 32.0264 Q2380.8 37.9003 2380.8 48.0275 M2373.35 45.84 Q2373.27 39.7232 2369.91 36.0774 Q2366.58 32.4315 2361.08 32.4315 Q2354.84 32.4315 2351.07 35.9558 Q2347.34 39.4801 2346.78 45.8805 L2373.35 45.84 Z" fill="#000000" fill-rule="evenodd" fill-opacity="1" /><path clip-path="url(#clip220)" d="M 0 0 M2384.85 46.5287 L2406.69 46.5287 L2406.69 53.1722 L2384.85 53.1722 L2384.85 46.5287 Z" fill="#000000" fill-rule="evenodd" fill-opacity="1" /><path clip-path="url(#clip220)" d="M 0 0 M2435.13 49.7694 Q2426.09 49.7694 2422.61 51.8354 Q2419.12 53.9013 2419.12 58.8839 Q2419.12 62.8538 2421.72 65.2034 Q2424.35 67.5124 2428.85 67.5124 Q2435.04 67.5124 2438.77 63.1374 Q2442.54 58.7219 2442.54 51.4303 L2442.54 49.7694 L2435.13 49.7694 M2449.99 46.6907 L2449.99 72.576 L2442.54 72.576 L2442.54 65.6895 Q2439.99 69.8214 2436.18 71.8063 Q2432.37 73.7508 2426.86 73.7508 Q2419.89 73.7508 2415.76 69.8619 Q2411.67 65.9325 2411.67 59.3701 Q2411.67 51.7138 2416.78 47.825 Q2421.92 43.9361 2432.09 43.9361 L2442.54 43.9361 L2442.54 43.2069 Q2442.54 38.0623 2439.14 35.2672 Q2435.77 32.4315 2429.66 32.4315 Q2425.77 32.4315 2422.08 33.3632 Q2418.4 34.295 2414.99 36.1584 L2414.99 29.2718 Q2419.08 27.692 2422.93 26.9223 Q2426.78 26.1121 2430.43 26.1121 Q2440.27 26.1121 2445.13 31.2163 Q2449.99 36.3204 2449.99 46.6907 Z" fill="#000000" fill-rule="evenodd" fill-opacity="1" /><path clip-path="url(#clip220)" d="M 0 0 M2465.18 14.324 L2465.18 27.2059 L2480.54 27.2059 L2480.54 32.9987 L2465.18 32.9987 L2465.18 57.6282 Q2465.18 63.1779 2466.68 64.7578 Q2468.22 66.3376 2472.88 66.3376 L2480.54 66.3376 L2480.54 72.576 L2472.88 72.576 Q2464.25 72.576 2460.97 69.3758 Q2457.69 66.1351 2457.69 57.6282 L2457.69 32.9987 L2452.22 32.9987 L2452.22 27.2059 L2457.69 27.2059 L2457.69 14.324 L2465.18 14.324 Z" fill="#000000" fill-rule="evenodd" fill-opacity="1" /><path clip-path="url(#clip220)" d="M 0 0 M2484.59 46.5287 L2506.42 46.5287 L2506.42 53.1722 L2484.59 53.1722 L2484.59 46.5287 Z" fill="#000000" fill-rule="evenodd" fill-opacity="1" /><path clip-path="url(#clip220)" d="M 0 0 M2543.24 44.2197 Q2545.88 45.1109 2548.35 48.0275 Q2550.86 50.9442 2553.37 56.0483 L2561.68 72.576 L2552.89 72.576 L2545.15 57.061 Q2542.15 50.9847 2539.31 48.9997 Q2536.52 47.0148 2531.66 47.0148 L2522.75 47.0148 L2522.75 72.576 L2514.56 72.576 L2514.56 12.096 L2533.04 12.096 Q2543.41 12.096 2548.51 16.4305 Q2553.61 20.7649 2553.61 29.5149 Q2553.61 35.2267 2550.94 38.994 Q2548.31 42.7613 2543.24 44.2197 M2522.75 18.8205 L2522.75 40.2903 L2533.04 40.2903 Q2538.95 40.2903 2541.95 37.5762 Q2544.99 34.8216 2544.99 29.5149 Q2544.99 24.2082 2541.95 21.5346 Q2538.95 18.8205 2533.04 18.8205 L2522.75 18.8205 Z" fill="#000000" fill-rule="evenodd" fill-opacity="1" /><path clip-path="url(#clip220)" d="M 0 0 M2569.49 27.2059 L2576.95 27.2059 L2576.95 72.576 L2569.49 72.576 L2569.49 27.2059 M2569.49 9.54393 L2576.95 9.54393 L2576.95 18.9825 L2569.49 18.9825 L2569.49 9.54393 Z" fill="#000000" fill-rule="evenodd" fill-opacity="1" /><path clip-path="url(#clip220)" d="M 0 0 M2613.69 28.5427 L2613.69 35.5912 Q2610.53 33.9709 2607.13 33.1607 Q2603.72 32.3505 2600.08 32.3505 Q2594.53 32.3505 2591.73 34.0519 Q2588.98 35.7533 2588.98 39.156 Q2588.98 41.7486 2590.96 43.2475 Q2592.95 44.7058 2598.94 46.0426 L2601.5 46.6097 Q2609.44 48.3111 2612.76 51.4303 Q2616.12 54.509 2616.12 60.0587 Q2616.12 66.3781 2611.1 70.0644 Q2606.11 73.7508 2597.36 73.7508 Q2593.72 73.7508 2589.75 73.0216 Q2585.82 72.3329 2581.44 70.9151 L2581.44 63.2184 Q2585.58 65.3654 2589.59 66.4591 Q2593.6 67.5124 2597.53 67.5124 Q2602.79 67.5124 2605.63 65.73 Q2608.46 63.9071 2608.46 60.6258 Q2608.46 57.5877 2606.4 55.9673 Q2604.37 54.3469 2597.45 52.8481 L2594.85 52.2405 Q2587.93 50.7821 2584.85 47.7845 Q2581.77 44.7463 2581.77 39.4801 Q2581.77 33.0797 2586.31 29.5959 Q2590.84 26.1121 2599.19 26.1121 Q2603.32 26.1121 2606.97 26.7198 Q2610.61 27.3274 2613.69 28.5427 Z" fill="#000000" fill-rule="evenodd" fill-opacity="1" /><path clip-path="url(#clip220)" d="M 0 0 M2623.65 9.54393 L2631.15 9.54393 L2631.15 46.7717 L2653.39 27.2059 L2662.91 27.2059 L2638.85 48.4326 L2663.92 72.576 L2654.2 72.576 L2631.15 50.4176 L2631.15 72.576 L2623.65 72.576 L2623.65 9.54393 Z" fill="#000000" fill-rule="evenodd" fill-opacity="1" /><path clip-path="url(#clip220)" d="M 0 0 M2215.91 1861.06 L2214.51 1853.71 Q2213.08 1846.17 2207.41 1846.17 Q2203.15 1846.17 2201.2 1849.67 Q2198.75 1854.06 2198.75 1859.85 Q2198.75 1866.85 2201.14 1870.2 Q2203.56 1873.6 2207.41 1873.6 Q2211.68 1873.6 2213.97 1866.82 L2215.91 1861.06 M2219.19 1851.32 L2222.34 1842 L2227.56 1842 L2221.03 1861.32 L2222.31 1868.29 Q2222.59 1869.85 2223.71 1871.15 Q2225.01 1872.68 2226.03 1872.68 L2228.83 1872.68 L2228.83 1877.64 L2225.33 1877.64 Q2222.34 1877.64 2219.67 1874.97 Q2218.36 1873.63 2217.82 1870.83 Q2216.36 1874.37 2213.36 1877.13 Q2211.96 1878.44 2207.41 1878.44 Q2199.93 1878.44 2196.3 1873.6 Q2192.58 1868.6 2192.58 1859.85 Q2192.58 1850.49 2196.62 1846.1 Q2201.11 1841.2 2207.41 1841.2 Q2217.31 1841.2 2219.19 1851.32 Z" fill="#000000" fill-rule="evenodd" fill-opacity="1" /><polyline clip-path="url(#clip223)" style="stroke:#009af9; stroke-width:8; stroke-opacity:0.5; fill:none" stroke-dasharray="32, 20" points="
  1623.87,1694.23 2797.55,1694.23 
  "/>
<polyline clip-path="url(#clip223)" style="stroke:#e26f46; stroke-width:8; stroke-opacity:0.5; fill:none" stroke-dasharray="32, 20" points="
  1623.87,169.222 2797.55,169.222 
  "/>
<polyline clip-path="url(#clip223)" style="stroke:#3da44d; stroke-width:8; stroke-opacity:1; fill:none" points="
  1623.87,1694.23 1635.6,1694.23 1647.34,1694.23 1659.08,1694.23 1670.81,1694.23 1682.55,1694.23 1686.59,1694.23 1694.29,1694.23 1699.22,1694.23 1706.02,1681.79 
  1708.06,1678.46 1717.76,1664.58 1729.5,1651.19 1741.23,1640.48 1751.04,1633.05 1752.97,1631.72 1754.75,1630.53 1764.71,1624.41 1776.44,1618.23 1788.18,1612.94 
  1790.27,1612.07 1799.92,1608.35 1811.65,1604.33 1823.39,1600.78 1835.13,1597.63 1846.86,1594.81 1855.39,1592.95 1858.6,1592.28 1870.34,1588.72 1882.08,1583.68 
  1893.81,1579.08 1905.55,1574.86 1917.29,1570.98 1919.3,1570.35 1929.02,1567.4 1940.76,1564.08 1952.5,1561 1964.23,1558.14 1975.97,1555.46 1987.71,1552.96 
  1999.44,1550.61 2011.18,1548.41 2022.92,1546.33 2034.65,1544.38 2046.39,1542.53 2058.13,1540.78 2069.86,1539.12 2081.6,1537.55 2093.34,1536.06 2105.07,1534.64 
  2116.81,1533.29 2128.55,1532 2140.28,1530.77 2152.02,1529.6 2163.76,1521.95 2175.5,1493.29 2187.23,1465.82 2198.97,1439.48 2210.71,1414.18 2222.44,1389.88 
  2234.18,1366.52 2245.92,1344.04 2257.65,1322.39 2269.39,1301.52 2281.13,1281.4 2292.86,1261.16 2304.6,1232.15 2316.34,1204.12 2328.07,1177.03 2339.81,1150.82 
  2351.55,1125.46 2363.28,1100.9 2375.02,1077.11 2386.76,1054.06 2398.49,1031.7 2410.23,1010.01 2421.97,988.953 2433.7,968.51 2445.44,948.651 2457.18,929.352 
  2468.92,910.589 2480.65,892.34 2492.39,874.584 2504.13,857.301 2515.86,840.474 2527.6,820.347 2539.34,793.968 2551.07,768.257 2562.81,743.189 2574.55,718.74 
  2586.28,694.887 2598.02,671.609 2609.76,648.886 2621.49,626.697 2633.23,605.024 2644.97,583.849 2656.7,555.151 2668.44,519.721 2680.18,485.078 2691.91,451.196 
  2703.65,418.051 2715.39,385.619 2727.12,353.877 2738.86,322.292 2750.6,290.403 2762.34,259.171 2774.07,228.576 2785.81,198.599 2797.55,169.222 
  "/>
</svg>
