<?xml version="1.0" encoding="utf-8"?>
<svg xmlns="http://www.w3.org/2000/svg" xmlns:xlink="http://www.w3.org/1999/xlink" width="720" height="400" viewBox="0 0 2880 1600">
<defs>
  <clipPath id="clip530">
    <rect x="0" y="0" width="2880" height="1600"/>
  </clipPath>
</defs>
<path clip-path="url(#clip530)" d="
M0 1600 L2880 1600 L2880 0 L0 0  Z
  " fill="#ffffff" fill-rule="evenodd" fill-opacity="1"/>
<defs>
  <clipPath id="clip531">
    <rect x="576" y="0" width="2017" height="1600"/>
  </clipPath>
</defs>
<path clip-path="url(#clip530)" d="
M130.056 1436.86 L1374.16 1436.86 L1374.16 113.392 L130.056 113.392  Z
  " fill="#ffffff" fill-rule="evenodd" fill-opacity="1"/>
<defs>
  <clipPath id="clip532">
    <rect x="130" y="113" width="1245" height="1324"/>
  </clipPath>
</defs>
<polyline clip-path="url(#clip532)" style="stroke:#000000; stroke-width:2; stroke-opacity:0.1; fill:none" points="
  165.266,1436.86 165.266,113.392 
  "/>
<polyline clip-path="url(#clip532)" style="stroke:#000000; stroke-width:2; stroke-opacity:0.1; fill:none" points="
  458.686,1436.86 458.686,113.392 
  "/>
<polyline clip-path="url(#clip532)" style="stroke:#000000; stroke-width:2; stroke-opacity:0.1; fill:none" points="
  752.106,1436.86 752.106,113.392 
  "/>
<polyline clip-path="url(#clip532)" style="stroke:#000000; stroke-width:2; stroke-opacity:0.1; fill:none" points="
  1045.53,1436.86 1045.53,113.392 
  "/>
<polyline clip-path="url(#clip532)" style="stroke:#000000; stroke-width:2; stroke-opacity:0.1; fill:none" points="
  1338.95,1436.86 1338.95,113.392 
  "/>
<polyline clip-path="url(#clip532)" style="stroke:#000000; stroke-width:2; stroke-opacity:0.1; fill:none" points="
  130.056,1253.82 1374.16,1253.82 
  "/>
<polyline clip-path="url(#clip532)" style="stroke:#000000; stroke-width:2; stroke-opacity:0.1; fill:none" points="
  130.056,978.057 1374.16,978.057 
  "/>
<polyline clip-path="url(#clip532)" style="stroke:#000000; stroke-width:2; stroke-opacity:0.1; fill:none" points="
  130.056,702.294 1374.16,702.294 
  "/>
<polyline clip-path="url(#clip532)" style="stroke:#000000; stroke-width:2; stroke-opacity:0.1; fill:none" points="
  130.056,426.532 1374.16,426.532 
  "/>
<polyline clip-path="url(#clip532)" style="stroke:#000000; stroke-width:2; stroke-opacity:0.1; fill:none" points="
  130.056,150.77 1374.16,150.77 
  "/>
<polyline clip-path="url(#clip530)" style="stroke:#000000; stroke-width:4; stroke-opacity:1; fill:none" points="
  130.056,1436.86 1374.16,1436.86 
  "/>
<polyline clip-path="url(#clip530)" style="stroke:#000000; stroke-width:4; stroke-opacity:1; fill:none" points="
  130.056,1436.86 130.056,113.392 
  "/>
<polyline clip-path="url(#clip530)" style="stroke:#000000; stroke-width:4; stroke-opacity:1; fill:none" points="
  165.266,1436.86 165.266,1420.98 
  "/>
<polyline clip-path="url(#clip530)" style="stroke:#000000; stroke-width:4; stroke-opacity:1; fill:none" points="
  458.686,1436.86 458.686,1420.98 
  "/>
<polyline clip-path="url(#clip530)" style="stroke:#000000; stroke-width:4; stroke-opacity:1; fill:none" points="
  752.106,1436.86 752.106,1420.98 
  "/>
<polyline clip-path="url(#clip530)" style="stroke:#000000; stroke-width:4; stroke-opacity:1; fill:none" points="
  1045.53,1436.86 1045.53,1420.98 
  "/>
<polyline clip-path="url(#clip530)" style="stroke:#000000; stroke-width:4; stroke-opacity:1; fill:none" points="
  1338.95,1436.86 1338.95,1420.98 
  "/>
<polyline clip-path="url(#clip530)" style="stroke:#000000; stroke-width:4; stroke-opacity:1; fill:none" points="
  130.056,1253.82 144.985,1253.82 
  "/>
<polyline clip-path="url(#clip530)" style="stroke:#000000; stroke-width:4; stroke-opacity:1; fill:none" points="
  130.056,978.057 144.985,978.057 
  "/>
<polyline clip-path="url(#clip530)" style="stroke:#000000; stroke-width:4; stroke-opacity:1; fill:none" points="
  130.056,702.294 144.985,702.294 
  "/>
<polyline clip-path="url(#clip530)" style="stroke:#000000; stroke-width:4; stroke-opacity:1; fill:none" points="
  130.056,426.532 144.985,426.532 
  "/>
<polyline clip-path="url(#clip530)" style="stroke:#000000; stroke-width:4; stroke-opacity:1; fill:none" points="
  130.056,150.77 144.985,150.77 
  "/>
<path clip-path="url(#clip530)" d="M 0 0 M133.276 1461.25 Q129.665 1461.25 127.836 1464.82 Q126.03 1468.36 126.03 1475.49 Q126.03 1482.59 127.836 1486.16 Q129.665 1489.7 133.276 1489.7 Q136.91 1489.7 138.715 1486.16 Q140.544 1482.59 140.544 1475.49 Q140.544 1468.36 138.715 1464.82 Q136.91 1461.25 133.276 1461.25 M133.276 1457.55 Q139.086 1457.55 142.141 1462.15 Q145.22 1466.74 145.22 1475.49 Q145.22 1484.21 142.141 1488.82 Q139.086 1493.4 133.276 1493.4 Q127.465 1493.4 124.387 1488.82 Q121.331 1484.21 121.331 1475.49 Q121.331 1466.74 124.387 1462.15 Q127.465 1457.55 133.276 1457.55 Z" fill="#000000" fill-rule="evenodd" fill-opacity="1" /><path clip-path="url(#clip530)" d="M 0 0 M150.289 1486.85 L155.174 1486.85 L155.174 1492.73 L150.289 1492.73 L150.289 1486.85 Z" fill="#000000" fill-rule="evenodd" fill-opacity="1" /><path clip-path="url(#clip530)" d="M 0 0 M170.243 1461.25 Q166.632 1461.25 164.803 1464.82 Q162.998 1468.36 162.998 1475.49 Q162.998 1482.59 164.803 1486.16 Q166.632 1489.7 170.243 1489.7 Q173.877 1489.7 175.683 1486.16 Q177.512 1482.59 177.512 1475.49 Q177.512 1468.36 175.683 1464.82 Q173.877 1461.25 170.243 1461.25 M170.243 1457.55 Q176.053 1457.55 179.109 1462.15 Q182.187 1466.74 182.187 1475.49 Q182.187 1484.21 179.109 1488.82 Q176.053 1493.4 170.243 1493.4 Q164.433 1493.4 161.354 1488.82 Q158.299 1484.21 158.299 1475.49 Q158.299 1466.74 161.354 1462.15 Q164.433 1457.55 170.243 1457.55 Z" fill="#000000" fill-rule="evenodd" fill-opacity="1" /><path clip-path="url(#clip530)" d="M 0 0 M197.257 1461.25 Q193.646 1461.25 191.817 1464.82 Q190.011 1468.36 190.011 1475.49 Q190.011 1482.59 191.817 1486.16 Q193.646 1489.7 197.257 1489.7 Q200.891 1489.7 202.697 1486.16 Q204.525 1482.59 204.525 1475.49 Q204.525 1468.36 202.697 1464.82 Q200.891 1461.25 197.257 1461.25 M197.257 1457.55 Q203.067 1457.55 206.122 1462.15 Q209.201 1466.74 209.201 1475.49 Q209.201 1484.21 206.122 1488.82 Q203.067 1493.4 197.257 1493.4 Q191.447 1493.4 188.368 1488.82 Q185.312 1484.21 185.312 1475.49 Q185.312 1466.74 188.368 1462.15 Q191.447 1457.55 197.257 1457.55 Z" fill="#000000" fill-rule="evenodd" fill-opacity="1" /><path clip-path="url(#clip530)" d="M 0 0 M427.992 1461.25 Q424.381 1461.25 422.552 1464.82 Q420.747 1468.36 420.747 1475.49 Q420.747 1482.59 422.552 1486.16 Q424.381 1489.7 427.992 1489.7 Q431.626 1489.7 433.432 1486.16 Q435.26 1482.59 435.26 1475.49 Q435.26 1468.36 433.432 1464.82 Q431.626 1461.25 427.992 1461.25 M427.992 1457.55 Q433.802 1457.55 436.858 1462.15 Q439.936 1466.74 439.936 1475.49 Q439.936 1484.21 436.858 1488.82 Q433.802 1493.4 427.992 1493.4 Q422.182 1493.4 419.103 1488.82 Q416.048 1484.21 416.048 1475.49 Q416.048 1466.74 419.103 1462.15 Q422.182 1457.55 427.992 1457.55 Z" fill="#000000" fill-rule="evenodd" fill-opacity="1" /><path clip-path="url(#clip530)" d="M 0 0 M445.006 1486.85 L449.89 1486.85 L449.89 1492.73 L445.006 1492.73 L445.006 1486.85 Z" fill="#000000" fill-rule="evenodd" fill-opacity="1" /><path clip-path="url(#clip530)" d="M 0 0 M458.987 1488.8 L475.306 1488.8 L475.306 1492.73 L453.362 1492.73 L453.362 1488.8 Q456.024 1486.04 460.607 1481.41 Q465.214 1476.76 466.394 1475.42 Q468.64 1472.89 469.519 1471.16 Q470.422 1469.4 470.422 1467.71 Q470.422 1464.95 468.478 1463.22 Q466.557 1461.48 463.455 1461.48 Q461.256 1461.48 458.802 1462.25 Q456.371 1463.01 453.594 1464.56 L453.594 1459.84 Q456.418 1458.7 458.871 1458.13 Q461.325 1457.55 463.362 1457.55 Q468.732 1457.55 471.927 1460.23 Q475.121 1462.92 475.121 1467.41 Q475.121 1469.54 474.311 1471.46 Q473.524 1473.36 471.418 1475.95 Q470.839 1476.62 467.737 1479.84 Q464.635 1483.03 458.987 1488.8 Z" fill="#000000" fill-rule="evenodd" fill-opacity="1" /><path clip-path="url(#clip530)" d="M 0 0 M480.422 1458.17 L498.779 1458.17 L498.779 1462.11 L484.705 1462.11 L484.705 1470.58 Q485.723 1470.23 486.742 1470.07 Q487.76 1469.88 488.779 1469.88 Q494.566 1469.88 497.945 1473.06 Q501.325 1476.23 501.325 1481.64 Q501.325 1487.22 497.853 1490.32 Q494.38 1493.4 488.061 1493.4 Q485.885 1493.4 483.617 1493.03 Q481.371 1492.66 478.964 1491.92 L478.964 1487.22 Q481.047 1488.36 483.269 1488.91 Q485.492 1489.47 487.968 1489.47 Q491.973 1489.47 494.311 1487.36 Q496.649 1485.26 496.649 1481.64 Q496.649 1478.03 494.311 1475.93 Q491.973 1473.82 487.968 1473.82 Q486.093 1473.82 484.218 1474.24 Q482.367 1474.65 480.422 1475.53 L480.422 1458.17 Z" fill="#000000" fill-rule="evenodd" fill-opacity="1" /><path clip-path="url(#clip530)" d="M 0 0 M720.613 1461.25 Q717.002 1461.25 715.173 1464.82 Q713.368 1468.36 713.368 1475.49 Q713.368 1482.59 715.173 1486.16 Q717.002 1489.7 720.613 1489.7 Q724.247 1489.7 726.053 1486.16 Q727.882 1482.59 727.882 1475.49 Q727.882 1468.36 726.053 1464.82 Q724.247 1461.25 720.613 1461.25 M720.613 1457.55 Q726.423 1457.55 729.479 1462.15 Q732.558 1466.74 732.558 1475.49 Q732.558 1484.21 729.479 1488.82 Q726.423 1493.4 720.613 1493.4 Q714.803 1493.4 711.724 1488.82 Q708.669 1484.21 708.669 1475.49 Q708.669 1466.74 711.724 1462.15 Q714.803 1457.55 720.613 1457.55 Z" fill="#000000" fill-rule="evenodd" fill-opacity="1" /><path clip-path="url(#clip530)" d="M 0 0 M737.627 1486.85 L742.511 1486.85 L742.511 1492.73 L737.627 1492.73 L737.627 1486.85 Z" fill="#000000" fill-rule="evenodd" fill-opacity="1" /><path clip-path="url(#clip530)" d="M 0 0 M747.627 1458.17 L765.983 1458.17 L765.983 1462.11 L751.909 1462.11 L751.909 1470.58 Q752.928 1470.23 753.946 1470.07 Q754.965 1469.88 755.983 1469.88 Q761.77 1469.88 765.15 1473.06 Q768.53 1476.23 768.53 1481.64 Q768.53 1487.22 765.057 1490.32 Q761.585 1493.4 755.266 1493.4 Q753.09 1493.4 750.821 1493.03 Q748.576 1492.66 746.169 1491.92 L746.169 1487.22 Q748.252 1488.36 750.474 1488.91 Q752.696 1489.47 755.173 1489.47 Q759.178 1489.47 761.516 1487.36 Q763.854 1485.26 763.854 1481.64 Q763.854 1478.03 761.516 1475.93 Q759.178 1473.82 755.173 1473.82 Q753.298 1473.82 751.423 1474.24 Q749.571 1474.65 747.627 1475.53 L747.627 1458.17 Z" fill="#000000" fill-rule="evenodd" fill-opacity="1" /><path clip-path="url(#clip530)" d="M 0 0 M783.599 1461.25 Q779.988 1461.25 778.159 1464.82 Q776.354 1468.36 776.354 1475.49 Q776.354 1482.59 778.159 1486.16 Q779.988 1489.7 783.599 1489.7 Q787.233 1489.7 789.039 1486.16 Q790.868 1482.59 790.868 1475.49 Q790.868 1468.36 789.039 1464.82 Q787.233 1461.25 783.599 1461.25 M783.599 1457.55 Q789.409 1457.55 792.465 1462.15 Q795.543 1466.74 795.543 1475.49 Q795.543 1484.21 792.465 1488.82 Q789.409 1493.4 783.599 1493.4 Q777.789 1493.4 774.71 1488.82 Q771.655 1484.21 771.655 1475.49 Q771.655 1466.74 774.71 1462.15 Q777.789 1457.55 783.599 1457.55 Z" fill="#000000" fill-rule="evenodd" fill-opacity="1" /><path clip-path="url(#clip530)" d="M 0 0 M1014.48 1461.25 Q1010.87 1461.25 1009.04 1464.82 Q1007.24 1468.36 1007.24 1475.49 Q1007.24 1482.59 1009.04 1486.16 Q1010.87 1489.7 1014.48 1489.7 Q1018.12 1489.7 1019.92 1486.16 Q1021.75 1482.59 1021.75 1475.49 Q1021.75 1468.36 1019.92 1464.82 Q1018.12 1461.25 1014.48 1461.25 M1014.48 1457.55 Q1020.29 1457.55 1023.35 1462.15 Q1026.43 1466.74 1026.43 1475.49 Q1026.43 1484.21 1023.35 1488.82 Q1020.29 1493.4 1014.48 1493.4 Q1008.67 1493.4 1005.6 1488.82 Q1002.54 1484.21 1002.54 1475.49 Q1002.54 1466.74 1005.6 1462.15 Q1008.67 1457.55 1014.48 1457.55 Z" fill="#000000" fill-rule="evenodd" fill-opacity="1" /><path clip-path="url(#clip530)" d="M 0 0 M1031.5 1486.85 L1036.38 1486.85 L1036.38 1492.73 L1031.5 1492.73 L1031.5 1486.85 Z" fill="#000000" fill-rule="evenodd" fill-opacity="1" /><path clip-path="url(#clip530)" d="M 0 0 M1040.27 1458.17 L1062.49 1458.17 L1062.49 1460.16 L1049.95 1492.73 L1045.06 1492.73 L1056.87 1462.11 L1040.27 1462.11 L1040.27 1458.17 Z" fill="#000000" fill-rule="evenodd" fill-opacity="1" /><path clip-path="url(#clip530)" d="M 0 0 M1067.61 1458.17 L1085.97 1458.17 L1085.97 1462.11 L1071.89 1462.11 L1071.89 1470.58 Q1072.91 1470.23 1073.93 1470.07 Q1074.95 1469.88 1075.97 1469.88 Q1081.75 1469.88 1085.13 1473.06 Q1088.51 1476.23 1088.51 1481.64 Q1088.51 1487.22 1085.04 1490.32 Q1081.57 1493.4 1075.25 1493.4 Q1073.07 1493.4 1070.8 1493.03 Q1068.56 1492.66 1066.15 1491.92 L1066.15 1487.22 Q1068.23 1488.36 1070.46 1488.91 Q1072.68 1489.47 1075.16 1489.47 Q1079.16 1489.47 1081.5 1487.36 Q1083.84 1485.26 1083.84 1481.64 Q1083.84 1478.03 1081.5 1475.93 Q1079.16 1473.82 1075.16 1473.82 Q1073.28 1473.82 1071.41 1474.24 Q1069.55 1474.65 1067.61 1475.53 L1067.61 1458.17 Z" fill="#000000" fill-rule="evenodd" fill-opacity="1" /><path clip-path="url(#clip530)" d="M 0 0 M1297.34 1488.8 L1304.98 1488.8 L1304.98 1462.43 L1296.67 1464.1 L1296.67 1459.84 L1304.93 1458.17 L1309.61 1458.17 L1309.61 1488.8 L1317.24 1488.8 L1317.24 1492.73 L1297.34 1492.73 L1297.34 1488.8 Z" fill="#000000" fill-rule="evenodd" fill-opacity="1" /><path clip-path="url(#clip530)" d="M 0 0 M1322.31 1486.85 L1327.2 1486.85 L1327.2 1492.73 L1322.31 1492.73 L1322.31 1486.85 Z" fill="#000000" fill-rule="evenodd" fill-opacity="1" /><path clip-path="url(#clip530)" d="M 0 0 M1342.27 1461.25 Q1338.66 1461.25 1336.83 1464.82 Q1335.02 1468.36 1335.02 1475.49 Q1335.02 1482.59 1336.83 1486.16 Q1338.66 1489.7 1342.27 1489.7 Q1345.9 1489.7 1347.71 1486.16 Q1349.54 1482.59 1349.54 1475.49 Q1349.54 1468.36 1347.71 1464.82 Q1345.9 1461.25 1342.27 1461.25 M1342.27 1457.55 Q1348.08 1457.55 1351.13 1462.15 Q1354.21 1466.74 1354.21 1475.49 Q1354.21 1484.21 1351.13 1488.82 Q1348.08 1493.4 1342.27 1493.4 Q1336.46 1493.4 1333.38 1488.82 Q1330.32 1484.21 1330.32 1475.49 Q1330.32 1466.74 1333.38 1462.15 Q1336.46 1457.55 1342.27 1457.55 Z" fill="#000000" fill-rule="evenodd" fill-opacity="1" /><path clip-path="url(#clip530)" d="M 0 0 M1369.28 1461.25 Q1365.67 1461.25 1363.84 1464.82 Q1362.04 1468.36 1362.04 1475.49 Q1362.04 1482.59 1363.84 1486.16 Q1365.67 1489.7 1369.28 1489.7 Q1372.92 1489.7 1374.72 1486.16 Q1376.55 1482.59 1376.55 1475.49 Q1376.55 1468.36 1374.72 1464.82 Q1372.92 1461.25 1369.28 1461.25 M1369.28 1457.55 Q1375.09 1457.55 1378.15 1462.15 Q1381.23 1466.74 1381.23 1475.49 Q1381.23 1484.21 1378.15 1488.82 Q1375.09 1493.4 1369.28 1493.4 Q1363.47 1493.4 1360.39 1488.82 Q1357.34 1484.21 1357.34 1475.49 Q1357.34 1466.74 1360.39 1462.15 Q1363.47 1457.55 1369.28 1457.55 Z" fill="#000000" fill-rule="evenodd" fill-opacity="1" /><path clip-path="url(#clip530)" d="M 0 0 M62.9921 1256.21 L75.4689 1256.21 L75.4689 1260.01 L62.9921 1260.01 L62.9921 1256.21 Z" fill="#000000" fill-rule="evenodd" fill-opacity="1" /><path clip-path="url(#clip530)" d="M 0 0 M81.3485 1267.16 L88.9874 1267.16 L88.9874 1240.8 L80.6772 1242.46 L80.6772 1238.21 L88.9411 1236.54 L93.617 1236.54 L93.617 1267.16 L101.256 1267.16 L101.256 1271.1 L81.3485 1271.1 L81.3485 1267.16 Z" fill="#000000" fill-rule="evenodd" fill-opacity="1" /><path clip-path="url(#clip530)" d="M 0 0 M89.3114 963.855 Q85.7003 963.855 83.8716 967.42 Q82.0661 970.962 82.0661 978.092 Q82.0661 985.198 83.8716 988.763 Q85.7003 992.304 89.3114 992.304 Q92.9457 992.304 94.7512 988.763 Q96.5799 985.198 96.5799 978.092 Q96.5799 970.962 94.7512 967.42 Q92.9457 963.855 89.3114 963.855 M89.3114 960.152 Q95.1216 960.152 98.1771 964.758 Q101.256 969.342 101.256 978.092 Q101.256 986.818 98.1771 991.425 Q95.1216 996.008 89.3114 996.008 Q83.5013 996.008 80.4226 991.425 Q77.367 986.818 77.367 978.092 Q77.367 969.342 80.4226 964.758 Q83.5013 960.152 89.3114 960.152 Z" fill="#000000" fill-rule="evenodd" fill-opacity="1" /><path clip-path="url(#clip530)" d="M 0 0 M81.3485 715.639 L88.9874 715.639 L88.9874 689.274 L80.6772 690.94 L80.6772 686.681 L88.9411 685.014 L93.617 685.014 L93.617 715.639 L101.256 715.639 L101.256 719.574 L81.3485 719.574 L81.3485 715.639 Z" fill="#000000" fill-rule="evenodd" fill-opacity="1" /><path clip-path="url(#clip530)" d="M 0 0 M84.9365 439.877 L101.256 439.877 L101.256 443.812 L79.3115 443.812 L79.3115 439.877 Q81.9735 437.122 86.5568 432.493 Q91.1633 427.84 92.3438 426.497 Q94.5892 423.974 95.4688 422.238 Q96.3716 420.479 96.3716 418.789 Q96.3716 416.035 94.4271 414.298 Q92.5059 412.562 89.404 412.562 Q87.205 412.562 84.7513 413.326 Q82.3207 414.09 79.543 415.641 L79.543 410.919 Q82.367 409.785 84.8207 409.206 Q87.2744 408.627 89.3114 408.627 Q94.6818 408.627 97.8762 411.312 Q101.071 413.998 101.071 418.488 Q101.071 420.618 100.26 422.539 Q99.4734 424.437 97.3669 427.03 Q96.7882 427.701 93.6864 430.919 Q90.5846 434.113 84.9365 439.877 Z" fill="#000000" fill-rule="evenodd" fill-opacity="1" /><path clip-path="url(#clip530)" d="M 0 0 M94.1262 149.416 Q97.4827 150.133 99.3577 152.402 Q101.256 154.67 101.256 158.004 Q101.256 163.119 97.7373 165.92 Q94.2188 168.721 87.7374 168.721 Q85.5614 168.721 83.2466 168.281 Q80.955 167.865 78.5013 167.008 L78.5013 162.494 Q80.4457 163.629 82.7605 164.207 Q85.0753 164.786 87.5985 164.786 Q91.9966 164.786 94.2883 163.05 Q96.6031 161.314 96.6031 158.004 Q96.6031 154.948 94.4503 153.235 Q92.3207 151.499 88.5012 151.499 L84.4735 151.499 L84.4735 147.656 L88.6864 147.656 Q92.1355 147.656 93.9642 146.291 Q95.7929 144.902 95.7929 142.309 Q95.7929 139.647 93.8947 138.235 Q92.0197 136.8 88.5012 136.8 Q86.58 136.8 84.3809 137.217 Q82.1818 137.633 79.543 138.513 L79.543 134.346 Q82.205 133.606 84.5198 133.235 Q86.8577 132.865 88.9179 132.865 Q94.242 132.865 97.3438 135.295 Q100.446 137.703 100.446 141.823 Q100.446 144.694 98.8021 146.684 Q97.1586 148.652 94.1262 149.416 Z" fill="#000000" fill-rule="evenodd" fill-opacity="1" /><path clip-path="url(#clip530)" d="M 0 0 M534.026 72.576 L510.936 12.096 L519.483 12.096 L538.644 63.0159 L557.845 12.096 L566.352 12.096 L543.302 72.576 L534.026 72.576 Z" fill="#000000" fill-rule="evenodd" fill-opacity="1" /><path clip-path="url(#clip530)" d="M 0 0 M588.348 49.7694 Q579.315 49.7694 575.831 51.8354 Q572.347 53.9013 572.347 58.8839 Q572.347 62.8538 574.94 65.2034 Q577.573 67.5124 582.069 67.5124 Q588.267 67.5124 591.994 63.1374 Q595.761 58.7219 595.761 51.4303 L595.761 49.7694 L588.348 49.7694 M603.215 46.6907 L603.215 72.576 L595.761 72.576 L595.761 65.6895 Q593.209 69.8214 589.402 71.8063 Q585.594 73.7508 580.084 73.7508 Q573.117 73.7508 568.985 69.8619 Q564.894 65.9325 564.894 59.3701 Q564.894 51.7138 569.998 47.825 Q575.142 43.9361 585.31 43.9361 L595.761 43.9361 L595.761 43.2069 Q595.761 38.0623 592.359 35.2672 Q588.996 32.4315 582.88 32.4315 Q578.991 32.4315 575.304 33.3632 Q571.618 34.295 568.215 36.1584 L568.215 29.2718 Q572.307 27.692 576.155 26.9223 Q580.003 26.1121 583.649 26.1121 Q593.493 26.1121 598.354 31.2163 Q603.215 36.3204 603.215 46.6907 Z" fill="#000000" fill-rule="evenodd" fill-opacity="1" /><path clip-path="url(#clip530)" d="M 0 0 M611.033 9.54393 L618.487 9.54393 L618.487 72.576 L611.033 72.576 L611.033 9.54393 Z" fill="#000000" fill-rule="evenodd" fill-opacity="1" /><path clip-path="url(#clip530)" d="M 0 0 M625.536 54.671 L625.536 27.2059 L632.989 27.2059 L632.989 54.3874 Q632.989 60.8284 635.501 64.0691 Q638.012 67.2693 643.036 67.2693 Q649.071 67.2693 652.555 63.421 Q656.079 59.5726 656.079 52.9291 L656.079 27.2059 L663.533 27.2059 L663.533 72.576 L656.079 72.576 L656.079 65.6084 Q653.365 69.7404 649.76 71.7658 Q646.195 73.7508 641.456 73.7508 Q633.637 73.7508 629.587 68.8897 Q625.536 64.0286 625.536 54.671 M644.291 26.1121 L644.291 26.1121 Z" fill="#000000" fill-rule="evenodd" fill-opacity="1" /><path clip-path="url(#clip530)" d="M 0 0 M710.159 48.0275 L710.159 51.6733 L675.888 51.6733 Q676.374 59.3701 680.506 63.421 Q684.679 67.4314 692.092 67.4314 Q696.386 67.4314 700.396 66.3781 Q704.447 65.3249 708.417 63.2184 L708.417 70.267 Q704.407 71.9684 700.194 72.8596 Q695.981 73.7508 691.646 73.7508 Q680.79 73.7508 674.43 67.4314 Q668.111 61.1119 668.111 50.3365 Q668.111 39.1965 674.106 32.6746 Q680.142 26.1121 690.35 26.1121 Q699.505 26.1121 704.812 32.0264 Q710.159 37.9003 710.159 48.0275 M702.705 45.84 Q702.624 39.7232 699.262 36.0774 Q695.94 32.4315 690.431 32.4315 Q684.193 32.4315 680.425 35.9558 Q676.699 39.4801 676.131 45.8805 L702.705 45.84 Z" fill="#000000" fill-rule="evenodd" fill-opacity="1" /><path clip-path="url(#clip530)" d="M 0 0 M714.21 46.5287 L736.044 46.5287 L736.044 53.1722 L714.21 53.1722 L714.21 46.5287 Z" fill="#000000" fill-rule="evenodd" fill-opacity="1" /><path clip-path="url(#clip530)" d="M 0 0 M764.482 49.7694 Q755.448 49.7694 751.964 51.8354 Q748.481 53.9013 748.481 58.8839 Q748.481 62.8538 751.073 65.2034 Q753.706 67.5124 758.203 67.5124 Q764.401 67.5124 768.127 63.1374 Q771.895 58.7219 771.895 51.4303 L771.895 49.7694 L764.482 49.7694 M779.348 46.6907 L779.348 72.576 L771.895 72.576 L771.895 65.6895 Q769.343 69.8214 765.535 71.8063 Q761.727 73.7508 756.218 73.7508 Q749.25 73.7508 745.118 69.8619 Q741.027 65.9325 741.027 59.3701 Q741.027 51.7138 746.131 47.825 Q751.276 43.9361 761.443 43.9361 L771.895 43.9361 L771.895 43.2069 Q771.895 38.0623 768.492 35.2672 Q765.13 32.4315 759.013 32.4315 Q755.124 32.4315 751.438 33.3632 Q747.751 34.295 744.349 36.1584 L744.349 29.2718 Q748.44 27.692 752.288 26.9223 Q756.137 26.1121 759.783 26.1121 Q769.626 26.1121 774.487 31.2163 Q779.348 36.3204 779.348 46.6907 Z" fill="#000000" fill-rule="evenodd" fill-opacity="1" /><path clip-path="url(#clip530)" d="M 0 0 M794.539 14.324 L794.539 27.2059 L809.892 27.2059 L809.892 32.9987 L794.539 32.9987 L794.539 57.6282 Q794.539 63.1779 796.038 64.7578 Q797.578 66.3376 802.236 66.3376 L809.892 66.3376 L809.892 72.576 L802.236 72.576 Q793.608 72.576 790.326 69.3758 Q787.045 66.1351 787.045 57.6282 L787.045 32.9987 L781.576 32.9987 L781.576 27.2059 L787.045 27.2059 L787.045 14.324 L794.539 14.324 Z" fill="#000000" fill-rule="evenodd" fill-opacity="1" /><path clip-path="url(#clip530)" d="M 0 0 M813.943 46.5287 L835.778 46.5287 L835.778 53.1722 L813.943 53.1722 L813.943 46.5287 Z" fill="#000000" fill-rule="evenodd" fill-opacity="1" /><path clip-path="url(#clip530)" d="M 0 0 M872.6 44.2197 Q875.233 45.1109 877.704 48.0275 Q880.216 50.9442 882.728 56.0483 L891.032 72.576 L882.241 72.576 L874.504 57.061 Q871.507 50.9847 868.671 48.9997 Q865.876 47.0148 861.015 47.0148 L852.103 47.0148 L852.103 72.576 L843.92 72.576 L843.92 12.096 L862.392 12.096 Q872.762 12.096 877.866 16.4305 Q882.971 20.7649 882.971 29.5149 Q882.971 35.2267 880.297 38.994 Q877.664 42.7613 872.6 44.2197 M852.103 18.8205 L852.103 40.2903 L862.392 40.2903 Q868.306 40.2903 871.304 37.5762 Q874.342 34.8216 874.342 29.5149 Q874.342 24.2082 871.304 21.5346 Q868.306 18.8205 862.392 18.8205 L852.103 18.8205 Z" fill="#000000" fill-rule="evenodd" fill-opacity="1" /><path clip-path="url(#clip530)" d="M 0 0 M898.85 27.2059 L906.304 27.2059 L906.304 72.576 L898.85 72.576 L898.85 27.2059 M898.85 9.54393 L906.304 9.54393 L906.304 18.9825 L898.85 18.9825 L898.85 9.54393 Z" fill="#000000" fill-rule="evenodd" fill-opacity="1" /><path clip-path="url(#clip530)" d="M 0 0 M943.046 28.5427 L943.046 35.5912 Q939.886 33.9709 936.483 33.1607 Q933.08 32.3505 929.434 32.3505 Q923.885 32.3505 921.09 34.0519 Q918.335 35.7533 918.335 39.156 Q918.335 41.7486 920.32 43.2475 Q922.305 44.7058 928.3 46.0426 L930.852 46.6097 Q938.792 48.3111 942.114 51.4303 Q945.476 54.509 945.476 60.0587 Q945.476 66.3781 940.453 70.0644 Q935.47 73.7508 926.72 73.7508 Q923.075 73.7508 919.105 73.0216 Q915.175 72.3329 910.8 70.9151 L910.8 63.2184 Q914.932 65.3654 918.943 66.4591 Q922.953 67.5124 926.882 67.5124 Q932.149 67.5124 934.984 65.73 Q937.82 63.9071 937.82 60.6258 Q937.82 57.5877 935.754 55.9673 Q933.728 54.3469 926.801 52.8481 L924.209 52.2405 Q917.282 50.7821 914.203 47.7845 Q911.124 44.7463 911.124 39.4801 Q911.124 33.0797 915.661 29.5959 Q920.198 26.1121 928.543 26.1121 Q932.675 26.1121 936.321 26.7198 Q939.967 27.3274 943.046 28.5427 Z" fill="#000000" fill-rule="evenodd" fill-opacity="1" /><path clip-path="url(#clip530)" d="M 0 0 M953.011 9.54393 L960.505 9.54393 L960.505 46.7717 L982.744 27.2059 L992.264 27.2059 L968.202 48.4326 L993.277 72.576 L983.555 72.576 L960.505 50.4176 L960.505 72.576 L953.011 72.576 L953.011 9.54393 Z" fill="#000000" fill-rule="evenodd" fill-opacity="1" /><path clip-path="url(#clip530)" d="M 0 0 M742.048 1569.18 L742.048 1588.08 L736.16 1588.08 L736.16 1538.88 L742.048 1538.88 L742.048 1544.29 Q743.894 1541.1 746.695 1539.58 Q749.528 1538.02 753.443 1538.02 Q759.936 1538.02 763.978 1543.17 Q768.052 1548.33 768.052 1556.73 Q768.052 1565.13 763.978 1570.29 Q759.936 1575.45 753.443 1575.45 Q749.528 1575.45 746.695 1573.92 Q743.894 1572.36 742.048 1569.18 M761.973 1556.73 Q761.973 1550.27 759.299 1546.61 Q756.658 1542.92 752.011 1542.92 Q747.364 1542.92 744.69 1546.61 Q742.048 1550.27 742.048 1556.73 Q742.048 1563.19 744.69 1566.88 Q747.364 1570.55 752.011 1570.55 Q756.658 1570.55 759.299 1566.88 Q761.973 1563.19 761.973 1556.73 Z" fill="#000000" fill-rule="evenodd" fill-opacity="1" /><path clip-path="url(#clip532)" d="
M165.266 1399.4 L240.62 1399.4 L240.62 978.057 L165.266 978.057  Z
  " fill="#8b0000" fill-rule="evenodd" fill-opacity="0.6"/>
<polyline clip-path="url(#clip532)" style="stroke:#000000; stroke-width:4; stroke-opacity:0; fill:none" points="
  165.266,1399.4 240.62,1399.4 
  "/>
<polyline clip-path="url(#clip532)" style="stroke:#000000; stroke-width:4; stroke-opacity:1; fill:none" points="
  165.266,1399.4 240.62,1399.4 
  "/>
<path clip-path="url(#clip532)" d="
M240.62 1357.12 L407.025 1357.12 L407.025 978.057 L240.62 978.057  Z
  " fill="#8b0000" fill-rule="evenodd" fill-opacity="0.6"/>
<polyline clip-path="url(#clip532)" style="stroke:#000000; stroke-width:4; stroke-opacity:0; fill:none" points="
  240.62,1357.12 407.025,1357.12 
  "/>
<polyline clip-path="url(#clip532)" style="stroke:#000000; stroke-width:4; stroke-opacity:1; fill:none" points="
  240.62,1357.12 407.025,1357.12 
  "/>
<path clip-path="url(#clip532)" d="
M407.025 1338.47 L458.686 1338.47 L458.686 978.057 L407.025 978.057  Z
  " fill="#8b0000" fill-rule="evenodd" fill-opacity="0.6"/>
<polyline clip-path="url(#clip532)" style="stroke:#000000; stroke-width:4; stroke-opacity:0; fill:none" points="
  407.025,1338.47 458.686,1338.47 
  "/>
<path clip-path="url(#clip532)" d="
M458.686 1338.47 L702.457 1338.47 L702.457 978.057 L458.686 978.057  Z
  " fill="#00008b" fill-rule="evenodd" fill-opacity="0.6"/>
<polyline clip-path="url(#clip532)" style="stroke:#000000; stroke-width:4; stroke-opacity:0; fill:none" points="
  458.686,1338.47 702.457,1338.47 
  "/>
<polyline clip-path="url(#clip532)" style="stroke:#000000; stroke-width:4; stroke-opacity:1; fill:none" points="
  407.025,1338.47 702.457,1338.47 
  "/>
<polyline clip-path="url(#clip532)" style="stroke:#000000; stroke-width:4; stroke-opacity:1; fill:none" points="
  702.457,971.514 833.338,971.514 
  "/>
<polyline clip-path="url(#clip532)" style="stroke:#000000; stroke-width:4; stroke-opacity:1; fill:none" points="
  833.338,803.526 1064.86,803.526 
  "/>
<polyline clip-path="url(#clip532)" style="stroke:#000000; stroke-width:4; stroke-opacity:1; fill:none" points="
  1064.86,573.834 1192.03,573.834 
  "/>
<polyline clip-path="url(#clip532)" style="stroke:#000000; stroke-width:4; stroke-opacity:1; fill:none" points="
  1192.03,190.549 1276.22,190.549 
  "/>
<polyline clip-path="url(#clip532)" style="stroke:#000000; stroke-width:4; stroke-opacity:1; fill:none" points="
  1276.22,150.849 1338.95,150.849 
  "/>
<polyline clip-path="url(#clip532)" style="stroke:#608cf6; stroke-width:0; stroke-opacity:1; fill:none" points="
  240.62,1399.4 407.025,1357.12 702.457,1338.47 833.338,971.514 1064.86,803.526 1192.03,573.834 1276.22,190.549 1338.95,150.849 
  "/>
<circle clip-path="url(#clip532)" cx="240.62" cy="1399.4" r="10" fill="#000000" fill-rule="evenodd" fill-opacity="1" stroke="none"/>
<circle clip-path="url(#clip532)" cx="407.025" cy="1357.12" r="10" fill="#000000" fill-rule="evenodd" fill-opacity="1" stroke="none"/>
<circle clip-path="url(#clip532)" cx="702.457" cy="1338.47" r="10" fill="#000000" fill-rule="evenodd" fill-opacity="1" stroke="none"/>
<circle clip-path="url(#clip532)" cx="833.338" cy="971.514" r="10" fill="#000000" fill-rule="evenodd" fill-opacity="1" stroke="none"/>
<circle clip-path="url(#clip532)" cx="1064.86" cy="803.526" r="10" fill="#000000" fill-rule="evenodd" fill-opacity="1" stroke="none"/>
<circle clip-path="url(#clip532)" cx="1192.03" cy="573.834" r="10" fill="#000000" fill-rule="evenodd" fill-opacity="1" stroke="none"/>
<circle clip-path="url(#clip532)" cx="1276.22" cy="190.549" r="10" fill="#000000" fill-rule="evenodd" fill-opacity="1" stroke="none"/>
<circle clip-path="url(#clip532)" cx="1338.95" cy="150.849" r="10" fill="#000000" fill-rule="evenodd" fill-opacity="1" stroke="none"/>
<polyline clip-path="url(#clip532)" style="stroke:#f05f73; stroke-width:0; stroke-opacity:1; fill:none" points="
  165.266,1399.4 240.62,1357.12 407.025,1338.47 702.457,971.514 833.338,803.526 1064.86,573.834 1192.03,190.549 1276.22,150.849 
  "/>
<circle clip-path="url(#clip532)" cx="165.266" cy="1399.4" r="10" fill="#ffffff" fill-rule="evenodd" fill-opacity="1" stroke="#000000" stroke-opacity="1" stroke-width="3.2"/>
<circle clip-path="url(#clip532)" cx="240.62" cy="1357.12" r="10" fill="#ffffff" fill-rule="evenodd" fill-opacity="1" stroke="#000000" stroke-opacity="1" stroke-width="3.2"/>
<circle clip-path="url(#clip532)" cx="407.025" cy="1338.47" r="10" fill="#ffffff" fill-rule="evenodd" fill-opacity="1" stroke="#000000" stroke-opacity="1" stroke-width="3.2"/>
<circle clip-path="url(#clip532)" cx="702.457" cy="971.514" r="10" fill="#ffffff" fill-rule="evenodd" fill-opacity="1" stroke="#000000" stroke-opacity="1" stroke-width="3.2"/>
<circle clip-path="url(#clip532)" cx="833.338" cy="803.526" r="10" fill="#ffffff" fill-rule="evenodd" fill-opacity="1" stroke="#000000" stroke-opacity="1" stroke-width="3.2"/>
<circle clip-path="url(#clip532)" cx="1064.86" cy="573.834" r="10" fill="#ffffff" fill-rule="evenodd" fill-opacity="1" stroke="#000000" stroke-opacity="1" stroke-width="3.2"/>
<circle clip-path="url(#clip532)" cx="1192.03" cy="190.549" r="10" fill="#ffffff" fill-rule="evenodd" fill-opacity="1" stroke="#000000" stroke-opacity="1" stroke-width="3.2"/>
<circle clip-path="url(#clip532)" cx="1276.22" cy="150.849" r="10" fill="#ffffff" fill-rule="evenodd" fill-opacity="1" stroke="#000000" stroke-opacity="1" stroke-width="3.2"/>
<circle clip-path="url(#clip532)" cx="458.686" cy="978.057" r="14" fill="#ff8c00" fill-rule="evenodd" fill-opacity="1" stroke="#000000" stroke-opacity="1" stroke-width="3.2"/>
<circle clip-path="url(#clip532)" cx="702.457" cy="978.057" r="14" fill="#00008b" fill-rule="evenodd" fill-opacity="1" stroke="#000000" stroke-opacity="1" stroke-width="3.2"/>
<path clip-path="url(#clip530)" d="
M1588.66 1436.86 L2832.76 1436.86 L2832.76 113.392 L1588.66 113.392  Z
  " fill="#ffffff" fill-rule="evenodd" fill-opacity="1"/>
<defs>
  <clipPath id="clip533">
    <rect x="1588" y="113" width="1245" height="1324"/>
  </clipPath>
</defs>
<polyline clip-path="url(#clip533)" style="stroke:#000000; stroke-width:2; stroke-opacity:0.1; fill:none" points="
  1623.87,1436.86 1623.87,113.392 
  "/>
<polyline clip-path="url(#clip533)" style="stroke:#000000; stroke-width:2; stroke-opacity:0.1; fill:none" points="
  1917.29,1436.86 1917.29,113.392 
  "/>
<polyline clip-path="url(#clip533)" style="stroke:#000000; stroke-width:2; stroke-opacity:0.1; fill:none" points="
  2210.71,1436.86 2210.71,113.392 
  "/>
<polyline clip-path="url(#clip533)" style="stroke:#000000; stroke-width:2; stroke-opacity:0.1; fill:none" points="
  2504.13,1436.86 2504.13,113.392 
  "/>
<polyline clip-path="url(#clip533)" style="stroke:#000000; stroke-width:2; stroke-opacity:0.1; fill:none" points="
  2797.55,1436.86 2797.55,113.392 
  "/>
<polyline clip-path="url(#clip533)" style="stroke:#000000; stroke-width:2; stroke-opacity:0.1; fill:none" points="
  1588.66,1377.01 2832.76,1377.01 
  "/>
<polyline clip-path="url(#clip533)" style="stroke:#000000; stroke-width:2; stroke-opacity:0.1; fill:none" points="
  1588.66,976.177 2832.76,976.177 
  "/>
<polyline clip-path="url(#clip533)" style="stroke:#000000; stroke-width:2; stroke-opacity:0.1; fill:none" points="
  1588.66,575.343 2832.76,575.343 
  "/>
<polyline clip-path="url(#clip533)" style="stroke:#000000; stroke-width:2; stroke-opacity:0.1; fill:none" points="
  1588.66,174.51 2832.76,174.51 
  "/>
<polyline clip-path="url(#clip530)" style="stroke:#000000; stroke-width:4; stroke-opacity:1; fill:none" points="
  1588.66,1436.86 2832.76,1436.86 
  "/>
<polyline clip-path="url(#clip530)" style="stroke:#000000; stroke-width:4; stroke-opacity:1; fill:none" points="
  1588.66,1436.86 1588.66,113.392 
  "/>
<polyline clip-path="url(#clip530)" style="stroke:#000000; stroke-width:4; stroke-opacity:1; fill:none" points="
  1623.87,1436.86 1623.87,1420.98 
  "/>
<polyline clip-path="url(#clip530)" style="stroke:#000000; stroke-width:4; stroke-opacity:1; fill:none" points="
  1917.29,1436.86 1917.29,1420.98 
  "/>
<polyline clip-path="url(#clip530)" style="stroke:#000000; stroke-width:4; stroke-opacity:1; fill:none" points="
  2210.71,1436.86 2210.71,1420.98 
  "/>
<polyline clip-path="url(#clip530)" style="stroke:#000000; stroke-width:4; stroke-opacity:1; fill:none" points="
  2504.13,1436.86 2504.13,1420.98 
  "/>
<polyline clip-path="url(#clip530)" style="stroke:#000000; stroke-width:4; stroke-opacity:1; fill:none" points="
  2797.55,1436.86 2797.55,1420.98 
  "/>
<polyline clip-path="url(#clip530)" style="stroke:#000000; stroke-width:4; stroke-opacity:1; fill:none" points="
  1588.66,1377.01 1603.58,1377.01 
  "/>
<polyline clip-path="url(#clip530)" style="stroke:#000000; stroke-width:4; stroke-opacity:1; fill:none" points="
  1588.66,976.177 1603.58,976.177 
  "/>
<polyline clip-path="url(#clip530)" style="stroke:#000000; stroke-width:4; stroke-opacity:1; fill:none" points="
  1588.66,575.343 1603.58,575.343 
  "/>
<polyline clip-path="url(#clip530)" style="stroke:#000000; stroke-width:4; stroke-opacity:1; fill:none" points="
  1588.66,174.51 1603.58,174.51 
  "/>
<path clip-path="url(#clip530)" d="M 0 0 M1591.88 1461.25 Q1588.26 1461.25 1586.44 1464.82 Q1584.63 1468.36 1584.63 1475.49 Q1584.63 1482.59 1586.44 1486.16 Q1588.26 1489.7 1591.88 1489.7 Q1595.51 1489.7 1597.31 1486.16 Q1599.14 1482.59 1599.14 1475.49 Q1599.14 1468.36 1597.31 1464.82 Q1595.51 1461.25 1591.88 1461.25 M1591.88 1457.55 Q1597.69 1457.55 1600.74 1462.15 Q1603.82 1466.74 1603.82 1475.49 Q1603.82 1484.21 1600.74 1488.82 Q1597.69 1493.4 1591.88 1493.4 Q1586.06 1493.4 1582.99 1488.82 Q1579.93 1484.21 1579.93 1475.49 Q1579.93 1466.74 1582.99 1462.15 Q1586.06 1457.55 1591.88 1457.55 Z" fill="#000000" fill-rule="evenodd" fill-opacity="1" /><path clip-path="url(#clip530)" d="M 0 0 M1608.89 1486.85 L1613.77 1486.85 L1613.77 1492.73 L1608.89 1492.73 L1608.89 1486.85 Z" fill="#000000" fill-rule="evenodd" fill-opacity="1" /><path clip-path="url(#clip530)" d="M 0 0 M1628.84 1461.25 Q1625.23 1461.25 1623.4 1464.82 Q1621.6 1468.36 1621.6 1475.49 Q1621.6 1482.59 1623.4 1486.16 Q1625.23 1489.7 1628.84 1489.7 Q1632.48 1489.7 1634.28 1486.16 Q1636.11 1482.59 1636.11 1475.49 Q1636.11 1468.36 1634.28 1464.82 Q1632.48 1461.25 1628.84 1461.25 M1628.84 1457.55 Q1634.65 1457.55 1637.71 1462.15 Q1640.79 1466.74 1640.79 1475.49 Q1640.79 1484.21 1637.71 1488.82 Q1634.65 1493.4 1628.84 1493.4 Q1623.03 1493.4 1619.95 1488.82 Q1616.9 1484.21 1616.9 1475.49 Q1616.9 1466.74 1619.95 1462.15 Q1623.03 1457.55 1628.84 1457.55 Z" fill="#000000" fill-rule="evenodd" fill-opacity="1" /><path clip-path="url(#clip530)" d="M 0 0 M1655.86 1461.25 Q1652.25 1461.25 1650.42 1464.82 Q1648.61 1468.36 1648.61 1475.49 Q1648.61 1482.59 1650.42 1486.16 Q1652.25 1489.7 1655.86 1489.7 Q1659.49 1489.7 1661.3 1486.16 Q1663.12 1482.59 1663.12 1475.49 Q1663.12 1468.36 1661.3 1464.82 Q1659.49 1461.25 1655.86 1461.25 M1655.86 1457.55 Q1661.67 1457.55 1664.72 1462.15 Q1667.8 1466.74 1667.8 1475.49 Q1667.8 1484.21 1664.72 1488.82 Q1661.67 1493.4 1655.86 1493.4 Q1650.05 1493.4 1646.97 1488.82 Q1643.91 1484.21 1643.91 1475.49 Q1643.91 1466.74 1646.97 1462.15 Q1650.05 1457.55 1655.86 1457.55 Z" fill="#000000" fill-rule="evenodd" fill-opacity="1" /><path clip-path="url(#clip530)" d="M 0 0 M1886.59 1461.25 Q1882.98 1461.25 1881.15 1464.82 Q1879.35 1468.36 1879.35 1475.49 Q1879.35 1482.59 1881.15 1486.16 Q1882.98 1489.7 1886.59 1489.7 Q1890.23 1489.7 1892.03 1486.16 Q1893.86 1482.59 1893.86 1475.49 Q1893.86 1468.36 1892.03 1464.82 Q1890.23 1461.25 1886.59 1461.25 M1886.59 1457.55 Q1892.4 1457.55 1895.46 1462.15 Q1898.54 1466.74 1898.54 1475.49 Q1898.54 1484.21 1895.46 1488.82 Q1892.4 1493.4 1886.59 1493.4 Q1880.78 1493.4 1877.7 1488.82 Q1874.65 1484.21 1874.65 1475.49 Q1874.65 1466.74 1877.7 1462.15 Q1880.78 1457.55 1886.59 1457.55 Z" fill="#000000" fill-rule="evenodd" fill-opacity="1" /><path clip-path="url(#clip530)" d="M 0 0 M1903.61 1486.85 L1908.49 1486.85 L1908.49 1492.73 L1903.61 1492.73 L1903.61 1486.85 Z" fill="#000000" fill-rule="evenodd" fill-opacity="1" /><path clip-path="url(#clip530)" d="M 0 0 M1917.59 1488.8 L1933.91 1488.8 L1933.91 1492.73 L1911.96 1492.73 L1911.96 1488.8 Q1914.62 1486.04 1919.21 1481.41 Q1923.81 1476.76 1924.99 1475.42 Q1927.24 1472.89 1928.12 1471.16 Q1929.02 1469.4 1929.02 1467.71 Q1929.02 1464.95 1927.08 1463.22 Q1925.16 1461.48 1922.05 1461.48 Q1919.86 1461.48 1917.4 1462.25 Q1914.97 1463.01 1912.19 1464.56 L1912.19 1459.84 Q1915.02 1458.7 1917.47 1458.13 Q1919.92 1457.55 1921.96 1457.55 Q1927.33 1457.55 1930.53 1460.23 Q1933.72 1462.92 1933.72 1467.41 Q1933.72 1469.54 1932.91 1471.46 Q1932.12 1473.36 1930.02 1475.95 Q1929.44 1476.62 1926.34 1479.84 Q1923.23 1483.03 1917.59 1488.8 Z" fill="#000000" fill-rule="evenodd" fill-opacity="1" /><path clip-path="url(#clip530)" d="M 0 0 M1939.02 1458.17 L1957.38 1458.17 L1957.38 1462.11 L1943.3 1462.11 L1943.3 1470.58 Q1944.32 1470.23 1945.34 1470.07 Q1946.36 1469.88 1947.38 1469.88 Q1953.17 1469.88 1956.54 1473.06 Q1959.92 1476.23 1959.92 1481.64 Q1959.92 1487.22 1956.45 1490.32 Q1952.98 1493.4 1946.66 1493.4 Q1944.48 1493.4 1942.22 1493.03 Q1939.97 1492.66 1937.56 1491.92 L1937.56 1487.22 Q1939.65 1488.36 1941.87 1488.91 Q1944.09 1489.47 1946.57 1489.47 Q1950.57 1489.47 1952.91 1487.36 Q1955.25 1485.26 1955.25 1481.64 Q1955.25 1478.03 1952.91 1475.93 Q1950.57 1473.82 1946.57 1473.82 Q1944.69 1473.82 1942.82 1474.24 Q1940.97 1474.65 1939.02 1475.53 L1939.02 1458.17 Z" fill="#000000" fill-rule="evenodd" fill-opacity="1" /><path clip-path="url(#clip530)" d="M 0 0 M2179.21 1461.25 Q2175.6 1461.25 2173.77 1464.82 Q2171.97 1468.36 2171.97 1475.49 Q2171.97 1482.59 2173.77 1486.16 Q2175.6 1489.7 2179.21 1489.7 Q2182.85 1489.7 2184.65 1486.16 Q2186.48 1482.59 2186.48 1475.49 Q2186.48 1468.36 2184.65 1464.82 Q2182.85 1461.25 2179.21 1461.25 M2179.21 1457.55 Q2185.02 1457.55 2188.08 1462.15 Q2191.16 1466.74 2191.16 1475.49 Q2191.16 1484.21 2188.08 1488.82 Q2185.02 1493.4 2179.21 1493.4 Q2173.4 1493.4 2170.32 1488.82 Q2167.27 1484.21 2167.27 1475.49 Q2167.27 1466.74 2170.32 1462.15 Q2173.4 1457.55 2179.21 1457.55 Z" fill="#000000" fill-rule="evenodd" fill-opacity="1" /><path clip-path="url(#clip530)" d="M 0 0 M2196.23 1486.85 L2201.11 1486.85 L2201.11 1492.73 L2196.23 1492.73 L2196.23 1486.85 Z" fill="#000000" fill-rule="evenodd" fill-opacity="1" /><path clip-path="url(#clip530)" d="M 0 0 M2206.23 1458.17 L2224.58 1458.17 L2224.58 1462.11 L2210.51 1462.11 L2210.51 1470.58 Q2211.53 1470.23 2212.55 1470.07 Q2213.56 1469.88 2214.58 1469.88 Q2220.37 1469.88 2223.75 1473.06 Q2227.13 1476.23 2227.13 1481.64 Q2227.13 1487.22 2223.66 1490.32 Q2220.18 1493.4 2213.87 1493.4 Q2211.69 1493.4 2209.42 1493.03 Q2207.18 1492.66 2204.77 1491.92 L2204.77 1487.22 Q2206.85 1488.36 2209.07 1488.91 Q2211.3 1489.47 2213.77 1489.47 Q2217.78 1489.47 2220.12 1487.36 Q2222.45 1485.26 2222.45 1481.64 Q2222.45 1478.03 2220.12 1475.93 Q2217.78 1473.82 2213.77 1473.82 Q2211.9 1473.82 2210.02 1474.24 Q2208.17 1474.65 2206.23 1475.53 L2206.23 1458.17 Z" fill="#000000" fill-rule="evenodd" fill-opacity="1" /><path clip-path="url(#clip530)" d="M 0 0 M2242.2 1461.25 Q2238.59 1461.25 2236.76 1464.82 Q2234.95 1468.36 2234.95 1475.49 Q2234.95 1482.59 2236.76 1486.16 Q2238.59 1489.7 2242.2 1489.7 Q2245.83 1489.7 2247.64 1486.16 Q2249.47 1482.59 2249.47 1475.49 Q2249.47 1468.36 2247.64 1464.82 Q2245.83 1461.25 2242.2 1461.25 M2242.2 1457.55 Q2248.01 1457.55 2251.06 1462.15 Q2254.14 1466.74 2254.14 1475.49 Q2254.14 1484.21 2251.06 1488.82 Q2248.01 1493.4 2242.2 1493.4 Q2236.39 1493.4 2233.31 1488.82 Q2230.25 1484.21 2230.25 1475.49 Q2230.25 1466.74 2233.31 1462.15 Q2236.39 1457.55 2242.2 1457.55 Z" fill="#000000" fill-rule="evenodd" fill-opacity="1" /><path clip-path="url(#clip530)" d="M 0 0 M2473.08 1461.25 Q2469.47 1461.25 2467.64 1464.82 Q2465.84 1468.36 2465.84 1475.49 Q2465.84 1482.59 2467.64 1486.16 Q2469.47 1489.7 2473.08 1489.7 Q2476.72 1489.7 2478.52 1486.16 Q2480.35 1482.59 2480.35 1475.49 Q2480.35 1468.36 2478.52 1464.82 Q2476.72 1461.25 2473.08 1461.25 M2473.08 1457.55 Q2478.89 1457.55 2481.95 1462.15 Q2485.03 1466.74 2485.03 1475.49 Q2485.03 1484.21 2481.95 1488.82 Q2478.89 1493.4 2473.08 1493.4 Q2467.27 1493.4 2464.2 1488.82 Q2461.14 1484.21 2461.14 1475.49 Q2461.14 1466.74 2464.2 1462.15 Q2467.27 1457.55 2473.08 1457.55 Z" fill="#000000" fill-rule="evenodd" fill-opacity="1" /><path clip-path="url(#clip530)" d="M 0 0 M2490.1 1486.85 L2494.98 1486.85 L2494.98 1492.73 L2490.1 1492.73 L2490.1 1486.85 Z" fill="#000000" fill-rule="evenodd" fill-opacity="1" /><path clip-path="url(#clip530)" d="M 0 0 M2498.87 1458.17 L2521.09 1458.17 L2521.09 1460.16 L2508.55 1492.73 L2503.66 1492.73 L2515.47 1462.11 L2498.87 1462.11 L2498.87 1458.17 Z" fill="#000000" fill-rule="evenodd" fill-opacity="1" /><path clip-path="url(#clip530)" d="M 0 0 M2526.21 1458.17 L2544.57 1458.17 L2544.57 1462.11 L2530.49 1462.11 L2530.49 1470.58 Q2531.51 1470.23 2532.53 1470.07 Q2533.55 1469.88 2534.57 1469.88 Q2540.35 1469.88 2543.73 1473.06 Q2547.11 1476.23 2547.11 1481.64 Q2547.11 1487.22 2543.64 1490.32 Q2540.17 1493.4 2533.85 1493.4 Q2531.67 1493.4 2529.4 1493.03 Q2527.16 1492.66 2524.75 1491.92 L2524.75 1487.22 Q2526.83 1488.36 2529.06 1488.91 Q2531.28 1489.47 2533.76 1489.47 Q2537.76 1489.47 2540.1 1487.36 Q2542.44 1485.26 2542.44 1481.64 Q2542.44 1478.03 2540.1 1475.93 Q2537.76 1473.82 2533.76 1473.82 Q2531.88 1473.82 2530.01 1474.24 Q2528.15 1474.65 2526.21 1475.53 L2526.21 1458.17 Z" fill="#000000" fill-rule="evenodd" fill-opacity="1" /><path clip-path="url(#clip530)" d="M 0 0 M2755.94 1488.8 L2763.58 1488.8 L2763.58 1462.43 L2755.27 1464.1 L2755.27 1459.84 L2763.53 1458.17 L2768.21 1458.17 L2768.21 1488.8 L2775.84 1488.8 L2775.84 1492.73 L2755.94 1492.73 L2755.94 1488.8 Z" fill="#000000" fill-rule="evenodd" fill-opacity="1" /><path clip-path="url(#clip530)" d="M 0 0 M2780.91 1486.85 L2785.8 1486.85 L2785.8 1492.73 L2780.91 1492.73 L2780.91 1486.85 Z" fill="#000000" fill-rule="evenodd" fill-opacity="1" /><path clip-path="url(#clip530)" d="M 0 0 M2800.87 1461.25 Q2797.26 1461.25 2795.43 1464.82 Q2793.62 1468.36 2793.62 1475.49 Q2793.62 1482.59 2795.43 1486.16 Q2797.26 1489.7 2800.87 1489.7 Q2804.5 1489.7 2806.31 1486.16 Q2808.14 1482.59 2808.14 1475.49 Q2808.14 1468.36 2806.31 1464.82 Q2804.5 1461.25 2800.87 1461.25 M2800.87 1457.55 Q2806.68 1457.55 2809.73 1462.15 Q2812.81 1466.74 2812.81 1475.49 Q2812.81 1484.21 2809.73 1488.82 Q2806.68 1493.4 2800.87 1493.4 Q2795.06 1493.4 2791.98 1488.82 Q2788.92 1484.21 2788.92 1475.49 Q2788.92 1466.74 2791.98 1462.15 Q2795.06 1457.55 2800.87 1457.55 Z" fill="#000000" fill-rule="evenodd" fill-opacity="1" /><path clip-path="url(#clip530)" d="M 0 0 M2827.88 1461.25 Q2824.27 1461.25 2822.44 1464.82 Q2820.64 1468.36 2820.64 1475.49 Q2820.64 1482.59 2822.44 1486.16 Q2824.27 1489.7 2827.88 1489.7 Q2831.52 1489.7 2833.32 1486.16 Q2835.15 1482.59 2835.15 1475.49 Q2835.15 1468.36 2833.32 1464.82 Q2831.52 1461.25 2827.88 1461.25 M2827.88 1457.55 Q2833.69 1457.55 2836.75 1462.15 Q2839.83 1466.74 2839.83 1475.49 Q2839.83 1484.21 2836.75 1488.82 Q2833.69 1493.4 2827.88 1493.4 Q2822.07 1493.4 2818.99 1488.82 Q2815.94 1484.21 2815.94 1475.49 Q2815.94 1466.74 2818.99 1462.15 Q2822.07 1457.55 2827.88 1457.55 Z" fill="#000000" fill-rule="evenodd" fill-opacity="1" /><path clip-path="url(#clip530)" d="M 0 0 M1485.62 1379.41 L1498.1 1379.41 L1498.1 1383.2 L1485.62 1383.2 L1485.62 1379.41 Z" fill="#000000" fill-rule="evenodd" fill-opacity="1" /><path clip-path="url(#clip530)" d="M 0 0 M1503.98 1390.35 L1511.61 1390.35 L1511.61 1363.99 L1503.3 1365.66 L1503.3 1361.4 L1511.57 1359.73 L1516.24 1359.73 L1516.24 1390.35 L1523.88 1390.35 L1523.88 1394.29 L1503.98 1394.29 L1503.98 1390.35 Z" fill="#000000" fill-rule="evenodd" fill-opacity="1" /><path clip-path="url(#clip530)" d="M 0 0 M1528.95 1388.41 L1533.84 1388.41 L1533.84 1394.29 L1528.95 1394.29 L1528.95 1388.41 Z" fill="#000000" fill-rule="evenodd" fill-opacity="1" /><path clip-path="url(#clip530)" d="M 0 0 M1538.95 1359.73 L1557.31 1359.73 L1557.31 1363.67 L1543.23 1363.67 L1543.23 1372.14 Q1544.25 1371.79 1545.27 1371.63 Q1546.29 1371.44 1547.31 1371.44 Q1553.1 1371.44 1556.48 1374.61 Q1559.86 1377.79 1559.86 1383.2 Q1559.86 1388.78 1556.38 1391.88 Q1552.91 1394.96 1546.59 1394.96 Q1544.42 1394.96 1542.15 1394.59 Q1539.9 1394.22 1537.49 1393.48 L1537.49 1388.78 Q1539.58 1389.92 1541.8 1390.47 Q1544.02 1391.03 1546.5 1391.03 Q1550.5 1391.03 1552.84 1388.92 Q1555.18 1386.81 1555.18 1383.2 Q1555.18 1379.59 1552.84 1377.48 Q1550.5 1375.38 1546.5 1375.38 Q1544.62 1375.38 1542.75 1375.79 Q1540.9 1376.21 1538.95 1377.09 L1538.95 1359.73 Z" fill="#000000" fill-rule="evenodd" fill-opacity="1" /><path clip-path="url(#clip530)" d="M 0 0 M1484.62 978.572 L1497.1 978.572 L1497.1 982.369 L1484.62 982.369 L1484.62 978.572 Z" fill="#000000" fill-rule="evenodd" fill-opacity="1" /><path clip-path="url(#clip530)" d="M 0 0 M1502.98 989.521 L1510.62 989.521 L1510.62 963.156 L1502.31 964.822 L1502.31 960.563 L1510.57 958.897 L1515.25 958.897 L1515.25 989.521 L1522.89 989.521 L1522.89 993.457 L1502.98 993.457 L1502.98 989.521 Z" fill="#000000" fill-rule="evenodd" fill-opacity="1" /><path clip-path="url(#clip530)" d="M 0 0 M1527.96 987.577 L1532.84 987.577 L1532.84 993.457 L1527.96 993.457 L1527.96 987.577 Z" fill="#000000" fill-rule="evenodd" fill-opacity="1" /><path clip-path="url(#clip530)" d="M 0 0 M1547.91 961.975 Q1544.3 961.975 1542.47 965.54 Q1540.67 969.082 1540.67 976.211 Q1540.67 983.318 1542.47 986.883 Q1544.3 990.424 1547.91 990.424 Q1551.55 990.424 1553.35 986.883 Q1555.18 983.318 1555.18 976.211 Q1555.18 969.082 1553.35 965.54 Q1551.55 961.975 1547.91 961.975 M1547.91 958.272 Q1553.72 958.272 1556.78 962.878 Q1559.86 967.461 1559.86 976.211 Q1559.86 984.938 1556.78 989.545 Q1553.72 994.128 1547.91 994.128 Q1542.1 994.128 1539.02 989.545 Q1535.97 984.938 1535.97 976.211 Q1535.97 967.461 1539.02 962.878 Q1542.1 958.272 1547.91 958.272 Z" fill="#000000" fill-rule="evenodd" fill-opacity="1" /><path clip-path="url(#clip530)" d="M 0 0 M1484.39 577.739 L1496.87 577.739 L1496.87 581.535 L1484.39 581.535 L1484.39 577.739 Z" fill="#000000" fill-rule="evenodd" fill-opacity="1" /><path clip-path="url(#clip530)" d="M 0 0 M1511.94 561.142 Q1508.33 561.142 1506.5 564.707 Q1504.69 568.248 1504.69 575.378 Q1504.69 582.484 1506.5 586.049 Q1508.33 589.591 1511.94 589.591 Q1515.57 589.591 1517.38 586.049 Q1519.21 582.484 1519.21 575.378 Q1519.21 568.248 1517.38 564.707 Q1515.57 561.142 1511.94 561.142 M1511.94 557.438 Q1517.75 557.438 1520.8 562.045 Q1523.88 566.628 1523.88 575.378 Q1523.88 584.105 1520.8 588.711 Q1517.75 593.294 1511.94 593.294 Q1506.13 593.294 1503.05 588.711 Q1499.99 584.105 1499.99 575.378 Q1499.99 566.628 1503.05 562.045 Q1506.13 557.438 1511.94 557.438 Z" fill="#000000" fill-rule="evenodd" fill-opacity="1" /><path clip-path="url(#clip530)" d="M 0 0 M1528.95 586.744 L1533.84 586.744 L1533.84 592.623 L1528.95 592.623 L1528.95 586.744 Z" fill="#000000" fill-rule="evenodd" fill-opacity="1" /><path clip-path="url(#clip530)" d="M 0 0 M1538.95 558.063 L1557.31 558.063 L1557.31 561.998 L1543.23 561.998 L1543.23 570.471 Q1544.25 570.123 1545.27 569.961 Q1546.29 569.776 1547.31 569.776 Q1553.1 569.776 1556.48 572.947 Q1559.86 576.119 1559.86 581.535 Q1559.86 587.114 1556.38 590.216 Q1552.91 593.294 1546.59 593.294 Q1544.42 593.294 1542.15 592.924 Q1539.9 592.554 1537.49 591.813 L1537.49 587.114 Q1539.58 588.248 1541.8 588.804 Q1544.02 589.359 1546.5 589.359 Q1550.5 589.359 1552.84 587.253 Q1555.18 585.146 1555.18 581.535 Q1555.18 577.924 1552.84 575.818 Q1550.5 573.711 1546.5 573.711 Q1544.62 573.711 1542.75 574.128 Q1540.9 574.545 1538.95 575.424 L1538.95 558.063 Z" fill="#000000" fill-rule="evenodd" fill-opacity="1" /><path clip-path="url(#clip530)" d="M 0 0 M1510.94 160.308 Q1507.33 160.308 1505.5 163.873 Q1503.7 167.415 1503.7 174.544 Q1503.7 181.651 1505.5 185.216 Q1507.33 188.757 1510.94 188.757 Q1514.58 188.757 1516.38 185.216 Q1518.21 181.651 1518.21 174.544 Q1518.21 167.415 1516.38 163.873 Q1514.58 160.308 1510.94 160.308 M1510.94 156.605 Q1516.75 156.605 1519.81 161.211 Q1522.89 165.795 1522.89 174.544 Q1522.89 183.271 1519.81 187.878 Q1516.75 192.461 1510.94 192.461 Q1505.13 192.461 1502.05 187.878 Q1499 183.271 1499 174.544 Q1499 165.795 1502.05 161.211 Q1505.13 156.605 1510.94 156.605 Z" fill="#000000" fill-rule="evenodd" fill-opacity="1" /><path clip-path="url(#clip530)" d="M 0 0 M1527.96 185.91 L1532.84 185.91 L1532.84 191.79 L1527.96 191.79 L1527.96 185.91 Z" fill="#000000" fill-rule="evenodd" fill-opacity="1" /><path clip-path="url(#clip530)" d="M 0 0 M1547.91 160.308 Q1544.3 160.308 1542.47 163.873 Q1540.67 167.415 1540.67 174.544 Q1540.67 181.651 1542.47 185.216 Q1544.3 188.757 1547.91 188.757 Q1551.55 188.757 1553.35 185.216 Q1555.18 181.651 1555.18 174.544 Q1555.18 167.415 1553.35 163.873 Q1551.55 160.308 1547.91 160.308 M1547.91 156.605 Q1553.72 156.605 1556.78 161.211 Q1559.86 165.795 1559.86 174.544 Q1559.86 183.271 1556.78 187.878 Q1553.72 192.461 1547.91 192.461 Q1542.1 192.461 1539.02 187.878 Q1535.97 183.271 1535.97 174.544 Q1535.97 165.795 1539.02 161.211 Q1542.1 156.605 1547.91 156.605 Z" fill="#000000" fill-rule="evenodd" fill-opacity="1" /><path clip-path="url(#clip530)" d="M 0 0 M1806.26 16.7545 L1806.26 25.383 Q1802.13 21.5346 1797.43 19.6307 Q1792.77 17.7268 1787.51 17.7268 Q1777.14 17.7268 1771.63 24.0867 Q1766.12 30.4061 1766.12 42.3968 Q1766.12 54.3469 1771.63 60.7069 Q1777.14 67.0263 1787.51 67.0263 Q1792.77 67.0263 1797.43 65.1223 Q1802.13 63.2184 1806.26 59.3701 L1806.26 67.9175 Q1801.97 70.8341 1797.15 72.2924 Q1792.37 73.7508 1787.02 73.7508 Q1773.29 73.7508 1765.39 65.3654 Q1757.49 56.9395 1757.49 42.3968 Q1757.49 27.8135 1765.39 19.4281 Q1773.29 11.0023 1787.02 11.0023 Q1792.45 11.0023 1797.23 12.4606 Q1802.05 13.8784 1806.26 16.7545 Z" fill="#000000" fill-rule="evenodd" fill-opacity="1" /><path clip-path="url(#clip530)" d="M 0 0 M1831.66 32.4315 Q1825.67 32.4315 1822.18 37.1306 Q1818.7 41.7891 1818.7 49.9314 Q1818.7 58.0738 1822.14 62.7728 Q1825.63 67.4314 1831.66 67.4314 Q1837.62 67.4314 1841.1 62.7323 Q1844.58 58.0333 1844.58 49.9314 Q1844.58 41.8701 1841.1 37.1711 Q1837.62 32.4315 1831.66 32.4315 M1831.66 26.1121 Q1841.38 26.1121 1846.93 32.4315 Q1852.48 38.7509 1852.48 49.9314 Q1852.48 61.0714 1846.93 67.4314 Q1841.38 73.7508 1831.66 73.7508 Q1821.9 73.7508 1816.35 67.4314 Q1810.84 61.0714 1810.84 49.9314 Q1810.84 38.7509 1816.35 32.4315 Q1821.9 26.1121 1831.66 26.1121 Z" fill="#000000" fill-rule="evenodd" fill-opacity="1" /><path clip-path="url(#clip530)" d="M 0 0 M1898.02 45.1919 L1898.02 72.576 L1890.56 72.576 L1890.56 45.4349 Q1890.56 38.994 1888.05 35.7938 Q1885.54 32.5936 1880.52 32.5936 Q1874.48 32.5936 1871 36.4419 Q1867.51 40.2903 1867.51 46.9338 L1867.51 72.576 L1860.02 72.576 L1860.02 27.2059 L1867.51 27.2059 L1867.51 34.2544 Q1870.19 30.163 1873.79 28.1376 Q1877.44 26.1121 1882.18 26.1121 Q1890 26.1121 1894.01 30.9732 Q1898.02 35.7938 1898.02 45.1919 Z" fill="#000000" fill-rule="evenodd" fill-opacity="1" /><path clip-path="url(#clip530)" d="M 0 0 M1935.69 34.0924 L1935.69 9.54393 L1943.14 9.54393 L1943.14 72.576 L1935.69 72.576 L1935.69 65.7705 Q1933.34 69.8214 1929.73 71.8063 Q1926.17 73.7508 1921.15 73.7508 Q1912.92 73.7508 1907.74 67.1883 Q1902.59 60.6258 1902.59 49.9314 Q1902.59 39.2371 1907.74 32.6746 Q1912.92 26.1121 1921.15 26.1121 Q1926.17 26.1121 1929.73 28.0971 Q1933.34 30.0415 1935.69 34.0924 M1910.29 49.9314 Q1910.29 58.1548 1913.65 62.8538 Q1917.06 67.5124 1922.97 67.5124 Q1928.88 67.5124 1932.29 62.8538 Q1935.69 58.1548 1935.69 49.9314 Q1935.69 41.7081 1932.29 37.0496 Q1928.88 32.3505 1922.97 32.3505 Q1917.06 32.3505 1913.65 37.0496 Q1910.29 41.7081 1910.29 49.9314 Z" fill="#000000" fill-rule="evenodd" fill-opacity="1" /><path clip-path="url(#clip530)" d="M 0 0 M1950.96 27.2059 L1958.42 27.2059 L1958.42 72.576 L1950.96 72.576 L1950.96 27.2059 M1950.96 9.54393 L1958.42 9.54393 L1958.42 18.9825 L1950.96 18.9825 L1950.96 9.54393 Z" fill="#000000" fill-rule="evenodd" fill-opacity="1" /><path clip-path="url(#clip530)" d="M 0 0 M1973.61 14.324 L1973.61 27.2059 L1988.96 27.2059 L1988.96 32.9987 L1973.61 32.9987 L1973.61 57.6282 Q1973.61 63.1779 1975.1 64.7578 Q1976.64 66.3376 1981.3 66.3376 L1988.96 66.3376 L1988.96 72.576 L1981.3 72.576 Q1972.67 72.576 1969.39 69.3758 Q1966.11 66.1351 1966.11 57.6282 L1966.11 32.9987 L1960.64 32.9987 L1960.64 27.2059 L1966.11 27.2059 L1966.11 14.324 L1973.61 14.324 Z" fill="#000000" fill-rule="evenodd" fill-opacity="1" /><path clip-path="url(#clip530)" d="M 0 0 M1996.78 27.2059 L2004.23 27.2059 L2004.23 72.576 L1996.78 72.576 L1996.78 27.2059 M1996.78 9.54393 L2004.23 9.54393 L2004.23 18.9825 L1996.78 18.9825 L1996.78 9.54393 Z" fill="#000000" fill-rule="evenodd" fill-opacity="1" /><path clip-path="url(#clip530)" d="M 0 0 M2029.63 32.4315 Q2023.63 32.4315 2020.15 37.1306 Q2016.67 41.7891 2016.67 49.9314 Q2016.67 58.0738 2020.11 62.7728 Q2023.59 67.4314 2029.63 67.4314 Q2035.58 67.4314 2039.07 62.7323 Q2042.55 58.0333 2042.55 49.9314 Q2042.55 41.8701 2039.07 37.1711 Q2035.58 32.4315 2029.63 32.4315 M2029.63 26.1121 Q2039.35 26.1121 2044.9 32.4315 Q2050.45 38.7509 2050.45 49.9314 Q2050.45 61.0714 2044.9 67.4314 Q2039.35 73.7508 2029.63 73.7508 Q2019.87 73.7508 2014.32 67.4314 Q2008.81 61.0714 2008.81 49.9314 Q2008.81 38.7509 2014.32 32.4315 Q2019.87 26.1121 2029.63 26.1121 Z" fill="#000000" fill-rule="evenodd" fill-opacity="1" /><path clip-path="url(#clip530)" d="M 0 0 M2095.98 45.1919 L2095.98 72.576 L2088.53 72.576 L2088.53 45.4349 Q2088.53 38.994 2086.02 35.7938 Q2083.51 32.5936 2078.48 32.5936 Q2072.45 32.5936 2068.96 36.4419 Q2065.48 40.2903 2065.48 46.9338 L2065.48 72.576 L2057.99 72.576 L2057.99 27.2059 L2065.48 27.2059 L2065.48 34.2544 Q2068.15 30.163 2071.76 28.1376 Q2075.41 26.1121 2080.14 26.1121 Q2087.96 26.1121 2091.97 30.9732 Q2095.98 35.7938 2095.98 45.1919 Z" fill="#000000" fill-rule="evenodd" fill-opacity="1" /><path clip-path="url(#clip530)" d="M 0 0 M2124.42 49.7694 Q2115.39 49.7694 2111.9 51.8354 Q2108.42 53.9013 2108.42 58.8839 Q2108.42 62.8538 2111.01 65.2034 Q2113.65 67.5124 2118.14 67.5124 Q2124.34 67.5124 2128.07 63.1374 Q2131.83 58.7219 2131.83 51.4303 L2131.83 49.7694 L2124.42 49.7694 M2139.29 46.6907 L2139.29 72.576 L2131.83 72.576 L2131.83 65.6895 Q2129.28 69.8214 2125.47 71.8063 Q2121.67 73.7508 2116.16 73.7508 Q2109.19 73.7508 2105.06 69.8619 Q2100.97 65.9325 2100.97 59.3701 Q2100.97 51.7138 2106.07 47.825 Q2111.22 43.9361 2121.38 43.9361 L2131.83 43.9361 L2131.83 43.2069 Q2131.83 38.0623 2128.43 35.2672 Q2125.07 32.4315 2118.95 32.4315 Q2115.06 32.4315 2111.38 33.3632 Q2107.69 34.295 2104.29 36.1584 L2104.29 29.2718 Q2108.38 27.692 2112.23 26.9223 Q2116.08 26.1121 2119.72 26.1121 Q2129.57 26.1121 2134.43 31.2163 Q2139.29 36.3204 2139.29 46.6907 Z" fill="#000000" fill-rule="evenodd" fill-opacity="1" /><path clip-path="url(#clip530)" d="M 0 0 M2147.11 9.54393 L2154.56 9.54393 L2154.56 72.576 L2147.11 72.576 L2147.11 9.54393 Z" fill="#000000" fill-rule="evenodd" fill-opacity="1" /><path clip-path="url(#clip530)" d="M 0 0 M2204.67 72.576 L2181.58 12.096 L2190.13 12.096 L2209.29 63.0159 L2228.49 12.096 L2237 12.096 L2213.95 72.576 L2204.67 72.576 Z" fill="#000000" fill-rule="evenodd" fill-opacity="1" /><path clip-path="url(#clip530)" d="M 0 0 M2258.99 49.7694 Q2249.96 49.7694 2246.48 51.8354 Q2242.99 53.9013 2242.99 58.8839 Q2242.99 62.8538 2245.58 65.2034 Q2248.22 67.5124 2252.71 67.5124 Q2258.91 67.5124 2262.64 63.1374 Q2266.41 58.7219 2266.41 51.4303 L2266.41 49.7694 L2258.99 49.7694 M2273.86 46.6907 L2273.86 72.576 L2266.41 72.576 L2266.41 65.6895 Q2263.85 69.8214 2260.05 71.8063 Q2256.24 73.7508 2250.73 73.7508 Q2243.76 73.7508 2239.63 69.8619 Q2235.54 65.9325 2235.54 59.3701 Q2235.54 51.7138 2240.64 47.825 Q2245.79 43.9361 2255.95 43.9361 L2266.41 43.9361 L2266.41 43.2069 Q2266.41 38.0623 2263 35.2672 Q2259.64 32.4315 2253.52 32.4315 Q2249.63 32.4315 2245.95 33.3632 Q2242.26 34.295 2238.86 36.1584 L2238.86 29.2718 Q2242.95 27.692 2246.8 26.9223 Q2250.65 26.1121 2254.29 26.1121 Q2264.14 26.1121 2269 31.2163 Q2273.86 36.3204 2273.86 46.6907 Z" fill="#000000" fill-rule="evenodd" fill-opacity="1" /><path clip-path="url(#clip530)" d="M 0 0 M2281.68 9.54393 L2289.13 9.54393 L2289.13 72.576 L2281.68 72.576 L2281.68 9.54393 Z" fill="#000000" fill-rule="evenodd" fill-opacity="1" /><path clip-path="url(#clip530)" d="M 0 0 M2296.18 54.671 L2296.18 27.2059 L2303.63 27.2059 L2303.63 54.3874 Q2303.63 60.8284 2306.14 64.0691 Q2308.66 67.2693 2313.68 67.2693 Q2319.72 67.2693 2323.2 63.421 Q2326.72 59.5726 2326.72 52.9291 L2326.72 27.2059 L2334.18 27.2059 L2334.18 72.576 L2326.72 72.576 L2326.72 65.6084 Q2324.01 69.7404 2320.4 71.7658 Q2316.84 73.7508 2312.1 73.7508 Q2304.28 73.7508 2300.23 68.8897 Q2296.18 64.0286 2296.18 54.671 M2314.94 26.1121 L2314.94 26.1121 Z" fill="#000000" fill-rule="evenodd" fill-opacity="1" /><path clip-path="url(#clip530)" d="M 0 0 M2380.8 48.0275 L2380.8 51.6733 L2346.53 51.6733 Q2347.02 59.3701 2351.15 63.421 Q2355.32 67.4314 2362.74 67.4314 Q2367.03 67.4314 2371.04 66.3781 Q2375.09 65.3249 2379.06 63.2184 L2379.06 70.267 Q2375.05 71.9684 2370.84 72.8596 Q2366.62 73.7508 2362.29 73.7508 Q2351.43 73.7508 2345.07 67.4314 Q2338.75 61.1119 2338.75 50.3365 Q2338.75 39.1965 2344.75 32.6746 Q2350.79 26.1121 2360.99 26.1121 Q2370.15 26.1121 2375.46 32.0264 Q2380.8 37.9003 2380.8 48.0275 M2373.35 45.84 Q2373.27 39.7232 2369.91 36.0774 Q2366.58 32.4315 2361.08 32.4315 Q2354.84 32.4315 2351.07 35.9558 Q2347.34 39.4801 2346.78 45.8805 L2373.35 45.84 Z" fill="#000000" fill-rule="evenodd" fill-opacity="1" /><path clip-path="url(#clip530)" d="M 0 0 M2384.85 46.5287 L2406.69 46.5287 L2406.69 53.1722 L2384.85 53.1722 L2384.85 46.5287 Z" fill="#000000" fill-rule="evenodd" fill-opacity="1" /><path clip-path="url(#clip530)" d="M 0 0 M2435.13 49.7694 Q2426.09 49.7694 2422.61 51.8354 Q2419.12 53.9013 2419.12 58.8839 Q2419.12 62.8538 2421.72 65.2034 Q2424.35 67.5124 2428.85 67.5124 Q2435.04 67.5124 2438.77 63.1374 Q2442.54 58.7219 2442.54 51.4303 L2442.54 49.7694 L2435.13 49.7694 M2449.99 46.6907 L2449.99 72.576 L2442.54 72.576 L2442.54 65.6895 Q2439.99 69.8214 2436.18 71.8063 Q2432.37 73.7508 2426.86 73.7508 Q2419.89 73.7508 2415.76 69.8619 Q2411.67 65.9325 2411.67 59.3701 Q2411.67 51.7138 2416.78 47.825 Q2421.92 43.9361 2432.09 43.9361 L2442.54 43.9361 L2442.54 43.2069 Q2442.54 38.0623 2439.14 35.2672 Q2435.77 32.4315 2429.66 32.4315 Q2425.77 32.4315 2422.08 33.3632 Q2418.4 34.295 2414.99 36.1584 L2414.99 29.2718 Q2419.08 27.692 2422.93 26.9223 Q2426.78 26.1121 2430.43 26.1121 Q2440.27 26.1121 2445.13 31.2163 Q2449.99 36.3204 2449.99 46.6907 Z" fill="#000000" fill-rule="evenodd" fill-opacity="1" /><path clip-path="url(#clip530)" d="M 0 0 M2465.18 14.324 L2465.18 27.2059 L2480.54 27.2059 L2480.54 32.9987 L2465.18 32.9987 L2465.18 57.6282 Q2465.18 63.1779 2466.68 64.7578 Q2468.22 66.3376 2472.88 66.3376 L2480.54 66.3376 L2480.54 72.576 L2472.88 72.576 Q2464.25 72.576 2460.97 69.3758 Q2457.69 66.1351 2457.69 57.6282 L2457.69 32.9987 L2452.22 32.9987 L2452.22 27.2059 L2457.69 27.2059 L2457.69 14.324 L2465.18 14.324 Z" fill="#000000" fill-rule="evenodd" fill-opacity="1" /><path clip-path="url(#clip530)" d="M 0 0 M2484.59 46.5287 L2506.42 46.5287 L2506.42 53.1722 L2484.59 53.1722 L2484.59 46.5287 Z" fill="#000000" fill-rule="evenodd" fill-opacity="1" /><path clip-path="url(#clip530)" d="M 0 0 M2543.24 44.2197 Q2545.88 45.1109 2548.35 48.0275 Q2550.86 50.9442 2553.37 56.0483 L2561.68 72.576 L2552.89 72.576 L2545.15 57.061 Q2542.15 50.9847 2539.31 48.9997 Q2536.52 47.0148 2531.66 47.0148 L2522.75 47.0148 L2522.75 72.576 L2514.56 72.576 L2514.56 12.096 L2533.04 12.096 Q2543.41 12.096 2548.51 16.4305 Q2553.61 20.7649 2553.61 29.5149 Q2553.61 35.2267 2550.94 38.994 Q2548.31 42.7613 2543.24 44.2197 M2522.75 18.8205 L2522.75 40.2903 L2533.04 40.2903 Q2538.95 40.2903 2541.95 37.5762 Q2544.99 34.8216 2544.99 29.5149 Q2544.99 24.2082 2541.95 21.5346 Q2538.95 18.8205 2533.04 18.8205 L2522.75 18.8205 Z" fill="#000000" fill-rule="evenodd" fill-opacity="1" /><path clip-path="url(#clip530)" d="M 0 0 M2569.49 27.2059 L2576.95 27.2059 L2576.95 72.576 L2569.49 72.576 L2569.49 27.2059 M2569.49 9.54393 L2576.95 9.54393 L2576.95 18.9825 L2569.49 18.9825 L2569.49 9.54393 Z" fill="#000000" fill-rule="evenodd" fill-opacity="1" /><path clip-path="url(#clip530)" d="M 0 0 M2613.69 28.5427 L2613.69 35.5912 Q2610.53 33.9709 2607.13 33.1607 Q2603.72 32.3505 2600.08 32.3505 Q2594.53 32.3505 2591.73 34.0519 Q2588.98 35.7533 2588.98 39.156 Q2588.98 41.7486 2590.96 43.2475 Q2592.95 44.7058 2598.94 46.0426 L2601.5 46.6097 Q2609.44 48.3111 2612.76 51.4303 Q2616.12 54.509 2616.12 60.0587 Q2616.12 66.3781 2611.1 70.0644 Q2606.11 73.7508 2597.36 73.7508 Q2593.72 73.7508 2589.75 73.0216 Q2585.82 72.3329 2581.44 70.9151 L2581.44 63.2184 Q2585.58 65.3654 2589.59 66.4591 Q2593.6 67.5124 2597.53 67.5124 Q2602.79 67.5124 2605.63 65.73 Q2608.46 63.9071 2608.46 60.6258 Q2608.46 57.5877 2606.4 55.9673 Q2604.37 54.3469 2597.45 52.8481 L2594.85 52.2405 Q2587.93 50.7821 2584.85 47.7845 Q2581.77 44.7463 2581.77 39.4801 Q2581.77 33.0797 2586.31 29.5959 Q2590.84 26.1121 2599.19 26.1121 Q2603.32 26.1121 2606.97 26.7198 Q2610.61 27.3274 2613.69 28.5427 Z" fill="#000000" fill-rule="evenodd" fill-opacity="1" /><path clip-path="url(#clip530)" d="M 0 0 M2623.65 9.54393 L2631.15 9.54393 L2631.15 46.7717 L2653.39 27.2059 L2662.91 27.2059 L2638.85 48.4326 L2663.92 72.576 L2654.2 72.576 L2631.15 50.4176 L2631.15 72.576 L2623.65 72.576 L2623.65 9.54393 Z" fill="#000000" fill-rule="evenodd" fill-opacity="1" /><path clip-path="url(#clip530)" d="M 0 0 M2215.91 1557.94 L2214.51 1550.59 Q2213.08 1543.05 2207.41 1543.05 Q2203.15 1543.05 2201.2 1546.55 Q2198.75 1550.94 2198.75 1556.73 Q2198.75 1563.73 2201.14 1567.08 Q2203.56 1570.48 2207.41 1570.48 Q2211.68 1570.48 2213.97 1563.7 L2215.91 1557.94 M2219.19 1548.2 L2222.34 1538.88 L2227.56 1538.88 L2221.03 1558.2 L2222.31 1565.17 Q2222.59 1566.73 2223.71 1568.03 Q2225.01 1569.56 2226.03 1569.56 L2228.83 1569.56 L2228.83 1574.52 L2225.33 1574.52 Q2222.34 1574.52 2219.67 1571.85 Q2218.36 1570.51 2217.82 1567.71 Q2216.36 1571.25 2213.36 1574.01 Q2211.96 1575.32 2207.41 1575.32 Q2199.93 1575.32 2196.3 1570.48 Q2192.58 1565.48 2192.58 1556.73 Q2192.58 1547.37 2196.62 1542.98 Q2201.11 1538.08 2207.41 1538.08 Q2217.31 1538.08 2219.19 1548.2 Z" fill="#000000" fill-rule="evenodd" fill-opacity="1" /><polyline clip-path="url(#clip533)" style="stroke:#009af9; stroke-width:8; stroke-opacity:0.5; fill:none" stroke-dasharray="32, 20" points="
  1623.87,1399.4 2797.55,1399.4 
  "/>
<polyline clip-path="url(#clip533)" style="stroke:#e26f46; stroke-width:8; stroke-opacity:0.5; fill:none" stroke-dasharray="32, 20" points="
  1623.87,150.849 2797.55,150.849 
  "/>
<polyline clip-path="url(#clip533)" style="stroke:#3da44d; stroke-width:8; stroke-opacity:1; fill:none" points="
  1623.87,1399.4 1635.6,1399.4 1647.34,1399.4 1659.08,1399.4 1670.81,1399.4 1682.55,1399.4 1686.59,1399.4 1694.29,1399.4 1699.22,1399.4 1706.02,1389.22 
  1708.06,1386.49 1717.76,1375.13 1729.5,1364.17 1741.23,1355.4 1751.04,1349.31 1752.97,1348.22 1754.75,1347.25 1764.71,1342.24 1776.44,1337.18 1788.18,1332.85 
  1790.27,1332.14 1799.92,1329.09 1811.65,1325.8 1823.39,1322.9 1835.13,1320.32 1846.86,1318.01 1855.39,1316.48 1858.6,1315.93 1870.34,1313.02 1882.08,1308.89 
  1893.81,1305.13 1905.55,1301.67 1917.29,1298.5 1919.3,1297.98 1929.02,1295.56 1940.76,1292.85 1952.5,1290.33 1964.23,1287.98 1975.97,1285.79 1987.71,1283.74 
  1999.44,1281.82 2011.18,1280.02 2022.92,1278.32 2034.65,1276.71 2046.39,1275.2 2058.13,1273.77 2069.86,1272.42 2081.6,1271.13 2093.34,1269.91 2105.07,1268.75 
  2116.81,1267.64 2128.55,1266.58 2140.28,1265.58 2152.02,1264.61 2163.76,1258.35 2175.5,1234.89 2187.23,1212.4 2198.97,1190.83 2210.71,1170.12 2222.44,1150.23 
  2234.18,1131.1 2245.92,1112.69 2257.65,1094.97 2269.39,1077.89 2281.13,1061.41 2292.86,1044.84 2304.6,1021.09 2316.34,998.142 2328.07,975.959 2339.81,954.502 
  2351.55,933.738 2363.28,913.633 2375.02,894.157 2386.76,875.28 2398.49,856.974 2410.23,839.215 2421.97,821.979 2433.7,805.242 2445.44,788.983 2457.18,773.182 
  2468.92,757.821 2480.65,742.88 2492.39,728.343 2504.13,714.193 2515.86,700.416 2527.6,683.937 2539.34,662.341 2551.07,641.291 2562.81,620.767 2574.55,600.75 
  2586.28,581.221 2598.02,562.163 2609.76,543.559 2621.49,525.392 2633.23,507.648 2644.97,490.312 2656.7,466.816 2668.44,437.809 2680.18,409.446 2691.91,381.706 
  2703.65,354.57 2715.39,328.017 2727.12,302.029 2738.86,276.17 2750.6,250.062 2762.34,224.491 2774.07,199.443 2785.81,174.9 2797.55,150.849 
  "/>
</svg>
