<?xml version="1.0" encoding="utf-8"?>
<svg xmlns="http://www.w3.org/2000/svg" xmlns:xlink="http://www.w3.org/1999/xlink" width="720" height="480" viewBox="0 0 2880 1920">
<defs>
  <clipPath id="clip190">
    <rect x="0" y="0" width="2880" height="1920"/>
  </clipPath>
</defs>
<path clip-path="url(#clip190)" d="
M0 1920 L2880 1920 L2880 0 L0 0  Z
  " fill="#ffffff" fill-rule="evenodd" fill-opacity="1"/>
<defs>
  <clipPath id="clip191">
    <rect x="576" y="0" width="2017" height="1920"/>
  </clipPath>
</defs>
<path clip-path="url(#clip190)" d="
M242.93 779.98 L2345.88 779.98 L2345.88 123.472 L242.93 123.472  Z
  " fill="#ffffff" fill-rule="evenodd" fill-opacity="1"/>
<defs>
  <clipPath id="clip192">
    <rect x="242" y="123" width="2104" height="658"/>
  </clipPath>
</defs>
<polyline clip-path="url(#clip192)" style="stroke:#000000; stroke-width:2; stroke-opacity:0.1; fill:none" points="
  533.777,779.98 533.777,123.472 
  "/>
<polyline clip-path="url(#clip192)" style="stroke:#000000; stroke-width:2; stroke-opacity:0.1; fill:none" points="
  971.955,779.98 971.955,123.472 
  "/>
<polyline clip-path="url(#clip192)" style="stroke:#000000; stroke-width:2; stroke-opacity:0.1; fill:none" points="
  1410.13,779.98 1410.13,123.472 
  "/>
<polyline clip-path="url(#clip192)" style="stroke:#000000; stroke-width:2; stroke-opacity:0.1; fill:none" points="
  1848.31,779.98 1848.31,123.472 
  "/>
<polyline clip-path="url(#clip192)" style="stroke:#000000; stroke-width:2; stroke-opacity:0.1; fill:none" points="
  2286.49,779.98 2286.49,123.472 
  "/>
<polyline clip-path="url(#clip192)" style="stroke:#000000; stroke-width:2; stroke-opacity:0.1; fill:none" points="
  242.93,779.98 2345.88,779.98 
  "/>
<polyline clip-path="url(#clip192)" style="stroke:#000000; stroke-width:2; stroke-opacity:0.1; fill:none" points="
  242.93,666.582 2345.88,666.582 
  "/>
<polyline clip-path="url(#clip192)" style="stroke:#000000; stroke-width:2; stroke-opacity:0.1; fill:none" points="
  242.93,553.184 2345.88,553.184 
  "/>
<polyline clip-path="url(#clip192)" style="stroke:#000000; stroke-width:2; stroke-opacity:0.1; fill:none" points="
  242.93,439.786 2345.88,439.786 
  "/>
<polyline clip-path="url(#clip192)" style="stroke:#000000; stroke-width:2; stroke-opacity:0.1; fill:none" points="
  242.93,326.389 2345.88,326.389 
  "/>
<polyline clip-path="url(#clip192)" style="stroke:#000000; stroke-width:2; stroke-opacity:0.1; fill:none" points="
  242.93,212.991 2345.88,212.991 
  "/>
<polyline clip-path="url(#clip190)" style="stroke:#000000; stroke-width:4; stroke-opacity:1; fill:none" points="
  242.93,779.98 2345.88,779.98 
  "/>
<polyline clip-path="url(#clip190)" style="stroke:#000000; stroke-width:4; stroke-opacity:1; fill:none" points="
  242.93,779.98 242.93,123.472 
  "/>
<polyline clip-path="url(#clip190)" style="stroke:#000000; stroke-width:4; stroke-opacity:1; fill:none" points="
  533.777,779.98 533.777,772.102 
  "/>
<polyline clip-path="url(#clip190)" style="stroke:#000000; stroke-width:4; stroke-opacity:1; fill:none" points="
  971.955,779.98 971.955,772.102 
  "/>
<polyline clip-path="url(#clip190)" style="stroke:#000000; stroke-width:4; stroke-opacity:1; fill:none" points="
  1410.13,779.98 1410.13,772.102 
  "/>
<polyline clip-path="url(#clip190)" style="stroke:#000000; stroke-width:4; stroke-opacity:1; fill:none" points="
  1848.31,779.98 1848.31,772.102 
  "/>
<polyline clip-path="url(#clip190)" style="stroke:#000000; stroke-width:4; stroke-opacity:1; fill:none" points="
  2286.49,779.98 2286.49,772.102 
  "/>
<polyline clip-path="url(#clip190)" style="stroke:#000000; stroke-width:4; stroke-opacity:1; fill:none" points="
  242.93,779.98 268.165,779.98 
  "/>
<polyline clip-path="url(#clip190)" style="stroke:#000000; stroke-width:4; stroke-opacity:1; fill:none" points="
  242.93,666.582 268.165,666.582 
  "/>
<polyline clip-path="url(#clip190)" style="stroke:#000000; stroke-width:4; stroke-opacity:1; fill:none" points="
  242.93,553.184 268.165,553.184 
  "/>
<polyline clip-path="url(#clip190)" style="stroke:#000000; stroke-width:4; stroke-opacity:1; fill:none" points="
  242.93,439.786 268.165,439.786 
  "/>
<polyline clip-path="url(#clip190)" style="stroke:#000000; stroke-width:4; stroke-opacity:1; fill:none" points="
  242.93,326.389 268.165,326.389 
  "/>
<polyline clip-path="url(#clip190)" style="stroke:#000000; stroke-width:4; stroke-opacity:1; fill:none" points="
  242.93,212.991 268.165,212.991 
  "/>
<path clip-path="url(#clip190)" d="M 0 0 M514.645 820.968 L527.122 820.968 L527.122 824.764 L514.645 824.764 L514.645 820.968 Z" fill="#000000" fill-rule="evenodd" fill-opacity="1" /><path clip-path="url(#clip190)" d="M 0 0 M533.001 831.917 L540.64 831.917 L540.64 805.551 L532.33 807.218 L532.33 802.959 L540.594 801.292 L545.27 801.292 L545.27 831.917 L552.908 831.917 L552.908 835.852 L533.001 835.852 L533.001 831.917 Z" fill="#000000" fill-rule="evenodd" fill-opacity="1" /><path clip-path="url(#clip190)" d="M 0 0 M971.955 804.371 Q968.344 804.371 966.515 807.935 Q964.71 811.477 964.71 818.607 Q964.71 825.713 966.515 829.278 Q968.344 832.819 971.955 832.819 Q975.589 832.819 977.395 829.278 Q979.224 825.713 979.224 818.607 Q979.224 811.477 977.395 807.935 Q975.589 804.371 971.955 804.371 M971.955 800.667 Q977.765 800.667 980.821 805.273 Q983.899 809.857 983.899 818.607 Q983.899 827.333 980.821 831.94 Q977.765 836.523 971.955 836.523 Q966.145 836.523 963.066 831.94 Q960.011 827.333 960.011 818.607 Q960.011 809.857 963.066 805.273 Q966.145 800.667 971.955 800.667 Z" fill="#000000" fill-rule="evenodd" fill-opacity="1" /><path clip-path="url(#clip190)" d="M 0 0 M1400.52 831.917 L1408.15 831.917 L1408.15 805.551 L1399.84 807.218 L1399.84 802.959 L1408.11 801.292 L1412.78 801.292 L1412.78 831.917 L1420.42 831.917 L1420.42 835.852 L1400.52 835.852 L1400.52 831.917 Z" fill="#000000" fill-rule="evenodd" fill-opacity="1" /><path clip-path="url(#clip190)" d="M 0 0 M1842.96 831.917 L1859.28 831.917 L1859.28 835.852 L1837.34 835.852 L1837.34 831.917 Q1840 829.162 1844.59 824.532 Q1849.19 819.88 1850.37 818.537 Q1852.62 816.014 1853.5 814.278 Q1854.4 812.519 1854.4 810.829 Q1854.4 808.074 1852.46 806.338 Q1850.53 804.602 1847.43 804.602 Q1845.23 804.602 1842.78 805.366 Q1840.35 806.13 1837.57 807.681 L1837.57 802.959 Q1840.4 801.824 1842.85 801.246 Q1845.3 800.667 1847.34 800.667 Q1852.71 800.667 1855.9 803.352 Q1859.1 806.037 1859.1 810.528 Q1859.1 812.658 1858.29 814.579 Q1857.5 816.477 1855.4 819.07 Q1854.82 819.741 1851.71 822.958 Q1848.61 826.153 1842.96 831.917 Z" fill="#000000" fill-rule="evenodd" fill-opacity="1" /><path clip-path="url(#clip190)" d="M 0 0 M2290.74 817.218 Q2294.09 817.935 2295.97 820.204 Q2297.87 822.472 2297.87 825.806 Q2297.87 830.921 2294.35 833.722 Q2290.83 836.523 2284.35 836.523 Q2282.17 836.523 2279.86 836.083 Q2277.57 835.667 2275.11 834.81 L2275.11 830.296 Q2277.06 831.431 2279.37 832.009 Q2281.69 832.588 2284.21 832.588 Q2288.61 832.588 2290.9 830.852 Q2293.21 829.116 2293.21 825.806 Q2293.21 822.75 2291.06 821.037 Q2288.93 819.301 2285.11 819.301 L2281.09 819.301 L2281.09 815.458 L2285.3 815.458 Q2288.75 815.458 2290.58 814.093 Q2292.4 812.704 2292.4 810.111 Q2292.4 807.449 2290.51 806.037 Q2288.63 804.602 2285.11 804.602 Q2283.19 804.602 2280.99 805.019 Q2278.79 805.435 2276.15 806.315 L2276.15 802.148 Q2278.82 801.408 2281.13 801.037 Q2283.47 800.667 2285.53 800.667 Q2290.85 800.667 2293.96 803.097 Q2297.06 805.505 2297.06 809.625 Q2297.06 812.495 2295.41 814.486 Q2293.77 816.454 2290.74 817.218 Z" fill="#000000" fill-rule="evenodd" fill-opacity="1" /><path clip-path="url(#clip190)" d="M 0 0 M138.205 765.779 Q134.593 765.779 132.765 769.343 Q130.959 772.885 130.959 780.015 Q130.959 787.121 132.765 790.686 Q134.593 794.227 138.205 794.227 Q141.839 794.227 143.644 790.686 Q145.473 787.121 145.473 780.015 Q145.473 772.885 143.644 769.343 Q141.839 765.779 138.205 765.779 M138.205 762.075 Q144.015 762.075 147.07 766.681 Q150.149 771.265 150.149 780.015 Q150.149 788.741 147.07 793.348 Q144.015 797.931 138.205 797.931 Q132.394 797.931 129.316 793.348 Q126.26 788.741 126.26 780.015 Q126.26 771.265 129.316 766.681 Q132.394 762.075 138.205 762.075 Z" fill="#000000" fill-rule="evenodd" fill-opacity="1" /><path clip-path="url(#clip190)" d="M 0 0 M155.218 791.38 L160.103 791.38 L160.103 797.26 L155.218 797.26 L155.218 791.38 Z" fill="#000000" fill-rule="evenodd" fill-opacity="1" /><path clip-path="url(#clip190)" d="M 0 0 M175.172 765.779 Q171.561 765.779 169.732 769.343 Q167.927 772.885 167.927 780.015 Q167.927 787.121 169.732 790.686 Q171.561 794.227 175.172 794.227 Q178.806 794.227 180.612 790.686 Q182.44 787.121 182.44 780.015 Q182.44 772.885 180.612 769.343 Q178.806 765.779 175.172 765.779 M175.172 762.075 Q180.982 762.075 184.038 766.681 Q187.116 771.265 187.116 780.015 Q187.116 788.741 184.038 793.348 Q180.982 797.931 175.172 797.931 Q169.362 797.931 166.283 793.348 Q163.228 788.741 163.228 780.015 Q163.228 771.265 166.283 766.681 Q169.362 762.075 175.172 762.075 Z" fill="#000000" fill-rule="evenodd" fill-opacity="1" /><path clip-path="url(#clip190)" d="M 0 0 M202.186 765.779 Q198.575 765.779 196.746 769.343 Q194.94 772.885 194.94 780.015 Q194.94 787.121 196.746 790.686 Q198.575 794.227 202.186 794.227 Q205.82 794.227 207.625 790.686 Q209.454 787.121 209.454 780.015 Q209.454 772.885 207.625 769.343 Q205.82 765.779 202.186 765.779 M202.186 762.075 Q207.996 762.075 211.051 766.681 Q214.13 771.265 214.13 780.015 Q214.13 788.741 211.051 793.348 Q207.996 797.931 202.186 797.931 Q196.376 797.931 193.297 793.348 Q190.241 788.741 190.241 780.015 Q190.241 771.265 193.297 766.681 Q196.376 762.075 202.186 762.075 Z" fill="#000000" fill-rule="evenodd" fill-opacity="1" /><path clip-path="url(#clip190)" d="M 0 0 M139.2 652.381 Q135.589 652.381 133.76 655.946 Q131.955 659.487 131.955 666.617 Q131.955 673.723 133.76 677.288 Q135.589 680.83 139.2 680.83 Q142.834 680.83 144.64 677.288 Q146.468 673.723 146.468 666.617 Q146.468 659.487 144.64 655.946 Q142.834 652.381 139.2 652.381 M139.2 648.677 Q145.01 648.677 148.066 653.284 Q151.144 657.867 151.144 666.617 Q151.144 675.344 148.066 679.95 Q145.01 684.533 139.2 684.533 Q133.39 684.533 130.311 679.95 Q127.256 675.344 127.256 666.617 Q127.256 657.867 130.311 653.284 Q133.39 648.677 139.2 648.677 Z" fill="#000000" fill-rule="evenodd" fill-opacity="1" /><path clip-path="url(#clip190)" d="M 0 0 M156.214 677.982 L161.098 677.982 L161.098 683.862 L156.214 683.862 L156.214 677.982 Z" fill="#000000" fill-rule="evenodd" fill-opacity="1" /><path clip-path="url(#clip190)" d="M 0 0 M176.167 652.381 Q172.556 652.381 170.728 655.946 Q168.922 659.487 168.922 666.617 Q168.922 673.723 170.728 677.288 Q172.556 680.83 176.167 680.83 Q179.802 680.83 181.607 677.288 Q183.436 673.723 183.436 666.617 Q183.436 659.487 181.607 655.946 Q179.802 652.381 176.167 652.381 M176.167 648.677 Q181.977 648.677 185.033 653.284 Q188.112 657.867 188.112 666.617 Q188.112 675.344 185.033 679.95 Q181.977 684.533 176.167 684.533 Q170.357 684.533 167.278 679.95 Q164.223 675.344 164.223 666.617 Q164.223 657.867 167.278 653.284 Q170.357 648.677 176.167 648.677 Z" fill="#000000" fill-rule="evenodd" fill-opacity="1" /><path clip-path="url(#clip190)" d="M 0 0 M193.227 649.302 L211.584 649.302 L211.584 653.237 L197.51 653.237 L197.51 661.709 Q198.528 661.362 199.547 661.2 Q200.565 661.015 201.584 661.015 Q207.371 661.015 210.75 664.186 Q214.13 667.358 214.13 672.774 Q214.13 678.353 210.658 681.455 Q207.186 684.533 200.866 684.533 Q198.69 684.533 196.422 684.163 Q194.176 683.793 191.769 683.052 L191.769 678.353 Q193.852 679.487 196.075 680.043 Q198.297 680.598 200.774 680.598 Q204.778 680.598 207.116 678.492 Q209.454 676.385 209.454 672.774 Q209.454 669.163 207.116 667.057 Q204.778 664.95 200.774 664.95 Q198.899 664.95 197.024 665.367 Q195.172 665.783 193.227 666.663 L193.227 649.302 Z" fill="#000000" fill-rule="evenodd" fill-opacity="1" /><path clip-path="url(#clip190)" d="M 0 0 M139.431 538.983 Q135.82 538.983 133.992 542.548 Q132.186 546.089 132.186 553.219 Q132.186 560.325 133.992 563.89 Q135.82 567.432 139.431 567.432 Q143.066 567.432 144.871 563.89 Q146.7 560.325 146.7 553.219 Q146.7 546.089 144.871 542.548 Q143.066 538.983 139.431 538.983 M139.431 535.279 Q145.242 535.279 148.297 539.886 Q151.376 544.469 151.376 553.219 Q151.376 561.946 148.297 566.552 Q145.242 571.136 139.431 571.136 Q133.621 571.136 130.543 566.552 Q127.487 561.946 127.487 553.219 Q127.487 544.469 130.543 539.886 Q133.621 535.279 139.431 535.279 Z" fill="#000000" fill-rule="evenodd" fill-opacity="1" /><path clip-path="url(#clip190)" d="M 0 0 M156.445 564.585 L161.329 564.585 L161.329 570.464 L156.445 570.464 L156.445 564.585 Z" fill="#000000" fill-rule="evenodd" fill-opacity="1" /><path clip-path="url(#clip190)" d="M 0 0 M167.209 566.529 L174.848 566.529 L174.848 540.163 L166.538 541.83 L166.538 537.571 L174.802 535.904 L179.477 535.904 L179.477 566.529 L187.116 566.529 L187.116 570.464 L167.209 570.464 L167.209 566.529 Z" fill="#000000" fill-rule="evenodd" fill-opacity="1" /><path clip-path="url(#clip190)" d="M 0 0 M202.186 538.983 Q198.575 538.983 196.746 542.548 Q194.94 546.089 194.94 553.219 Q194.94 560.325 196.746 563.89 Q198.575 567.432 202.186 567.432 Q205.82 567.432 207.625 563.89 Q209.454 560.325 209.454 553.219 Q209.454 546.089 207.625 542.548 Q205.82 538.983 202.186 538.983 M202.186 535.279 Q207.996 535.279 211.051 539.886 Q214.13 544.469 214.13 553.219 Q214.13 561.946 211.051 566.552 Q207.996 571.136 202.186 571.136 Q196.376 571.136 193.297 566.552 Q190.241 561.946 190.241 553.219 Q190.241 544.469 193.297 539.886 Q196.376 535.279 202.186 535.279 Z" fill="#000000" fill-rule="evenodd" fill-opacity="1" /><path clip-path="url(#clip190)" d="M 0 0 M140.427 425.585 Q136.816 425.585 134.987 429.15 Q133.181 432.692 133.181 439.821 Q133.181 446.928 134.987 450.492 Q136.816 454.034 140.427 454.034 Q144.061 454.034 145.867 450.492 Q147.695 446.928 147.695 439.821 Q147.695 432.692 145.867 429.15 Q144.061 425.585 140.427 425.585 M140.427 421.881 Q146.237 421.881 149.292 426.488 Q152.371 431.071 152.371 439.821 Q152.371 448.548 149.292 453.154 Q146.237 457.738 140.427 457.738 Q134.617 457.738 131.538 453.154 Q128.482 448.548 128.482 439.821 Q128.482 431.071 131.538 426.488 Q134.617 421.881 140.427 421.881 Z" fill="#000000" fill-rule="evenodd" fill-opacity="1" /><path clip-path="url(#clip190)" d="M 0 0 M157.441 451.187 L162.325 451.187 L162.325 457.066 L157.441 457.066 L157.441 451.187 Z" fill="#000000" fill-rule="evenodd" fill-opacity="1" /><path clip-path="url(#clip190)" d="M 0 0 M168.204 453.131 L175.843 453.131 L175.843 426.766 L167.533 428.432 L167.533 424.173 L175.797 422.506 L180.473 422.506 L180.473 453.131 L188.112 453.131 L188.112 457.066 L168.204 457.066 L168.204 453.131 Z" fill="#000000" fill-rule="evenodd" fill-opacity="1" /><path clip-path="url(#clip190)" d="M 0 0 M193.227 422.506 L211.584 422.506 L211.584 426.442 L197.51 426.442 L197.51 434.914 Q198.528 434.567 199.547 434.405 Q200.565 434.219 201.584 434.219 Q207.371 434.219 210.75 437.391 Q214.13 440.562 214.13 445.979 Q214.13 451.557 210.658 454.659 Q207.186 457.738 200.866 457.738 Q198.69 457.738 196.422 457.367 Q194.176 456.997 191.769 456.256 L191.769 451.557 Q193.852 452.691 196.075 453.247 Q198.297 453.803 200.774 453.803 Q204.778 453.803 207.116 451.696 Q209.454 449.59 209.454 445.979 Q209.454 442.367 207.116 440.261 Q204.778 438.155 200.774 438.155 Q198.899 438.155 197.024 438.571 Q195.172 438.988 193.227 439.867 L193.227 422.506 Z" fill="#000000" fill-rule="evenodd" fill-opacity="1" /><path clip-path="url(#clip190)" d="M 0 0 M139.802 312.187 Q136.191 312.187 134.362 315.752 Q132.556 319.294 132.556 326.423 Q132.556 333.53 134.362 337.095 Q136.191 340.636 139.802 340.636 Q143.436 340.636 145.242 337.095 Q147.07 333.53 147.07 326.423 Q147.07 319.294 145.242 315.752 Q143.436 312.187 139.802 312.187 M139.802 308.484 Q145.612 308.484 148.667 313.09 Q151.746 317.673 151.746 326.423 Q151.746 335.15 148.667 339.757 Q145.612 344.34 139.802 344.34 Q133.992 344.34 130.913 339.757 Q127.857 335.15 127.857 326.423 Q127.857 317.673 130.913 313.09 Q133.992 308.484 139.802 308.484 Z" fill="#000000" fill-rule="evenodd" fill-opacity="1" /><path clip-path="url(#clip190)" d="M 0 0 M156.816 337.789 L161.7 337.789 L161.7 343.669 L156.816 343.669 L156.816 337.789 Z" fill="#000000" fill-rule="evenodd" fill-opacity="1" /><path clip-path="url(#clip190)" d="M 0 0 M170.797 339.734 L187.116 339.734 L187.116 343.669 L165.172 343.669 L165.172 339.734 Q167.834 336.979 172.417 332.349 Q177.024 327.697 178.204 326.354 Q180.45 323.831 181.329 322.095 Q182.232 320.335 182.232 318.646 Q182.232 315.891 180.288 314.155 Q178.366 312.419 175.265 312.419 Q173.065 312.419 170.612 313.183 Q168.181 313.947 165.403 315.498 L165.403 310.775 Q168.228 309.641 170.681 309.062 Q173.135 308.484 175.172 308.484 Q180.542 308.484 183.737 311.169 Q186.931 313.854 186.931 318.345 Q186.931 320.474 186.121 322.396 Q185.334 324.294 183.227 326.886 Q182.649 327.558 179.547 330.775 Q176.445 333.97 170.797 339.734 Z" fill="#000000" fill-rule="evenodd" fill-opacity="1" /><path clip-path="url(#clip190)" d="M 0 0 M202.186 312.187 Q198.575 312.187 196.746 315.752 Q194.94 319.294 194.94 326.423 Q194.94 333.53 196.746 337.095 Q198.575 340.636 202.186 340.636 Q205.82 340.636 207.625 337.095 Q209.454 333.53 209.454 326.423 Q209.454 319.294 207.625 315.752 Q205.82 312.187 202.186 312.187 M202.186 308.484 Q207.996 308.484 211.051 313.09 Q214.13 317.673 214.13 326.423 Q214.13 335.15 211.051 339.757 Q207.996 344.34 202.186 344.34 Q196.376 344.34 193.297 339.757 Q190.241 335.15 190.241 326.423 Q190.241 317.673 193.297 313.09 Q196.376 308.484 202.186 308.484 Z" fill="#000000" fill-rule="evenodd" fill-opacity="1" /><path clip-path="url(#clip190)" d="M 0 0 M140.797 198.79 Q137.186 198.79 135.357 202.354 Q133.552 205.896 133.552 213.026 Q133.552 220.132 135.357 223.697 Q137.186 227.238 140.797 227.238 Q144.431 227.238 146.237 223.697 Q148.066 220.132 148.066 213.026 Q148.066 205.896 146.237 202.354 Q144.431 198.79 140.797 198.79 M140.797 195.086 Q146.607 195.086 149.663 199.692 Q152.741 204.276 152.741 213.026 Q152.741 221.752 149.663 226.359 Q146.607 230.942 140.797 230.942 Q134.987 230.942 131.908 226.359 Q128.853 221.752 128.853 213.026 Q128.853 204.276 131.908 199.692 Q134.987 195.086 140.797 195.086 Z" fill="#000000" fill-rule="evenodd" fill-opacity="1" /><path clip-path="url(#clip190)" d="M 0 0 M157.811 224.391 L162.695 224.391 L162.695 230.271 L157.811 230.271 L157.811 224.391 Z" fill="#000000" fill-rule="evenodd" fill-opacity="1" /><path clip-path="url(#clip190)" d="M 0 0 M171.792 226.336 L188.112 226.336 L188.112 230.271 L166.167 230.271 L166.167 226.336 Q168.829 223.581 173.413 218.951 Q178.019 214.299 179.2 212.956 Q181.445 210.433 182.325 208.697 Q183.227 206.938 183.227 205.248 Q183.227 202.493 181.283 200.757 Q179.362 199.021 176.26 199.021 Q174.061 199.021 171.607 199.785 Q169.177 200.549 166.399 202.1 L166.399 197.378 Q169.223 196.243 171.677 195.665 Q174.13 195.086 176.167 195.086 Q181.538 195.086 184.732 197.771 Q187.926 200.456 187.926 204.947 Q187.926 207.077 187.116 208.998 Q186.329 210.896 184.223 213.489 Q183.644 214.16 180.542 217.377 Q177.44 220.572 171.792 226.336 Z" fill="#000000" fill-rule="evenodd" fill-opacity="1" /><path clip-path="url(#clip190)" d="M 0 0 M193.227 195.711 L211.584 195.711 L211.584 199.646 L197.51 199.646 L197.51 208.118 Q198.528 207.771 199.547 207.609 Q200.565 207.424 201.584 207.424 Q207.371 207.424 210.75 210.595 Q214.13 213.766 214.13 219.183 Q214.13 224.762 210.658 227.863 Q207.186 230.942 200.866 230.942 Q198.69 230.942 196.422 230.572 Q194.176 230.201 191.769 229.461 L191.769 224.762 Q193.852 225.896 196.075 226.451 Q198.297 227.007 200.774 227.007 Q204.778 227.007 207.116 224.901 Q209.454 222.794 209.454 219.183 Q209.454 215.572 207.116 213.465 Q204.778 211.359 200.774 211.359 Q198.899 211.359 197.024 211.776 Q195.172 212.192 193.227 213.072 L193.227 195.711 Z" fill="#000000" fill-rule="evenodd" fill-opacity="1" /><path clip-path="url(#clip190)" d="M 0 0 M894.967 18.8205 L894.967 41.5461 L905.256 41.5461 Q910.968 41.5461 914.087 38.5889 Q917.206 35.6318 917.206 30.163 Q917.206 24.7348 914.087 21.7777 Q910.968 18.8205 905.256 18.8205 L894.967 18.8205 M886.784 12.096 L905.256 12.096 Q915.424 12.096 920.609 16.714 Q925.835 21.2916 925.835 30.163 Q925.835 39.1155 920.609 43.6931 Q915.424 48.2706 905.256 48.2706 L894.967 48.2706 L894.967 72.576 L886.784 72.576 L886.784 12.096 Z" fill="#000000" fill-rule="evenodd" fill-opacity="1" /><path clip-path="url(#clip190)" d="M 0 0 M958.485 34.1734 Q957.229 33.4443 955.731 33.1202 Q954.272 32.7556 952.49 32.7556 Q946.17 32.7556 942.768 36.8875 Q939.405 40.9789 939.405 48.6757 L939.405 72.576 L931.911 72.576 L931.911 27.2059 L939.405 27.2059 L939.405 34.2544 Q941.755 30.1225 945.522 28.1376 Q949.29 26.1121 954.677 26.1121 Q955.447 26.1121 956.379 26.2337 Q957.31 26.3147 958.445 26.5172 L958.485 34.1734 Z" fill="#000000" fill-rule="evenodd" fill-opacity="1" /><path clip-path="url(#clip190)" d="M 0 0 M982.061 32.4315 Q976.066 32.4315 972.582 37.1306 Q969.099 41.7891 969.099 49.9314 Q969.099 58.0738 972.542 62.7728 Q976.026 67.4314 982.061 67.4314 Q988.016 67.4314 991.5 62.7323 Q994.984 58.0333 994.984 49.9314 Q994.984 41.8701 991.5 37.1711 Q988.016 32.4315 982.061 32.4315 M982.061 26.1121 Q991.784 26.1121 997.333 32.4315 Q1002.88 38.7509 1002.88 49.9314 Q1002.88 61.0714 997.333 67.4314 Q991.784 73.7508 982.061 73.7508 Q972.299 73.7508 966.749 67.4314 Q961.24 61.0714 961.24 49.9314 Q961.24 38.7509 966.749 32.4315 Q972.299 26.1121 982.061 26.1121 Z" fill="#000000" fill-rule="evenodd" fill-opacity="1" /><path clip-path="url(#clip190)" d="M 0 0 M1043.27 49.9314 Q1043.27 41.7081 1039.87 37.0496 Q1036.51 32.3505 1030.59 32.3505 Q1024.68 32.3505 1021.27 37.0496 Q1017.91 41.7081 1017.91 49.9314 Q1017.91 58.1548 1021.27 62.8538 Q1024.68 67.5124 1030.59 67.5124 Q1036.51 67.5124 1039.87 62.8538 Q1043.27 58.1548 1043.27 49.9314 M1017.91 34.0924 Q1020.26 30.0415 1023.83 28.0971 Q1027.43 26.1121 1032.41 26.1121 Q1040.68 26.1121 1045.82 32.6746 Q1051.01 39.2371 1051.01 49.9314 Q1051.01 60.6258 1045.82 67.1883 Q1040.68 73.7508 1032.41 73.7508 Q1027.43 73.7508 1023.83 71.8063 Q1020.26 69.8214 1017.91 65.7705 L1017.91 72.576 L1010.42 72.576 L1010.42 9.54393 L1017.91 9.54393 L1017.91 34.0924 Z" fill="#000000" fill-rule="evenodd" fill-opacity="1" /><path clip-path="url(#clip190)" d="M 0 0 M1079.45 49.7694 Q1070.41 49.7694 1066.93 51.8354 Q1063.44 53.9013 1063.44 58.8839 Q1063.44 62.8538 1066.04 65.2034 Q1068.67 67.5124 1073.17 67.5124 Q1079.36 67.5124 1083.09 63.1374 Q1086.86 58.7219 1086.86 51.4303 L1086.86 49.7694 L1079.45 49.7694 M1094.31 46.6907 L1094.31 72.576 L1086.86 72.576 L1086.86 65.6895 Q1084.31 69.8214 1080.5 71.8063 Q1076.69 73.7508 1071.18 73.7508 Q1064.21 73.7508 1060.08 69.8619 Q1055.99 65.9325 1055.99 59.3701 Q1055.99 51.7138 1061.09 47.825 Q1066.24 43.9361 1076.41 43.9361 L1086.86 43.9361 L1086.86 43.2069 Q1086.86 38.0623 1083.46 35.2672 Q1080.09 32.4315 1073.98 32.4315 Q1070.09 32.4315 1066.4 33.3632 Q1062.71 34.295 1059.31 36.1584 L1059.31 29.2718 Q1063.4 27.692 1067.25 26.9223 Q1071.1 26.1121 1074.75 26.1121 Q1084.59 26.1121 1089.45 31.2163 Q1094.31 36.3204 1094.31 46.6907 Z" fill="#000000" fill-rule="evenodd" fill-opacity="1" /><path clip-path="url(#clip190)" d="M 0 0 M1134.7 49.9314 Q1134.7 41.7081 1131.3 37.0496 Q1127.93 32.3505 1122.02 32.3505 Q1116.11 32.3505 1112.7 37.0496 Q1109.34 41.7081 1109.34 49.9314 Q1109.34 58.1548 1112.7 62.8538 Q1116.11 67.5124 1122.02 67.5124 Q1127.93 67.5124 1131.3 62.8538 Q1134.7 58.1548 1134.7 49.9314 M1109.34 34.0924 Q1111.69 30.0415 1115.26 28.0971 Q1118.86 26.1121 1123.84 26.1121 Q1132.11 26.1121 1137.25 32.6746 Q1142.44 39.2371 1142.44 49.9314 Q1142.44 60.6258 1137.25 67.1883 Q1132.11 73.7508 1123.84 73.7508 Q1118.86 73.7508 1115.26 71.8063 Q1111.69 69.8214 1109.34 65.7705 L1109.34 72.576 L1101.85 72.576 L1101.85 9.54393 L1109.34 9.54393 L1109.34 34.0924 Z" fill="#000000" fill-rule="evenodd" fill-opacity="1" /><path clip-path="url(#clip190)" d="M 0 0 M1150.25 27.2059 L1157.71 27.2059 L1157.71 72.576 L1150.25 72.576 L1150.25 27.2059 M1150.25 9.54393 L1157.71 9.54393 L1157.71 18.9825 L1150.25 18.9825 L1150.25 9.54393 Z" fill="#000000" fill-rule="evenodd" fill-opacity="1" /><path clip-path="url(#clip190)" d="M 0 0 M1165.53 9.54393 L1172.98 9.54393 L1172.98 72.576 L1165.53 72.576 L1165.53 9.54393 Z" fill="#000000" fill-rule="evenodd" fill-opacity="1" /><path clip-path="url(#clip190)" d="M 0 0 M1180.8 27.2059 L1188.25 27.2059 L1188.25 72.576 L1180.8 72.576 L1180.8 27.2059 M1180.8 9.54393 L1188.25 9.54393 L1188.25 18.9825 L1180.8 18.9825 L1180.8 9.54393 Z" fill="#000000" fill-rule="evenodd" fill-opacity="1" /><path clip-path="url(#clip190)" d="M 0 0 M1203.44 14.324 L1203.44 27.2059 L1218.8 27.2059 L1218.8 32.9987 L1203.44 32.9987 L1203.44 57.6282 Q1203.44 63.1779 1204.94 64.7578 Q1206.48 66.3376 1211.14 66.3376 L1218.8 66.3376 L1218.8 72.576 L1211.14 72.576 Q1202.51 72.576 1199.23 69.3758 Q1195.95 66.1351 1195.95 57.6282 L1195.95 32.9987 L1190.48 32.9987 L1190.48 27.2059 L1195.95 27.2059 L1195.95 14.324 L1203.44 14.324 Z" fill="#000000" fill-rule="evenodd" fill-opacity="1" /><path clip-path="url(#clip190)" d="M 0 0 M1245.49 76.7889 Q1242.33 84.8907 1239.33 87.3618 Q1236.34 89.8329 1231.31 89.8329 L1225.36 89.8329 L1225.36 83.5945 L1229.73 83.5945 Q1232.81 83.5945 1234.51 82.1361 Q1236.22 80.6778 1238.28 75.2496 L1239.62 71.8468 L1221.27 27.2059 L1229.17 27.2059 L1243.34 62.6918 L1257.52 27.2059 L1265.42 27.2059 L1245.49 76.7889 Z" fill="#000000" fill-rule="evenodd" fill-opacity="1" /><path clip-path="url(#clip190)" d="M 0 0 M1329.47 34.0924 L1329.47 9.54393 L1336.92 9.54393 L1336.92 72.576 L1329.47 72.576 L1329.47 65.7705 Q1327.12 69.8214 1323.51 71.8063 Q1319.95 73.7508 1314.92 73.7508 Q1306.7 73.7508 1301.52 67.1883 Q1296.37 60.6258 1296.37 49.9314 Q1296.37 39.2371 1301.52 32.6746 Q1306.7 26.1121 1314.92 26.1121 Q1319.95 26.1121 1323.51 28.0971 Q1327.12 30.0415 1329.47 34.0924 M1304.07 49.9314 Q1304.07 58.1548 1307.43 62.8538 Q1310.83 67.5124 1316.75 67.5124 Q1322.66 67.5124 1326.06 62.8538 Q1329.47 58.1548 1329.47 49.9314 Q1329.47 41.7081 1326.06 37.0496 Q1322.66 32.3505 1316.75 32.3505 Q1310.83 32.3505 1307.43 37.0496 Q1304.07 41.7081 1304.07 49.9314 Z" fill="#000000" fill-rule="evenodd" fill-opacity="1" /><path clip-path="url(#clip190)" d="M 0 0 M1344.74 27.2059 L1352.19 27.2059 L1352.19 72.576 L1344.74 72.576 L1344.74 27.2059 M1344.74 9.54393 L1352.19 9.54393 L1352.19 18.9825 L1344.74 18.9825 L1344.74 9.54393 Z" fill="#000000" fill-rule="evenodd" fill-opacity="1" /><path clip-path="url(#clip190)" d="M 0 0 M1388.93 28.5427 L1388.93 35.5912 Q1385.77 33.9709 1382.37 33.1607 Q1378.97 32.3505 1375.32 32.3505 Q1369.77 32.3505 1366.98 34.0519 Q1364.22 35.7533 1364.22 39.156 Q1364.22 41.7486 1366.21 43.2475 Q1368.19 44.7058 1374.19 46.0426 L1376.74 46.6097 Q1384.68 48.3111 1388 51.4303 Q1391.36 54.509 1391.36 60.0587 Q1391.36 66.3781 1386.34 70.0644 Q1381.36 73.7508 1372.61 73.7508 Q1368.96 73.7508 1364.99 73.0216 Q1361.06 72.3329 1356.69 70.9151 L1356.69 63.2184 Q1360.82 65.3654 1364.83 66.4591 Q1368.84 67.5124 1372.77 67.5124 Q1378.04 67.5124 1380.87 65.73 Q1383.71 63.9071 1383.71 60.6258 Q1383.71 57.5877 1381.64 55.9673 Q1379.62 54.3469 1372.69 52.8481 L1370.1 52.2405 Q1363.17 50.7821 1360.09 47.7845 Q1357.01 44.7463 1357.01 39.4801 Q1357.01 33.0797 1361.55 29.5959 Q1366.09 26.1121 1374.43 26.1121 Q1378.56 26.1121 1382.21 26.7198 Q1385.86 27.3274 1388.93 28.5427 Z" fill="#000000" fill-rule="evenodd" fill-opacity="1" /><path clip-path="url(#clip190)" d="M 0 0 M1406.56 14.324 L1406.56 27.2059 L1421.91 27.2059 L1421.91 32.9987 L1406.56 32.9987 L1406.56 57.6282 Q1406.56 63.1779 1408.05 64.7578 Q1409.59 66.3376 1414.25 66.3376 L1421.91 66.3376 L1421.91 72.576 L1414.25 72.576 Q1405.62 72.576 1402.34 69.3758 Q1399.06 66.1351 1399.06 57.6282 L1399.06 32.9987 L1393.59 32.9987 L1393.59 27.2059 L1399.06 27.2059 L1399.06 14.324 L1406.56 14.324 Z" fill="#000000" fill-rule="evenodd" fill-opacity="1" /><path clip-path="url(#clip190)" d="M 0 0 M1456.02 34.1734 Q1454.76 33.4443 1453.26 33.1202 Q1451.8 32.7556 1450.02 32.7556 Q1443.7 32.7556 1440.3 36.8875 Q1436.94 40.9789 1436.94 48.6757 L1436.94 72.576 L1429.44 72.576 L1429.44 27.2059 L1436.94 27.2059 L1436.94 34.2544 Q1439.29 30.1225 1443.05 28.1376 Q1446.82 26.1121 1452.21 26.1121 Q1452.98 26.1121 1453.91 26.2337 Q1454.84 26.3147 1455.98 26.5172 L1456.02 34.1734 Z" fill="#000000" fill-rule="evenodd" fill-opacity="1" /><path clip-path="url(#clip190)" d="M 0 0 M1463.84 27.2059 L1471.29 27.2059 L1471.29 72.576 L1463.84 72.576 L1463.84 27.2059 M1463.84 9.54393 L1471.29 9.54393 L1471.29 18.9825 L1463.84 18.9825 L1463.84 9.54393 Z" fill="#000000" fill-rule="evenodd" fill-opacity="1" /><path clip-path="url(#clip190)" d="M 0 0 M1511.68 49.9314 Q1511.68 41.7081 1508.27 37.0496 Q1504.91 32.3505 1499 32.3505 Q1493.08 32.3505 1489.68 37.0496 Q1486.32 41.7081 1486.32 49.9314 Q1486.32 58.1548 1489.68 62.8538 Q1493.08 67.5124 1499 67.5124 Q1504.91 67.5124 1508.27 62.8538 Q1511.68 58.1548 1511.68 49.9314 M1486.32 34.0924 Q1488.67 30.0415 1492.23 28.0971 Q1495.84 26.1121 1500.82 26.1121 Q1509.08 26.1121 1514.23 32.6746 Q1519.41 39.2371 1519.41 49.9314 Q1519.41 60.6258 1514.23 67.1883 Q1509.08 73.7508 1500.82 73.7508 Q1495.84 73.7508 1492.23 71.8063 Q1488.67 69.8214 1486.32 65.7705 L1486.32 72.576 L1478.82 72.576 L1478.82 9.54393 L1486.32 9.54393 L1486.32 34.0924 Z" fill="#000000" fill-rule="evenodd" fill-opacity="1" /><path clip-path="url(#clip190)" d="M 0 0 M1526.46 54.671 L1526.46 27.2059 L1533.92 27.2059 L1533.92 54.3874 Q1533.92 60.8284 1536.43 64.0691 Q1538.94 67.2693 1543.96 67.2693 Q1550 67.2693 1553.48 63.421 Q1557.01 59.5726 1557.01 52.9291 L1557.01 27.2059 L1564.46 27.2059 L1564.46 72.576 L1557.01 72.576 L1557.01 65.6084 Q1554.29 69.7404 1550.69 71.7658 Q1547.12 73.7508 1542.38 73.7508 Q1534.56 73.7508 1530.51 68.8897 Q1526.46 64.0286 1526.46 54.671 M1545.22 26.1121 L1545.22 26.1121 Z" fill="#000000" fill-rule="evenodd" fill-opacity="1" /><path clip-path="url(#clip190)" d="M 0 0 M1579.65 14.324 L1579.65 27.2059 L1595 27.2059 L1595 32.9987 L1579.65 32.9987 L1579.65 57.6282 Q1579.65 63.1779 1581.15 64.7578 Q1582.69 66.3376 1587.35 66.3376 L1595 66.3376 L1595 72.576 L1587.35 72.576 Q1578.72 72.576 1575.44 69.3758 Q1572.16 66.1351 1572.16 57.6282 L1572.16 32.9987 L1566.69 32.9987 L1566.69 27.2059 L1572.16 27.2059 L1572.16 14.324 L1579.65 14.324 Z" fill="#000000" fill-rule="evenodd" fill-opacity="1" /><path clip-path="url(#clip190)" d="M 0 0 M1602.82 27.2059 L1610.28 27.2059 L1610.28 72.576 L1602.82 72.576 L1602.82 27.2059 M1602.82 9.54393 L1610.28 9.54393 L1610.28 18.9825 L1602.82 18.9825 L1602.82 9.54393 Z" fill="#000000" fill-rule="evenodd" fill-opacity="1" /><path clip-path="url(#clip190)" d="M 0 0 M1635.67 32.4315 Q1629.68 32.4315 1626.2 37.1306 Q1622.71 41.7891 1622.71 49.9314 Q1622.71 58.0738 1626.16 62.7728 Q1629.64 67.4314 1635.67 67.4314 Q1641.63 67.4314 1645.11 62.7323 Q1648.6 58.0333 1648.6 49.9314 Q1648.6 41.8701 1645.11 37.1711 Q1641.63 32.4315 1635.67 32.4315 M1635.67 26.1121 Q1645.4 26.1121 1650.95 32.4315 Q1656.5 38.7509 1656.5 49.9314 Q1656.5 61.0714 1650.95 67.4314 Q1645.4 73.7508 1635.67 73.7508 Q1625.91 73.7508 1620.36 67.4314 Q1614.85 61.0714 1614.85 49.9314 Q1614.85 38.7509 1620.36 32.4315 Q1625.91 26.1121 1635.67 26.1121 Z" fill="#000000" fill-rule="evenodd" fill-opacity="1" /><path clip-path="url(#clip190)" d="M 0 0 M1702.03 45.1919 L1702.03 72.576 L1694.57 72.576 L1694.57 45.4349 Q1694.57 38.994 1692.06 35.7938 Q1689.55 32.5936 1684.53 32.5936 Q1678.49 32.5936 1675.01 36.4419 Q1671.53 40.2903 1671.53 46.9338 L1671.53 72.576 L1664.03 72.576 L1664.03 27.2059 L1671.53 27.2059 L1671.53 34.2544 Q1674.2 30.163 1677.8 28.1376 Q1681.45 26.1121 1686.19 26.1121 Q1694.01 26.1121 1698.02 30.9732 Q1702.03 35.7938 1702.03 45.1919 Z" fill="#000000" fill-rule="evenodd" fill-opacity="1" /><path clip-path="url(#clip190)" d="M 0 0 M1311.02 881.996 L1298.13 899.342 L1311.69 917.644 L1304.78 917.644 L1294.41 903.639 L1284.03 917.644 L1277.12 917.644 L1290.97 898.992 L1278.3 881.996 L1285.21 881.996 L1294.66 894.695 L1304.11 881.996 L1311.02 881.996 Z" fill="#000000" fill-rule="evenodd" fill-opacity="1" /><path clip-path="url(#clip190)" d="M 0 0 M33.679 478.621 L38.5487 478.621 L38.5487 484.223 Q38.5487 487.374 39.8219 488.615 Q41.095 489.825 44.4052 489.825 L47.5562 489.825 L47.5562 480.181 L52.1077 480.181 L52.1077 489.825 L83.2042 489.825 L83.2042 495.713 L52.1077 495.713 L52.1077 501.315 L47.5562 501.315 L47.5562 495.713 L45.0736 495.713 Q39.1216 495.713 36.4162 492.944 Q33.679 490.175 33.679 484.159 L33.679 478.621 Z" fill="#000000" fill-rule="evenodd" fill-opacity="1" /><path clip-path="url(#clip190)" d="M 0 0 M33.7426 458.41 Q41.0632 462.675 48.2246 464.744 Q55.386 466.813 62.7384 466.813 Q70.0908 466.813 77.3159 464.744 Q84.5091 462.643 91.7979 458.41 L91.7979 463.503 Q84.3182 468.277 77.0931 470.664 Q69.868 473.019 62.7384 473.019 Q55.6406 473.019 48.4474 470.664 Q41.2542 468.309 33.7426 463.503 L33.7426 458.41 Z" fill="#000000" fill-rule="evenodd" fill-opacity="1" /><path clip-path="url(#clip190)" d="M 0 0 M47.5562 422.635 L64.9028 435.525 L83.2042 421.966 L83.2042 428.873 L69.1996 439.249 L83.2042 449.625 L83.2042 456.532 L64.5526 442.687 L47.5562 455.354 L47.5562 448.448 L60.2558 438.995 L47.5562 429.541 L47.5562 422.635 Z" fill="#000000" fill-rule="evenodd" fill-opacity="1" /><path clip-path="url(#clip190)" d="M 0 0 M33.7426 416.746 L33.7426 411.654 Q41.2542 406.88 48.4474 404.524 Q55.6406 402.137 62.7384 402.137 Q69.868 402.137 77.0931 404.524 Q84.3182 406.88 91.7979 411.654 L91.7979 416.746 Q84.5091 412.513 77.3159 410.444 Q70.0908 408.344 62.7384 408.344 Q55.386 408.344 48.2246 410.444 Q41.0632 412.513 33.7426 416.746 Z" fill="#000000" fill-rule="evenodd" fill-opacity="1" /><polyline clip-path="url(#clip192)" style="stroke:#808080; stroke-width:12; stroke-opacity:0.5; fill:none" points="
  302.448,779.98 302.448,634.37 
  "/>
<polyline clip-path="url(#clip192)" style="stroke:#808080; stroke-width:12; stroke-opacity:0.5; fill:none" points="
  369.641,779.98 369.641,458.427 
  "/>
<polyline clip-path="url(#clip192)" style="stroke:#808080; stroke-width:12; stroke-opacity:0.5; fill:none" points="
  399.271,779.98 399.271,209.104 
  "/>
<polyline clip-path="url(#clip192)" style="stroke:#808080; stroke-width:12; stroke-opacity:0.5; fill:none" points="
  982.352,779.98 982.352,527.073 
  "/>
<polyline clip-path="url(#clip192)" style="stroke:#808080; stroke-width:12; stroke-opacity:0.5; fill:none" points="
  1249.28,779.98 1249.28,332.6 
  "/>
<polyline clip-path="url(#clip192)" style="stroke:#808080; stroke-width:12; stroke-opacity:0.5; fill:none" points="
  1614.25,779.98 1614.25,534.242 
  "/>
<polyline clip-path="url(#clip192)" style="stroke:#808080; stroke-width:12; stroke-opacity:0.5; fill:none" points="
  2223.28,779.98 2223.28,617.286 
  "/>
<polyline clip-path="url(#clip192)" style="stroke:#808080; stroke-width:12; stroke-opacity:0.5; fill:none" points="
  2286.37,779.98 2286.37,658.781 
  "/>
<polyline clip-path="url(#clip192)" style="stroke:#00a98d; stroke-width:0; stroke-opacity:1; fill:none" points="
  302.448,634.37 369.641,458.427 399.271,209.104 
  "/>
<circle clip-path="url(#clip192)" cx="302.448" cy="634.37" r="14" fill="#8b0000" fill-rule="evenodd" fill-opacity="1" stroke="#000000" stroke-opacity="1" stroke-width="3.84"/>
<circle clip-path="url(#clip192)" cx="369.641" cy="458.427" r="14" fill="#8b0000" fill-rule="evenodd" fill-opacity="1" stroke="#000000" stroke-opacity="1" stroke-width="3.84"/>
<circle clip-path="url(#clip192)" cx="399.271" cy="209.104" r="14" fill="#8b0000" fill-rule="evenodd" fill-opacity="1" stroke="#000000" stroke-opacity="1" stroke-width="3.84"/>
<polyline clip-path="url(#clip192)" style="stroke:#8e971d; stroke-width:0; stroke-opacity:1; fill:none" points="
  982.352,527.073 1249.28,332.6 1614.25,534.242 2223.28,617.286 2286.37,658.781 
  "/>
<circle clip-path="url(#clip192)" cx="982.352" cy="527.073" r="14" fill="#8e971d" fill-rule="evenodd" fill-opacity="1" stroke="#000000" stroke-opacity="1" stroke-width="3.84"/>
<circle clip-path="url(#clip192)" cx="1249.28" cy="332.6" r="14" fill="#8e971d" fill-rule="evenodd" fill-opacity="1" stroke="#000000" stroke-opacity="1" stroke-width="3.84"/>
<circle clip-path="url(#clip192)" cx="1614.25" cy="534.242" r="14" fill="#8e971d" fill-rule="evenodd" fill-opacity="1" stroke="#000000" stroke-opacity="1" stroke-width="3.84"/>
<circle clip-path="url(#clip192)" cx="2223.28" cy="617.286" r="14" fill="#8e971d" fill-rule="evenodd" fill-opacity="1" stroke="#000000" stroke-opacity="1" stroke-width="3.84"/>
<circle clip-path="url(#clip192)" cx="2286.37" cy="658.781" r="14" fill="#8e971d" fill-rule="evenodd" fill-opacity="1" stroke="#000000" stroke-opacity="1" stroke-width="3.84"/>
<path clip-path="url(#clip192)" d="M984.888 755.98 L960.888 779.98 L984.888 803.98 L1008.89 779.98 L984.888 755.98 Z" fill="#008000" fill-rule="evenodd" fill-opacity="1" stroke="#000000" stroke-opacity="1" stroke-width="3.84"/>
<path clip-path="url(#clip192)" d="M399.271 755.98 L375.271 779.98 L399.271 803.98 L423.271 779.98 L399.271 755.98 Z" fill="#00008b" fill-rule="evenodd" fill-opacity="1" stroke="#000000" stroke-opacity="1" stroke-width="3.84"/>
<path clip-path="url(#clip192)" d="M357.602 755.98 L333.602 779.98 L357.602 803.98 L381.602 779.98 L357.602 755.98 Z" fill="#ff8c00" fill-rule="evenodd" fill-opacity="1" stroke="#000000" stroke-opacity="1" stroke-width="3.84"/>
<path clip-path="url(#clip190)" d="
M2432.21 572.686 L2832.76 572.686 L2832.76 270.286 L2432.21 270.286  Z
  " fill="#ffffff" fill-rule="evenodd" fill-opacity="1"/>
<polyline clip-path="url(#clip190)" style="stroke:#000000; stroke-width:4; stroke-opacity:1; fill:none" points="
  2432.21,572.686 2832.76,572.686 2832.76,270.286 2432.21,270.286 2432.21,572.686 
  "/>
<polyline clip-path="url(#clip190)" style="stroke:#00a98d; stroke-width:4; stroke-opacity:1; fill:none" points="
  2461.01,330.766 2633.81,330.766 
  "/>
<circle clip-path="url(#clip190)" cx="2561.81" cy="330.766" r="23" fill="#8b0000" fill-rule="evenodd" fill-opacity="1" stroke="#000000" stroke-opacity="1" stroke-width="6.144"/>
<circle clip-path="url(#clip190)" cx="2561.81" cy="330.766" r="23" fill="#8b0000" fill-rule="evenodd" fill-opacity="1" stroke="#000000" stroke-opacity="1" stroke-width="6.144"/>
<circle clip-path="url(#clip190)" cx="2561.81" cy="330.766" r="23" fill="#8b0000" fill-rule="evenodd" fill-opacity="1" stroke="#000000" stroke-opacity="1" stroke-width="6.144"/>
<path clip-path="url(#clip190)" d="M 0 0 M2662.61 313.486 L2691.85 313.486 L2691.85 317.421 L2679.58 317.421 L2679.58 348.046 L2674.88 348.046 L2674.88 317.421 L2662.61 317.421 L2662.61 313.486 Z" fill="#000000" fill-rule="evenodd" fill-opacity="1" /><path clip-path="url(#clip190)" d="M 0 0 M2700.25 335.014 Q2695.09 335.014 2693.1 336.194 Q2691.11 337.375 2691.11 340.222 Q2691.11 342.49 2692.59 343.833 Q2694.09 345.152 2696.66 345.152 Q2700.2 345.152 2702.33 342.652 Q2704.48 340.129 2704.48 335.963 L2704.48 335.014 L2700.25 335.014 M2708.74 333.254 L2708.74 348.046 L2704.48 348.046 L2704.48 344.111 Q2703.03 346.472 2700.85 347.606 Q2698.67 348.717 2695.53 348.717 Q2691.55 348.717 2689.18 346.495 Q2686.85 344.25 2686.85 340.5 Q2686.85 336.125 2689.76 333.903 Q2692.7 331.68 2698.51 331.68 L2704.48 331.68 L2704.48 331.264 Q2704.48 328.324 2702.54 326.727 Q2700.62 325.106 2697.12 325.106 Q2694.9 325.106 2692.8 325.639 Q2690.69 326.171 2688.74 327.236 L2688.74 323.301 Q2691.08 322.398 2693.28 321.958 Q2695.48 321.495 2697.56 321.495 Q2703.19 321.495 2705.97 324.412 Q2708.74 327.329 2708.74 333.254 Z" fill="#000000" fill-rule="evenodd" fill-opacity="1" /><path clip-path="url(#clip190)" d="M 0 0 M2713.21 322.12 L2717.47 322.12 L2717.47 348.046 L2713.21 348.046 L2713.21 322.12 M2713.21 312.028 L2717.47 312.028 L2717.47 317.421 L2713.21 317.421 L2713.21 312.028 Z" fill="#000000" fill-rule="evenodd" fill-opacity="1" /><path clip-path="url(#clip190)" d="M 0 0 M2721.94 312.028 L2726.2 312.028 L2726.2 348.046 L2721.94 348.046 L2721.94 312.028 Z" fill="#000000" fill-rule="evenodd" fill-opacity="1" /><polyline clip-path="url(#clip190)" style="stroke:#00a8cb; stroke-width:4; stroke-opacity:1; fill:none" points="
  2461.01,391.246 2633.81,391.246 
  "/>
<path clip-path="url(#clip190)" d="M2561.81 365.646 L2536.21 391.246 L2561.81 416.846 L2587.41 391.246 L2561.81 365.646 Z" fill="#008000" fill-rule="evenodd" fill-opacity="1" stroke="#000000" stroke-opacity="1" stroke-width="4.096"/>
<path clip-path="url(#clip190)" d="M 0 0 M2662.61 373.966 L2684.46 373.966 L2684.46 377.901 L2667.29 377.901 L2667.29 388.133 L2683.74 388.133 L2683.74 392.068 L2667.29 392.068 L2667.29 404.591 L2684.88 404.591 L2684.88 408.526 L2662.61 408.526 L2662.61 373.966 Z" fill="#000000" fill-rule="evenodd" fill-opacity="1" /><polyline clip-path="url(#clip190)" style="stroke:#9b7fe8; stroke-width:4; stroke-opacity:1; fill:none" points="
  2461.01,451.726 2633.81,451.726 
  "/>
<path clip-path="url(#clip190)" d="M2561.81 426.126 L2536.21 451.726 L2561.81 477.326 L2587.41 451.726 L2561.81 426.126 Z" fill="#00008b" fill-rule="evenodd" fill-opacity="1" stroke="#000000" stroke-opacity="1" stroke-width="4.096"/>
<path clip-path="url(#clip190)" d="M 0 0 M2675.8 469.006 L2662.61 434.446 L2667.49 434.446 L2678.44 463.543 L2689.42 434.446 L2694.28 434.446 L2681.11 469.006 L2675.8 469.006 Z" fill="#000000" fill-rule="evenodd" fill-opacity="1" /><path clip-path="url(#clip190)" d="M 0 0 M2706.85 455.974 Q2701.68 455.974 2699.69 457.154 Q2697.7 458.335 2697.7 461.182 Q2697.7 463.45 2699.18 464.793 Q2700.69 466.112 2703.26 466.112 Q2706.8 466.112 2708.93 463.612 Q2711.08 461.089 2711.08 456.923 L2711.08 455.974 L2706.85 455.974 M2715.34 454.214 L2715.34 469.006 L2711.08 469.006 L2711.08 465.071 Q2709.62 467.432 2707.45 468.566 Q2705.27 469.677 2702.12 469.677 Q2698.14 469.677 2695.78 467.455 Q2693.44 465.21 2693.44 461.46 Q2693.44 457.085 2696.36 454.863 Q2699.3 452.64 2705.11 452.64 L2711.08 452.64 L2711.08 452.224 Q2711.08 449.284 2709.14 447.687 Q2707.22 446.066 2703.72 446.066 Q2701.5 446.066 2699.39 446.599 Q2697.29 447.131 2695.34 448.196 L2695.34 444.261 Q2697.68 443.358 2699.88 442.918 Q2702.08 442.455 2704.16 442.455 Q2709.79 442.455 2712.56 445.372 Q2715.34 448.289 2715.34 454.214 Z" fill="#000000" fill-rule="evenodd" fill-opacity="1" /><path clip-path="url(#clip190)" d="M 0 0 M2736.38 452.802 Q2737.89 453.312 2739.3 454.978 Q2740.73 456.645 2742.17 459.562 L2746.92 469.006 L2741.89 469.006 L2737.47 460.14 Q2735.76 456.668 2734.14 455.534 Q2732.54 454.4 2729.76 454.4 L2724.67 454.4 L2724.67 469.006 L2719.99 469.006 L2719.99 434.446 L2730.55 434.446 Q2736.48 434.446 2739.39 436.923 Q2742.31 439.4 2742.31 444.4 Q2742.31 447.664 2740.78 449.816 Q2739.28 451.969 2736.38 452.802 M2724.67 438.289 L2724.67 450.557 L2730.55 450.557 Q2733.93 450.557 2735.64 449.006 Q2737.38 447.432 2737.38 444.4 Q2737.38 441.367 2735.64 439.839 Q2733.93 438.289 2730.55 438.289 L2724.67 438.289 Z" fill="#000000" fill-rule="evenodd" fill-opacity="1" /><polyline clip-path="url(#clip190)" style="stroke:#608cf6; stroke-width:4; stroke-opacity:1; fill:none" points="
  2461.01,512.206 2633.81,512.206 
  "/>
<path clip-path="url(#clip190)" d="M2561.81 486.606 L2536.21 512.206 L2561.81 537.806 L2587.41 512.206 L2561.81 486.606 Z" fill="#ff8c00" fill-rule="evenodd" fill-opacity="1" stroke="#000000" stroke-opacity="1" stroke-width="4.096"/>
<path clip-path="url(#clip190)" d="M 0 0 M2690.48 497.588 L2690.48 502.519 Q2688.12 500.319 2685.43 499.232 Q2682.77 498.144 2679.76 498.144 Q2673.84 498.144 2670.69 501.778 Q2667.54 505.389 2667.54 512.241 Q2667.54 519.069 2670.69 522.704 Q2673.84 526.315 2679.76 526.315 Q2682.77 526.315 2685.43 525.227 Q2688.12 524.139 2690.48 521.94 L2690.48 526.824 Q2688.03 528.491 2685.27 529.324 Q2682.54 530.157 2679.49 530.157 Q2671.64 530.157 2667.12 525.366 Q2662.61 520.551 2662.61 512.241 Q2662.61 503.907 2667.12 499.116 Q2671.64 494.301 2679.49 494.301 Q2682.59 494.301 2685.32 495.134 Q2688.07 495.944 2690.48 497.588 Z" fill="#000000" fill-rule="evenodd" fill-opacity="1" /><path clip-path="url(#clip190)" d="M 0 0 M2704.05 529.486 L2690.85 494.926 L2695.74 494.926 L2706.68 524.023 L2717.66 494.926 L2722.52 494.926 L2709.35 529.486 L2704.05 529.486 Z" fill="#000000" fill-rule="evenodd" fill-opacity="1" /><path clip-path="url(#clip190)" d="M 0 0 M2735.09 516.454 Q2729.92 516.454 2727.93 517.634 Q2725.94 518.815 2725.94 521.662 Q2725.94 523.93 2727.42 525.273 Q2728.93 526.592 2731.5 526.592 Q2735.04 526.592 2737.17 524.092 Q2739.32 521.569 2739.32 517.403 L2739.32 516.454 L2735.09 516.454 M2743.58 514.694 L2743.58 529.486 L2739.32 529.486 L2739.32 525.551 Q2737.86 527.912 2735.69 529.046 Q2733.51 530.157 2730.36 530.157 Q2726.38 530.157 2724.02 527.935 Q2721.68 525.69 2721.68 521.94 Q2721.68 517.565 2724.6 515.343 Q2727.54 513.12 2733.35 513.12 L2739.32 513.12 L2739.32 512.704 Q2739.32 509.764 2737.38 508.167 Q2735.46 506.546 2731.96 506.546 Q2729.74 506.546 2727.63 507.079 Q2725.53 507.611 2723.58 508.676 L2723.58 504.741 Q2725.92 503.838 2728.12 503.398 Q2730.32 502.935 2732.4 502.935 Q2738.03 502.935 2740.8 505.852 Q2743.58 508.769 2743.58 514.694 Z" fill="#000000" fill-rule="evenodd" fill-opacity="1" /><path clip-path="url(#clip190)" d="M 0 0 M2764.62 513.282 Q2766.13 513.792 2767.54 515.458 Q2768.98 517.125 2770.41 520.042 L2775.16 529.486 L2770.13 529.486 L2765.71 520.62 Q2764 517.148 2762.38 516.014 Q2760.78 514.88 2758 514.88 L2752.91 514.88 L2752.91 529.486 L2748.23 529.486 L2748.23 494.926 L2758.79 494.926 Q2764.72 494.926 2767.63 497.403 Q2770.55 499.88 2770.55 504.88 Q2770.55 508.144 2769.02 510.296 Q2767.52 512.449 2764.62 513.282 M2752.91 498.769 L2752.91 511.037 L2758.79 511.037 Q2762.17 511.037 2763.88 509.486 Q2765.62 507.912 2765.62 504.88 Q2765.62 501.847 2763.88 500.319 Q2762.17 498.769 2758.79 498.769 L2752.91 498.769 Z" fill="#000000" fill-rule="evenodd" fill-opacity="1" /><path clip-path="url(#clip190)" d="
M242.93 1739.98 L2374.12 1739.98 L2374.12 1083.47 L242.93 1083.47  Z
  " fill="#ffffff" fill-rule="evenodd" fill-opacity="1"/>
<defs>
  <clipPath id="clip193">
    <rect x="242" y="1083" width="2132" height="658"/>
  </clipPath>
</defs>
<polyline clip-path="url(#clip193)" style="stroke:#000000; stroke-width:2; stroke-opacity:0.1; fill:none" points="
  537.682,1739.98 537.682,1083.47 
  "/>
<polyline clip-path="url(#clip193)" style="stroke:#000000; stroke-width:2; stroke-opacity:0.1; fill:none" points="
  981.745,1739.98 981.745,1083.47 
  "/>
<polyline clip-path="url(#clip193)" style="stroke:#000000; stroke-width:2; stroke-opacity:0.1; fill:none" points="
  1425.81,1739.98 1425.81,1083.47 
  "/>
<polyline clip-path="url(#clip193)" style="stroke:#000000; stroke-width:2; stroke-opacity:0.1; fill:none" points="
  1869.87,1739.98 1869.87,1083.47 
  "/>
<polyline clip-path="url(#clip193)" style="stroke:#000000; stroke-width:2; stroke-opacity:0.1; fill:none" points="
  2313.93,1739.98 2313.93,1083.47 
  "/>
<polyline clip-path="url(#clip193)" style="stroke:#000000; stroke-width:2; stroke-opacity:0.1; fill:none" points="
  242.93,1739.98 2374.12,1739.98 
  "/>
<polyline clip-path="url(#clip193)" style="stroke:#000000; stroke-width:2; stroke-opacity:0.1; fill:none" points="
  242.93,1597.26 2374.12,1597.26 
  "/>
<polyline clip-path="url(#clip193)" style="stroke:#000000; stroke-width:2; stroke-opacity:0.1; fill:none" points="
  242.93,1454.54 2374.12,1454.54 
  "/>
<polyline clip-path="url(#clip193)" style="stroke:#000000; stroke-width:2; stroke-opacity:0.1; fill:none" points="
  242.93,1311.82 2374.12,1311.82 
  "/>
<polyline clip-path="url(#clip193)" style="stroke:#000000; stroke-width:2; stroke-opacity:0.1; fill:none" points="
  242.93,1169.1 2374.12,1169.1 
  "/>
<polyline clip-path="url(#clip190)" style="stroke:#000000; stroke-width:4; stroke-opacity:1; fill:none" points="
  242.93,1739.98 2374.12,1739.98 
  "/>
<polyline clip-path="url(#clip190)" style="stroke:#000000; stroke-width:4; stroke-opacity:1; fill:none" points="
  242.93,1739.98 242.93,1083.47 
  "/>
<polyline clip-path="url(#clip190)" style="stroke:#000000; stroke-width:4; stroke-opacity:1; fill:none" points="
  537.682,1739.98 537.682,1732.1 
  "/>
<polyline clip-path="url(#clip190)" style="stroke:#000000; stroke-width:4; stroke-opacity:1; fill:none" points="
  981.745,1739.98 981.745,1732.1 
  "/>
<polyline clip-path="url(#clip190)" style="stroke:#000000; stroke-width:4; stroke-opacity:1; fill:none" points="
  1425.81,1739.98 1425.81,1732.1 
  "/>
<polyline clip-path="url(#clip190)" style="stroke:#000000; stroke-width:4; stroke-opacity:1; fill:none" points="
  1869.87,1739.98 1869.87,1732.1 
  "/>
<polyline clip-path="url(#clip190)" style="stroke:#000000; stroke-width:4; stroke-opacity:1; fill:none" points="
  2313.93,1739.98 2313.93,1732.1 
  "/>
<polyline clip-path="url(#clip190)" style="stroke:#000000; stroke-width:4; stroke-opacity:1; fill:none" points="
  242.93,1739.98 268.504,1739.98 
  "/>
<polyline clip-path="url(#clip190)" style="stroke:#000000; stroke-width:4; stroke-opacity:1; fill:none" points="
  242.93,1597.26 268.504,1597.26 
  "/>
<polyline clip-path="url(#clip190)" style="stroke:#000000; stroke-width:4; stroke-opacity:1; fill:none" points="
  242.93,1454.54 268.504,1454.54 
  "/>
<polyline clip-path="url(#clip190)" style="stroke:#000000; stroke-width:4; stroke-opacity:1; fill:none" points="
  242.93,1311.82 268.504,1311.82 
  "/>
<polyline clip-path="url(#clip190)" style="stroke:#000000; stroke-width:4; stroke-opacity:1; fill:none" points="
  242.93,1169.1 268.504,1169.1 
  "/>
<path clip-path="url(#clip190)" d="M 0 0 M518.551 1780.97 L531.027 1780.97 L531.027 1784.76 L518.551 1784.76 L518.551 1780.97 Z" fill="#000000" fill-rule="evenodd" fill-opacity="1" /><path clip-path="url(#clip190)" d="M 0 0 M536.907 1791.92 L544.546 1791.92 L544.546 1765.55 L536.236 1767.22 L536.236 1762.96 L544.499 1761.29 L549.175 1761.29 L549.175 1791.92 L556.814 1791.92 L556.814 1795.85 L536.907 1795.85 L536.907 1791.92 Z" fill="#000000" fill-rule="evenodd" fill-opacity="1" /><path clip-path="url(#clip190)" d="M 0 0 M981.745 1764.37 Q978.134 1764.37 976.305 1767.94 Q974.5 1771.48 974.5 1778.61 Q974.5 1785.71 976.305 1789.28 Q978.134 1792.82 981.745 1792.82 Q985.379 1792.82 987.185 1789.28 Q989.014 1785.71 989.014 1778.61 Q989.014 1771.48 987.185 1767.94 Q985.379 1764.37 981.745 1764.37 M981.745 1760.67 Q987.555 1760.67 990.611 1765.27 Q993.69 1769.86 993.69 1778.61 Q993.69 1787.33 990.611 1791.94 Q987.555 1796.52 981.745 1796.52 Q975.935 1796.52 972.856 1791.94 Q969.801 1787.33 969.801 1778.61 Q969.801 1769.86 972.856 1765.27 Q975.935 1760.67 981.745 1760.67 Z" fill="#000000" fill-rule="evenodd" fill-opacity="1" /><path clip-path="url(#clip190)" d="M 0 0 M1416.19 1791.92 L1423.83 1791.92 L1423.83 1765.55 L1415.52 1767.22 L1415.52 1762.96 L1423.78 1761.29 L1428.46 1761.29 L1428.46 1791.92 L1436.1 1791.92 L1436.1 1795.85 L1416.19 1795.85 L1416.19 1791.92 Z" fill="#000000" fill-rule="evenodd" fill-opacity="1" /><path clip-path="url(#clip190)" d="M 0 0 M1864.52 1791.92 L1880.84 1791.92 L1880.84 1795.85 L1858.9 1795.85 L1858.9 1791.92 Q1861.56 1789.16 1866.14 1784.53 Q1870.75 1779.88 1871.93 1778.54 Q1874.18 1776.01 1875.06 1774.28 Q1875.96 1772.52 1875.96 1770.83 Q1875.96 1768.07 1874.01 1766.34 Q1872.09 1764.6 1868.99 1764.6 Q1866.79 1764.6 1864.34 1765.37 Q1861.91 1766.13 1859.13 1767.68 L1859.13 1762.96 Q1861.95 1761.82 1864.41 1761.25 Q1866.86 1760.67 1868.9 1760.67 Q1874.27 1760.67 1877.46 1763.35 Q1880.66 1766.04 1880.66 1770.53 Q1880.66 1772.66 1879.85 1774.58 Q1879.06 1776.48 1876.95 1779.07 Q1876.38 1779.74 1873.27 1782.96 Q1870.17 1786.15 1864.52 1791.92 Z" fill="#000000" fill-rule="evenodd" fill-opacity="1" /><path clip-path="url(#clip190)" d="M 0 0 M2318.18 1777.22 Q2321.54 1777.94 2323.41 1780.2 Q2325.31 1782.47 2325.31 1785.81 Q2325.31 1790.92 2321.79 1793.72 Q2318.27 1796.52 2311.79 1796.52 Q2309.62 1796.52 2307.3 1796.08 Q2305.01 1795.67 2302.56 1794.81 L2302.56 1790.3 Q2304.5 1791.43 2306.82 1792.01 Q2309.13 1792.59 2311.65 1792.59 Q2316.05 1792.59 2318.34 1790.85 Q2320.66 1789.12 2320.66 1785.81 Q2320.66 1782.75 2318.51 1781.04 Q2316.38 1779.3 2312.56 1779.3 L2308.53 1779.3 L2308.53 1775.46 L2312.74 1775.46 Q2316.19 1775.46 2318.02 1774.09 Q2319.85 1772.7 2319.85 1770.11 Q2319.85 1767.45 2317.95 1766.04 Q2316.07 1764.6 2312.56 1764.6 Q2310.63 1764.6 2308.44 1765.02 Q2306.24 1765.44 2303.6 1766.31 L2303.6 1762.15 Q2306.26 1761.41 2308.57 1761.04 Q2310.91 1760.67 2312.97 1760.67 Q2318.3 1760.67 2321.4 1763.1 Q2324.5 1765.5 2324.5 1769.63 Q2324.5 1772.5 2322.86 1774.49 Q2321.21 1776.45 2318.18 1777.22 Z" fill="#000000" fill-rule="evenodd" fill-opacity="1" /><path clip-path="url(#clip190)" d="M 0 0 M138.205 1725.78 Q134.593 1725.78 132.765 1729.34 Q130.959 1732.88 130.959 1740.01 Q130.959 1747.12 132.765 1750.69 Q134.593 1754.23 138.205 1754.23 Q141.839 1754.23 143.644 1750.69 Q145.473 1747.12 145.473 1740.01 Q145.473 1732.88 143.644 1729.34 Q141.839 1725.78 138.205 1725.78 M138.205 1722.07 Q144.015 1722.07 147.07 1726.68 Q150.149 1731.26 150.149 1740.01 Q150.149 1748.74 147.07 1753.35 Q144.015 1757.93 138.205 1757.93 Q132.394 1757.93 129.316 1753.35 Q126.26 1748.74 126.26 1740.01 Q126.26 1731.26 129.316 1726.68 Q132.394 1722.07 138.205 1722.07 Z" fill="#000000" fill-rule="evenodd" fill-opacity="1" /><path clip-path="url(#clip190)" d="M 0 0 M155.218 1751.38 L160.103 1751.38 L160.103 1757.26 L155.218 1757.26 L155.218 1751.38 Z" fill="#000000" fill-rule="evenodd" fill-opacity="1" /><path clip-path="url(#clip190)" d="M 0 0 M175.172 1725.78 Q171.561 1725.78 169.732 1729.34 Q167.927 1732.88 167.927 1740.01 Q167.927 1747.12 169.732 1750.69 Q171.561 1754.23 175.172 1754.23 Q178.806 1754.23 180.612 1750.69 Q182.44 1747.12 182.44 1740.01 Q182.44 1732.88 180.612 1729.34 Q178.806 1725.78 175.172 1725.78 M175.172 1722.07 Q180.982 1722.07 184.038 1726.68 Q187.116 1731.26 187.116 1740.01 Q187.116 1748.74 184.038 1753.35 Q180.982 1757.93 175.172 1757.93 Q169.362 1757.93 166.283 1753.35 Q163.228 1748.74 163.228 1740.01 Q163.228 1731.26 166.283 1726.68 Q169.362 1722.07 175.172 1722.07 Z" fill="#000000" fill-rule="evenodd" fill-opacity="1" /><path clip-path="url(#clip190)" d="M 0 0 M202.186 1725.78 Q198.575 1725.78 196.746 1729.34 Q194.94 1732.88 194.94 1740.01 Q194.94 1747.12 196.746 1750.69 Q198.575 1754.23 202.186 1754.23 Q205.82 1754.23 207.625 1750.69 Q209.454 1747.12 209.454 1740.01 Q209.454 1732.88 207.625 1729.34 Q205.82 1725.78 202.186 1725.78 M202.186 1722.07 Q207.996 1722.07 211.051 1726.68 Q214.13 1731.26 214.13 1740.01 Q214.13 1748.74 211.051 1753.35 Q207.996 1757.93 202.186 1757.93 Q196.376 1757.93 193.297 1753.35 Q190.241 1748.74 190.241 1740.01 Q190.241 1731.26 193.297 1726.68 Q196.376 1722.07 202.186 1722.07 Z" fill="#000000" fill-rule="evenodd" fill-opacity="1" /><path clip-path="url(#clip190)" d="M 0 0 M140.797 1583.06 Q137.186 1583.06 135.357 1586.62 Q133.552 1590.17 133.552 1597.3 Q133.552 1604.4 135.357 1607.97 Q137.186 1611.51 140.797 1611.51 Q144.431 1611.51 146.237 1607.97 Q148.066 1604.4 148.066 1597.3 Q148.066 1590.17 146.237 1586.62 Q144.431 1583.06 140.797 1583.06 M140.797 1579.36 Q146.607 1579.36 149.663 1583.96 Q152.741 1588.55 152.741 1597.3 Q152.741 1606.02 149.663 1610.63 Q146.607 1615.21 140.797 1615.21 Q134.987 1615.21 131.908 1610.63 Q128.853 1606.02 128.853 1597.3 Q128.853 1588.55 131.908 1583.96 Q134.987 1579.36 140.797 1579.36 Z" fill="#000000" fill-rule="evenodd" fill-opacity="1" /><path clip-path="url(#clip190)" d="M 0 0 M157.811 1608.66 L162.695 1608.66 L162.695 1614.54 L157.811 1614.54 L157.811 1608.66 Z" fill="#000000" fill-rule="evenodd" fill-opacity="1" /><path clip-path="url(#clip190)" d="M 0 0 M171.792 1610.61 L188.112 1610.61 L188.112 1614.54 L166.167 1614.54 L166.167 1610.61 Q168.829 1607.85 173.413 1603.22 Q178.019 1598.57 179.2 1597.23 Q181.445 1594.7 182.325 1592.97 Q183.227 1591.21 183.227 1589.52 Q183.227 1586.76 181.283 1585.03 Q179.362 1583.29 176.26 1583.29 Q174.061 1583.29 171.607 1584.05 Q169.177 1584.82 166.399 1586.37 L166.399 1581.65 Q169.223 1580.51 171.677 1579.93 Q174.13 1579.36 176.167 1579.36 Q181.538 1579.36 184.732 1582.04 Q187.926 1584.73 187.926 1589.22 Q187.926 1591.35 187.116 1593.27 Q186.329 1595.17 184.223 1597.76 Q183.644 1598.43 180.542 1601.65 Q177.44 1604.84 171.792 1610.61 Z" fill="#000000" fill-rule="evenodd" fill-opacity="1" /><path clip-path="url(#clip190)" d="M 0 0 M193.227 1579.98 L211.584 1579.98 L211.584 1583.92 L197.51 1583.92 L197.51 1592.39 Q198.528 1592.04 199.547 1591.88 Q200.565 1591.69 201.584 1591.69 Q207.371 1591.69 210.75 1594.86 Q214.13 1598.04 214.13 1603.45 Q214.13 1609.03 210.658 1612.13 Q207.186 1615.21 200.866 1615.21 Q198.69 1615.21 196.422 1614.84 Q194.176 1614.47 191.769 1613.73 L191.769 1609.03 Q193.852 1610.17 196.075 1610.72 Q198.297 1611.28 200.774 1611.28 Q204.778 1611.28 207.116 1609.17 Q209.454 1607.06 209.454 1603.45 Q209.454 1599.84 207.116 1597.74 Q204.778 1595.63 200.774 1595.63 Q198.899 1595.63 197.024 1596.05 Q195.172 1596.46 193.227 1597.34 L193.227 1579.98 Z" fill="#000000" fill-rule="evenodd" fill-opacity="1" /><path clip-path="url(#clip190)" d="M 0 0 M139.2 1440.34 Q135.589 1440.34 133.76 1443.91 Q131.955 1447.45 131.955 1454.58 Q131.955 1461.68 133.76 1465.25 Q135.589 1468.79 139.2 1468.79 Q142.834 1468.79 144.64 1465.25 Q146.468 1461.68 146.468 1454.58 Q146.468 1447.45 144.64 1443.91 Q142.834 1440.34 139.2 1440.34 M139.2 1436.64 Q145.01 1436.64 148.066 1441.24 Q151.144 1445.83 151.144 1454.58 Q151.144 1463.3 148.066 1467.91 Q145.01 1472.49 139.2 1472.49 Q133.39 1472.49 130.311 1467.91 Q127.256 1463.3 127.256 1454.58 Q127.256 1445.83 130.311 1441.24 Q133.39 1436.64 139.2 1436.64 Z" fill="#000000" fill-rule="evenodd" fill-opacity="1" /><path clip-path="url(#clip190)" d="M 0 0 M156.214 1465.94 L161.098 1465.94 L161.098 1471.82 L156.214 1471.82 L156.214 1465.94 Z" fill="#000000" fill-rule="evenodd" fill-opacity="1" /><path clip-path="url(#clip190)" d="M 0 0 M166.214 1437.26 L184.57 1437.26 L184.57 1441.2 L170.496 1441.2 L170.496 1449.67 Q171.515 1449.32 172.533 1449.16 Q173.552 1448.97 174.57 1448.97 Q180.357 1448.97 183.737 1452.15 Q187.116 1455.32 187.116 1460.73 Q187.116 1466.31 183.644 1469.41 Q180.172 1472.49 173.852 1472.49 Q171.677 1472.49 169.408 1472.12 Q167.163 1471.75 164.755 1471.01 L164.755 1466.31 Q166.839 1467.45 169.061 1468 Q171.283 1468.56 173.76 1468.56 Q177.765 1468.56 180.102 1466.45 Q182.44 1464.34 182.44 1460.73 Q182.44 1457.12 180.102 1455.02 Q177.765 1452.91 173.76 1452.91 Q171.885 1452.91 170.01 1453.33 Q168.158 1453.74 166.214 1454.62 L166.214 1437.26 Z" fill="#000000" fill-rule="evenodd" fill-opacity="1" /><path clip-path="url(#clip190)" d="M 0 0 M202.186 1440.34 Q198.575 1440.34 196.746 1443.91 Q194.94 1447.45 194.94 1454.58 Q194.94 1461.68 196.746 1465.25 Q198.575 1468.79 202.186 1468.79 Q205.82 1468.79 207.625 1465.25 Q209.454 1461.68 209.454 1454.58 Q209.454 1447.45 207.625 1443.91 Q205.82 1440.34 202.186 1440.34 M202.186 1436.64 Q207.996 1436.64 211.051 1441.24 Q214.13 1445.83 214.13 1454.58 Q214.13 1463.3 211.051 1467.91 Q207.996 1472.49 202.186 1472.49 Q196.376 1472.49 193.297 1467.91 Q190.241 1463.3 190.241 1454.58 Q190.241 1445.83 193.297 1441.24 Q196.376 1436.64 202.186 1436.64 Z" fill="#000000" fill-rule="evenodd" fill-opacity="1" /><path clip-path="url(#clip190)" d="M 0 0 M140.103 1297.62 Q136.492 1297.62 134.663 1301.19 Q132.857 1304.73 132.857 1311.86 Q132.857 1318.96 134.663 1322.53 Q136.492 1326.07 140.103 1326.07 Q143.737 1326.07 145.542 1322.53 Q147.371 1318.96 147.371 1311.86 Q147.371 1304.73 145.542 1301.19 Q143.737 1297.62 140.103 1297.62 M140.103 1293.92 Q145.913 1293.92 148.968 1298.52 Q152.047 1303.11 152.047 1311.86 Q152.047 1320.58 148.968 1325.19 Q145.913 1329.77 140.103 1329.77 Q134.293 1329.77 131.214 1325.19 Q128.158 1320.58 128.158 1311.86 Q128.158 1303.11 131.214 1298.52 Q134.293 1293.92 140.103 1293.92 Z" fill="#000000" fill-rule="evenodd" fill-opacity="1" /><path clip-path="url(#clip190)" d="M 0 0 M157.116 1323.22 L162.001 1323.22 L162.001 1329.1 L157.116 1329.1 L157.116 1323.22 Z" fill="#000000" fill-rule="evenodd" fill-opacity="1" /><path clip-path="url(#clip190)" d="M 0 0 M165.89 1294.54 L188.112 1294.54 L188.112 1296.53 L175.565 1329.1 L170.681 1329.1 L182.487 1298.48 L165.89 1298.48 L165.89 1294.54 Z" fill="#000000" fill-rule="evenodd" fill-opacity="1" /><path clip-path="url(#clip190)" d="M 0 0 M193.227 1294.54 L211.584 1294.54 L211.584 1298.48 L197.51 1298.48 L197.51 1306.95 Q198.528 1306.6 199.547 1306.44 Q200.565 1306.26 201.584 1306.26 Q207.371 1306.26 210.75 1309.43 Q214.13 1312.6 214.13 1318.01 Q214.13 1323.59 210.658 1326.7 Q207.186 1329.77 200.866 1329.77 Q198.69 1329.77 196.422 1329.4 Q194.176 1329.03 191.769 1328.29 L191.769 1323.59 Q193.852 1324.73 196.075 1325.28 Q198.297 1325.84 200.774 1325.84 Q204.778 1325.84 207.116 1323.73 Q209.454 1321.63 209.454 1318.01 Q209.454 1314.4 207.116 1312.3 Q204.778 1310.19 200.774 1310.19 Q198.899 1310.19 197.024 1310.61 Q195.172 1311.02 193.227 1311.9 L193.227 1294.54 Z" fill="#000000" fill-rule="evenodd" fill-opacity="1" /><path clip-path="url(#clip190)" d="M 0 0 M130.242 1182.45 L137.88 1182.45 L137.88 1156.08 L129.57 1157.75 L129.57 1153.49 L137.834 1151.82 L142.51 1151.82 L142.51 1182.45 L150.149 1182.45 L150.149 1186.38 L130.242 1186.38 L130.242 1182.45 Z" fill="#000000" fill-rule="evenodd" fill-opacity="1" /><path clip-path="url(#clip190)" d="M 0 0 M155.218 1180.5 L160.103 1180.5 L160.103 1186.38 L155.218 1186.38 L155.218 1180.5 Z" fill="#000000" fill-rule="evenodd" fill-opacity="1" /><path clip-path="url(#clip190)" d="M 0 0 M175.172 1154.9 Q171.561 1154.9 169.732 1158.47 Q167.927 1162.01 167.927 1169.14 Q167.927 1176.24 169.732 1179.81 Q171.561 1183.35 175.172 1183.35 Q178.806 1183.35 180.612 1179.81 Q182.44 1176.24 182.44 1169.14 Q182.44 1162.01 180.612 1158.47 Q178.806 1154.9 175.172 1154.9 M175.172 1151.2 Q180.982 1151.2 184.038 1155.81 Q187.116 1160.39 187.116 1169.14 Q187.116 1177.87 184.038 1182.47 Q180.982 1187.05 175.172 1187.05 Q169.362 1187.05 166.283 1182.47 Q163.228 1177.87 163.228 1169.14 Q163.228 1160.39 166.283 1155.81 Q169.362 1151.2 175.172 1151.2 Z" fill="#000000" fill-rule="evenodd" fill-opacity="1" /><path clip-path="url(#clip190)" d="M 0 0 M202.186 1154.9 Q198.575 1154.9 196.746 1158.47 Q194.94 1162.01 194.94 1169.14 Q194.94 1176.24 196.746 1179.81 Q198.575 1183.35 202.186 1183.35 Q205.82 1183.35 207.625 1179.81 Q209.454 1176.24 209.454 1169.14 Q209.454 1162.01 207.625 1158.47 Q205.82 1154.9 202.186 1154.9 M202.186 1151.2 Q207.996 1151.2 211.051 1155.81 Q214.13 1160.39 214.13 1169.14 Q214.13 1177.87 211.051 1182.47 Q207.996 1187.05 202.186 1187.05 Q196.376 1187.05 193.297 1182.47 Q190.241 1177.87 190.241 1169.14 Q190.241 1160.39 193.297 1155.81 Q196.376 1151.2 202.186 1151.2 Z" fill="#000000" fill-rule="evenodd" fill-opacity="1" /><path clip-path="url(#clip190)" d="M 0 0 M933.859 976.755 L933.859 985.383 Q929.727 981.535 925.028 979.631 Q920.369 977.727 915.103 977.727 Q904.733 977.727 899.223 984.087 Q893.714 990.406 893.714 1002.4 Q893.714 1014.35 899.223 1020.71 Q904.733 1027.03 915.103 1027.03 Q920.369 1027.03 925.028 1025.12 Q929.727 1023.22 933.859 1019.37 L933.859 1027.92 Q929.565 1030.83 924.744 1032.29 Q919.964 1033.75 914.617 1033.75 Q900.884 1033.75 892.985 1025.37 Q885.086 1016.94 885.086 1002.4 Q885.086 987.814 892.985 979.428 Q900.884 971.002 914.617 971.002 Q920.045 971.002 924.825 972.461 Q929.646 973.878 933.859 976.755 Z" fill="#000000" fill-rule="evenodd" fill-opacity="1" /><path clip-path="url(#clip190)" d="M 0 0 M940.907 1014.67 L940.907 987.206 L948.361 987.206 L948.361 1014.39 Q948.361 1020.83 950.872 1024.07 Q953.384 1027.27 958.407 1027.27 Q964.443 1027.27 967.927 1023.42 Q971.451 1019.57 971.451 1012.93 L971.451 987.206 L978.905 987.206 L978.905 1032.58 L971.451 1032.58 L971.451 1025.61 Q968.737 1029.74 965.132 1031.77 Q961.567 1033.75 956.827 1033.75 Q949.009 1033.75 944.958 1028.89 Q940.907 1024.03 940.907 1014.67 M959.663 986.112 L959.663 986.112 Z" fill="#000000" fill-rule="evenodd" fill-opacity="1" /><path clip-path="url(#clip190)" d="M 0 0 M1022.05 995.915 Q1024.84 990.892 1028.73 988.502 Q1032.62 986.112 1037.89 986.112 Q1044.97 986.112 1048.82 991.095 Q1052.67 996.037 1052.67 1005.19 L1052.67 1032.58 L1045.18 1032.58 L1045.18 1005.43 Q1045.18 998.913 1042.87 995.753 Q1040.56 992.594 1035.82 992.594 Q1030.03 992.594 1026.66 996.442 Q1023.3 1000.29 1023.3 1006.93 L1023.3 1032.58 L1015.81 1032.58 L1015.81 1005.43 Q1015.81 998.872 1013.5 995.753 Q1011.19 992.594 1006.37 992.594 Q1000.66 992.594 997.296 996.482 Q993.933 1000.33 993.933 1006.93 L993.933 1032.58 L986.439 1032.58 L986.439 987.206 L993.933 987.206 L993.933 994.254 Q996.486 990.082 1000.05 988.097 Q1003.62 986.112 1008.52 986.112 Q1013.46 986.112 1016.9 988.624 Q1020.39 991.135 1022.05 995.915 Z" fill="#000000" fill-rule="evenodd" fill-opacity="1" /><path clip-path="url(#clip190)" d="M 0 0 M1059.72 1014.67 L1059.72 987.206 L1067.17 987.206 L1067.17 1014.39 Q1067.17 1020.83 1069.69 1024.07 Q1072.2 1027.27 1077.22 1027.27 Q1083.26 1027.27 1086.74 1023.42 Q1090.26 1019.57 1090.26 1012.93 L1090.26 987.206 L1097.72 987.206 L1097.72 1032.58 L1090.26 1032.58 L1090.26 1025.61 Q1087.55 1029.74 1083.94 1031.77 Q1080.38 1033.75 1075.64 1033.75 Q1067.82 1033.75 1063.77 1028.89 Q1059.72 1024.03 1059.72 1014.67 M1078.48 986.112 L1078.48 986.112 Z" fill="#000000" fill-rule="evenodd" fill-opacity="1" /><path clip-path="url(#clip190)" d="M 0 0 M1105.54 969.544 L1112.99 969.544 L1112.99 1032.58 L1105.54 1032.58 L1105.54 969.544 Z" fill="#000000" fill-rule="evenodd" fill-opacity="1" /><path clip-path="url(#clip190)" d="M 0 0 M1141.43 1009.77 Q1132.39 1009.77 1128.91 1011.84 Q1125.43 1013.9 1125.43 1018.88 Q1125.43 1022.85 1128.02 1025.2 Q1130.65 1027.51 1135.15 1027.51 Q1141.35 1027.51 1145.07 1023.14 Q1148.84 1018.72 1148.84 1011.43 L1148.84 1009.77 L1141.43 1009.77 M1156.29 1006.69 L1156.29 1032.58 L1148.84 1032.58 L1148.84 1025.69 Q1146.29 1029.82 1142.48 1031.81 Q1138.67 1033.75 1133.16 1033.75 Q1126.2 1033.75 1122.06 1029.86 Q1117.97 1025.93 1117.97 1019.37 Q1117.97 1011.71 1123.08 1007.82 Q1128.22 1003.94 1138.39 1003.94 L1148.84 1003.94 L1148.84 1003.21 Q1148.84 998.062 1145.44 995.267 Q1142.08 992.432 1135.96 992.432 Q1132.07 992.432 1128.38 993.363 Q1124.7 994.295 1121.29 996.158 L1121.29 989.272 Q1125.39 987.692 1129.23 986.922 Q1133.08 986.112 1136.73 986.112 Q1146.57 986.112 1151.43 991.216 Q1156.29 996.32 1156.29 1006.69 Z" fill="#000000" fill-rule="evenodd" fill-opacity="1" /><path clip-path="url(#clip190)" d="M 0 0 M1171.48 974.324 L1171.48 987.206 L1186.84 987.206 L1186.84 992.999 L1171.48 992.999 L1171.48 1017.63 Q1171.48 1023.18 1172.98 1024.76 Q1174.52 1026.34 1179.18 1026.34 L1186.84 1026.34 L1186.84 1032.58 L1179.18 1032.58 Q1170.55 1032.58 1167.27 1029.38 Q1163.99 1026.14 1163.99 1017.63 L1163.99 992.999 L1158.52 992.999 L1158.52 987.206 L1163.99 987.206 L1163.99 974.324 L1171.48 974.324 Z" fill="#000000" fill-rule="evenodd" fill-opacity="1" /><path clip-path="url(#clip190)" d="M 0 0 M1194.66 987.206 L1202.11 987.206 L1202.11 1032.58 L1194.66 1032.58 L1194.66 987.206 M1194.66 969.544 L1202.11 969.544 L1202.11 978.983 L1194.66 978.983 L1194.66 969.544 Z" fill="#000000" fill-rule="evenodd" fill-opacity="1" /><path clip-path="url(#clip190)" d="M 0 0 M1204.58 987.206 L1212.48 987.206 L1226.66 1025.28 L1240.84 987.206 L1248.74 987.206 L1231.72 1032.58 L1221.59 1032.58 L1204.58 987.206 Z" fill="#000000" fill-rule="evenodd" fill-opacity="1" /><path clip-path="url(#clip190)" d="M 0 0 M1295.36 1008.03 L1295.36 1011.67 L1261.09 1011.67 Q1261.58 1019.37 1265.71 1023.42 Q1269.88 1027.43 1277.29 1027.43 Q1281.59 1027.43 1285.6 1026.38 Q1289.65 1025.32 1293.62 1023.22 L1293.62 1030.27 Q1289.61 1031.97 1285.4 1032.86 Q1281.18 1033.75 1276.85 1033.75 Q1265.99 1033.75 1259.63 1027.43 Q1253.31 1021.11 1253.31 1010.34 Q1253.31 999.197 1259.31 992.675 Q1265.34 986.112 1275.55 986.112 Q1284.71 986.112 1290.01 992.026 Q1295.36 997.9 1295.36 1008.03 M1287.91 1005.84 Q1287.83 999.723 1284.46 996.077 Q1281.14 992.432 1275.63 992.432 Q1269.39 992.432 1265.63 995.956 Q1261.9 999.48 1261.33 1005.88 L1287.91 1005.84 Z" fill="#000000" fill-rule="evenodd" fill-opacity="1" /><path clip-path="url(#clip190)" d="M 0 0 M1359.41 994.092 L1359.41 969.544 L1366.86 969.544 L1366.86 1032.58 L1359.41 1032.58 L1359.41 1025.77 Q1357.06 1029.82 1353.45 1031.81 Q1349.89 1033.75 1344.86 1033.75 Q1336.64 1033.75 1331.45 1027.19 Q1326.31 1020.63 1326.31 1009.93 Q1326.31 999.237 1331.45 992.675 Q1336.64 986.112 1344.86 986.112 Q1349.89 986.112 1353.45 988.097 Q1357.06 990.042 1359.41 994.092 M1334.01 1009.93 Q1334.01 1018.15 1337.37 1022.85 Q1340.77 1027.51 1346.69 1027.51 Q1352.6 1027.51 1356 1022.85 Q1359.41 1018.15 1359.41 1009.93 Q1359.41 1001.71 1356 997.05 Q1352.6 992.351 1346.69 992.351 Q1340.77 992.351 1337.37 997.05 Q1334.01 1001.71 1334.01 1009.93 Z" fill="#000000" fill-rule="evenodd" fill-opacity="1" /><path clip-path="url(#clip190)" d="M 0 0 M1374.68 987.206 L1382.13 987.206 L1382.13 1032.58 L1374.68 1032.58 L1374.68 987.206 M1374.68 969.544 L1382.13 969.544 L1382.13 978.983 L1374.68 978.983 L1374.68 969.544 Z" fill="#000000" fill-rule="evenodd" fill-opacity="1" /><path clip-path="url(#clip190)" d="M 0 0 M1418.87 988.543 L1418.87 995.591 Q1415.71 993.971 1412.31 993.161 Q1408.91 992.351 1405.26 992.351 Q1399.71 992.351 1396.92 994.052 Q1394.16 995.753 1394.16 999.156 Q1394.16 1001.75 1396.15 1003.25 Q1398.13 1004.71 1404.13 1006.04 L1406.68 1006.61 Q1414.62 1008.31 1417.94 1011.43 Q1421.3 1014.51 1421.3 1020.06 Q1421.3 1026.38 1416.28 1030.06 Q1411.3 1033.75 1402.55 1033.75 Q1398.9 1033.75 1394.93 1033.02 Q1391 1032.33 1386.63 1030.92 L1386.63 1023.22 Q1390.76 1025.37 1394.77 1026.46 Q1398.78 1027.51 1402.71 1027.51 Q1407.98 1027.51 1410.81 1025.73 Q1413.65 1023.91 1413.65 1020.63 Q1413.65 1017.59 1411.58 1015.97 Q1409.56 1014.35 1402.63 1012.85 L1400.04 1012.24 Q1393.11 1010.78 1390.03 1007.78 Q1386.95 1004.75 1386.95 999.48 Q1386.95 993.08 1391.49 989.596 Q1396.03 986.112 1404.37 986.112 Q1408.5 986.112 1412.15 986.72 Q1415.79 987.327 1418.87 988.543 Z" fill="#000000" fill-rule="evenodd" fill-opacity="1" /><path clip-path="url(#clip190)" d="M 0 0 M1436.49 974.324 L1436.49 987.206 L1451.85 987.206 L1451.85 992.999 L1436.49 992.999 L1436.49 1017.63 Q1436.49 1023.18 1437.99 1024.76 Q1439.53 1026.34 1444.19 1026.34 L1451.85 1026.34 L1451.85 1032.58 L1444.19 1032.58 Q1435.56 1032.58 1432.28 1029.38 Q1429 1026.14 1429 1017.63 L1429 992.999 L1423.53 992.999 L1423.53 987.206 L1429 987.206 L1429 974.324 L1436.49 974.324 Z" fill="#000000" fill-rule="evenodd" fill-opacity="1" /><path clip-path="url(#clip190)" d="M 0 0 M1485.96 994.173 Q1484.7 993.444 1483.2 993.12 Q1481.74 992.756 1479.96 992.756 Q1473.64 992.756 1470.24 996.888 Q1466.88 1000.98 1466.88 1008.68 L1466.88 1032.58 L1459.38 1032.58 L1459.38 987.206 L1466.88 987.206 L1466.88 994.254 Q1469.23 990.123 1472.99 988.138 Q1476.76 986.112 1482.15 986.112 Q1482.92 986.112 1483.85 986.234 Q1484.78 986.315 1485.92 986.517 L1485.96 994.173 Z" fill="#000000" fill-rule="evenodd" fill-opacity="1" /><path clip-path="url(#clip190)" d="M 0 0 M1493.77 987.206 L1501.23 987.206 L1501.23 1032.58 L1493.77 1032.58 L1493.77 987.206 M1493.77 969.544 L1501.23 969.544 L1501.23 978.983 L1493.77 978.983 L1493.77 969.544 Z" fill="#000000" fill-rule="evenodd" fill-opacity="1" /><path clip-path="url(#clip190)" d="M 0 0 M1541.62 1009.93 Q1541.62 1001.71 1538.21 997.05 Q1534.85 992.351 1528.94 992.351 Q1523.02 992.351 1519.62 997.05 Q1516.26 1001.71 1516.26 1009.93 Q1516.26 1018.15 1519.62 1022.85 Q1523.02 1027.51 1528.94 1027.51 Q1534.85 1027.51 1538.21 1022.85 Q1541.62 1018.15 1541.62 1009.93 M1516.26 994.092 Q1518.61 990.042 1522.17 988.097 Q1525.78 986.112 1530.76 986.112 Q1539.02 986.112 1544.17 992.675 Q1549.35 999.237 1549.35 1009.93 Q1549.35 1020.63 1544.17 1027.19 Q1539.02 1033.75 1530.76 1033.75 Q1525.78 1033.75 1522.17 1031.81 Q1518.61 1029.82 1516.26 1025.77 L1516.26 1032.58 L1508.76 1032.58 L1508.76 969.544 L1516.26 969.544 L1516.26 994.092 Z" fill="#000000" fill-rule="evenodd" fill-opacity="1" /><path clip-path="url(#clip190)" d="M 0 0 M1556.4 1014.67 L1556.4 987.206 L1563.86 987.206 L1563.86 1014.39 Q1563.86 1020.83 1566.37 1024.07 Q1568.88 1027.27 1573.9 1027.27 Q1579.94 1027.27 1583.42 1023.42 Q1586.95 1019.57 1586.95 1012.93 L1586.95 987.206 L1594.4 987.206 L1594.4 1032.58 L1586.95 1032.58 L1586.95 1025.61 Q1584.23 1029.74 1580.63 1031.77 Q1577.06 1033.75 1572.32 1033.75 Q1564.5 1033.75 1560.45 1028.89 Q1556.4 1024.03 1556.4 1014.67 M1575.16 986.112 L1575.16 986.112 Z" fill="#000000" fill-rule="evenodd" fill-opacity="1" /><path clip-path="url(#clip190)" d="M 0 0 M1609.59 974.324 L1609.59 987.206 L1624.94 987.206 L1624.94 992.999 L1609.59 992.999 L1609.59 1017.63 Q1609.59 1023.18 1611.09 1024.76 Q1612.63 1026.34 1617.29 1026.34 L1624.94 1026.34 L1624.94 1032.58 L1617.29 1032.58 Q1608.66 1032.58 1605.38 1029.38 Q1602.1 1026.14 1602.1 1017.63 L1602.1 992.999 L1596.63 992.999 L1596.63 987.206 L1602.1 987.206 L1602.1 974.324 L1609.59 974.324 Z" fill="#000000" fill-rule="evenodd" fill-opacity="1" /><path clip-path="url(#clip190)" d="M 0 0 M1632.76 987.206 L1640.21 987.206 L1640.21 1032.58 L1632.76 1032.58 L1632.76 987.206 M1632.76 969.544 L1640.21 969.544 L1640.21 978.983 L1632.76 978.983 L1632.76 969.544 Z" fill="#000000" fill-rule="evenodd" fill-opacity="1" /><path clip-path="url(#clip190)" d="M 0 0 M1665.61 992.432 Q1659.62 992.432 1656.13 997.131 Q1652.65 1001.79 1652.65 1009.93 Q1652.65 1018.07 1656.09 1022.77 Q1659.58 1027.43 1665.61 1027.43 Q1671.57 1027.43 1675.05 1022.73 Q1678.54 1018.03 1678.54 1009.93 Q1678.54 1001.87 1675.05 997.171 Q1671.57 992.432 1665.61 992.432 M1665.61 986.112 Q1675.34 986.112 1680.89 992.432 Q1686.44 998.751 1686.44 1009.93 Q1686.44 1021.07 1680.89 1027.43 Q1675.34 1033.75 1665.61 1033.75 Q1655.85 1033.75 1650.3 1027.43 Q1644.79 1021.07 1644.79 1009.93 Q1644.79 998.751 1650.3 992.432 Q1655.85 986.112 1665.61 986.112 Z" fill="#000000" fill-rule="evenodd" fill-opacity="1" /><path clip-path="url(#clip190)" d="M 0 0 M1731.97 1005.19 L1731.97 1032.58 L1724.51 1032.58 L1724.51 1005.43 Q1724.51 998.994 1722 995.794 Q1719.49 992.594 1714.47 992.594 Q1708.43 992.594 1704.95 996.442 Q1701.46 1000.29 1701.46 1006.93 L1701.46 1032.58 L1693.97 1032.58 L1693.97 987.206 L1701.46 987.206 L1701.46 994.254 Q1704.14 990.163 1707.74 988.138 Q1711.39 986.112 1716.13 986.112 Q1723.95 986.112 1727.96 990.973 Q1731.97 995.794 1731.97 1005.19 Z" fill="#000000" fill-rule="evenodd" fill-opacity="1" /><path clip-path="url(#clip190)" d="M 0 0 M1325.14 1842 L1312.25 1859.34 L1325.81 1877.64 L1318.9 1877.64 L1308.53 1863.64 L1298.15 1877.64 L1291.24 1877.64 L1305.09 1858.99 L1292.42 1842 L1299.33 1842 L1308.78 1854.7 L1318.23 1842 L1325.14 1842 Z" fill="#000000" fill-rule="evenodd" fill-opacity="1" /><path clip-path="url(#clip190)" d="M 0 0 M35.6842 1463.62 L35.6842 1436.31 L41.095 1436.31 L41.095 1457.19 L55.0996 1457.19 L55.0996 1438.35 L60.5104 1438.35 L60.5104 1457.19 L83.2042 1457.19 L83.2042 1463.62 L35.6842 1463.62 Z" fill="#000000" fill-rule="evenodd" fill-opacity="1" /><path clip-path="url(#clip190)" d="M 0 0 M33.7426 1416.1 Q41.0632 1420.37 48.2246 1422.44 Q55.386 1424.51 62.7384 1424.51 Q70.0908 1424.51 77.3159 1422.44 Q84.5091 1420.34 91.7979 1416.1 L91.7979 1421.19 Q84.3182 1425.97 77.0931 1428.36 Q69.868 1430.71 62.7384 1430.71 Q55.6406 1430.71 48.4474 1428.36 Q41.2542 1426 33.7426 1421.19 L33.7426 1416.1 Z" fill="#000000" fill-rule="evenodd" fill-opacity="1" /><path clip-path="url(#clip190)" d="M 0 0 M47.5562 1380.33 L64.9028 1393.22 L83.2042 1379.66 L83.2042 1386.57 L69.1996 1396.94 L83.2042 1407.32 L83.2042 1414.22 L64.5526 1400.38 L47.5562 1413.05 L47.5562 1406.14 L60.2558 1396.69 L47.5562 1387.23 L47.5562 1380.33 Z" fill="#000000" fill-rule="evenodd" fill-opacity="1" /><path clip-path="url(#clip190)" d="M 0 0 M33.7426 1374.44 L33.7426 1369.35 Q41.2542 1364.57 48.4474 1362.22 Q55.6406 1359.83 62.7384 1359.83 Q69.868 1359.83 77.0931 1362.22 Q84.3182 1364.57 91.7979 1369.35 L91.7979 1374.44 Q84.5091 1370.21 77.3159 1368.14 Q70.0908 1366.04 62.7384 1366.04 Q55.386 1366.04 48.2246 1368.14 Q41.0632 1370.21 33.7426 1374.44 Z" fill="#000000" fill-rule="evenodd" fill-opacity="1" /><polyline clip-path="url(#clip193)" style="stroke:#808080; stroke-width:12; stroke-opacity:0.5; fill:none" points="
  303.247,1739.98 303.247,1703.33 
  "/>
<polyline clip-path="url(#clip193)" style="stroke:#808080; stroke-width:12; stroke-opacity:0.5; fill:none" points="
  371.343,1739.98 371.343,1622.39 
  "/>
<polyline clip-path="url(#clip193)" style="stroke:#808080; stroke-width:12; stroke-opacity:0.5; fill:none" points="
  401.37,1739.98 401.37,1478.69 
  "/>
<polyline clip-path="url(#clip193)" style="stroke:#808080; stroke-width:12; stroke-opacity:0.5; fill:none" points="
  992.282,1739.98 992.282,1415.03 
  "/>
<polyline clip-path="url(#clip193)" style="stroke:#808080; stroke-width:12; stroke-opacity:0.5; fill:none" points="
  1262.79,1739.98 1262.79,1302.42 
  "/>
<polyline clip-path="url(#clip193)" style="stroke:#808080; stroke-width:12; stroke-opacity:0.5; fill:none" points="
  1632.67,1739.98 1632.67,1240.56 
  "/>
<polyline clip-path="url(#clip193)" style="stroke:#808080; stroke-width:12; stroke-opacity:0.5; fill:none" points="
  2249.88,1739.98 2249.88,1199.61 
  "/>
<polyline clip-path="url(#clip193)" style="stroke:#808080; stroke-width:12; stroke-opacity:0.5; fill:none" points="
  2313.81,1739.98 2313.81,1169.1 
  "/>
<polyline clip-path="url(#clip193)" style="stroke:#00a98d; stroke-width:0; stroke-opacity:1; fill:none" points="
  303.247,1703.33 371.343,1622.39 401.37,1478.69 
  "/>
<circle clip-path="url(#clip193)" cx="303.247" cy="1703.33" r="14" fill="#8b0000" fill-rule="evenodd" fill-opacity="1" stroke="#000000" stroke-opacity="1" stroke-width="3.84"/>
<circle clip-path="url(#clip193)" cx="371.343" cy="1622.39" r="14" fill="#8b0000" fill-rule="evenodd" fill-opacity="1" stroke="#000000" stroke-opacity="1" stroke-width="3.84"/>
<circle clip-path="url(#clip193)" cx="401.37" cy="1478.69" r="14" fill="#8b0000" fill-rule="evenodd" fill-opacity="1" stroke="#000000" stroke-opacity="1" stroke-width="3.84"/>
<polyline clip-path="url(#clip193)" style="stroke:#8e971d; stroke-width:0; stroke-opacity:1; fill:none" points="
  992.282,1415.03 1262.79,1302.42 1632.67,1240.56 2249.88,1199.61 2313.81,1169.1 
  "/>
<circle clip-path="url(#clip193)" cx="992.282" cy="1415.03" r="14" fill="#8e971d" fill-rule="evenodd" fill-opacity="1" stroke="#000000" stroke-opacity="1" stroke-width="3.84"/>
<circle clip-path="url(#clip193)" cx="1262.79" cy="1302.42" r="14" fill="#8e971d" fill-rule="evenodd" fill-opacity="1" stroke="#000000" stroke-opacity="1" stroke-width="3.84"/>
<circle clip-path="url(#clip193)" cx="1632.67" cy="1240.56" r="14" fill="#8e971d" fill-rule="evenodd" fill-opacity="1" stroke="#000000" stroke-opacity="1" stroke-width="3.84"/>
<circle clip-path="url(#clip193)" cx="2249.88" cy="1199.61" r="14" fill="#8e971d" fill-rule="evenodd" fill-opacity="1" stroke="#000000" stroke-opacity="1" stroke-width="3.84"/>
<circle clip-path="url(#clip193)" cx="2313.81" cy="1169.1" r="14" fill="#8e971d" fill-rule="evenodd" fill-opacity="1" stroke="#000000" stroke-opacity="1" stroke-width="3.84"/>
<polyline clip-path="url(#clip193)" style="stroke:#ff8c00; stroke-width:8; stroke-opacity:1; fill:none" points="
  303.247,1597.26 371.343,1597.26 401.37,1597.26 992.282,1597.26 1262.79,1597.26 1632.67,1597.26 2249.88,1597.26 2313.81,1597.26 
  "/>
<path clip-path="url(#clip193)" d="M401.37 1715.98 L377.37 1739.98 L401.37 1763.98 L425.37 1739.98 L401.37 1715.98 Z" fill="#00008b" fill-rule="evenodd" fill-opacity="1" stroke="#000000" stroke-opacity="1" stroke-width="3.84"/>
<path clip-path="url(#clip190)" d="
M2460.45 1502.45 L2832.76 1502.45 L2832.76 1260.53 L2460.45 1260.53  Z
  " fill="#ffffff" fill-rule="evenodd" fill-opacity="1"/>
<polyline clip-path="url(#clip190)" style="stroke:#000000; stroke-width:4; stroke-opacity:1; fill:none" points="
  2460.45,1502.45 2832.76,1502.45 2832.76,1260.53 2460.45,1260.53 2460.45,1502.45 
  "/>
<polyline clip-path="url(#clip190)" style="stroke:#00a98d; stroke-width:4; stroke-opacity:1; fill:none" points="
  2489.25,1321.01 2662.05,1321.01 
  "/>
<circle clip-path="url(#clip190)" cx="2590.05" cy="1321.01" r="23" fill="#8b0000" fill-rule="evenodd" fill-opacity="1" stroke="#000000" stroke-opacity="1" stroke-width="6.144"/>
<circle clip-path="url(#clip190)" cx="2590.05" cy="1321.01" r="23" fill="#8b0000" fill-rule="evenodd" fill-opacity="1" stroke="#000000" stroke-opacity="1" stroke-width="6.144"/>
<circle clip-path="url(#clip190)" cx="2590.05" cy="1321.01" r="23" fill="#8b0000" fill-rule="evenodd" fill-opacity="1" stroke="#000000" stroke-opacity="1" stroke-width="6.144"/>
<path clip-path="url(#clip190)" d="M 0 0 M2690.85 1303.73 L2720.09 1303.73 L2720.09 1307.66 L2707.82 1307.66 L2707.82 1338.29 L2703.12 1338.29 L2703.12 1307.66 L2690.85 1307.66 L2690.85 1303.73 Z" fill="#000000" fill-rule="evenodd" fill-opacity="1" /><path clip-path="url(#clip190)" d="M 0 0 M2728.49 1325.25 Q2723.33 1325.25 2721.34 1326.43 Q2719.35 1327.61 2719.35 1330.46 Q2719.35 1332.73 2720.83 1334.07 Q2722.33 1335.39 2724.9 1335.39 Q2728.44 1335.39 2730.57 1332.89 Q2732.73 1330.37 2732.73 1326.2 L2732.73 1325.25 L2728.49 1325.25 M2736.98 1323.49 L2736.98 1338.29 L2732.73 1338.29 L2732.73 1334.35 Q2731.27 1336.71 2729.09 1337.85 Q2726.92 1338.96 2723.77 1338.96 Q2719.79 1338.96 2717.42 1336.74 Q2715.09 1334.49 2715.09 1330.74 Q2715.09 1326.36 2718 1324.14 Q2720.94 1321.92 2726.75 1321.92 L2732.73 1321.92 L2732.73 1321.5 Q2732.73 1318.56 2730.78 1316.97 Q2728.86 1315.35 2725.36 1315.35 Q2723.14 1315.35 2721.04 1315.88 Q2718.93 1316.41 2716.98 1317.48 L2716.98 1313.54 Q2719.32 1312.64 2721.52 1312.2 Q2723.72 1311.74 2725.8 1311.74 Q2731.43 1311.74 2734.21 1314.65 Q2736.98 1317.57 2736.98 1323.49 Z" fill="#000000" fill-rule="evenodd" fill-opacity="1" /><path clip-path="url(#clip190)" d="M 0 0 M2741.45 1312.36 L2745.71 1312.36 L2745.71 1338.29 L2741.45 1338.29 L2741.45 1312.36 M2741.45 1302.27 L2745.71 1302.27 L2745.71 1307.66 L2741.45 1307.66 L2741.45 1302.27 Z" fill="#000000" fill-rule="evenodd" fill-opacity="1" /><path clip-path="url(#clip190)" d="M 0 0 M2750.18 1302.27 L2754.44 1302.27 L2754.44 1338.29 L2750.18 1338.29 L2750.18 1302.27 Z" fill="#000000" fill-rule="evenodd" fill-opacity="1" /><polyline clip-path="url(#clip190)" style="stroke:#ff8c00; stroke-width:4; stroke-opacity:1; fill:none" points="
  2489.25,1381.49 2662.05,1381.49 
  "/>
<path clip-path="url(#clip190)" d="M 0 0 M2707.82 1386.71 L2706.8 1381.36 Q2705.76 1375.87 2701.64 1375.87 Q2698.54 1375.87 2697.12 1378.42 Q2695.34 1381.61 2695.34 1385.83 Q2695.34 1390.92 2697.08 1393.35 Q2698.84 1395.83 2701.64 1395.83 Q2704.74 1395.83 2706.41 1390.9 L2707.82 1386.71 M2710.2 1379.62 L2712.49 1372.84 L2716.29 1372.84 L2711.55 1386.89 L2712.47 1391.96 Q2712.68 1393.09 2713.49 1394.04 Q2714.44 1395.15 2715.18 1395.15 L2717.22 1395.15 L2717.22 1398.77 L2714.67 1398.77 Q2712.49 1398.77 2710.55 1396.82 Q2709.6 1395.85 2709.21 1393.81 Q2708.14 1396.38 2705.97 1398.4 Q2704.95 1399.34 2701.64 1399.34 Q2696.2 1399.34 2693.56 1395.83 Q2690.85 1392.19 2690.85 1385.83 Q2690.85 1379.02 2693.79 1375.83 Q2697.05 1372.26 2701.64 1372.26 Q2708.84 1372.26 2710.2 1379.62 Z" fill="#000000" fill-rule="evenodd" fill-opacity="1" /><polyline clip-path="url(#clip190)" style="stroke:#9b7fe8; stroke-width:4; stroke-opacity:1; fill:none" points="
  2489.25,1441.97 2662.05,1441.97 
  "/>
<path clip-path="url(#clip190)" d="M2590.05 1416.37 L2564.45 1441.97 L2590.05 1467.57 L2615.65 1441.97 L2590.05 1416.37 Z" fill="#00008b" fill-rule="evenodd" fill-opacity="1" stroke="#000000" stroke-opacity="1" stroke-width="4.096"/>
<path clip-path="url(#clip190)" d="M 0 0 M2704.05 1459.25 L2690.85 1424.69 L2695.74 1424.69 L2706.68 1453.78 L2717.66 1424.69 L2722.52 1424.69 L2709.35 1459.25 L2704.05 1459.25 Z" fill="#000000" fill-rule="evenodd" fill-opacity="1" /><path clip-path="url(#clip190)" d="M 0 0 M2735.09 1446.21 Q2729.92 1446.21 2727.93 1447.39 Q2725.94 1448.57 2725.94 1451.42 Q2725.94 1453.69 2727.42 1455.03 Q2728.93 1456.35 2731.5 1456.35 Q2735.04 1456.35 2737.17 1453.85 Q2739.32 1451.33 2739.32 1447.16 L2739.32 1446.21 L2735.09 1446.21 M2743.58 1444.45 L2743.58 1459.25 L2739.32 1459.25 L2739.32 1455.31 Q2737.86 1457.67 2735.69 1458.81 Q2733.51 1459.92 2730.36 1459.92 Q2726.38 1459.92 2724.02 1457.7 Q2721.68 1455.45 2721.68 1451.7 Q2721.68 1447.32 2724.6 1445.1 Q2727.54 1442.88 2733.35 1442.88 L2739.32 1442.88 L2739.32 1442.46 Q2739.32 1439.52 2737.38 1437.93 Q2735.46 1436.31 2731.96 1436.31 Q2729.74 1436.31 2727.63 1436.84 Q2725.53 1437.37 2723.58 1438.44 L2723.58 1434.5 Q2725.92 1433.6 2728.12 1433.16 Q2730.32 1432.7 2732.4 1432.7 Q2738.03 1432.7 2740.8 1435.61 Q2743.58 1438.53 2743.58 1444.45 Z" fill="#000000" fill-rule="evenodd" fill-opacity="1" /><path clip-path="url(#clip190)" d="M 0 0 M2764.62 1443.04 Q2766.13 1443.55 2767.54 1445.22 Q2768.98 1446.88 2770.41 1449.8 L2775.16 1459.25 L2770.13 1459.25 L2765.71 1450.38 Q2764 1446.91 2762.38 1445.77 Q2760.78 1444.64 2758 1444.64 L2752.91 1444.64 L2752.91 1459.25 L2748.23 1459.25 L2748.23 1424.69 L2758.79 1424.69 Q2764.72 1424.69 2767.63 1427.16 Q2770.55 1429.64 2770.55 1434.64 Q2770.55 1437.9 2769.02 1440.06 Q2767.52 1442.21 2764.62 1443.04 M2752.91 1428.53 L2752.91 1440.8 L2758.79 1440.8 Q2762.17 1440.8 2763.88 1439.25 Q2765.62 1437.67 2765.62 1434.64 Q2765.62 1431.61 2763.88 1430.08 Q2762.17 1428.53 2758.79 1428.53 L2752.91 1428.53 Z" fill="#000000" fill-rule="evenodd" fill-opacity="1" /></svg>
