<?xml version="1.0" encoding="utf-8"?>
<svg xmlns="http://www.w3.org/2000/svg" xmlns:xlink="http://www.w3.org/1999/xlink" width="720" height="400" viewBox="0 0 2880 1600">
<defs>
  <clipPath id="clip500">
    <rect x="0" y="0" width="2880" height="1600"/>
  </clipPath>
</defs>
<path clip-path="url(#clip500)" d="
M0 1600 L2880 1600 L2880 0 L0 0  Z
  " fill="#ffffff" fill-rule="evenodd" fill-opacity="1"/>
<defs>
  <clipPath id="clip501">
    <rect x="576" y="0" width="2017" height="1600"/>
  </clipPath>
</defs>
<path clip-path="url(#clip500)" d="
M235.01 636.86 L2345.62 636.86 L2345.62 113.392 L235.01 113.392  Z
  " fill="#ffffff" fill-rule="evenodd" fill-opacity="1"/>
<defs>
  <clipPath id="clip502">
    <rect x="235" y="113" width="2112" height="524"/>
  </clipPath>
</defs>
<polyline clip-path="url(#clip502)" style="stroke:#000000; stroke-width:2; stroke-opacity:0.1; fill:none" points="
  526.915,636.86 526.915,113.392 
  "/>
<polyline clip-path="url(#clip502)" style="stroke:#000000; stroke-width:2; stroke-opacity:0.1; fill:none" points="
  966.689,636.86 966.689,113.392 
  "/>
<polyline clip-path="url(#clip502)" style="stroke:#000000; stroke-width:2; stroke-opacity:0.1; fill:none" points="
  1406.46,636.86 1406.46,113.392 
  "/>
<polyline clip-path="url(#clip502)" style="stroke:#000000; stroke-width:2; stroke-opacity:0.1; fill:none" points="
  1846.24,636.86 1846.24,113.392 
  "/>
<polyline clip-path="url(#clip502)" style="stroke:#000000; stroke-width:2; stroke-opacity:0.1; fill:none" points="
  2286.01,636.86 2286.01,113.392 
  "/>
<polyline clip-path="url(#clip502)" style="stroke:#000000; stroke-width:2; stroke-opacity:0.1; fill:none" points="
  235.01,636.86 2345.62,636.86 
  "/>
<polyline clip-path="url(#clip502)" style="stroke:#000000; stroke-width:2; stroke-opacity:0.1; fill:none" points="
  235.01,546.442 2345.62,546.442 
  "/>
<polyline clip-path="url(#clip502)" style="stroke:#000000; stroke-width:2; stroke-opacity:0.1; fill:none" points="
  235.01,456.024 2345.62,456.024 
  "/>
<polyline clip-path="url(#clip502)" style="stroke:#000000; stroke-width:2; stroke-opacity:0.1; fill:none" points="
  235.01,365.606 2345.62,365.606 
  "/>
<polyline clip-path="url(#clip502)" style="stroke:#000000; stroke-width:2; stroke-opacity:0.1; fill:none" points="
  235.01,275.188 2345.62,275.188 
  "/>
<polyline clip-path="url(#clip502)" style="stroke:#000000; stroke-width:2; stroke-opacity:0.1; fill:none" points="
  235.01,184.77 2345.62,184.77 
  "/>
<polyline clip-path="url(#clip500)" style="stroke:#000000; stroke-width:4; stroke-opacity:1; fill:none" points="
  235.01,636.86 2345.62,636.86 
  "/>
<polyline clip-path="url(#clip500)" style="stroke:#000000; stroke-width:4; stroke-opacity:1; fill:none" points="
  235.01,636.86 235.01,113.392 
  "/>
<polyline clip-path="url(#clip500)" style="stroke:#000000; stroke-width:4; stroke-opacity:1; fill:none" points="
  526.915,636.86 526.915,630.578 
  "/>
<polyline clip-path="url(#clip500)" style="stroke:#000000; stroke-width:4; stroke-opacity:1; fill:none" points="
  966.689,636.86 966.689,630.578 
  "/>
<polyline clip-path="url(#clip500)" style="stroke:#000000; stroke-width:4; stroke-opacity:1; fill:none" points="
  1406.46,636.86 1406.46,630.578 
  "/>
<polyline clip-path="url(#clip500)" style="stroke:#000000; stroke-width:4; stroke-opacity:1; fill:none" points="
  1846.24,636.86 1846.24,630.578 
  "/>
<polyline clip-path="url(#clip500)" style="stroke:#000000; stroke-width:4; stroke-opacity:1; fill:none" points="
  2286.01,636.86 2286.01,630.578 
  "/>
<polyline clip-path="url(#clip500)" style="stroke:#000000; stroke-width:4; stroke-opacity:1; fill:none" points="
  235.01,636.86 260.337,636.86 
  "/>
<polyline clip-path="url(#clip500)" style="stroke:#000000; stroke-width:4; stroke-opacity:1; fill:none" points="
  235.01,546.442 260.337,546.442 
  "/>
<polyline clip-path="url(#clip500)" style="stroke:#000000; stroke-width:4; stroke-opacity:1; fill:none" points="
  235.01,456.024 260.337,456.024 
  "/>
<polyline clip-path="url(#clip500)" style="stroke:#000000; stroke-width:4; stroke-opacity:1; fill:none" points="
  235.01,365.606 260.337,365.606 
  "/>
<polyline clip-path="url(#clip500)" style="stroke:#000000; stroke-width:4; stroke-opacity:1; fill:none" points="
  235.01,275.188 260.337,275.188 
  "/>
<polyline clip-path="url(#clip500)" style="stroke:#000000; stroke-width:4; stroke-opacity:1; fill:none" points="
  235.01,184.77 260.337,184.77 
  "/>
<path clip-path="url(#clip500)" d="M 0 0 M507.784 677.848 L520.26 677.848 L520.26 681.644 L507.784 681.644 L507.784 677.848 Z" fill="#000000" fill-rule="evenodd" fill-opacity="1" /><path clip-path="url(#clip500)" d="M 0 0 M526.14 688.797 L533.779 688.797 L533.779 662.431 L525.469 664.098 L525.469 659.839 L533.733 658.172 L538.408 658.172 L538.408 688.797 L546.047 688.797 L546.047 692.732 L526.14 692.732 L526.14 688.797 Z" fill="#000000" fill-rule="evenodd" fill-opacity="1" /><path clip-path="url(#clip500)" d="M 0 0 M966.689 661.251 Q963.078 661.251 961.249 664.815 Q959.444 668.357 959.444 675.487 Q959.444 682.593 961.249 686.158 Q963.078 689.699 966.689 689.699 Q970.323 689.699 972.129 686.158 Q973.958 682.593 973.958 675.487 Q973.958 668.357 972.129 664.815 Q970.323 661.251 966.689 661.251 M966.689 657.547 Q972.499 657.547 975.555 662.153 Q978.634 666.737 978.634 675.487 Q978.634 684.213 975.555 688.82 Q972.499 693.403 966.689 693.403 Q960.879 693.403 957.8 688.82 Q954.745 684.213 954.745 675.487 Q954.745 666.737 957.8 662.153 Q960.879 657.547 966.689 657.547 Z" fill="#000000" fill-rule="evenodd" fill-opacity="1" /><path clip-path="url(#clip500)" d="M 0 0 M1396.84 688.797 L1404.48 688.797 L1404.48 662.431 L1396.17 664.098 L1396.17 659.839 L1404.44 658.172 L1409.11 658.172 L1409.11 688.797 L1416.75 688.797 L1416.75 692.732 L1396.84 692.732 L1396.84 688.797 Z" fill="#000000" fill-rule="evenodd" fill-opacity="1" /><path clip-path="url(#clip500)" d="M 0 0 M1840.89 688.797 L1857.21 688.797 L1857.21 692.732 L1835.26 692.732 L1835.26 688.797 Q1837.93 686.042 1842.51 681.412 Q1847.12 676.76 1848.3 675.417 Q1850.54 672.894 1851.42 671.158 Q1852.32 669.399 1852.32 667.709 Q1852.32 664.954 1850.38 663.218 Q1848.46 661.482 1845.36 661.482 Q1843.16 661.482 1840.7 662.246 Q1838.27 663.01 1835.5 664.561 L1835.5 659.839 Q1838.32 658.704 1840.77 658.126 Q1843.23 657.547 1845.26 657.547 Q1850.63 657.547 1853.83 660.232 Q1857.02 662.917 1857.02 667.408 Q1857.02 669.538 1856.21 671.459 Q1855.43 673.357 1853.32 675.95 Q1852.74 676.621 1849.64 679.838 Q1846.54 683.033 1840.89 688.797 Z" fill="#000000" fill-rule="evenodd" fill-opacity="1" /><path clip-path="url(#clip500)" d="M 0 0 M2290.26 674.098 Q2293.61 674.815 2295.49 677.084 Q2297.39 679.352 2297.39 682.686 Q2297.39 687.801 2293.87 690.602 Q2290.35 693.403 2283.87 693.403 Q2281.69 693.403 2279.38 692.963 Q2277.09 692.547 2274.63 691.69 L2274.63 687.176 Q2276.58 688.311 2278.89 688.889 Q2281.21 689.468 2283.73 689.468 Q2288.13 689.468 2290.42 687.732 Q2292.73 685.996 2292.73 682.686 Q2292.73 679.63 2290.58 677.917 Q2288.45 676.181 2284.63 676.181 L2280.61 676.181 L2280.61 672.338 L2284.82 672.338 Q2288.27 672.338 2290.1 670.973 Q2291.92 669.584 2291.92 666.991 Q2291.92 664.329 2290.03 662.917 Q2288.15 661.482 2284.63 661.482 Q2282.71 661.482 2280.51 661.899 Q2278.31 662.315 2275.67 663.195 L2275.67 659.028 Q2278.34 658.288 2280.65 657.917 Q2282.99 657.547 2285.05 657.547 Q2290.37 657.547 2293.48 659.977 Q2296.58 662.385 2296.58 666.505 Q2296.58 669.375 2294.93 671.366 Q2293.29 673.334 2290.26 674.098 Z" fill="#000000" fill-rule="evenodd" fill-opacity="1" /><path clip-path="url(#clip500)" d="M 0 0 M130.285 622.659 Q126.673 622.659 124.845 626.223 Q123.039 629.765 123.039 636.895 Q123.039 644.001 124.845 647.566 Q126.673 651.107 130.285 651.107 Q133.919 651.107 135.724 647.566 Q137.553 644.001 137.553 636.895 Q137.553 629.765 135.724 626.223 Q133.919 622.659 130.285 622.659 M130.285 618.955 Q136.095 618.955 139.15 623.561 Q142.229 628.145 142.229 636.895 Q142.229 645.621 139.15 650.228 Q136.095 654.811 130.285 654.811 Q124.474 654.811 121.396 650.228 Q118.34 645.621 118.34 636.895 Q118.34 628.145 121.396 623.561 Q124.474 618.955 130.285 618.955 Z" fill="#000000" fill-rule="evenodd" fill-opacity="1" /><path clip-path="url(#clip500)" d="M 0 0 M147.298 648.26 L152.183 648.26 L152.183 654.14 L147.298 654.14 L147.298 648.26 Z" fill="#000000" fill-rule="evenodd" fill-opacity="1" /><path clip-path="url(#clip500)" d="M 0 0 M167.252 622.659 Q163.641 622.659 161.812 626.223 Q160.007 629.765 160.007 636.895 Q160.007 644.001 161.812 647.566 Q163.641 651.107 167.252 651.107 Q170.886 651.107 172.692 647.566 Q174.52 644.001 174.52 636.895 Q174.52 629.765 172.692 626.223 Q170.886 622.659 167.252 622.659 M167.252 618.955 Q173.062 618.955 176.118 623.561 Q179.196 628.145 179.196 636.895 Q179.196 645.621 176.118 650.228 Q173.062 654.811 167.252 654.811 Q161.442 654.811 158.363 650.228 Q155.308 645.621 155.308 636.895 Q155.308 628.145 158.363 623.561 Q161.442 618.955 167.252 618.955 Z" fill="#000000" fill-rule="evenodd" fill-opacity="1" /><path clip-path="url(#clip500)" d="M 0 0 M194.266 622.659 Q190.655 622.659 188.826 626.223 Q187.02 629.765 187.02 636.895 Q187.02 644.001 188.826 647.566 Q190.655 651.107 194.266 651.107 Q197.9 651.107 199.705 647.566 Q201.534 644.001 201.534 636.895 Q201.534 629.765 199.705 626.223 Q197.9 622.659 194.266 622.659 M194.266 618.955 Q200.076 618.955 203.131 623.561 Q206.21 628.145 206.21 636.895 Q206.21 645.621 203.131 650.228 Q200.076 654.811 194.266 654.811 Q188.456 654.811 185.377 650.228 Q182.321 645.621 182.321 636.895 Q182.321 628.145 185.377 623.561 Q188.456 618.955 194.266 618.955 Z" fill="#000000" fill-rule="evenodd" fill-opacity="1" /><path clip-path="url(#clip500)" d="M 0 0 M131.28 532.241 Q127.669 532.241 125.84 535.805 Q124.035 539.347 124.035 546.477 Q124.035 553.583 125.84 557.148 Q127.669 560.689 131.28 560.689 Q134.914 560.689 136.72 557.148 Q138.548 553.583 138.548 546.477 Q138.548 539.347 136.72 535.805 Q134.914 532.241 131.28 532.241 M131.28 528.537 Q137.09 528.537 140.146 533.143 Q143.224 537.727 143.224 546.477 Q143.224 555.203 140.146 559.81 Q137.09 564.393 131.28 564.393 Q125.47 564.393 122.391 559.81 Q119.336 555.203 119.336 546.477 Q119.336 537.727 122.391 533.143 Q125.47 528.537 131.28 528.537 Z" fill="#000000" fill-rule="evenodd" fill-opacity="1" /><path clip-path="url(#clip500)" d="M 0 0 M148.294 557.842 L153.178 557.842 L153.178 563.722 L148.294 563.722 L148.294 557.842 Z" fill="#000000" fill-rule="evenodd" fill-opacity="1" /><path clip-path="url(#clip500)" d="M 0 0 M168.247 532.241 Q164.636 532.241 162.808 535.805 Q161.002 539.347 161.002 546.477 Q161.002 553.583 162.808 557.148 Q164.636 560.689 168.247 560.689 Q171.882 560.689 173.687 557.148 Q175.516 553.583 175.516 546.477 Q175.516 539.347 173.687 535.805 Q171.882 532.241 168.247 532.241 M168.247 528.537 Q174.057 528.537 177.113 533.143 Q180.192 537.727 180.192 546.477 Q180.192 555.203 177.113 559.81 Q174.057 564.393 168.247 564.393 Q162.437 564.393 159.358 559.81 Q156.303 555.203 156.303 546.477 Q156.303 537.727 159.358 533.143 Q162.437 528.537 168.247 528.537 Z" fill="#000000" fill-rule="evenodd" fill-opacity="1" /><path clip-path="url(#clip500)" d="M 0 0 M185.307 529.162 L203.664 529.162 L203.664 533.097 L189.59 533.097 L189.59 541.569 Q190.608 541.222 191.627 541.06 Q192.645 540.875 193.664 540.875 Q199.451 540.875 202.83 544.046 Q206.21 547.217 206.21 552.634 Q206.21 558.213 202.738 561.314 Q199.266 564.393 192.946 564.393 Q190.77 564.393 188.502 564.023 Q186.256 563.652 183.849 562.912 L183.849 558.213 Q185.932 559.347 188.155 559.902 Q190.377 560.458 192.854 560.458 Q196.858 560.458 199.196 558.352 Q201.534 556.245 201.534 552.634 Q201.534 549.023 199.196 546.916 Q196.858 544.81 192.854 544.81 Q190.979 544.81 189.104 545.227 Q187.252 545.643 185.307 546.523 L185.307 529.162 Z" fill="#000000" fill-rule="evenodd" fill-opacity="1" /><path clip-path="url(#clip500)" d="M 0 0 M131.511 441.823 Q127.9 441.823 126.072 445.387 Q124.266 448.929 124.266 456.059 Q124.266 463.165 126.072 466.73 Q127.9 470.272 131.511 470.272 Q135.146 470.272 136.951 466.73 Q138.78 463.165 138.78 456.059 Q138.78 448.929 136.951 445.387 Q135.146 441.823 131.511 441.823 M131.511 438.119 Q137.322 438.119 140.377 442.725 Q143.456 447.309 143.456 456.059 Q143.456 464.785 140.377 469.392 Q137.322 473.975 131.511 473.975 Q125.701 473.975 122.623 469.392 Q119.567 464.785 119.567 456.059 Q119.567 447.309 122.623 442.725 Q125.701 438.119 131.511 438.119 Z" fill="#000000" fill-rule="evenodd" fill-opacity="1" /><path clip-path="url(#clip500)" d="M 0 0 M148.525 467.424 L153.409 467.424 L153.409 473.304 L148.525 473.304 L148.525 467.424 Z" fill="#000000" fill-rule="evenodd" fill-opacity="1" /><path clip-path="url(#clip500)" d="M 0 0 M159.289 469.369 L166.928 469.369 L166.928 443.003 L158.618 444.67 L158.618 440.411 L166.882 438.744 L171.557 438.744 L171.557 469.369 L179.196 469.369 L179.196 473.304 L159.289 473.304 L159.289 469.369 Z" fill="#000000" fill-rule="evenodd" fill-opacity="1" /><path clip-path="url(#clip500)" d="M 0 0 M194.266 441.823 Q190.655 441.823 188.826 445.387 Q187.02 448.929 187.02 456.059 Q187.02 463.165 188.826 466.73 Q190.655 470.272 194.266 470.272 Q197.9 470.272 199.705 466.73 Q201.534 463.165 201.534 456.059 Q201.534 448.929 199.705 445.387 Q197.9 441.823 194.266 441.823 M194.266 438.119 Q200.076 438.119 203.131 442.725 Q206.21 447.309 206.21 456.059 Q206.21 464.785 203.131 469.392 Q200.076 473.975 194.266 473.975 Q188.456 473.975 185.377 469.392 Q182.321 464.785 182.321 456.059 Q182.321 447.309 185.377 442.725 Q188.456 438.119 194.266 438.119 Z" fill="#000000" fill-rule="evenodd" fill-opacity="1" /><path clip-path="url(#clip500)" d="M 0 0 M132.507 351.405 Q128.896 351.405 127.067 354.969 Q125.261 358.511 125.261 365.641 Q125.261 372.747 127.067 376.312 Q128.896 379.854 132.507 379.854 Q136.141 379.854 137.947 376.312 Q139.775 372.747 139.775 365.641 Q139.775 358.511 137.947 354.969 Q136.141 351.405 132.507 351.405 M132.507 347.701 Q138.317 347.701 141.372 352.307 Q144.451 356.891 144.451 365.641 Q144.451 374.368 141.372 378.974 Q138.317 383.557 132.507 383.557 Q126.697 383.557 123.618 378.974 Q120.562 374.368 120.562 365.641 Q120.562 356.891 123.618 352.307 Q126.697 347.701 132.507 347.701 Z" fill="#000000" fill-rule="evenodd" fill-opacity="1" /><path clip-path="url(#clip500)" d="M 0 0 M149.521 377.006 L154.405 377.006 L154.405 382.886 L149.521 382.886 L149.521 377.006 Z" fill="#000000" fill-rule="evenodd" fill-opacity="1" /><path clip-path="url(#clip500)" d="M 0 0 M160.284 378.951 L167.923 378.951 L167.923 352.585 L159.613 354.252 L159.613 349.993 L167.877 348.326 L172.553 348.326 L172.553 378.951 L180.192 378.951 L180.192 382.886 L160.284 382.886 L160.284 378.951 Z" fill="#000000" fill-rule="evenodd" fill-opacity="1" /><path clip-path="url(#clip500)" d="M 0 0 M185.307 348.326 L203.664 348.326 L203.664 352.261 L189.59 352.261 L189.59 360.733 Q190.608 360.386 191.627 360.224 Q192.645 360.039 193.664 360.039 Q199.451 360.039 202.83 363.21 Q206.21 366.381 206.21 371.798 Q206.21 377.377 202.738 380.479 Q199.266 383.557 192.946 383.557 Q190.77 383.557 188.502 383.187 Q186.256 382.817 183.849 382.076 L183.849 377.377 Q185.932 378.511 188.155 379.067 Q190.377 379.622 192.854 379.622 Q196.858 379.622 199.196 377.516 Q201.534 375.409 201.534 371.798 Q201.534 368.187 199.196 366.081 Q196.858 363.974 192.854 363.974 Q190.979 363.974 189.104 364.391 Q187.252 364.807 185.307 365.687 L185.307 348.326 Z" fill="#000000" fill-rule="evenodd" fill-opacity="1" /><path clip-path="url(#clip500)" d="M 0 0 M131.882 260.987 Q128.271 260.987 126.442 264.552 Q124.636 268.093 124.636 275.223 Q124.636 282.329 126.442 285.894 Q128.271 289.436 131.882 289.436 Q135.516 289.436 137.322 285.894 Q139.15 282.329 139.15 275.223 Q139.15 268.093 137.322 264.552 Q135.516 260.987 131.882 260.987 M131.882 257.283 Q137.692 257.283 140.747 261.889 Q143.826 266.473 143.826 275.223 Q143.826 283.95 140.747 288.556 Q137.692 293.139 131.882 293.139 Q126.072 293.139 122.993 288.556 Q119.937 283.95 119.937 275.223 Q119.937 266.473 122.993 261.889 Q126.072 257.283 131.882 257.283 Z" fill="#000000" fill-rule="evenodd" fill-opacity="1" /><path clip-path="url(#clip500)" d="M 0 0 M148.896 286.588 L153.78 286.588 L153.78 292.468 L148.896 292.468 L148.896 286.588 Z" fill="#000000" fill-rule="evenodd" fill-opacity="1" /><path clip-path="url(#clip500)" d="M 0 0 M162.877 288.533 L179.196 288.533 L179.196 292.468 L157.252 292.468 L157.252 288.533 Q159.914 285.778 164.497 281.149 Q169.104 276.496 170.284 275.153 Q172.53 272.63 173.409 270.894 Q174.312 269.135 174.312 267.445 Q174.312 264.69 172.368 262.954 Q170.446 261.218 167.345 261.218 Q165.145 261.218 162.692 261.982 Q160.261 262.746 157.483 264.297 L157.483 259.575 Q160.308 258.44 162.761 257.862 Q165.215 257.283 167.252 257.283 Q172.622 257.283 175.817 259.968 Q179.011 262.653 179.011 267.144 Q179.011 269.274 178.201 271.195 Q177.414 273.093 175.307 275.686 Q174.729 276.357 171.627 279.575 Q168.525 282.769 162.877 288.533 Z" fill="#000000" fill-rule="evenodd" fill-opacity="1" /><path clip-path="url(#clip500)" d="M 0 0 M194.266 260.987 Q190.655 260.987 188.826 264.552 Q187.02 268.093 187.02 275.223 Q187.02 282.329 188.826 285.894 Q190.655 289.436 194.266 289.436 Q197.9 289.436 199.705 285.894 Q201.534 282.329 201.534 275.223 Q201.534 268.093 199.705 264.552 Q197.9 260.987 194.266 260.987 M194.266 257.283 Q200.076 257.283 203.131 261.889 Q206.21 266.473 206.21 275.223 Q206.21 283.95 203.131 288.556 Q200.076 293.139 194.266 293.139 Q188.456 293.139 185.377 288.556 Q182.321 283.95 182.321 275.223 Q182.321 266.473 185.377 261.889 Q188.456 257.283 194.266 257.283 Z" fill="#000000" fill-rule="evenodd" fill-opacity="1" /><path clip-path="url(#clip500)" d="M 0 0 M132.877 170.569 Q129.266 170.569 127.437 174.134 Q125.632 177.675 125.632 184.805 Q125.632 191.911 127.437 195.476 Q129.266 199.018 132.877 199.018 Q136.511 199.018 138.317 195.476 Q140.146 191.911 140.146 184.805 Q140.146 177.675 138.317 174.134 Q136.511 170.569 132.877 170.569 M132.877 166.865 Q138.687 166.865 141.743 171.472 Q144.821 176.055 144.821 184.805 Q144.821 193.532 141.743 198.138 Q138.687 202.721 132.877 202.721 Q127.067 202.721 123.988 198.138 Q120.933 193.532 120.933 184.805 Q120.933 176.055 123.988 171.472 Q127.067 166.865 132.877 166.865 Z" fill="#000000" fill-rule="evenodd" fill-opacity="1" /><path clip-path="url(#clip500)" d="M 0 0 M149.891 196.17 L154.775 196.17 L154.775 202.05 L149.891 202.05 L149.891 196.17 Z" fill="#000000" fill-rule="evenodd" fill-opacity="1" /><path clip-path="url(#clip500)" d="M 0 0 M163.872 198.115 L180.192 198.115 L180.192 202.05 L158.247 202.05 L158.247 198.115 Q160.909 195.36 165.493 190.731 Q170.099 186.078 171.28 184.735 Q173.525 182.212 174.405 180.476 Q175.307 178.717 175.307 177.027 Q175.307 174.272 173.363 172.536 Q171.442 170.8 168.34 170.8 Q166.141 170.8 163.687 171.564 Q161.257 172.328 158.479 173.879 L158.479 169.157 Q161.303 168.022 163.757 167.444 Q166.21 166.865 168.247 166.865 Q173.618 166.865 176.812 169.55 Q180.006 172.235 180.006 176.726 Q180.006 178.856 179.196 180.777 Q178.409 182.675 176.303 185.268 Q175.724 185.939 172.622 189.157 Q169.52 192.351 163.872 198.115 Z" fill="#000000" fill-rule="evenodd" fill-opacity="1" /><path clip-path="url(#clip500)" d="M 0 0 M185.307 167.49 L203.664 167.49 L203.664 171.425 L189.59 171.425 L189.59 179.897 Q190.608 179.55 191.627 179.388 Q192.645 179.203 193.664 179.203 Q199.451 179.203 202.83 182.374 Q206.21 185.546 206.21 190.962 Q206.21 196.541 202.738 199.643 Q199.266 202.721 192.946 202.721 Q190.77 202.721 188.502 202.351 Q186.256 201.981 183.849 201.24 L183.849 196.541 Q185.932 197.675 188.155 198.231 Q190.377 198.786 192.854 198.786 Q196.858 198.786 199.196 196.68 Q201.534 194.573 201.534 190.962 Q201.534 187.351 199.196 185.245 Q196.858 183.138 192.854 183.138 Q190.979 183.138 189.104 183.555 Q187.252 183.971 185.307 184.851 L185.307 167.49 Z" fill="#000000" fill-rule="evenodd" fill-opacity="1" /><path clip-path="url(#clip500)" d="M 0 0 M890.875 18.8205 L890.875 41.5461 L901.164 41.5461 Q906.876 41.5461 909.995 38.5889 Q913.114 35.6318 913.114 30.163 Q913.114 24.7348 909.995 21.7777 Q906.876 18.8205 901.164 18.8205 L890.875 18.8205 M882.692 12.096 L901.164 12.096 Q911.332 12.096 916.517 16.714 Q921.743 21.2916 921.743 30.163 Q921.743 39.1155 916.517 43.6931 Q911.332 48.2706 901.164 48.2706 L890.875 48.2706 L890.875 72.576 L882.692 72.576 L882.692 12.096 Z" fill="#000000" fill-rule="evenodd" fill-opacity="1" /><path clip-path="url(#clip500)" d="M 0 0 M954.393 34.1734 Q953.137 33.4443 951.639 33.1202 Q950.18 32.7556 948.398 32.7556 Q942.078 32.7556 938.676 36.8875 Q935.313 40.9789 935.313 48.6757 L935.313 72.576 L927.819 72.576 L927.819 27.2059 L935.313 27.2059 L935.313 34.2544 Q937.663 30.1225 941.43 28.1376 Q945.198 26.1121 950.585 26.1121 Q951.355 26.1121 952.287 26.2337 Q953.218 26.3147 954.353 26.5172 L954.393 34.1734 Z" fill="#000000" fill-rule="evenodd" fill-opacity="1" /><path clip-path="url(#clip500)" d="M 0 0 M977.969 32.4315 Q971.974 32.4315 968.49 37.1306 Q965.007 41.7891 965.007 49.9314 Q965.007 58.0738 968.45 62.7728 Q971.934 67.4314 977.969 67.4314 Q983.924 67.4314 987.408 62.7323 Q990.892 58.0333 990.892 49.9314 Q990.892 41.8701 987.408 37.1711 Q983.924 32.4315 977.969 32.4315 M977.969 26.1121 Q987.692 26.1121 993.241 32.4315 Q998.791 38.7509 998.791 49.9314 Q998.791 61.0714 993.241 67.4314 Q987.692 73.7508 977.969 73.7508 Q968.207 73.7508 962.657 67.4314 Q957.148 61.0714 957.148 49.9314 Q957.148 38.7509 962.657 32.4315 Q968.207 26.1121 977.969 26.1121 Z" fill="#000000" fill-rule="evenodd" fill-opacity="1" /><path clip-path="url(#clip500)" d="M 0 0 M1039.18 49.9314 Q1039.18 41.7081 1035.78 37.0496 Q1032.41 32.3505 1026.5 32.3505 Q1020.58 32.3505 1017.18 37.0496 Q1013.82 41.7081 1013.82 49.9314 Q1013.82 58.1548 1017.18 62.8538 Q1020.58 67.5124 1026.5 67.5124 Q1032.41 67.5124 1035.78 62.8538 Q1039.18 58.1548 1039.18 49.9314 M1013.82 34.0924 Q1016.17 30.0415 1019.73 28.0971 Q1023.34 26.1121 1028.32 26.1121 Q1036.59 26.1121 1041.73 32.6746 Q1046.92 39.2371 1046.92 49.9314 Q1046.92 60.6258 1041.73 67.1883 Q1036.59 73.7508 1028.32 73.7508 Q1023.34 73.7508 1019.73 71.8063 Q1016.17 69.8214 1013.82 65.7705 L1013.82 72.576 L1006.33 72.576 L1006.33 9.54393 L1013.82 9.54393 L1013.82 34.0924 Z" fill="#000000" fill-rule="evenodd" fill-opacity="1" /><path clip-path="url(#clip500)" d="M 0 0 M1075.35 49.7694 Q1066.32 49.7694 1062.84 51.8354 Q1059.35 53.9013 1059.35 58.8839 Q1059.35 62.8538 1061.94 65.2034 Q1064.58 67.5124 1069.07 67.5124 Q1075.27 67.5124 1079 63.1374 Q1082.77 58.7219 1082.77 51.4303 L1082.77 49.7694 L1075.35 49.7694 M1090.22 46.6907 L1090.22 72.576 L1082.77 72.576 L1082.77 65.6895 Q1080.21 69.8214 1076.41 71.8063 Q1072.6 73.7508 1067.09 73.7508 Q1060.12 73.7508 1055.99 69.8619 Q1051.9 65.9325 1051.9 59.3701 Q1051.9 51.7138 1057 47.825 Q1062.15 43.9361 1072.31 43.9361 L1082.77 43.9361 L1082.77 43.2069 Q1082.77 38.0623 1079.36 35.2672 Q1076 32.4315 1069.88 32.4315 Q1066 32.4315 1062.31 33.3632 Q1058.62 34.295 1055.22 36.1584 L1055.22 29.2718 Q1059.31 27.692 1063.16 26.9223 Q1067.01 26.1121 1070.65 26.1121 Q1080.5 26.1121 1085.36 31.2163 Q1090.22 36.3204 1090.22 46.6907 Z" fill="#000000" fill-rule="evenodd" fill-opacity="1" /><path clip-path="url(#clip500)" d="M 0 0 M1130.61 49.9314 Q1130.61 41.7081 1127.2 37.0496 Q1123.84 32.3505 1117.93 32.3505 Q1112.01 32.3505 1108.61 37.0496 Q1105.25 41.7081 1105.25 49.9314 Q1105.25 58.1548 1108.61 62.8538 Q1112.01 67.5124 1117.93 67.5124 Q1123.84 67.5124 1127.2 62.8538 Q1130.61 58.1548 1130.61 49.9314 M1105.25 34.0924 Q1107.6 30.0415 1111.16 28.0971 Q1114.77 26.1121 1119.75 26.1121 Q1128.01 26.1121 1133.16 32.6746 Q1138.34 39.2371 1138.34 49.9314 Q1138.34 60.6258 1133.16 67.1883 Q1128.01 73.7508 1119.75 73.7508 Q1114.77 73.7508 1111.16 71.8063 Q1107.6 69.8214 1105.25 65.7705 L1105.25 72.576 L1097.75 72.576 L1097.75 9.54393 L1105.25 9.54393 L1105.25 34.0924 Z" fill="#000000" fill-rule="evenodd" fill-opacity="1" /><path clip-path="url(#clip500)" d="M 0 0 M1146.16 27.2059 L1153.62 27.2059 L1153.62 72.576 L1146.16 72.576 L1146.16 27.2059 M1146.16 9.54393 L1153.62 9.54393 L1153.62 18.9825 L1146.16 18.9825 L1146.16 9.54393 Z" fill="#000000" fill-rule="evenodd" fill-opacity="1" /><path clip-path="url(#clip500)" d="M 0 0 M1161.43 9.54393 L1168.89 9.54393 L1168.89 72.576 L1161.43 72.576 L1161.43 9.54393 Z" fill="#000000" fill-rule="evenodd" fill-opacity="1" /><path clip-path="url(#clip500)" d="M 0 0 M1176.71 27.2059 L1184.16 27.2059 L1184.16 72.576 L1176.71 72.576 L1176.71 27.2059 M1176.71 9.54393 L1184.16 9.54393 L1184.16 18.9825 L1176.71 18.9825 L1176.71 9.54393 Z" fill="#000000" fill-rule="evenodd" fill-opacity="1" /><path clip-path="url(#clip500)" d="M 0 0 M1199.35 14.324 L1199.35 27.2059 L1214.7 27.2059 L1214.7 32.9987 L1199.35 32.9987 L1199.35 57.6282 Q1199.35 63.1779 1200.85 64.7578 Q1202.39 66.3376 1207.05 66.3376 L1214.7 66.3376 L1214.7 72.576 L1207.05 72.576 Q1198.42 72.576 1195.14 69.3758 Q1191.86 66.1351 1191.86 57.6282 L1191.86 32.9987 L1186.39 32.9987 L1186.39 27.2059 L1191.86 27.2059 L1191.86 14.324 L1199.35 14.324 Z" fill="#000000" fill-rule="evenodd" fill-opacity="1" /><path clip-path="url(#clip500)" d="M 0 0 M1241.4 76.7889 Q1238.24 84.8907 1235.24 87.3618 Q1232.24 89.8329 1227.22 89.8329 L1221.27 89.8329 L1221.27 83.5945 L1225.64 83.5945 Q1228.72 83.5945 1230.42 82.1361 Q1232.12 80.6778 1234.19 75.2496 L1235.53 71.8468 L1217.18 27.2059 L1225.07 27.2059 L1239.25 62.6918 L1253.43 27.2059 L1261.33 27.2059 L1241.4 76.7889 Z" fill="#000000" fill-rule="evenodd" fill-opacity="1" /><path clip-path="url(#clip500)" d="M 0 0 M1325.37 34.0924 L1325.37 9.54393 L1332.83 9.54393 L1332.83 72.576 L1325.37 72.576 L1325.37 65.7705 Q1323.03 69.8214 1319.42 71.8063 Q1315.86 73.7508 1310.83 73.7508 Q1302.61 73.7508 1297.42 67.1883 Q1292.28 60.6258 1292.28 49.9314 Q1292.28 39.2371 1297.42 32.6746 Q1302.61 26.1121 1310.83 26.1121 Q1315.86 26.1121 1319.42 28.0971 Q1323.03 30.0415 1325.37 34.0924 M1299.98 49.9314 Q1299.98 58.1548 1303.34 62.8538 Q1306.74 67.5124 1312.66 67.5124 Q1318.57 67.5124 1321.97 62.8538 Q1325.37 58.1548 1325.37 49.9314 Q1325.37 41.7081 1321.97 37.0496 Q1318.57 32.3505 1312.66 32.3505 Q1306.74 32.3505 1303.34 37.0496 Q1299.98 41.7081 1299.98 49.9314 Z" fill="#000000" fill-rule="evenodd" fill-opacity="1" /><path clip-path="url(#clip500)" d="M 0 0 M1340.65 27.2059 L1348.1 27.2059 L1348.1 72.576 L1340.65 72.576 L1340.65 27.2059 M1340.65 9.54393 L1348.1 9.54393 L1348.1 18.9825 L1340.65 18.9825 L1340.65 9.54393 Z" fill="#000000" fill-rule="evenodd" fill-opacity="1" /><path clip-path="url(#clip500)" d="M 0 0 M1384.84 28.5427 L1384.84 35.5912 Q1381.68 33.9709 1378.28 33.1607 Q1374.88 32.3505 1371.23 32.3505 Q1365.68 32.3505 1362.89 34.0519 Q1360.13 35.7533 1360.13 39.156 Q1360.13 41.7486 1362.12 43.2475 Q1364.1 44.7058 1370.1 46.0426 L1372.65 46.6097 Q1380.59 48.3111 1383.91 51.4303 Q1387.27 54.509 1387.27 60.0587 Q1387.27 66.3781 1382.25 70.0644 Q1377.27 73.7508 1368.52 73.7508 Q1364.87 73.7508 1360.9 73.0216 Q1356.97 72.3329 1352.6 70.9151 L1352.6 63.2184 Q1356.73 65.3654 1360.74 66.4591 Q1364.75 67.5124 1368.68 67.5124 Q1373.95 67.5124 1376.78 65.73 Q1379.62 63.9071 1379.62 60.6258 Q1379.62 57.5877 1377.55 55.9673 Q1375.53 54.3469 1368.6 52.8481 L1366.01 52.2405 Q1359.08 50.7821 1356 47.7845 Q1352.92 44.7463 1352.92 39.4801 Q1352.92 33.0797 1357.46 29.5959 Q1362 26.1121 1370.34 26.1121 Q1374.47 26.1121 1378.12 26.7198 Q1381.76 27.3274 1384.84 28.5427 Z" fill="#000000" fill-rule="evenodd" fill-opacity="1" /><path clip-path="url(#clip500)" d="M 0 0 M1402.46 14.324 L1402.46 27.2059 L1417.82 27.2059 L1417.82 32.9987 L1402.46 32.9987 L1402.46 57.6282 Q1402.46 63.1779 1403.96 64.7578 Q1405.5 66.3376 1410.16 66.3376 L1417.82 66.3376 L1417.82 72.576 L1410.16 72.576 Q1401.53 72.576 1398.25 69.3758 Q1394.97 66.1351 1394.97 57.6282 L1394.97 32.9987 L1389.5 32.9987 L1389.5 27.2059 L1394.97 27.2059 L1394.97 14.324 L1402.46 14.324 Z" fill="#000000" fill-rule="evenodd" fill-opacity="1" /><path clip-path="url(#clip500)" d="M 0 0 M1451.93 34.1734 Q1450.67 33.4443 1449.17 33.1202 Q1447.71 32.7556 1445.93 32.7556 Q1439.61 32.7556 1436.21 36.8875 Q1432.85 40.9789 1432.85 48.6757 L1432.85 72.576 L1425.35 72.576 L1425.35 27.2059 L1432.85 27.2059 L1432.85 34.2544 Q1435.19 30.1225 1438.96 28.1376 Q1442.73 26.1121 1448.12 26.1121 Q1448.89 26.1121 1449.82 26.2337 Q1450.75 26.3147 1451.88 26.5172 L1451.93 34.1734 Z" fill="#000000" fill-rule="evenodd" fill-opacity="1" /><path clip-path="url(#clip500)" d="M 0 0 M1459.74 27.2059 L1467.2 27.2059 L1467.2 72.576 L1459.74 72.576 L1459.74 27.2059 M1459.74 9.54393 L1467.2 9.54393 L1467.2 18.9825 L1459.74 18.9825 L1459.74 9.54393 Z" fill="#000000" fill-rule="evenodd" fill-opacity="1" /><path clip-path="url(#clip500)" d="M 0 0 M1507.58 49.9314 Q1507.58 41.7081 1504.18 37.0496 Q1500.82 32.3505 1494.91 32.3505 Q1488.99 32.3505 1485.59 37.0496 Q1482.23 41.7081 1482.23 49.9314 Q1482.23 58.1548 1485.59 62.8538 Q1488.99 67.5124 1494.91 67.5124 Q1500.82 67.5124 1504.18 62.8538 Q1507.58 58.1548 1507.58 49.9314 M1482.23 34.0924 Q1484.58 30.0415 1488.14 28.0971 Q1491.75 26.1121 1496.73 26.1121 Q1504.99 26.1121 1510.14 32.6746 Q1515.32 39.2371 1515.32 49.9314 Q1515.32 60.6258 1510.14 67.1883 Q1504.99 73.7508 1496.73 73.7508 Q1491.75 73.7508 1488.14 71.8063 Q1484.58 69.8214 1482.23 65.7705 L1482.23 72.576 L1474.73 72.576 L1474.73 9.54393 L1482.23 9.54393 L1482.23 34.0924 Z" fill="#000000" fill-rule="evenodd" fill-opacity="1" /><path clip-path="url(#clip500)" d="M 0 0 M1522.37 54.671 L1522.37 27.2059 L1529.82 27.2059 L1529.82 54.3874 Q1529.82 60.8284 1532.34 64.0691 Q1534.85 67.2693 1539.87 67.2693 Q1545.91 67.2693 1549.39 63.421 Q1552.91 59.5726 1552.91 52.9291 L1552.91 27.2059 L1560.37 27.2059 L1560.37 72.576 L1552.91 72.576 L1552.91 65.6084 Q1550.2 69.7404 1546.59 71.7658 Q1543.03 73.7508 1538.29 73.7508 Q1530.47 73.7508 1526.42 68.8897 Q1522.37 64.0286 1522.37 54.671 M1541.13 26.1121 L1541.13 26.1121 Z" fill="#000000" fill-rule="evenodd" fill-opacity="1" /><path clip-path="url(#clip500)" d="M 0 0 M1575.56 14.324 L1575.56 27.2059 L1590.91 27.2059 L1590.91 32.9987 L1575.56 32.9987 L1575.56 57.6282 Q1575.56 63.1779 1577.06 64.7578 Q1578.6 66.3376 1583.26 66.3376 L1590.91 66.3376 L1590.91 72.576 L1583.26 72.576 Q1574.63 72.576 1571.35 69.3758 Q1568.06 66.1351 1568.06 57.6282 L1568.06 32.9987 L1562.6 32.9987 L1562.6 27.2059 L1568.06 27.2059 L1568.06 14.324 L1575.56 14.324 Z" fill="#000000" fill-rule="evenodd" fill-opacity="1" /><path clip-path="url(#clip500)" d="M 0 0 M1598.73 27.2059 L1606.18 27.2059 L1606.18 72.576 L1598.73 72.576 L1598.73 27.2059 M1598.73 9.54393 L1606.18 9.54393 L1606.18 18.9825 L1598.73 18.9825 L1598.73 9.54393 Z" fill="#000000" fill-rule="evenodd" fill-opacity="1" /><path clip-path="url(#clip500)" d="M 0 0 M1631.58 32.4315 Q1625.59 32.4315 1622.1 37.1306 Q1618.62 41.7891 1618.62 49.9314 Q1618.62 58.0738 1622.06 62.7728 Q1625.55 67.4314 1631.58 67.4314 Q1637.54 67.4314 1641.02 62.7323 Q1644.51 58.0333 1644.51 49.9314 Q1644.51 41.8701 1641.02 37.1711 Q1637.54 32.4315 1631.58 32.4315 M1631.58 26.1121 Q1641.3 26.1121 1646.85 32.4315 Q1652.4 38.7509 1652.4 49.9314 Q1652.4 61.0714 1646.85 67.4314 Q1641.3 73.7508 1631.58 73.7508 Q1621.82 73.7508 1616.27 67.4314 Q1610.76 61.0714 1610.76 49.9314 Q1610.76 38.7509 1616.27 32.4315 Q1621.82 26.1121 1631.58 26.1121 Z" fill="#000000" fill-rule="evenodd" fill-opacity="1" /><path clip-path="url(#clip500)" d="M 0 0 M1697.94 45.1919 L1697.94 72.576 L1690.48 72.576 L1690.48 45.4349 Q1690.48 38.994 1687.97 35.7938 Q1685.46 32.5936 1680.44 32.5936 Q1674.4 32.5936 1670.92 36.4419 Q1667.43 40.2903 1667.43 46.9338 L1667.43 72.576 L1659.94 72.576 L1659.94 27.2059 L1667.43 27.2059 L1667.43 34.2544 Q1670.11 30.163 1673.71 28.1376 Q1677.36 26.1121 1682.1 26.1121 Q1689.92 26.1121 1693.93 30.9732 Q1697.94 35.7938 1697.94 45.1919 Z" fill="#000000" fill-rule="evenodd" fill-opacity="1" /><path clip-path="url(#clip500)" d="M 0 0 M1306.93 738.876 L1294.04 756.222 L1307.6 774.524 L1300.69 774.524 L1290.31 760.519 L1279.94 774.524 L1273.03 774.524 L1286.88 755.872 L1274.21 738.876 L1281.12 738.876 L1290.57 751.575 L1300.02 738.876 L1306.93 738.876 Z" fill="#000000" fill-rule="evenodd" fill-opacity="1" /><path clip-path="url(#clip500)" d="M 0 0 M25.759 402.021 L30.6287 402.021 L30.6287 407.623 Q30.6287 410.774 31.9019 412.015 Q33.175 413.225 36.4852 413.225 L39.6362 413.225 L39.6362 403.581 L44.1877 403.581 L44.1877 413.225 L75.2842 413.225 L75.2842 419.113 L44.1877 419.113 L44.1877 424.715 L39.6362 424.715 L39.6362 419.113 L37.1536 419.113 Q31.2016 419.113 28.4962 416.344 Q25.759 413.575 25.759 407.559 L25.759 402.021 Z" fill="#000000" fill-rule="evenodd" fill-opacity="1" /><path clip-path="url(#clip500)" d="M 0 0 M25.8226 381.81 Q33.1432 386.075 40.3046 388.144 Q47.466 390.213 54.8184 390.213 Q62.1708 390.213 69.3959 388.144 Q76.5891 386.043 83.8779 381.81 L83.8779 386.903 Q76.3982 391.677 69.1731 394.064 Q61.948 396.419 54.8184 396.419 Q47.7206 396.419 40.5274 394.064 Q33.3342 391.709 25.8226 386.903 L25.8226 381.81 Z" fill="#000000" fill-rule="evenodd" fill-opacity="1" /><path clip-path="url(#clip500)" d="M 0 0 M39.6362 346.035 L56.9828 358.925 L75.2842 345.366 L75.2842 352.273 L61.2796 362.649 L75.2842 373.025 L75.2842 379.932 L56.6326 366.087 L39.6362 378.754 L39.6362 371.848 L52.3358 362.395 L39.6362 352.941 L39.6362 346.035 Z" fill="#000000" fill-rule="evenodd" fill-opacity="1" /><path clip-path="url(#clip500)" d="M 0 0 M25.8226 340.146 L25.8226 335.054 Q33.3342 330.28 40.5274 327.924 Q47.7206 325.537 54.8184 325.537 Q61.948 325.537 69.1731 327.924 Q76.3982 330.28 83.8779 335.054 L83.8779 340.146 Q76.5891 335.913 69.3959 333.844 Q62.1708 331.744 54.8184 331.744 Q47.466 331.744 40.3046 333.844 Q33.1432 335.913 25.8226 340.146 Z" fill="#000000" fill-rule="evenodd" fill-opacity="1" /><polyline clip-path="url(#clip502)" style="stroke:#808080; stroke-width:12; stroke-opacity:0.5; fill:none" points="
  294.744,636.86 294.744,520.758 
  "/>
<polyline clip-path="url(#clip502)" style="stroke:#808080; stroke-width:12; stroke-opacity:0.5; fill:none" points="
  362.182,636.86 362.182,380.469 
  "/>
<polyline clip-path="url(#clip502)" style="stroke:#808080; stroke-width:12; stroke-opacity:0.5; fill:none" points="
  391.92,636.86 391.92,181.671 
  "/>
<polyline clip-path="url(#clip502)" style="stroke:#808080; stroke-width:12; stroke-opacity:0.5; fill:none" points="
  977.124,636.86 977.124,435.204 
  "/>
<polyline clip-path="url(#clip502)" style="stroke:#808080; stroke-width:12; stroke-opacity:0.5; fill:none" points="
  1245.02,636.86 1245.02,280.141 
  "/>
<polyline clip-path="url(#clip502)" style="stroke:#808080; stroke-width:12; stroke-opacity:0.5; fill:none" points="
  1611.33,636.86 1611.33,440.92 
  "/>
<polyline clip-path="url(#clip502)" style="stroke:#808080; stroke-width:12; stroke-opacity:0.5; fill:none" points="
  2222.57,636.86 2222.57,507.135 
  "/>
<polyline clip-path="url(#clip502)" style="stroke:#808080; stroke-width:12; stroke-opacity:0.5; fill:none" points="
  2285.88,636.86 2285.88,540.222 
  "/>
<polyline clip-path="url(#clip502)" style="stroke:#00a98d; stroke-width:0; stroke-opacity:1; fill:none" points="
  294.744,520.758 362.182,380.469 391.92,181.671 
  "/>
<circle clip-path="url(#clip502)" cx="294.744" cy="520.758" r="14" fill="#8b0000" fill-rule="evenodd" fill-opacity="1" stroke="#000000" stroke-opacity="1" stroke-width="3.2"/>
<circle clip-path="url(#clip502)" cx="362.182" cy="380.469" r="14" fill="#8b0000" fill-rule="evenodd" fill-opacity="1" stroke="#000000" stroke-opacity="1" stroke-width="3.2"/>
<circle clip-path="url(#clip502)" cx="391.92" cy="181.671" r="14" fill="#8b0000" fill-rule="evenodd" fill-opacity="1" stroke="#000000" stroke-opacity="1" stroke-width="3.2"/>
<polyline clip-path="url(#clip502)" style="stroke:#8e971d; stroke-width:0; stroke-opacity:1; fill:none" points="
  977.124,435.204 1245.02,280.141 1611.33,440.92 2222.57,507.135 2285.88,540.222 
  "/>
<circle clip-path="url(#clip502)" cx="977.124" cy="435.204" r="14" fill="#8e971d" fill-rule="evenodd" fill-opacity="1" stroke="#000000" stroke-opacity="1" stroke-width="3.2"/>
<circle clip-path="url(#clip502)" cx="1245.02" cy="280.141" r="14" fill="#8e971d" fill-rule="evenodd" fill-opacity="1" stroke="#000000" stroke-opacity="1" stroke-width="3.2"/>
<circle clip-path="url(#clip502)" cx="1611.33" cy="440.92" r="14" fill="#8e971d" fill-rule="evenodd" fill-opacity="1" stroke="#000000" stroke-opacity="1" stroke-width="3.2"/>
<circle clip-path="url(#clip502)" cx="2222.57" cy="507.135" r="14" fill="#8e971d" fill-rule="evenodd" fill-opacity="1" stroke="#000000" stroke-opacity="1" stroke-width="3.2"/>
<circle clip-path="url(#clip502)" cx="2285.88" cy="540.222" r="14" fill="#8e971d" fill-rule="evenodd" fill-opacity="1" stroke="#000000" stroke-opacity="1" stroke-width="3.2"/>
<path clip-path="url(#clip502)" d="M979.669 612.86 L955.669 636.86 L979.669 660.86 L1003.67 636.86 L979.669 612.86 Z" fill="#008000" fill-rule="evenodd" fill-opacity="1" stroke="#000000" stroke-opacity="1" stroke-width="3.2"/>
<path clip-path="url(#clip502)" d="M391.92 612.86 L367.92 636.86 L391.92 660.86 L415.92 636.86 L391.92 612.86 Z" fill="#00008b" fill-rule="evenodd" fill-opacity="1" stroke="#000000" stroke-opacity="1" stroke-width="3.2"/>
<path clip-path="url(#clip502)" d="M350.099 612.86 L326.099 636.86 L350.099 660.86 L374.099 636.86 L350.099 612.86 Z" fill="#ff8c00" fill-rule="evenodd" fill-opacity="1" stroke="#000000" stroke-opacity="1" stroke-width="3.2"/>
<path clip-path="url(#clip500)" d="
M2432.21 496.086 L2832.76 496.086 L2832.76 193.686 L2432.21 193.686  Z
  " fill="#ffffff" fill-rule="evenodd" fill-opacity="1"/>
<polyline clip-path="url(#clip500)" style="stroke:#000000; stroke-width:4; stroke-opacity:1; fill:none" points="
  2432.21,496.086 2832.76,496.086 2832.76,193.686 2432.21,193.686 2432.21,496.086 
  "/>
<polyline clip-path="url(#clip500)" style="stroke:#00a98d; stroke-width:4; stroke-opacity:1; fill:none" points="
  2461.01,254.166 2633.81,254.166 
  "/>
<circle clip-path="url(#clip500)" cx="2561.81" cy="254.166" r="23" fill="#8b0000" fill-rule="evenodd" fill-opacity="1" stroke="#000000" stroke-opacity="1" stroke-width="5.12"/>
<circle clip-path="url(#clip500)" cx="2561.81" cy="254.166" r="23" fill="#8b0000" fill-rule="evenodd" fill-opacity="1" stroke="#000000" stroke-opacity="1" stroke-width="5.12"/>
<circle clip-path="url(#clip500)" cx="2561.81" cy="254.166" r="23" fill="#8b0000" fill-rule="evenodd" fill-opacity="1" stroke="#000000" stroke-opacity="1" stroke-width="5.12"/>
<path clip-path="url(#clip500)" d="M 0 0 M2662.61 236.886 L2691.85 236.886 L2691.85 240.821 L2679.58 240.821 L2679.58 271.446 L2674.88 271.446 L2674.88 240.821 L2662.61 240.821 L2662.61 236.886 Z" fill="#000000" fill-rule="evenodd" fill-opacity="1" /><path clip-path="url(#clip500)" d="M 0 0 M2700.25 258.414 Q2695.09 258.414 2693.1 259.594 Q2691.11 260.775 2691.11 263.622 Q2691.11 265.89 2692.59 267.233 Q2694.09 268.552 2696.66 268.552 Q2700.2 268.552 2702.33 266.052 Q2704.48 263.529 2704.48 259.363 L2704.48 258.414 L2700.25 258.414 M2708.74 256.654 L2708.74 271.446 L2704.48 271.446 L2704.48 267.511 Q2703.03 269.872 2700.85 271.006 Q2698.67 272.117 2695.53 272.117 Q2691.55 272.117 2689.18 269.895 Q2686.85 267.65 2686.85 263.9 Q2686.85 259.525 2689.76 257.303 Q2692.7 255.08 2698.51 255.08 L2704.48 255.08 L2704.48 254.664 Q2704.48 251.724 2702.54 250.127 Q2700.62 248.506 2697.12 248.506 Q2694.9 248.506 2692.8 249.039 Q2690.69 249.571 2688.74 250.636 L2688.74 246.701 Q2691.08 245.798 2693.28 245.358 Q2695.48 244.895 2697.56 244.895 Q2703.19 244.895 2705.97 247.812 Q2708.74 250.729 2708.74 256.654 Z" fill="#000000" fill-rule="evenodd" fill-opacity="1" /><path clip-path="url(#clip500)" d="M 0 0 M2713.21 245.52 L2717.47 245.52 L2717.47 271.446 L2713.21 271.446 L2713.21 245.52 M2713.21 235.428 L2717.47 235.428 L2717.47 240.821 L2713.21 240.821 L2713.21 235.428 Z" fill="#000000" fill-rule="evenodd" fill-opacity="1" /><path clip-path="url(#clip500)" d="M 0 0 M2721.94 235.428 L2726.2 235.428 L2726.2 271.446 L2721.94 271.446 L2721.94 235.428 Z" fill="#000000" fill-rule="evenodd" fill-opacity="1" /><polyline clip-path="url(#clip500)" style="stroke:#00a8cb; stroke-width:4; stroke-opacity:1; fill:none" points="
  2461.01,314.646 2633.81,314.646 
  "/>
<path clip-path="url(#clip500)" d="M2561.81 289.046 L2536.21 314.646 L2561.81 340.246 L2587.41 314.646 L2561.81 289.046 Z" fill="#008000" fill-rule="evenodd" fill-opacity="1" stroke="#000000" stroke-opacity="1" stroke-width="3.41333"/>
<path clip-path="url(#clip500)" d="M 0 0 M2662.61 297.366 L2684.46 297.366 L2684.46 301.301 L2667.29 301.301 L2667.29 311.533 L2683.74 311.533 L2683.74 315.468 L2667.29 315.468 L2667.29 327.991 L2684.88 327.991 L2684.88 331.926 L2662.61 331.926 L2662.61 297.366 Z" fill="#000000" fill-rule="evenodd" fill-opacity="1" /><polyline clip-path="url(#clip500)" style="stroke:#9b7fe8; stroke-width:4; stroke-opacity:1; fill:none" points="
  2461.01,375.126 2633.81,375.126 
  "/>
<path clip-path="url(#clip500)" d="M2561.81 349.526 L2536.21 375.126 L2561.81 400.726 L2587.41 375.126 L2561.81 349.526 Z" fill="#00008b" fill-rule="evenodd" fill-opacity="1" stroke="#000000" stroke-opacity="1" stroke-width="3.41333"/>
<path clip-path="url(#clip500)" d="M 0 0 M2675.8 392.406 L2662.61 357.846 L2667.49 357.846 L2678.44 386.943 L2689.42 357.846 L2694.28 357.846 L2681.11 392.406 L2675.8 392.406 Z" fill="#000000" fill-rule="evenodd" fill-opacity="1" /><path clip-path="url(#clip500)" d="M 0 0 M2706.85 379.374 Q2701.68 379.374 2699.69 380.554 Q2697.7 381.735 2697.7 384.582 Q2697.7 386.85 2699.18 388.193 Q2700.69 389.512 2703.26 389.512 Q2706.8 389.512 2708.93 387.012 Q2711.08 384.489 2711.08 380.323 L2711.08 379.374 L2706.85 379.374 M2715.34 377.614 L2715.34 392.406 L2711.08 392.406 L2711.08 388.471 Q2709.62 390.832 2707.45 391.966 Q2705.27 393.077 2702.12 393.077 Q2698.14 393.077 2695.78 390.855 Q2693.44 388.61 2693.44 384.86 Q2693.44 380.485 2696.36 378.263 Q2699.3 376.04 2705.11 376.04 L2711.08 376.04 L2711.08 375.624 Q2711.08 372.684 2709.14 371.087 Q2707.22 369.466 2703.72 369.466 Q2701.5 369.466 2699.39 369.999 Q2697.29 370.531 2695.34 371.596 L2695.34 367.661 Q2697.68 366.758 2699.88 366.318 Q2702.08 365.855 2704.16 365.855 Q2709.79 365.855 2712.56 368.772 Q2715.34 371.689 2715.34 377.614 Z" fill="#000000" fill-rule="evenodd" fill-opacity="1" /><path clip-path="url(#clip500)" d="M 0 0 M2736.38 376.202 Q2737.89 376.712 2739.3 378.378 Q2740.73 380.045 2742.17 382.962 L2746.92 392.406 L2741.89 392.406 L2737.47 383.54 Q2735.76 380.068 2734.14 378.934 Q2732.54 377.8 2729.76 377.8 L2724.67 377.8 L2724.67 392.406 L2719.99 392.406 L2719.99 357.846 L2730.55 357.846 Q2736.48 357.846 2739.39 360.323 Q2742.31 362.8 2742.31 367.8 Q2742.31 371.064 2740.78 373.216 Q2739.28 375.369 2736.38 376.202 M2724.67 361.689 L2724.67 373.957 L2730.55 373.957 Q2733.93 373.957 2735.64 372.406 Q2737.38 370.832 2737.38 367.8 Q2737.38 364.767 2735.64 363.239 Q2733.93 361.689 2730.55 361.689 L2724.67 361.689 Z" fill="#000000" fill-rule="evenodd" fill-opacity="1" /><polyline clip-path="url(#clip500)" style="stroke:#608cf6; stroke-width:4; stroke-opacity:1; fill:none" points="
  2461.01,435.606 2633.81,435.606 
  "/>
<path clip-path="url(#clip500)" d="M2561.81 410.006 L2536.21 435.606 L2561.81 461.206 L2587.41 435.606 L2561.81 410.006 Z" fill="#ff8c00" fill-rule="evenodd" fill-opacity="1" stroke="#000000" stroke-opacity="1" stroke-width="3.41333"/>
<path clip-path="url(#clip500)" d="M 0 0 M2690.48 420.988 L2690.48 425.919 Q2688.12 423.719 2685.43 422.632 Q2682.77 421.544 2679.76 421.544 Q2673.84 421.544 2670.69 425.178 Q2667.54 428.789 2667.54 435.641 Q2667.54 442.469 2670.69 446.104 Q2673.84 449.715 2679.76 449.715 Q2682.77 449.715 2685.43 448.627 Q2688.12 447.539 2690.48 445.34 L2690.48 450.224 Q2688.03 451.891 2685.27 452.724 Q2682.54 453.557 2679.49 453.557 Q2671.64 453.557 2667.12 448.766 Q2662.61 443.951 2662.61 435.641 Q2662.61 427.307 2667.12 422.516 Q2671.64 417.701 2679.49 417.701 Q2682.59 417.701 2685.32 418.534 Q2688.07 419.344 2690.48 420.988 Z" fill="#000000" fill-rule="evenodd" fill-opacity="1" /><path clip-path="url(#clip500)" d="M 0 0 M2704.05 452.886 L2690.85 418.326 L2695.74 418.326 L2706.68 447.423 L2717.66 418.326 L2722.52 418.326 L2709.35 452.886 L2704.05 452.886 Z" fill="#000000" fill-rule="evenodd" fill-opacity="1" /><path clip-path="url(#clip500)" d="M 0 0 M2735.09 439.854 Q2729.92 439.854 2727.93 441.034 Q2725.94 442.215 2725.94 445.062 Q2725.94 447.33 2727.42 448.673 Q2728.93 449.992 2731.5 449.992 Q2735.04 449.992 2737.17 447.492 Q2739.32 444.969 2739.32 440.803 L2739.32 439.854 L2735.09 439.854 M2743.58 438.094 L2743.58 452.886 L2739.32 452.886 L2739.32 448.951 Q2737.86 451.312 2735.69 452.446 Q2733.51 453.557 2730.36 453.557 Q2726.38 453.557 2724.02 451.335 Q2721.68 449.09 2721.68 445.34 Q2721.68 440.965 2724.6 438.743 Q2727.54 436.52 2733.35 436.52 L2739.32 436.52 L2739.32 436.104 Q2739.32 433.164 2737.38 431.567 Q2735.46 429.946 2731.96 429.946 Q2729.74 429.946 2727.63 430.479 Q2725.53 431.011 2723.58 432.076 L2723.58 428.141 Q2725.92 427.238 2728.12 426.798 Q2730.32 426.335 2732.4 426.335 Q2738.03 426.335 2740.8 429.252 Q2743.58 432.169 2743.58 438.094 Z" fill="#000000" fill-rule="evenodd" fill-opacity="1" /><path clip-path="url(#clip500)" d="M 0 0 M2764.62 436.682 Q2766.13 437.192 2767.54 438.858 Q2768.98 440.525 2770.41 443.442 L2775.16 452.886 L2770.13 452.886 L2765.71 444.02 Q2764 440.548 2762.38 439.414 Q2760.78 438.28 2758 438.28 L2752.91 438.28 L2752.91 452.886 L2748.23 452.886 L2748.23 418.326 L2758.79 418.326 Q2764.72 418.326 2767.63 420.803 Q2770.55 423.28 2770.55 428.28 Q2770.55 431.544 2769.02 433.696 Q2767.52 435.849 2764.62 436.682 M2752.91 422.169 L2752.91 434.437 L2758.79 434.437 Q2762.17 434.437 2763.88 432.886 Q2765.62 431.312 2765.62 428.28 Q2765.62 425.247 2763.88 423.719 Q2762.17 422.169 2758.79 422.169 L2752.91 422.169 Z" fill="#000000" fill-rule="evenodd" fill-opacity="1" /><path clip-path="url(#clip500)" d="
M235.01 1436.86 L2373.86 1436.86 L2373.86 913.392 L235.01 913.392  Z
  " fill="#ffffff" fill-rule="evenodd" fill-opacity="1"/>
<defs>
  <clipPath id="clip503">
    <rect x="235" y="913" width="2140" height="524"/>
  </clipPath>
</defs>
<polyline clip-path="url(#clip503)" style="stroke:#000000; stroke-width:2; stroke-opacity:0.1; fill:none" points="
  530.821,1436.86 530.821,913.392 
  "/>
<polyline clip-path="url(#clip503)" style="stroke:#000000; stroke-width:2; stroke-opacity:0.1; fill:none" points="
  976.479,1436.86 976.479,913.392 
  "/>
<polyline clip-path="url(#clip503)" style="stroke:#000000; stroke-width:2; stroke-opacity:0.1; fill:none" points="
  1422.14,1436.86 1422.14,913.392 
  "/>
<polyline clip-path="url(#clip503)" style="stroke:#000000; stroke-width:2; stroke-opacity:0.1; fill:none" points="
  1867.8,1436.86 1867.8,913.392 
  "/>
<polyline clip-path="url(#clip503)" style="stroke:#000000; stroke-width:2; stroke-opacity:0.1; fill:none" points="
  2313.45,1436.86 2313.45,913.392 
  "/>
<polyline clip-path="url(#clip503)" style="stroke:#000000; stroke-width:2; stroke-opacity:0.1; fill:none" points="
  235.01,1436.86 2373.86,1436.86 
  "/>
<polyline clip-path="url(#clip503)" style="stroke:#000000; stroke-width:2; stroke-opacity:0.1; fill:none" points="
  235.01,1323.06 2373.86,1323.06 
  "/>
<polyline clip-path="url(#clip503)" style="stroke:#000000; stroke-width:2; stroke-opacity:0.1; fill:none" points="
  235.01,1209.27 2373.86,1209.27 
  "/>
<polyline clip-path="url(#clip503)" style="stroke:#000000; stroke-width:2; stroke-opacity:0.1; fill:none" points="
  235.01,1095.47 2373.86,1095.47 
  "/>
<polyline clip-path="url(#clip503)" style="stroke:#000000; stroke-width:2; stroke-opacity:0.1; fill:none" points="
  235.01,981.671 2373.86,981.671 
  "/>
<polyline clip-path="url(#clip500)" style="stroke:#000000; stroke-width:4; stroke-opacity:1; fill:none" points="
  235.01,1436.86 2373.86,1436.86 
  "/>
<polyline clip-path="url(#clip500)" style="stroke:#000000; stroke-width:4; stroke-opacity:1; fill:none" points="
  235.01,1436.86 235.01,913.392 
  "/>
<polyline clip-path="url(#clip500)" style="stroke:#000000; stroke-width:4; stroke-opacity:1; fill:none" points="
  530.821,1436.86 530.821,1430.58 
  "/>
<polyline clip-path="url(#clip500)" style="stroke:#000000; stroke-width:4; stroke-opacity:1; fill:none" points="
  976.479,1436.86 976.479,1430.58 
  "/>
<polyline clip-path="url(#clip500)" style="stroke:#000000; stroke-width:4; stroke-opacity:1; fill:none" points="
  1422.14,1436.86 1422.14,1430.58 
  "/>
<polyline clip-path="url(#clip500)" style="stroke:#000000; stroke-width:4; stroke-opacity:1; fill:none" points="
  1867.8,1436.86 1867.8,1430.58 
  "/>
<polyline clip-path="url(#clip500)" style="stroke:#000000; stroke-width:4; stroke-opacity:1; fill:none" points="
  2313.45,1436.86 2313.45,1430.58 
  "/>
<polyline clip-path="url(#clip500)" style="stroke:#000000; stroke-width:4; stroke-opacity:1; fill:none" points="
  235.01,1436.86 260.676,1436.86 
  "/>
<polyline clip-path="url(#clip500)" style="stroke:#000000; stroke-width:4; stroke-opacity:1; fill:none" points="
  235.01,1323.06 260.676,1323.06 
  "/>
<polyline clip-path="url(#clip500)" style="stroke:#000000; stroke-width:4; stroke-opacity:1; fill:none" points="
  235.01,1209.27 260.676,1209.27 
  "/>
<polyline clip-path="url(#clip500)" style="stroke:#000000; stroke-width:4; stroke-opacity:1; fill:none" points="
  235.01,1095.47 260.676,1095.47 
  "/>
<polyline clip-path="url(#clip500)" style="stroke:#000000; stroke-width:4; stroke-opacity:1; fill:none" points="
  235.01,981.671 260.676,981.671 
  "/>
<path clip-path="url(#clip500)" d="M 0 0 M511.689 1477.85 L524.166 1477.85 L524.166 1481.64 L511.689 1481.64 L511.689 1477.85 Z" fill="#000000" fill-rule="evenodd" fill-opacity="1" /><path clip-path="url(#clip500)" d="M 0 0 M530.046 1488.8 L537.685 1488.8 L537.685 1462.43 L529.374 1464.1 L529.374 1459.84 L537.638 1458.17 L542.314 1458.17 L542.314 1488.8 L549.953 1488.8 L549.953 1492.73 L530.046 1492.73 L530.046 1488.8 Z" fill="#000000" fill-rule="evenodd" fill-opacity="1" /><path clip-path="url(#clip500)" d="M 0 0 M976.479 1461.25 Q972.868 1461.25 971.039 1464.82 Q969.234 1468.36 969.234 1475.49 Q969.234 1482.59 971.039 1486.16 Q972.868 1489.7 976.479 1489.7 Q980.113 1489.7 981.919 1486.16 Q983.748 1482.59 983.748 1475.49 Q983.748 1468.36 981.919 1464.82 Q980.113 1461.25 976.479 1461.25 M976.479 1457.55 Q982.289 1457.55 985.345 1462.15 Q988.424 1466.74 988.424 1475.49 Q988.424 1484.21 985.345 1488.82 Q982.289 1493.4 976.479 1493.4 Q970.669 1493.4 967.59 1488.82 Q964.535 1484.21 964.535 1475.49 Q964.535 1466.74 967.59 1462.15 Q970.669 1457.55 976.479 1457.55 Z" fill="#000000" fill-rule="evenodd" fill-opacity="1" /><path clip-path="url(#clip500)" d="M 0 0 M1412.52 1488.8 L1420.16 1488.8 L1420.16 1462.43 L1411.85 1464.1 L1411.85 1459.84 L1420.11 1458.17 L1424.79 1458.17 L1424.79 1488.8 L1432.43 1488.8 L1432.43 1492.73 L1412.52 1492.73 L1412.52 1488.8 Z" fill="#000000" fill-rule="evenodd" fill-opacity="1" /><path clip-path="url(#clip500)" d="M 0 0 M1862.45 1488.8 L1878.77 1488.8 L1878.77 1492.73 L1856.82 1492.73 L1856.82 1488.8 Q1859.49 1486.04 1864.07 1481.41 Q1868.67 1476.76 1869.86 1475.42 Q1872.1 1472.89 1872.98 1471.16 Q1873.88 1469.4 1873.88 1467.71 Q1873.88 1464.95 1871.94 1463.22 Q1870.02 1461.48 1866.92 1461.48 Q1864.72 1461.48 1862.26 1462.25 Q1859.83 1463.01 1857.05 1464.56 L1857.05 1459.84 Q1859.88 1458.7 1862.33 1458.13 Q1864.79 1457.55 1866.82 1457.55 Q1872.19 1457.55 1875.39 1460.23 Q1878.58 1462.92 1878.58 1467.41 Q1878.58 1469.54 1877.77 1471.46 Q1876.99 1473.36 1874.88 1475.95 Q1874.3 1476.62 1871.2 1479.84 Q1868.1 1483.03 1862.45 1488.8 Z" fill="#000000" fill-rule="evenodd" fill-opacity="1" /><path clip-path="url(#clip500)" d="M 0 0 M2317.7 1474.1 Q2321.06 1474.82 2322.93 1477.08 Q2324.83 1479.35 2324.83 1482.69 Q2324.83 1487.8 2321.31 1490.6 Q2317.79 1493.4 2311.31 1493.4 Q2309.14 1493.4 2306.82 1492.96 Q2304.53 1492.55 2302.08 1491.69 L2302.08 1487.18 Q2304.02 1488.31 2306.34 1488.89 Q2308.65 1489.47 2311.17 1489.47 Q2315.57 1489.47 2317.86 1487.73 Q2320.18 1486 2320.18 1482.69 Q2320.18 1479.63 2318.03 1477.92 Q2315.9 1476.18 2312.08 1476.18 L2308.05 1476.18 L2308.05 1472.34 L2312.26 1472.34 Q2315.71 1472.34 2317.54 1470.97 Q2319.37 1469.58 2319.37 1466.99 Q2319.37 1464.33 2317.47 1462.92 Q2315.59 1461.48 2312.08 1461.48 Q2310.15 1461.48 2307.96 1461.9 Q2305.76 1462.32 2303.12 1463.19 L2303.12 1459.03 Q2305.78 1458.29 2308.09 1457.92 Q2310.43 1457.55 2312.49 1457.55 Q2317.82 1457.55 2320.92 1459.98 Q2324.02 1462.38 2324.02 1466.51 Q2324.02 1469.38 2322.38 1471.37 Q2320.73 1473.33 2317.7 1474.1 Z" fill="#000000" fill-rule="evenodd" fill-opacity="1" /><path clip-path="url(#clip500)" d="M 0 0 M130.285 1422.66 Q126.673 1422.66 124.845 1426.22 Q123.039 1429.76 123.039 1436.89 Q123.039 1444 124.845 1447.57 Q126.673 1451.11 130.285 1451.11 Q133.919 1451.11 135.724 1447.57 Q137.553 1444 137.553 1436.89 Q137.553 1429.76 135.724 1426.22 Q133.919 1422.66 130.285 1422.66 M130.285 1418.95 Q136.095 1418.95 139.15 1423.56 Q142.229 1428.14 142.229 1436.89 Q142.229 1445.62 139.15 1450.23 Q136.095 1454.81 130.285 1454.81 Q124.474 1454.81 121.396 1450.23 Q118.34 1445.62 118.34 1436.89 Q118.34 1428.14 121.396 1423.56 Q124.474 1418.95 130.285 1418.95 Z" fill="#000000" fill-rule="evenodd" fill-opacity="1" /><path clip-path="url(#clip500)" d="M 0 0 M147.298 1448.26 L152.183 1448.26 L152.183 1454.14 L147.298 1454.14 L147.298 1448.26 Z" fill="#000000" fill-rule="evenodd" fill-opacity="1" /><path clip-path="url(#clip500)" d="M 0 0 M167.252 1422.66 Q163.641 1422.66 161.812 1426.22 Q160.007 1429.76 160.007 1436.89 Q160.007 1444 161.812 1447.57 Q163.641 1451.11 167.252 1451.11 Q170.886 1451.11 172.692 1447.57 Q174.52 1444 174.52 1436.89 Q174.52 1429.76 172.692 1426.22 Q170.886 1422.66 167.252 1422.66 M167.252 1418.95 Q173.062 1418.95 176.118 1423.56 Q179.196 1428.14 179.196 1436.89 Q179.196 1445.62 176.118 1450.23 Q173.062 1454.81 167.252 1454.81 Q161.442 1454.81 158.363 1450.23 Q155.308 1445.62 155.308 1436.89 Q155.308 1428.14 158.363 1423.56 Q161.442 1418.95 167.252 1418.95 Z" fill="#000000" fill-rule="evenodd" fill-opacity="1" /><path clip-path="url(#clip500)" d="M 0 0 M194.266 1422.66 Q190.655 1422.66 188.826 1426.22 Q187.02 1429.76 187.02 1436.89 Q187.02 1444 188.826 1447.57 Q190.655 1451.11 194.266 1451.11 Q197.9 1451.11 199.705 1447.57 Q201.534 1444 201.534 1436.89 Q201.534 1429.76 199.705 1426.22 Q197.9 1422.66 194.266 1422.66 M194.266 1418.95 Q200.076 1418.95 203.131 1423.56 Q206.21 1428.14 206.21 1436.89 Q206.21 1445.62 203.131 1450.23 Q200.076 1454.81 194.266 1454.81 Q188.456 1454.81 185.377 1450.23 Q182.321 1445.62 182.321 1436.89 Q182.321 1428.14 185.377 1423.56 Q188.456 1418.95 194.266 1418.95 Z" fill="#000000" fill-rule="evenodd" fill-opacity="1" /><path clip-path="url(#clip500)" d="M 0 0 M132.877 1308.86 Q129.266 1308.86 127.437 1312.43 Q125.632 1315.97 125.632 1323.1 Q125.632 1330.2 127.437 1333.77 Q129.266 1337.31 132.877 1337.31 Q136.511 1337.31 138.317 1333.77 Q140.146 1330.2 140.146 1323.1 Q140.146 1315.97 138.317 1312.43 Q136.511 1308.86 132.877 1308.86 M132.877 1305.16 Q138.687 1305.16 141.743 1309.76 Q144.821 1314.35 144.821 1323.1 Q144.821 1331.82 141.743 1336.43 Q138.687 1341.01 132.877 1341.01 Q127.067 1341.01 123.988 1336.43 Q120.933 1331.82 120.933 1323.1 Q120.933 1314.35 123.988 1309.76 Q127.067 1305.16 132.877 1305.16 Z" fill="#000000" fill-rule="evenodd" fill-opacity="1" /><path clip-path="url(#clip500)" d="M 0 0 M149.891 1334.46 L154.775 1334.46 L154.775 1340.34 L149.891 1340.34 L149.891 1334.46 Z" fill="#000000" fill-rule="evenodd" fill-opacity="1" /><path clip-path="url(#clip500)" d="M 0 0 M163.872 1336.41 L180.192 1336.41 L180.192 1340.34 L158.247 1340.34 L158.247 1336.41 Q160.909 1333.65 165.493 1329.02 Q170.099 1324.37 171.28 1323.03 Q173.525 1320.5 174.405 1318.77 Q175.307 1317.01 175.307 1315.32 Q175.307 1312.56 173.363 1310.83 Q171.442 1309.09 168.34 1309.09 Q166.141 1309.09 163.687 1309.86 Q161.257 1310.62 158.479 1312.17 L158.479 1307.45 Q161.303 1306.31 163.757 1305.74 Q166.21 1305.16 168.247 1305.16 Q173.618 1305.16 176.812 1307.84 Q180.006 1310.53 180.006 1315.02 Q180.006 1317.15 179.196 1319.07 Q178.409 1320.97 176.303 1323.56 Q175.724 1324.23 172.622 1327.45 Q169.52 1330.64 163.872 1336.41 Z" fill="#000000" fill-rule="evenodd" fill-opacity="1" /><path clip-path="url(#clip500)" d="M 0 0 M185.307 1305.78 L203.664 1305.78 L203.664 1309.72 L189.59 1309.72 L189.59 1318.19 Q190.608 1317.84 191.627 1317.68 Q192.645 1317.5 193.664 1317.5 Q199.451 1317.5 202.83 1320.67 Q206.21 1323.84 206.21 1329.25 Q206.21 1334.83 202.738 1337.94 Q199.266 1341.01 192.946 1341.01 Q190.77 1341.01 188.502 1340.64 Q186.256 1340.27 183.849 1339.53 L183.849 1334.83 Q185.932 1335.97 188.155 1336.52 Q190.377 1337.08 192.854 1337.08 Q196.858 1337.08 199.196 1334.97 Q201.534 1332.87 201.534 1329.25 Q201.534 1325.64 199.196 1323.54 Q196.858 1321.43 192.854 1321.43 Q190.979 1321.43 189.104 1321.85 Q187.252 1322.26 185.307 1323.14 L185.307 1305.78 Z" fill="#000000" fill-rule="evenodd" fill-opacity="1" /><path clip-path="url(#clip500)" d="M 0 0 M131.28 1195.06 Q127.669 1195.06 125.84 1198.63 Q124.035 1202.17 124.035 1209.3 Q124.035 1216.41 125.84 1219.97 Q127.669 1223.51 131.28 1223.51 Q134.914 1223.51 136.72 1219.97 Q138.548 1216.41 138.548 1209.3 Q138.548 1202.17 136.72 1198.63 Q134.914 1195.06 131.28 1195.06 M131.28 1191.36 Q137.09 1191.36 140.146 1195.97 Q143.224 1200.55 143.224 1209.3 Q143.224 1218.03 140.146 1222.63 Q137.09 1227.22 131.28 1227.22 Q125.47 1227.22 122.391 1222.63 Q119.336 1218.03 119.336 1209.3 Q119.336 1200.55 122.391 1195.97 Q125.47 1191.36 131.28 1191.36 Z" fill="#000000" fill-rule="evenodd" fill-opacity="1" /><path clip-path="url(#clip500)" d="M 0 0 M148.294 1220.67 L153.178 1220.67 L153.178 1226.55 L148.294 1226.55 L148.294 1220.67 Z" fill="#000000" fill-rule="evenodd" fill-opacity="1" /><path clip-path="url(#clip500)" d="M 0 0 M158.294 1191.99 L176.65 1191.99 L176.65 1195.92 L162.576 1195.92 L162.576 1204.39 Q163.595 1204.05 164.613 1203.88 Q165.632 1203.7 166.65 1203.7 Q172.437 1203.7 175.817 1206.87 Q179.196 1210.04 179.196 1215.46 Q179.196 1221.04 175.724 1224.14 Q172.252 1227.22 165.932 1227.22 Q163.757 1227.22 161.488 1226.85 Q159.243 1226.48 156.835 1225.74 L156.835 1221.04 Q158.919 1222.17 161.141 1222.73 Q163.363 1223.28 165.84 1223.28 Q169.845 1223.28 172.182 1221.17 Q174.52 1219.07 174.52 1215.46 Q174.52 1211.85 172.182 1209.74 Q169.845 1207.63 165.84 1207.63 Q163.965 1207.63 162.09 1208.05 Q160.238 1208.47 158.294 1209.35 L158.294 1191.99 Z" fill="#000000" fill-rule="evenodd" fill-opacity="1" /><path clip-path="url(#clip500)" d="M 0 0 M194.266 1195.06 Q190.655 1195.06 188.826 1198.63 Q187.02 1202.17 187.02 1209.3 Q187.02 1216.41 188.826 1219.97 Q190.655 1223.51 194.266 1223.51 Q197.9 1223.51 199.705 1219.97 Q201.534 1216.41 201.534 1209.3 Q201.534 1202.17 199.705 1198.63 Q197.9 1195.06 194.266 1195.06 M194.266 1191.36 Q200.076 1191.36 203.131 1195.97 Q206.21 1200.55 206.21 1209.3 Q206.21 1218.03 203.131 1222.63 Q200.076 1227.22 194.266 1227.22 Q188.456 1227.22 185.377 1222.63 Q182.321 1218.03 182.321 1209.3 Q182.321 1200.55 185.377 1195.97 Q188.456 1191.36 194.266 1191.36 Z" fill="#000000" fill-rule="evenodd" fill-opacity="1" /><path clip-path="url(#clip500)" d="M 0 0 M132.183 1081.27 Q128.572 1081.27 126.743 1084.83 Q124.937 1088.37 124.937 1095.5 Q124.937 1102.61 126.743 1106.17 Q128.572 1109.72 132.183 1109.72 Q135.817 1109.72 137.622 1106.17 Q139.451 1102.61 139.451 1095.5 Q139.451 1088.37 137.622 1084.83 Q135.817 1081.27 132.183 1081.27 M132.183 1077.56 Q137.993 1077.56 141.048 1082.17 Q144.127 1086.75 144.127 1095.5 Q144.127 1104.23 141.048 1108.84 Q137.993 1113.42 132.183 1113.42 Q126.373 1113.42 123.294 1108.84 Q120.238 1104.23 120.238 1095.5 Q120.238 1086.75 123.294 1082.17 Q126.373 1077.56 132.183 1077.56 Z" fill="#000000" fill-rule="evenodd" fill-opacity="1" /><path clip-path="url(#clip500)" d="M 0 0 M149.196 1106.87 L154.081 1106.87 L154.081 1112.75 L149.196 1112.75 L149.196 1106.87 Z" fill="#000000" fill-rule="evenodd" fill-opacity="1" /><path clip-path="url(#clip500)" d="M 0 0 M157.97 1078.19 L180.192 1078.19 L180.192 1080.18 L167.645 1112.75 L162.761 1112.75 L174.567 1082.12 L157.97 1082.12 L157.97 1078.19 Z" fill="#000000" fill-rule="evenodd" fill-opacity="1" /><path clip-path="url(#clip500)" d="M 0 0 M185.307 1078.19 L203.664 1078.19 L203.664 1082.12 L189.59 1082.12 L189.59 1090.6 Q190.608 1090.25 191.627 1090.09 Q192.645 1089.9 193.664 1089.9 Q199.451 1089.9 202.83 1093.07 Q206.21 1096.24 206.21 1101.66 Q206.21 1107.24 202.738 1110.34 Q199.266 1113.42 192.946 1113.42 Q190.77 1113.42 188.502 1113.05 Q186.256 1112.68 183.849 1111.94 L183.849 1107.24 Q185.932 1108.37 188.155 1108.93 Q190.377 1109.48 192.854 1109.48 Q196.858 1109.48 199.196 1107.38 Q201.534 1105.27 201.534 1101.66 Q201.534 1098.05 199.196 1095.94 Q196.858 1093.84 192.854 1093.84 Q190.979 1093.84 189.104 1094.25 Q187.252 1094.67 185.307 1095.55 L185.307 1078.19 Z" fill="#000000" fill-rule="evenodd" fill-opacity="1" /><path clip-path="url(#clip500)" d="M 0 0 M122.322 995.015 L129.96 995.015 L129.96 968.65 L121.65 970.316 L121.65 966.057 L129.914 964.391 L134.59 964.391 L134.59 995.015 L142.229 995.015 L142.229 998.951 L122.322 998.951 L122.322 995.015 Z" fill="#000000" fill-rule="evenodd" fill-opacity="1" /><path clip-path="url(#clip500)" d="M 0 0 M147.298 993.071 L152.183 993.071 L152.183 998.951 L147.298 998.951 L147.298 993.071 Z" fill="#000000" fill-rule="evenodd" fill-opacity="1" /><path clip-path="url(#clip500)" d="M 0 0 M167.252 967.469 Q163.641 967.469 161.812 971.034 Q160.007 974.576 160.007 981.705 Q160.007 988.812 161.812 992.376 Q163.641 995.918 167.252 995.918 Q170.886 995.918 172.692 992.376 Q174.52 988.812 174.52 981.705 Q174.52 974.576 172.692 971.034 Q170.886 967.469 167.252 967.469 M167.252 963.766 Q173.062 963.766 176.118 968.372 Q179.196 972.955 179.196 981.705 Q179.196 990.432 176.118 995.039 Q173.062 999.622 167.252 999.622 Q161.442 999.622 158.363 995.039 Q155.308 990.432 155.308 981.705 Q155.308 972.955 158.363 968.372 Q161.442 963.766 167.252 963.766 Z" fill="#000000" fill-rule="evenodd" fill-opacity="1" /><path clip-path="url(#clip500)" d="M 0 0 M194.266 967.469 Q190.655 967.469 188.826 971.034 Q187.02 974.576 187.02 981.705 Q187.02 988.812 188.826 992.376 Q190.655 995.918 194.266 995.918 Q197.9 995.918 199.705 992.376 Q201.534 988.812 201.534 981.705 Q201.534 974.576 199.705 971.034 Q197.9 967.469 194.266 967.469 M194.266 963.766 Q200.076 963.766 203.131 968.372 Q206.21 972.955 206.21 981.705 Q206.21 990.432 203.131 995.039 Q200.076 999.622 194.266 999.622 Q188.456 999.622 185.377 995.039 Q182.321 990.432 182.321 981.705 Q182.321 972.955 185.377 968.372 Q188.456 963.766 194.266 963.766 Z" fill="#000000" fill-rule="evenodd" fill-opacity="1" /><path clip-path="url(#clip500)" d="M 0 0 M929.767 816.755 L929.767 825.383 Q925.635 821.535 920.936 819.631 Q916.277 817.727 911.011 817.727 Q900.641 817.727 895.131 824.087 Q889.622 830.406 889.622 842.397 Q889.622 854.347 895.131 860.707 Q900.641 867.026 911.011 867.026 Q916.277 867.026 920.936 865.122 Q925.635 863.218 929.767 859.37 L929.767 867.917 Q925.473 870.834 920.652 872.292 Q915.872 873.751 910.525 873.751 Q896.792 873.751 888.893 865.365 Q880.994 856.94 880.994 842.397 Q880.994 827.814 888.893 819.428 Q896.792 811.002 910.525 811.002 Q915.953 811.002 920.733 812.461 Q925.554 813.878 929.767 816.755 Z" fill="#000000" fill-rule="evenodd" fill-opacity="1" /><path clip-path="url(#clip500)" d="M 0 0 M936.815 854.671 L936.815 827.206 L944.269 827.206 L944.269 854.387 Q944.269 860.828 946.78 864.069 Q949.292 867.269 954.315 867.269 Q960.351 867.269 963.835 863.421 Q967.359 859.573 967.359 852.929 L967.359 827.206 L974.813 827.206 L974.813 872.576 L967.359 872.576 L967.359 865.608 Q964.645 869.74 961.04 871.766 Q957.475 873.751 952.735 873.751 Q944.917 873.751 940.866 868.89 Q936.815 864.029 936.815 854.671 M955.571 826.112 L955.571 826.112 Z" fill="#000000" fill-rule="evenodd" fill-opacity="1" /><path clip-path="url(#clip500)" d="M 0 0 M1017.95 835.915 Q1020.75 830.892 1024.64 828.502 Q1028.53 826.112 1033.79 826.112 Q1040.88 826.112 1044.73 831.095 Q1048.58 836.037 1048.58 845.192 L1048.58 872.576 L1041.09 872.576 L1041.09 845.435 Q1041.09 838.913 1038.78 835.753 Q1036.47 832.594 1031.73 832.594 Q1025.94 832.594 1022.57 836.442 Q1019.21 840.29 1019.21 846.934 L1019.21 872.576 L1011.72 872.576 L1011.72 845.435 Q1011.72 838.872 1009.41 835.753 Q1007.1 832.594 1002.28 832.594 Q996.566 832.594 993.204 836.482 Q989.841 840.331 989.841 846.934 L989.841 872.576 L982.347 872.576 L982.347 827.206 L989.841 827.206 L989.841 834.254 Q992.394 830.082 995.958 828.097 Q999.523 826.112 1004.42 826.112 Q1009.37 826.112 1012.81 828.624 Q1016.29 831.135 1017.95 835.915 Z" fill="#000000" fill-rule="evenodd" fill-opacity="1" /><path clip-path="url(#clip500)" d="M 0 0 M1055.63 854.671 L1055.63 827.206 L1063.08 827.206 L1063.08 854.387 Q1063.08 860.828 1065.59 864.069 Q1068.1 867.269 1073.13 867.269 Q1079.16 867.269 1082.65 863.421 Q1086.17 859.573 1086.17 852.929 L1086.17 827.206 L1093.63 827.206 L1093.63 872.576 L1086.17 872.576 L1086.17 865.608 Q1083.46 869.74 1079.85 871.766 Q1076.29 873.751 1071.55 873.751 Q1063.73 873.751 1059.68 868.89 Q1055.63 864.029 1055.63 854.671 M1074.38 826.112 L1074.38 826.112 Z" fill="#000000" fill-rule="evenodd" fill-opacity="1" /><path clip-path="url(#clip500)" d="M 0 0 M1101.44 809.544 L1108.9 809.544 L1108.9 872.576 L1101.44 872.576 L1101.44 809.544 Z" fill="#000000" fill-rule="evenodd" fill-opacity="1" /><path clip-path="url(#clip500)" d="M 0 0 M1137.33 849.769 Q1128.3 849.769 1124.82 851.835 Q1121.33 853.901 1121.33 858.884 Q1121.33 862.854 1123.93 865.203 Q1126.56 867.512 1131.06 867.512 Q1137.25 867.512 1140.98 863.137 Q1144.75 858.722 1144.75 851.43 L1144.75 849.769 L1137.33 849.769 M1152.2 846.691 L1152.2 872.576 L1144.75 872.576 L1144.75 865.689 Q1142.2 869.821 1138.39 871.806 Q1134.58 873.751 1129.07 873.751 Q1122.1 873.751 1117.97 869.862 Q1113.88 865.933 1113.88 859.37 Q1113.88 851.714 1118.98 847.825 Q1124.13 843.936 1134.3 843.936 L1144.75 843.936 L1144.75 843.207 Q1144.75 838.062 1141.35 835.267 Q1137.98 832.432 1131.87 832.432 Q1127.98 832.432 1124.29 833.363 Q1120.6 834.295 1117.2 836.158 L1117.2 829.272 Q1121.29 827.692 1125.14 826.922 Q1128.99 826.112 1132.64 826.112 Q1142.48 826.112 1147.34 831.216 Q1152.2 836.32 1152.2 846.691 Z" fill="#000000" fill-rule="evenodd" fill-opacity="1" /><path clip-path="url(#clip500)" d="M 0 0 M1167.39 814.324 L1167.39 827.206 L1182.75 827.206 L1182.75 832.999 L1167.39 832.999 L1167.39 857.628 Q1167.39 863.178 1168.89 864.758 Q1170.43 866.338 1175.09 866.338 L1182.75 866.338 L1182.75 872.576 L1175.09 872.576 Q1166.46 872.576 1163.18 869.376 Q1159.9 866.135 1159.9 857.628 L1159.9 832.999 L1154.43 832.999 L1154.43 827.206 L1159.9 827.206 L1159.9 814.324 L1167.39 814.324 Z" fill="#000000" fill-rule="evenodd" fill-opacity="1" /><path clip-path="url(#clip500)" d="M 0 0 M1190.56 827.206 L1198.02 827.206 L1198.02 872.576 L1190.56 872.576 L1190.56 827.206 M1190.56 809.544 L1198.02 809.544 L1198.02 818.983 L1190.56 818.983 L1190.56 809.544 Z" fill="#000000" fill-rule="evenodd" fill-opacity="1" /><path clip-path="url(#clip500)" d="M 0 0 M1200.49 827.206 L1208.39 827.206 L1222.57 865.284 L1236.74 827.206 L1244.64 827.206 L1227.63 872.576 L1217.5 872.576 L1200.49 827.206 Z" fill="#000000" fill-rule="evenodd" fill-opacity="1" /><path clip-path="url(#clip500)" d="M 0 0 M1291.27 848.028 L1291.27 851.673 L1257 851.673 Q1257.48 859.37 1261.62 863.421 Q1265.79 867.431 1273.2 867.431 Q1277.5 867.431 1281.51 866.378 Q1285.56 865.325 1289.53 863.218 L1289.53 870.267 Q1285.52 871.968 1281.3 872.86 Q1277.09 873.751 1272.76 873.751 Q1261.9 873.751 1255.54 867.431 Q1249.22 861.112 1249.22 850.337 Q1249.22 839.197 1255.22 832.675 Q1261.25 826.112 1271.46 826.112 Q1280.62 826.112 1285.92 832.026 Q1291.27 837.9 1291.27 848.028 M1283.82 845.84 Q1283.73 839.723 1280.37 836.077 Q1277.05 832.432 1271.54 832.432 Q1265.3 832.432 1261.54 835.956 Q1257.81 839.48 1257.24 845.881 L1283.82 845.84 Z" fill="#000000" fill-rule="evenodd" fill-opacity="1" /><path clip-path="url(#clip500)" d="M 0 0 M1355.31 834.092 L1355.31 809.544 L1362.77 809.544 L1362.77 872.576 L1355.31 872.576 L1355.31 865.77 Q1352.96 869.821 1349.36 871.806 Q1345.79 873.751 1340.77 873.751 Q1332.55 873.751 1327.36 867.188 Q1322.22 860.626 1322.22 849.931 Q1322.22 839.237 1327.36 832.675 Q1332.55 826.112 1340.77 826.112 Q1345.79 826.112 1349.36 828.097 Q1352.96 830.042 1355.31 834.092 M1329.91 849.931 Q1329.91 858.155 1333.28 862.854 Q1336.68 867.512 1342.59 867.512 Q1348.51 867.512 1351.91 862.854 Q1355.31 858.155 1355.31 849.931 Q1355.31 841.708 1351.91 837.05 Q1348.51 832.351 1342.59 832.351 Q1336.68 832.351 1333.28 837.05 Q1329.91 841.708 1329.91 849.931 Z" fill="#000000" fill-rule="evenodd" fill-opacity="1" /><path clip-path="url(#clip500)" d="M 0 0 M1370.59 827.206 L1378.04 827.206 L1378.04 872.576 L1370.59 872.576 L1370.59 827.206 M1370.59 809.544 L1378.04 809.544 L1378.04 818.983 L1370.59 818.983 L1370.59 809.544 Z" fill="#000000" fill-rule="evenodd" fill-opacity="1" /><path clip-path="url(#clip500)" d="M 0 0 M1414.78 828.543 L1414.78 835.591 Q1411.62 833.971 1408.22 833.161 Q1404.82 832.351 1401.17 832.351 Q1395.62 832.351 1392.83 834.052 Q1390.07 835.753 1390.07 839.156 Q1390.07 841.749 1392.06 843.247 Q1394.04 844.706 1400.04 846.043 L1402.59 846.61 Q1410.53 848.311 1413.85 851.43 Q1417.21 854.509 1417.21 860.059 Q1417.21 866.378 1412.19 870.064 Q1407.21 873.751 1398.46 873.751 Q1394.81 873.751 1390.84 873.022 Q1386.91 872.333 1382.54 870.915 L1382.54 863.218 Q1386.67 865.365 1390.68 866.459 Q1394.69 867.512 1398.62 867.512 Q1403.88 867.512 1406.72 865.73 Q1409.56 863.907 1409.56 860.626 Q1409.56 857.588 1407.49 855.967 Q1405.46 854.347 1398.54 852.848 L1395.94 852.24 Q1389.02 850.782 1385.94 847.784 Q1382.86 844.746 1382.86 839.48 Q1382.86 833.08 1387.4 829.596 Q1391.93 826.112 1400.28 826.112 Q1404.41 826.112 1408.06 826.72 Q1411.7 827.327 1414.78 828.543 Z" fill="#000000" fill-rule="evenodd" fill-opacity="1" /><path clip-path="url(#clip500)" d="M 0 0 M1432.4 814.324 L1432.4 827.206 L1447.76 827.206 L1447.76 832.999 L1432.4 832.999 L1432.4 857.628 Q1432.4 863.178 1433.9 864.758 Q1435.44 866.338 1440.1 866.338 L1447.76 866.338 L1447.76 872.576 L1440.1 872.576 Q1431.47 872.576 1428.19 869.376 Q1424.91 866.135 1424.91 857.628 L1424.91 832.999 L1419.44 832.999 L1419.44 827.206 L1424.91 827.206 L1424.91 814.324 L1432.4 814.324 Z" fill="#000000" fill-rule="evenodd" fill-opacity="1" /><path clip-path="url(#clip500)" d="M 0 0 M1481.86 834.173 Q1480.61 833.444 1479.11 833.12 Q1477.65 832.756 1475.87 832.756 Q1469.55 832.756 1466.15 836.888 Q1462.78 840.979 1462.78 848.676 L1462.78 872.576 L1455.29 872.576 L1455.29 827.206 L1462.78 827.206 L1462.78 834.254 Q1465.13 830.123 1468.9 828.138 Q1472.67 826.112 1478.06 826.112 Q1478.83 826.112 1479.76 826.234 Q1480.69 826.315 1481.82 826.517 L1481.86 834.173 Z" fill="#000000" fill-rule="evenodd" fill-opacity="1" /><path clip-path="url(#clip500)" d="M 0 0 M1489.68 827.206 L1497.14 827.206 L1497.14 872.576 L1489.68 872.576 L1489.68 827.206 M1489.68 809.544 L1497.14 809.544 L1497.14 818.983 L1489.68 818.983 L1489.68 809.544 Z" fill="#000000" fill-rule="evenodd" fill-opacity="1" /><path clip-path="url(#clip500)" d="M 0 0 M1537.52 849.931 Q1537.52 841.708 1534.12 837.05 Q1530.76 832.351 1524.84 832.351 Q1518.93 832.351 1515.53 837.05 Q1512.17 841.708 1512.17 849.931 Q1512.17 858.155 1515.53 862.854 Q1518.93 867.512 1524.84 867.512 Q1530.76 867.512 1534.12 862.854 Q1537.52 858.155 1537.52 849.931 M1512.17 834.092 Q1514.51 830.042 1518.08 828.097 Q1521.68 826.112 1526.67 826.112 Q1534.93 826.112 1540.08 832.675 Q1545.26 839.237 1545.26 849.931 Q1545.26 860.626 1540.08 867.188 Q1534.93 873.751 1526.67 873.751 Q1521.68 873.751 1518.08 871.806 Q1514.51 869.821 1512.17 865.77 L1512.17 872.576 L1504.67 872.576 L1504.67 809.544 L1512.17 809.544 L1512.17 834.092 Z" fill="#000000" fill-rule="evenodd" fill-opacity="1" /><path clip-path="url(#clip500)" d="M 0 0 M1552.31 854.671 L1552.31 827.206 L1559.76 827.206 L1559.76 854.387 Q1559.76 860.828 1562.27 864.069 Q1564.79 867.269 1569.81 867.269 Q1575.85 867.269 1579.33 863.421 Q1582.85 859.573 1582.85 852.929 L1582.85 827.206 L1590.31 827.206 L1590.31 872.576 L1582.85 872.576 L1582.85 865.608 Q1580.14 869.74 1576.53 871.766 Q1572.97 873.751 1568.23 873.751 Q1560.41 873.751 1556.36 868.89 Q1552.31 864.029 1552.31 854.671 M1571.07 826.112 L1571.07 826.112 Z" fill="#000000" fill-rule="evenodd" fill-opacity="1" /><path clip-path="url(#clip500)" d="M 0 0 M1605.5 814.324 L1605.5 827.206 L1620.85 827.206 L1620.85 832.999 L1605.5 832.999 L1605.5 857.628 Q1605.5 863.178 1607 864.758 Q1608.54 866.338 1613.19 866.338 L1620.85 866.338 L1620.85 872.576 L1613.19 872.576 Q1604.57 872.576 1601.28 869.376 Q1598 866.135 1598 857.628 L1598 832.999 L1592.53 832.999 L1592.53 827.206 L1598 827.206 L1598 814.324 L1605.5 814.324 Z" fill="#000000" fill-rule="evenodd" fill-opacity="1" /><path clip-path="url(#clip500)" d="M 0 0 M1628.67 827.206 L1636.12 827.206 L1636.12 872.576 L1628.67 872.576 L1628.67 827.206 M1628.67 809.544 L1636.12 809.544 L1636.12 818.983 L1628.67 818.983 L1628.67 809.544 Z" fill="#000000" fill-rule="evenodd" fill-opacity="1" /><path clip-path="url(#clip500)" d="M 0 0 M1661.52 832.432 Q1655.53 832.432 1652.04 837.131 Q1648.56 841.789 1648.56 849.931 Q1648.56 858.074 1652 862.773 Q1655.49 867.431 1661.52 867.431 Q1667.48 867.431 1670.96 862.732 Q1674.44 858.033 1674.44 849.931 Q1674.44 841.87 1670.96 837.171 Q1667.48 832.432 1661.52 832.432 M1661.52 826.112 Q1671.24 826.112 1676.79 832.432 Q1682.34 838.751 1682.34 849.931 Q1682.34 861.071 1676.79 867.431 Q1671.24 873.751 1661.52 873.751 Q1651.76 873.751 1646.21 867.431 Q1640.7 861.071 1640.7 849.931 Q1640.7 838.751 1646.21 832.432 Q1651.76 826.112 1661.52 826.112 Z" fill="#000000" fill-rule="evenodd" fill-opacity="1" /><path clip-path="url(#clip500)" d="M 0 0 M1727.88 845.192 L1727.88 872.576 L1720.42 872.576 L1720.42 845.435 Q1720.42 838.994 1717.91 835.794 Q1715.4 832.594 1710.38 832.594 Q1704.34 832.594 1700.86 836.442 Q1697.37 840.29 1697.37 846.934 L1697.37 872.576 L1689.88 872.576 L1689.88 827.206 L1697.37 827.206 L1697.37 834.254 Q1700.05 830.163 1703.65 828.138 Q1707.3 826.112 1712.04 826.112 Q1719.85 826.112 1723.87 830.973 Q1727.88 835.794 1727.88 845.192 Z" fill="#000000" fill-rule="evenodd" fill-opacity="1" /><path clip-path="url(#clip500)" d="M 0 0 M1321.05 1538.88 L1308.16 1556.22 L1321.72 1574.52 L1314.81 1574.52 L1304.43 1560.52 L1294.06 1574.52 L1287.15 1574.52 L1301 1555.87 L1288.33 1538.88 L1295.24 1538.88 L1304.69 1551.58 L1314.14 1538.88 L1321.05 1538.88 Z" fill="#000000" fill-rule="evenodd" fill-opacity="1" /><path clip-path="url(#clip500)" d="M 0 0 M27.7642 1227.02 L27.7642 1199.71 L33.175 1199.71 L33.175 1220.59 L47.1796 1220.59 L47.1796 1201.75 L52.5904 1201.75 L52.5904 1220.59 L75.2842 1220.59 L75.2842 1227.02 L27.7642 1227.02 Z" fill="#000000" fill-rule="evenodd" fill-opacity="1" /><path clip-path="url(#clip500)" d="M 0 0 M25.8226 1179.5 Q33.1432 1183.77 40.3046 1185.84 Q47.466 1187.91 54.8184 1187.91 Q62.1708 1187.91 69.3959 1185.84 Q76.5891 1183.74 83.8779 1179.5 L83.8779 1184.59 Q76.3982 1189.37 69.1731 1191.76 Q61.948 1194.11 54.8184 1194.11 Q47.7206 1194.11 40.5274 1191.76 Q33.3342 1189.4 25.8226 1184.59 L25.8226 1179.5 Z" fill="#000000" fill-rule="evenodd" fill-opacity="1" /><path clip-path="url(#clip500)" d="M 0 0 M39.6362 1143.73 L56.9828 1156.62 L75.2842 1143.06 L75.2842 1149.97 L61.2796 1160.34 L75.2842 1170.72 L75.2842 1177.62 L56.6326 1163.78 L39.6362 1176.45 L39.6362 1169.54 L52.3358 1160.09 L39.6362 1150.63 L39.6362 1143.73 Z" fill="#000000" fill-rule="evenodd" fill-opacity="1" /><path clip-path="url(#clip500)" d="M 0 0 M25.8226 1137.84 L25.8226 1132.75 Q33.3342 1127.97 40.5274 1125.62 Q47.7206 1123.23 54.8184 1123.23 Q61.948 1123.23 69.1731 1125.62 Q76.3982 1127.97 83.8779 1132.75 L83.8779 1137.84 Q76.5891 1133.61 69.3959 1131.54 Q62.1708 1129.44 54.8184 1129.44 Q47.466 1129.44 40.3046 1131.54 Q33.1432 1133.61 25.8226 1137.84 Z" fill="#000000" fill-rule="evenodd" fill-opacity="1" /><polyline clip-path="url(#clip503)" style="stroke:#808080; stroke-width:12; stroke-opacity:0.5; fill:none" points="
  295.544,1436.86 295.544,1407.64 
  "/>
<polyline clip-path="url(#clip503)" style="stroke:#808080; stroke-width:12; stroke-opacity:0.5; fill:none" points="
  363.884,1436.86 363.884,1343.1 
  "/>
<polyline clip-path="url(#clip503)" style="stroke:#808080; stroke-width:12; stroke-opacity:0.5; fill:none" points="
  394.019,1436.86 394.019,1228.52 
  "/>
<polyline clip-path="url(#clip503)" style="stroke:#808080; stroke-width:12; stroke-opacity:0.5; fill:none" points="
  987.054,1436.86 987.054,1177.76 
  "/>
<polyline clip-path="url(#clip503)" style="stroke:#808080; stroke-width:12; stroke-opacity:0.5; fill:none" points="
  1258.54,1436.86 1258.54,1087.97 
  "/>
<polyline clip-path="url(#clip503)" style="stroke:#808080; stroke-width:12; stroke-opacity:0.5; fill:none" points="
  1629.74,1436.86 1629.74,1038.65 
  "/>
<polyline clip-path="url(#clip503)" style="stroke:#808080; stroke-width:12; stroke-opacity:0.5; fill:none" points="
  2249.17,1436.86 2249.17,1006 
  "/>
<polyline clip-path="url(#clip503)" style="stroke:#808080; stroke-width:12; stroke-opacity:0.5; fill:none" points="
  2313.33,1436.86 2313.33,981.671 
  "/>
<polyline clip-path="url(#clip503)" style="stroke:#00a98d; stroke-width:0; stroke-opacity:1; fill:none" points="
  295.544,1407.64 363.884,1343.1 394.019,1228.52 
  "/>
<circle clip-path="url(#clip503)" cx="295.544" cy="1407.64" r="14" fill="#8b0000" fill-rule="evenodd" fill-opacity="1" stroke="#000000" stroke-opacity="1" stroke-width="3.2"/>
<circle clip-path="url(#clip503)" cx="363.884" cy="1343.1" r="14" fill="#8b0000" fill-rule="evenodd" fill-opacity="1" stroke="#000000" stroke-opacity="1" stroke-width="3.2"/>
<circle clip-path="url(#clip503)" cx="394.019" cy="1228.52" r="14" fill="#8b0000" fill-rule="evenodd" fill-opacity="1" stroke="#000000" stroke-opacity="1" stroke-width="3.2"/>
<polyline clip-path="url(#clip503)" style="stroke:#8e971d; stroke-width:0; stroke-opacity:1; fill:none" points="
  987.054,1177.76 1258.54,1087.97 1629.74,1038.65 2249.17,1006 2313.33,981.671 
  "/>
<circle clip-path="url(#clip503)" cx="987.054" cy="1177.76" r="14" fill="#8e971d" fill-rule="evenodd" fill-opacity="1" stroke="#000000" stroke-opacity="1" stroke-width="3.2"/>
<circle clip-path="url(#clip503)" cx="1258.54" cy="1087.97" r="14" fill="#8e971d" fill-rule="evenodd" fill-opacity="1" stroke="#000000" stroke-opacity="1" stroke-width="3.2"/>
<circle clip-path="url(#clip503)" cx="1629.74" cy="1038.65" r="14" fill="#8e971d" fill-rule="evenodd" fill-opacity="1" stroke="#000000" stroke-opacity="1" stroke-width="3.2"/>
<circle clip-path="url(#clip503)" cx="2249.17" cy="1006" r="14" fill="#8e971d" fill-rule="evenodd" fill-opacity="1" stroke="#000000" stroke-opacity="1" stroke-width="3.2"/>
<circle clip-path="url(#clip503)" cx="2313.33" cy="981.671" r="14" fill="#8e971d" fill-rule="evenodd" fill-opacity="1" stroke="#000000" stroke-opacity="1" stroke-width="3.2"/>
<polyline clip-path="url(#clip503)" style="stroke:#ff8c00; stroke-width:8; stroke-opacity:1; fill:none" points="
  295.544,1323.06 363.884,1323.06 394.019,1323.06 987.054,1323.06 1258.54,1323.06 1629.74,1323.06 2249.17,1323.06 2313.33,1323.06 
  "/>
<path clip-path="url(#clip503)" d="M394.019 1412.86 L370.019 1436.86 L394.019 1460.86 L418.019 1436.86 L394.019 1412.86 Z" fill="#00008b" fill-rule="evenodd" fill-opacity="1" stroke="#000000" stroke-opacity="1" stroke-width="3.2"/>
<path clip-path="url(#clip500)" d="
M2460.45 1265.85 L2832.76 1265.85 L2832.76 1023.93 L2460.45 1023.93  Z
  " fill="#ffffff" fill-rule="evenodd" fill-opacity="1"/>
<polyline clip-path="url(#clip500)" style="stroke:#000000; stroke-width:4; stroke-opacity:1; fill:none" points="
  2460.45,1265.85 2832.76,1265.85 2832.76,1023.93 2460.45,1023.93 2460.45,1265.85 
  "/>
<polyline clip-path="url(#clip500)" style="stroke:#00a98d; stroke-width:4; stroke-opacity:1; fill:none" points="
  2489.25,1084.41 2662.05,1084.41 
  "/>
<circle clip-path="url(#clip500)" cx="2590.05" cy="1084.41" r="23" fill="#8b0000" fill-rule="evenodd" fill-opacity="1" stroke="#000000" stroke-opacity="1" stroke-width="5.12"/>
<circle clip-path="url(#clip500)" cx="2590.05" cy="1084.41" r="23" fill="#8b0000" fill-rule="evenodd" fill-opacity="1" stroke="#000000" stroke-opacity="1" stroke-width="5.12"/>
<circle clip-path="url(#clip500)" cx="2590.05" cy="1084.41" r="23" fill="#8b0000" fill-rule="evenodd" fill-opacity="1" stroke="#000000" stroke-opacity="1" stroke-width="5.12"/>
<path clip-path="url(#clip500)" d="M 0 0 M2690.85 1067.13 L2720.09 1067.13 L2720.09 1071.06 L2707.82 1071.06 L2707.82 1101.69 L2703.12 1101.69 L2703.12 1071.06 L2690.85 1071.06 L2690.85 1067.13 Z" fill="#000000" fill-rule="evenodd" fill-opacity="1" /><path clip-path="url(#clip500)" d="M 0 0 M2728.49 1088.65 Q2723.33 1088.65 2721.34 1089.83 Q2719.35 1091.01 2719.35 1093.86 Q2719.35 1096.13 2720.83 1097.47 Q2722.33 1098.79 2724.9 1098.79 Q2728.44 1098.79 2730.57 1096.29 Q2732.73 1093.77 2732.73 1089.6 L2732.73 1088.65 L2728.49 1088.65 M2736.98 1086.89 L2736.98 1101.69 L2732.73 1101.69 L2732.73 1097.75 Q2731.27 1100.11 2729.09 1101.25 Q2726.92 1102.36 2723.77 1102.36 Q2719.79 1102.36 2717.42 1100.14 Q2715.09 1097.89 2715.09 1094.14 Q2715.09 1089.76 2718 1087.54 Q2720.94 1085.32 2726.75 1085.32 L2732.73 1085.32 L2732.73 1084.9 Q2732.73 1081.96 2730.78 1080.37 Q2728.86 1078.75 2725.36 1078.75 Q2723.14 1078.75 2721.04 1079.28 Q2718.93 1079.81 2716.98 1080.88 L2716.98 1076.94 Q2719.32 1076.04 2721.52 1075.6 Q2723.72 1075.14 2725.8 1075.14 Q2731.43 1075.14 2734.21 1078.05 Q2736.98 1080.97 2736.98 1086.89 Z" fill="#000000" fill-rule="evenodd" fill-opacity="1" /><path clip-path="url(#clip500)" d="M 0 0 M2741.45 1075.76 L2745.71 1075.76 L2745.71 1101.69 L2741.45 1101.69 L2741.45 1075.76 M2741.45 1065.67 L2745.71 1065.67 L2745.71 1071.06 L2741.45 1071.06 L2741.45 1065.67 Z" fill="#000000" fill-rule="evenodd" fill-opacity="1" /><path clip-path="url(#clip500)" d="M 0 0 M2750.18 1065.67 L2754.44 1065.67 L2754.44 1101.69 L2750.18 1101.69 L2750.18 1065.67 Z" fill="#000000" fill-rule="evenodd" fill-opacity="1" /><polyline clip-path="url(#clip500)" style="stroke:#ff8c00; stroke-width:4; stroke-opacity:1; fill:none" points="
  2489.25,1144.89 2662.05,1144.89 
  "/>
<path clip-path="url(#clip500)" d="M 0 0 M2707.82 1150.11 L2706.8 1144.76 Q2705.76 1139.27 2701.64 1139.27 Q2698.54 1139.27 2697.12 1141.82 Q2695.34 1145.01 2695.34 1149.23 Q2695.34 1154.32 2697.08 1156.75 Q2698.84 1159.23 2701.64 1159.23 Q2704.74 1159.23 2706.41 1154.3 L2707.82 1150.11 M2710.2 1143.02 L2712.49 1136.24 L2716.29 1136.24 L2711.55 1150.29 L2712.47 1155.36 Q2712.68 1156.49 2713.49 1157.44 Q2714.44 1158.55 2715.18 1158.55 L2717.22 1158.55 L2717.22 1162.17 L2714.67 1162.17 Q2712.49 1162.17 2710.55 1160.22 Q2709.6 1159.25 2709.21 1157.21 Q2708.14 1159.78 2705.97 1161.8 Q2704.95 1162.74 2701.64 1162.74 Q2696.2 1162.74 2693.56 1159.23 Q2690.85 1155.59 2690.85 1149.23 Q2690.85 1142.42 2693.79 1139.23 Q2697.05 1135.66 2701.64 1135.66 Q2708.84 1135.66 2710.2 1143.02 Z" fill="#000000" fill-rule="evenodd" fill-opacity="1" /><polyline clip-path="url(#clip500)" style="stroke:#9b7fe8; stroke-width:4; stroke-opacity:1; fill:none" points="
  2489.25,1205.37 2662.05,1205.37 
  "/>
<path clip-path="url(#clip500)" d="M2590.05 1179.77 L2564.45 1205.37 L2590.05 1230.97 L2615.65 1205.37 L2590.05 1179.77 Z" fill="#00008b" fill-rule="evenodd" fill-opacity="1" stroke="#000000" stroke-opacity="1" stroke-width="3.41333"/>
<path clip-path="url(#clip500)" d="M 0 0 M2704.05 1222.65 L2690.85 1188.09 L2695.74 1188.09 L2706.68 1217.18 L2717.66 1188.09 L2722.52 1188.09 L2709.35 1222.65 L2704.05 1222.65 Z" fill="#000000" fill-rule="evenodd" fill-opacity="1" /><path clip-path="url(#clip500)" d="M 0 0 M2735.09 1209.61 Q2729.92 1209.61 2727.93 1210.79 Q2725.94 1211.97 2725.94 1214.82 Q2725.94 1217.09 2727.42 1218.43 Q2728.93 1219.75 2731.5 1219.75 Q2735.04 1219.75 2737.17 1217.25 Q2739.32 1214.73 2739.32 1210.56 L2739.32 1209.61 L2735.09 1209.61 M2743.58 1207.85 L2743.58 1222.65 L2739.32 1222.65 L2739.32 1218.71 Q2737.86 1221.07 2735.69 1222.21 Q2733.51 1223.32 2730.36 1223.32 Q2726.38 1223.32 2724.02 1221.1 Q2721.68 1218.85 2721.68 1215.1 Q2721.68 1210.72 2724.6 1208.5 Q2727.54 1206.28 2733.35 1206.28 L2739.32 1206.28 L2739.32 1205.86 Q2739.32 1202.92 2737.38 1201.33 Q2735.46 1199.71 2731.96 1199.71 Q2729.74 1199.71 2727.63 1200.24 Q2725.53 1200.77 2723.58 1201.84 L2723.58 1197.9 Q2725.92 1197 2728.12 1196.56 Q2730.32 1196.1 2732.4 1196.1 Q2738.03 1196.1 2740.8 1199.01 Q2743.58 1201.93 2743.58 1207.85 Z" fill="#000000" fill-rule="evenodd" fill-opacity="1" /><path clip-path="url(#clip500)" d="M 0 0 M2764.62 1206.44 Q2766.13 1206.95 2767.54 1208.62 Q2768.98 1210.28 2770.41 1213.2 L2775.16 1222.65 L2770.13 1222.65 L2765.71 1213.78 Q2764 1210.31 2762.38 1209.17 Q2760.78 1208.04 2758 1208.04 L2752.91 1208.04 L2752.91 1222.65 L2748.23 1222.65 L2748.23 1188.09 L2758.79 1188.09 Q2764.72 1188.09 2767.63 1190.56 Q2770.55 1193.04 2770.55 1198.04 Q2770.55 1201.3 2769.02 1203.46 Q2767.52 1205.61 2764.62 1206.44 M2752.91 1191.93 L2752.91 1204.2 L2758.79 1204.2 Q2762.17 1204.2 2763.88 1202.65 Q2765.62 1201.07 2765.62 1198.04 Q2765.62 1195.01 2763.88 1193.48 Q2762.17 1191.93 2758.79 1191.93 L2752.91 1191.93 Z" fill="#000000" fill-rule="evenodd" fill-opacity="1" /></svg>
